/* XPM */
static char *1downarrow[] = {
/* columns rows colors chars-per-pixel */
"22 22 121 2",
"   c black",
".  c #772D00",
"X  c #A24600",
"o  c #AA4B00",
"O  c #CC5E00",
"+  c #CC6002",
"@  c #CC6004",
"#  c #CC650C",
"$  c #D56300",
"%  c #D56708",
"&  c #D5690B",
"*  c #D5690C",
"=  c #EE7200",
"-  c #EE7302",
";  c #EE7708",
":  c #EE7B11",
">  c #EE7E17",
",  c #EE7F18",
"<  c #FF7C00",
"1  c #FF7D02",
"2  c #FF7E03",
"3  c #FF7E04",
"4  c #FF7F06",
"5  c #FF8008",
"6  c #FF8009",
"7  c #FF810A",
"8  c #FF830E",
"9  c #FF8410",
"0  c #FF8512",
"q  c #FF8817",
"w  c #FF8919",
"e  c #FF8A1B",
"r  c #FF8B1E",
"t  c #FF8C1F",
"y  c #EE8322",
"u  c #EE8525",
"i  c #EE882A",
"p  c #EE8B30",
"a  c #FF8C20",
"s  c #FF8D21",
"d  c #FF8F24",
"f  c #FF9129",
"g  c #FF932C",
"h  c #FF942E",
"j  c #FF942F",
"k  c #F79030",
"l  c #FF9530",
"z  c #FF9531",
"x  c #FF9632",
"c  c #FF9734",
"v  c #FF9836",
"b  c #FF9837",
"n  c #FF9838",
"m  c #FF9939",
"M  c #FF9A39",
"N  c #FF9F43",
"B  c #FFA045",
"V  c #FFA047",
"C  c #FFA149",
"Z  c #FFA24A",
"A  c #FFA54F",
"S  c #FFA753",
"D  c #FFA855",
"F  c #FFAC5D",
"G  c #FFAD5F",
"H  c #FFAF63",
"J  c #FFB065",
"K  c #FFB46C",
"L  c #FFB670",
"P  c #FFB774",
"I  c #FFBB7A",
"U  c #FFBC7D",
"Y  c #FFBD7E",
"T  c #FFBD7F",
"R  c #FFBF82",
"E  c #FFC084",
"W  c #FFC288",
"Q  c #FFC38A",
"!  c #FFC38B",
"~  c #FFC58D",
"^  c #FFC58F",
"/  c #FFC691",
"(  c #FFC793",
")  c #FFC895",
"_  c #FFCB99",
"`  c #FFCC9C",
"'  c #FFCD9C",
"]  c #FFCE9F",
"[  c #FFD2A7",
"{  c #FFD2A8",
"}  c #FFD3A9",
"|  c #FFD3AA",
" . c #FFD4AC",
".. c #FFD8B2",
"X. c #FFD8B3",
"o. c #FFD8B4",
"O. c #FFD9B5",
"+. c #FFDAB7",
"@. c #FFDBB9",
"#. c #FFDCBB",
"$. c #FFDDBC",
"%. c #FFDEC0",
"&. c #FFDFC0",
"*. c #FFE0C3",
"=. c #FFE2C6",
"-. c #FFE4CA",
";. c #FFE7D1",
":. c #FFEAD6",
">. c #FFEBD9",
",. c #FFECDA",
"<. c #FFEDDD",
"1. c #FFEFDF",
"2. c #FFEFE0",
"3. c #FFF1E4",
"4. c #FFF3E7",
"5. c #FFF7EF",
"6. c #FFF8F1",
"7. c #FFF8F2",
"8. c #FFF9F3",
"9. c gray100",
"0. c None",
/* pixels */
"0.0.0.0.0.0.. . . . . . . . . . 0.0.0.0.0.0.",
"0.0.0.0.. . . o & i C D y % o . . . 0.0.0.0.",
"0.0.0.. . X k ` <.4.<.<.,.-.W u X . . 0.0.0.",
"0.0.. . # ! 4.1.=.o.| [  .X.$.$.F @ . . 0.0.",
"0.. . # [ 4.;.+.[ ` ` ` _ ` _ `  .P + . . 0.",
"0.. X W 4.%.| | [ ! ! ! W ! ! ! ! ) M X . 0.",
". . p :.$.] ] ` T T U T T U U U U U I ; . . ",
". o / -.( ( ( U L L L L L L L L L L L l o . ",
". * =.] o.6.9.9.9.9.9.9.9.9.9.9.9.>.K C $ . ",
". i +.H 9.9.9.9.9.9.9.9.9.9.9.9.9.9.` S = . ",
". N ! C 8.9.9.9.9.9.9.9.9.9.9.9.9.9.T N < . ",
". M H M T 6.9.9.9.9.9.9.9.9.9.9.9.o.l e < . ",
". y S 3 0 N 6.9.9.9.9.9.9.9.9.9.] 4 < 4 = . ",
". % G < < < l 5.9.9.9.9.9.9.9.` < < < 4 $ . ",
". o S 8 < < < l 5.9.9.9.9.9.] < < < 4 4 o . ",
". . , c < < < < l 5.9.9.9.] < < < < r = . . ",
"0.. X c s < < < < l 3.9.` < < < 3 s 0 X . 0.",
"0.. . @ f d 4 < < < < < < < < 4 d e O . . 0.",
"0.0.. . O r c s 4 < < < < 4 d l r O . . 0.0.",
"0.0.0.. . X : j M c g g M M l : X . . 0.0.0.",
"0.0.0.0.. . . o * > r s , * o . . . 0.0.0.0.",
"0.0.0.0.0.0.. . . . . . . . . . 0.0.0.0.0.0."
};
