/* XPM */
static char *1uparrow[] = {
/* columns rows colors chars-per-pixel */
"22 22 122 2",
"   c black",
".  c #772D00",
"X  c #A24600",
"o  c #AA4B00",
"O  c #CC5E00",
"+  c #CC6002",
"@  c #CC6004",
"#  c #CC650C",
"$  c #D56300",
"%  c #D56708",
"&  c #D5690B",
"*  c #D5690C",
"=  c #EE7200",
"-  c #EE7302",
";  c #EE7708",
":  c #EE7B11",
">  c #EE7E17",
",  c #EE7F18",
"<  c #FF7C00",
"1  c #FF7D02",
"2  c #FF7E04",
"3  c #FF7F06",
"4  c #FF8008",
"5  c #FF8009",
"6  c #FF810A",
"7  c #FF830E",
"8  c #FF8410",
"9  c #FF8817",
"0  c #FF8919",
"q  c #FF8A1B",
"w  c #FF8B1E",
"e  c #FF8C1F",
"r  c #EE8322",
"t  c #EE8525",
"y  c #EE882A",
"u  c #EE8B30",
"i  c #FF8C20",
"p  c #FF8D21",
"a  c #FF8F24",
"s  c #FF9129",
"d  c #FF932C",
"f  c #FF942E",
"g  c #FF942F",
"h  c #F79030",
"j  c #FF9531",
"k  c #FF9632",
"l  c #FF9734",
"z  c #FF9836",
"x  c #FF9837",
"c  c #FF9838",
"v  c #FF9A39",
"b  c #FFA045",
"n  c #FFA047",
"m  c #FFA149",
"M  c #FFA24A",
"N  c #FFA54F",
"B  c #FFA652",
"V  c #FFA753",
"C  c #FFA855",
"Z  c #FFAC5D",
"A  c #FFAC5E",
"S  c #FFAD5F",
"D  c #FFAD60",
"F  c #FFAF62",
"G  c #FFAF63",
"H  c #FFB065",
"J  c #FFB26A",
"K  c #FFB670",
"L  c #FFB774",
"P  c #FFB875",
"I  c #FFBB7A",
"U  c #FFBD7E",
"Y  c #FFBE80",
"T  c #FFBF83",
"R  c #FFC186",
"E  c #FFC287",
"W  c #FFC288",
"Q  c #FFC38A",
"!  c #FFC38B",
"~  c #FFC58D",
"^  c #FFC691",
"/  c #FFC793",
"(  c #FFC895",
")  c #FFCB99",
"_  c #FFCC9C",
"`  c #FFCD9C",
"'  c #FFCE9F",
"]  c #FFD2A7",
"[  c #FFD2A8",
"{  c #FFD3A9",
"}  c #FFD3AA",
"|  c #FFD4AC",
" . c #FFD8B2",
".. c #FFD8B4",
"X. c #FFD9B5",
"o. c #FFDAB7",
"O. c #FFDBB9",
"+. c #FFDCBB",
"@. c #FFDDBC",
"#. c #FFDEC0",
"$. c #FFDFC0",
"%. c #FFE0C3",
"&. c #FFE2C6",
"*. c #FFE4CA",
"=. c #FFE7D1",
"-. c #FFEAD6",
";. c #FFECDA",
":. c #FFEDDD",
">. c #FFEFDF",
",. c #FFEFE0",
"<. c #FFF1E3",
"1. c #FFF1E4",
"2. c #FFF2E5",
"3. c #FFF3E7",
"4. c #FFF7EF",
"5. c #FFF9F3",
"6. c #FFF9F4",
"7. c #FFFAF5",
"8. c #FFFAF6",
"9. c #FFFBF8",
"0. c gray100",
"q. c None",
/* pixels */
"q.q.q.q.q.q.. . . . . . . . . . q.q.q.q.q.q.",
"q.q.q.q.. . . o & y m C r % o . . . q.q.q.q.",
"q.q.q.. . X h _ :.3.:.:.;.*.W t X . . q.q.q.",
"q.q.. . # ! 3.>.&...} ] |  .@.@.S @ . . q.q.",
"q.. . # ] 3.=.o.] ) ) ) ) ) ) _ { L + . . q.",
"q.. X W 3.#.} } } +.9.<./ ! ! ! Q ( l X . q.",
". . u -.@.' ' _ ..0.0.0.3.T U U U U U ; . . ",
". o ^ *./ / / ..0.0.0.0.0.3.T K L L J g o . ",
". & &._ T Q ..0.0.0.0.0.0.0.8.U D G G m $ . ",
". y +.H D _ 0.0.0.0.0.0.0.0.0.8.P V C N = . ",
". b Q m P 0.0.0.0.0.0.0.0.0.0.0.8.J m b < . ",
". l D B 8.0.0.0.0.0.0.0.0.0.0.0.0.8.d 0 < . ",
". r C D 0.0.0.0.0.0.0.0.0.0.0.0.0.0.< < = . ",
". % S i 4.0.0.0.0.0.0.0.0.0.0.0.0.' < 6 $ . ",
". o B 7 < < < < < < < < < < < < < < 6 6 o . ",
". . , l < < < < < < < < < < < < < < 9 - . . ",
"q.. X l i < < < < < < < < < < < < i 8 X . q.",
"q.. . @ d a 3 < < < < < < < < 6 a q O . . q.",
"q.q.. . O i k i 6 < < < < 6 i l i O . . q.q.",
"q.q.q.. . X : g v l d d v v d : X . . q.q.q.",
"q.q.q.q.. . . o * > i e > * o . . . q.q.q.q.",
"q.q.q.q.q.q.. . . . . . . . . . q.q.q.q.q.q."
};
