/* XPM */
static char *noname[] = {
/* width height ncolors chars_per_pixel */
"24 24 16 1",
/* colors */
"` c #000000",
"a c #A3A3A3",
"b c #666666",
"c c #858585",
"d c #757575",
"e c #282828",
"f c #515151",
"g c #3D3D3D",
"h c #C2C2C2",
"i c #949494",
"j c #666666",
"k c #6B737B",
"l c #282828",
"m c #D1D1D1",
"n c #000000",
"o c #B3B3B3",
/* pixels */
"mmmmmmmmmmmmmmmmmmmmmmmm",
"mmmmmmmmmmmmmmmmmmmmmmmm",
"mmmmmmmmmmmmmmmmmmmmmmmm",
"mmmmmmmmmmmmmmmmmmmmmmmm",
"mmmmmmmmmmmmmmmdlammmmmm",
"mmmmmmmmmmmmmmk``cmmmmmm",
"mmmmmmmmmmmmmd``dmmmmmmm",
"mmmmmmmmmmmhj``bmmmmmmmm",
"mmmmmmmmmmhb``bedmmmmmmm",
"mmmmmmmmmmf``ihl`fhmmmmm",
"mmmmmmmmog``ammg``ammmmm",
"mmmmmmmog``ammmfljhmmmmm",
"mmmmmmoe``ammmmmhgmmmmmm",
"mmmmmoe``ommmmmmmjammmmm",
"mmmman``hmmmmmmmmicmmmmm",
"mmman``ammmmmmmmmmjhmmmm",
"mma```````````````````mm",
"mm````````````````````mm",
"mmmmmmmmmmmmmmmmmmmmmmmm",
"mmmmmmmmmmmmmmmmmmmmmmmm",
"mmmmmmmmmmmmmmmmmmmmmmmm",
"mmmmmmmmmmmmmmmmmmmmmmmm",
"mmmmmmmmmmmmmmmmmmmmmmmm",
"mmmmmmmmmmmmmmmmmmmmmmmm"
};
