/* XPM */
static char * newfile [] = {
"64 48 31 1",
"0 c #000000",
"1 c #282828",
"2 c #FFFFFF",
"3 c #719500",
"4 c #4A5A84",
"5 c #D57500",
"6 c #A3A3A3",
"7 c #395273",
"8 c #666666",
"9 c #637B9C",
"a c #858585",
"b c #282828",
"c c #D57500",
"d c #515151",
"e c #F0F0F0",
"f c #3D3D3D",
"g c #8C9C94",
"h c #294239",
"i c #C2C2C2",
"j c #949494",
"k c #4A4A52",
"l c #666666",
"m c #6B737B",
"n c #E5E5E5",
"o c #00296B",
"p c #D57500",
"q c #636373",
"r c #E1E1E1",
"s c #D1D1D1",
"t c #C6D6E7",
"w c #B3B3B3",
"aaaaaaaaaaaaaaaaaaaaaaaaaaaaaaaaaaaaaaaaaaaaaaaaaaaaaaaaaaaaaaaa",
"wwwwwwwwwwwwwwwwwwwwwwwwwwwwwwwwwwwwwwwwwwwwwwwwwwwwwwwwwwwwwwww",
"wwwwwwwwwwwwwwwwwwwwwwwwwwwwwwwwwwwwwwwwwwwwwwwwwwwwwwwwwwwwwwww",
"iiiiiiiiiiiiiiiiiiiiiiiiiiiiiiiiiiiiiiiiiiiiiiiiiiiiiiiiiiiiiiii",
"iiiiiiiiiiiiiiiiiiiiiiiiiiiiiiiiiiiiiiiiiiiiiiiiiiiiiiiiiiiiiiii",
"ssssssssssssssssssssssssssssssssssssssssssssssssssssssssssssssss",
"rrrrrrrrrrrrrrrrrrrrrrrrrrrrrrrrrrrrrrrrrrrrrrrrrrrrrrrrrrrrrrrr",
"rrrrrrrrrrrrrrrrrrrrrrrrrrrrrrrrrrrrrrrrrrrrrrrrrrrrrrrrrrrrrrrr",
"eeeeeeeeeeeeeeeeeeeeeeeeeeeeeeeeeeeeeeeeeeeeeeeeeeeeeeeeeeeeeeee",
"eeeeeeeeeeeeeeeeeeeeeeeeeeeeeeeeeeeeeeeeeeeeeeeeeeeeeeeeeeeeeeee",
"eeeeeeeeeeeeeeeeeeeeeeeeeeeeeeeeeeeeeeeeeeeeeeeeeeeeeeeeeeeeeeee",
"222222222222222222222222222222ee5e222222222222222222222222222222",
"222222222222222222222222222e555p555e2222222222222222222222222222",
"22222222222222222222222222555p555p552222222222222222222222222222",
"2222222222222222222222222555555c5555e222222222222222222222222222",
"22222222222222222222222e55p5p55c5p5pe222222222222222222222222222",
"2222222222222222222222e5p55555pcp555e222222222222222222222222222",
"2222222222222222222225555cc5p55555p52222222222222222222222222222",
"2222222222222222222255p5pc55555p55552222222222222222222222222222",
"22222222222222222225555555p555p555pe2222222222222222222222222222",
"222222222222222222555p55c55p5555p55e2222222222222222222222222222",
"22222222220000000000155cp55e255p55522222222222222eeee22222222222",
"2222222222000000000055c555e2ep555p522222222222e555p5552222222222",
"222222222100011111115c555e22555c55e222222222e555p555p52222222222",
"22222222210002555555c5552212155p55e22212122555p55515155222222222",
"2222222220000e5c5pc5p5510000001c55210000001555510000005222222222",
"2222222220000000000p5e0000000005pe000000000p5p000111000522222222",
"22222222200000000015e100022e001p51000222001551000555000522222222",
"222222221000151515522000222555c5500022555555p0001151000122222222",
"222222221000pccp5e2e2000222555cp20002555555510000000000522222222",
"2222222p0000cpp522221000222pc1551000255551c55000555555c522222222",
"eeee225500000000001220001ee00015200015p0001510002551115522eeeeee",
"2222255500000000001220000000015520000000015e200000000155er2222e5",
"eeee55p100000000002222100000155522100000c522e2100000p5c222eee555",
"22e55555552222222222222222555ppe2p5pp5552222222225p5p55522255555",
"ee55c55000000000000000000000000000000000000000000000000000000000",
"eee555522222222222222222225ccp555cpc55222222222225555555555cc555",
"eeeeeeeeeeeee33333333333333355p333335ee333eeeee33355ccp5p5ccp555",
"eeeeeeeeeeeee33333333333333355c33333ee3333eeee333355555ccc5p55ee",
"eeeeeeeeeeeee3333eeeeee333335p333333ee333eeeee33335p5p5p5p55eeee",
"eeeeeeeeeeeee3333eeeeee3333335333333ee3333eeee333355555555eeeeee",
"eeeeeeeeeeeee3333333eee3333335333333ee3333333e3333eeeeeeeeeeeeee",
"eeeeeeeeeeeee3333333ee3333e33333e333eee33333333333eeeeeeeeeeeeee",
"rrrrrrrrrrrrr3333rrrrr3333r33333r3333rrrrr33333333rrrrrrrrrrrrrr",
"rrrrrrrrrrrrr3333rrrrr3333rr333rr3333rrrrr33333333rrrrrrrrrrrrrr",
"rrrrrrrrrrrrr3333333rr333rrr333rr333333333333r33333333rrrrrrrrrr",
"rrrrrrrrrrrrr3333333rr333rrr33rrrr3333333333rr33333333rrrrrrrrrr",
"rrrrrrrrrrrrrrrrrrrrrrrrrrrrrrrrrrrrrrrrrrrrrrrrrrrrrrrrrrrrrrrr"};
