/* XPM */
static char * newfile [] = {
"64 48 30 1",
"0 c #000000",
"1 c #282828",
"2 c #FFFFFF",
"3 c #719500",
"4 c #4A5A84",
"5 c #D57500",
"6 c #A3A3A3",
"7 c #395273",
"8 c #666666",
"9 c #637B9C",
"a c #282828",
"b c #D57500",
"c c #3D3D3D",
"d c #8C9C94",
"e c #294239",
"f c #949494",
"g c #4A4A52",
"h c #666666",
"i c #6B737B",
"j c #E5E5E5",
"k c #00296B",
"l c #D57500",
"m c #636373",
"n c #C6D6E7",
"o c #858585",
"p c #F0F0F0",
"q c #C2C2C2",
"r c #E1E1E1",
"s c #D1D1D1",
"t c #B3B3B3",
"ooooooooooooooooooooooooooooooop55l5oooooooooooooooooooooooooooo",
"tttttttttttttttttttttttttttttp55l5555ttttttttttttttttttttttttttt",
"tttttttttttttttttttttttttttt555555l55ttttttttttttttttttttttttttt",
"qqqqqqqqqqqqqqqqqqqqqqqqqqp555l5l5555qqqqqqqqqqqqqqqqqqqqqqqqqqq",
"qqqqqqqqqqqqqqqqqqqqqqqqq555l55555l55qqqqqqqqqqqqqqqqqqqqqqqqqqq",
"sssssssssssssssssssssssp555555l5l5555sssssssssssssssssssssssssss",
"rrrrrrrrrrrrrrrrrrrrrrp55l5l555555l5prrrrrrrrrrrrrrrrrrrrrrrrrrr",
"rrrrrrrrrrrrrrrrrrrrr55555555l5l5555rrrrrrrrrrrrrrrrrrrrrrrrrrrr",
"pppppppppppppppppppp555l5l5l5555l5l5pppppppppppppppppppppppppppp",
"ppppppppppppppppppp55l555555p5l5555ppppppppppppppppppppppppppppp",
"pppppppppppppppppp55l555l55p5555l55pppppppppppppp5pppppppppppppp",
"2222222222222222p555555l5p2255l55lp222222222222555l5222222222222",
"222222222222222p55l55l55p22pl55555222222222222555555522222222222",
"22222222222222p55l5555522225555l552222222222255l5l555p2222222222",
"2222222222222p55555l552222p55l55lp22222222225555555l5p2222222222",
"222222222222p55l5l555222225555l5522222222225l5l5l555lp2222222222",
"22222222222p55l555552222225l5555p22222222255555555l5522222222222",
"222222222225l5555lp222222555l5l5222222222555l55l5555522222222222",
"222222222255555l5p22222225555555222222225l5555555l5lp22222222222",
"222222222555l55552222222pl5l55l222222225555l5l5l5555222222222222",
"2222222255l555lp2222222255555l52222222555l55555555lp222222222222",
"22222225550000000000122p55l555p222222555l555l555l552222222222222",
"222222pl5l000000000022255555l52222225555555l55l555p2222222222222",
"22222p5551000111111122p5l5l55522222555l55l555l55l522222222222222",
"22222555l1000222222222555515122222p5l515155555555p12122222222222",
"222255l55000022222222251000000122pl100000015l5510000002222222222",
"222p555l5000000000022p0000000002p50000000005550001110002p2222222",
"22p5l555500000000012210005l5001p5100055l001l5100022200022ppp2222",
"2255555l100012121222200055552p255000555555b550001121000155555552",
"2p55ll5510002222222p50005555225550005522555510000000000555l555l5",
"25l5555200002222222510005552r1551000b52p5155500022p555555555l555",
"5555555200000000001550001lp0001l50001pp0001l100022211155555555l5",
"55l5552200000000001550000000015l5000000001555000000001b5lb5l5555",
"555552210000000000p5551000001ll555100000b55b5510000055555555l5l5",
"l5l522222222222222p555555225555l5552225555b555lb5555555555p222p5",
"555p222000000000000000000000000000000000000000000000000000000000",
"5lpp222222222222225l55ll5l555ll5522225ll5l5lb5555555552222222222",
"5ppppppppppp233333333333333355533333p553335555533355pp22pppppppp",
"ppppppppppppp33333333333333355533333p5333355553333pppppppppppppp",
"ppppppppppppp33335l5l5l33333l5333333pp333l5l5l3333pppppppppppppp",
"ppppppppppppp3333555bb53333335333333pp3333l5553333pppppppppppppp",
"ppppppppppppp333333355l333333p333333pp3333333p3333pppppppppppppp",
"ppppppppppppp33333335l3333l33333p333ppp33333333333pppppppppppppp",
"rrrrrrrrrrrrr333355bb53333533333r3333rrrrr33333333rrrrrrrrrrrrrr",
"rrrrrrrrrrrrr3333p55553333pr333rr3333rrrrr33333333rrrrrrrrrrrrrr",
"rrrrrrrrrrrrr3333333l5333prr333rr333333333333r33333333rrrrrrrrrr",
"rrrrrrrrrrrrr33333335l333rrr33rrrr3333333333rr33333333rrrrrrrrrr",
"rrrrrrrrrrrrrrrrrrrrpppprrrrrrrrrrrrrrrrrrrrrrrrrrrrrrrrrrrrrrrr"};
