/* XPM */
static char * newfile [] = {
"64 48 29 1",
"0 c #000000",
"1 c #282828",
"2 c #FFFFFF",
"3 c #719500",
"4 c #4A5A84",
"5 c #D57500",
"6 c #A3A3A3",
"7 c #395273",
"8 c #666666",
"9 c #637B9C",
"a c #858585",
"b c #D57500",
"c c #515151",
"d c #F0F0F0",
"e c #8C9C94",
"f c #294239",
"g c #C2C2C2",
"h c #949494",
"i c #4A4A52",
"j c #666666",
"k c #6B737B",
"l c #E5E5E5",
"m c #00296B",
"n c #D57500",
"o c #636373",
"p c #E1E1E1",
"q c #D1D1D1",
"r c #C6D6E7",
"s c #B3B3B3",
"aaaaaaaaaaaaaaaaaaaaaaaaaaaaaaaaaaaaaaaaaaaaaaaaaaaaaaaaaaaaaaaa",
"ssssssssssssssssssssssssssssssssssssssssssssssssssssssssssssssss",
"ssssssssssssssssssssssssssssssssssssssssssssssssssssssssssssssss",
"gggggggggggggggggggggggggggggggggggggggggggggggggggggggggggggggg",
"gggggggggggggggggggggggggggggd555ggggggggggggggggggggggggggggggg",
"qqqqqqqqqqqqqqqqqqqqqqqqqqd555n555qqqqqqqqqqqqqqqqqqqqqqqqqqqqqq",
"pppppppppppppppppppppppppd55n55555dppppppppppppppppppppppppppppp",
"pppppppppppppppppppppppd55n5555n5n5ppppppppppppppppppppppppppppp",
"ddddddddddddddddddddddd55n555n55555ddddddddddddddddddddddddddddd",
"dddddddddddddddddddddd5n5555n5555ndddddddddddddddddddddddddddddd",
"dddddddddddddddddddd55555n5555n555dddddddddddddddddddddddddddddd",
"222222222222222222255n5n555n55bn55222222222222222222222222222222",
"2222222222222222225555bb5n555nb5n5222222222222222222222222222222",
"22222222222222222555nb555555555555222222222222222222222222222222",
"22222222222222225555555n55255n5n5d222222222222222d22222222222222",
"222222222222222555n55n555225n55552222222222222d55552222222222222",
"2222222222222255n555n55d2255555n5222222222222555n555222222222222",
"222222222222255555n555d222555n55d22222222222555555n5222222222222",
"22222222222255n5nb555d22225n555nd222222222d555n5n555d22222222222",
"222222222225555nb5n522222d555n55222222222d55n55b555nd22222222222",
"2222222222d5n555b5522222255nb5n522222222d55n555b55n5222222222222",
"222222222d000000000012222555555d2222222d5n5555555555222222222222",
"22222222d500000000002222d5n5b552222222dn5555n5n5n5nd222222222222",
"2222222d510001111111222255555n5222222d555n5555b5555d222222222222",
"222222d55100055222222222551515d22222dn1n155n5b55n51d122222222222",
"2222225550000522222222210000001222210000001555n10000002222222222",
"2222255n500000000002220000000002220000000005n5000111000222222222",
"2222dn55b0000000001221000bn5001221000555001551000n52000222222222",
"222d5555100012121222200055555222d0005nb5555550001121000122222222",
"22255b551000222222222000n555b2255000nb55555n1000000000022d2ddddd",
"225555n500002222222210005n552125100055n5215550005522222555555n55",
"dd55n5n500000000001220001550001n500015500015100052211155n555555n",
"255555520000000000122000000001555000000001555000000001b5n55n5n55",
"55n555210000000000d2251000001nnbn5100000225b5n10000055555n555b5n",
"55555d222222222222225555555555b5555222222255n5n5555555bbnn55n555",
"5n55522000000000000000000000000000000000000000000000000000000000",
"5555222222222222222255nnn555n55n55222222225555b55n55555555555555",
"d5ddddddddddd33333333333333355533333ddd33355n5533355555ddddddddd",
"ddddddddddddd33333333333333355533333dd333355553333n555dddddddddd",
"ddddddddddddd3333ddd5n5333335n333333dd333ddn5n33335ddddddddddddd",
"ddddddddddddd3333ddd5553333335333333dd3333dd553333dddddddddddddd",
"ddddddddddddd333333355n333333d333333dd3333333d3333dddddddddddddd",
"ddddddddddddd3333333553333533333d333ddd33333333333dddddddddddddd",
"ppppppppppppp3333pppp53333533333p3333ppppp33333333pppppppppppppp",
"ppppppppppppp3333ppppd3333dp333pp3333ppppp33333333pppppppppppppp",
"ppppppppppppp3333333pp333ppp333pp333333333333p33333333pppppppppp",
"ppppppppppppp3333333pp333ppp33pppp3333333333pp33333333pppppppppp",
"pppppppppppppppppppppppppppppppppppppppppppppppppppppppppppppppp"};
