/* XPM */
static char * B_double_xpm[] = {
/* width height ncolors cpp */
"20 50 2 1",
"  c #A3A3A3",
". c #000000",
"                    ",
"                    ",
"                    ",
"       ....         ",
"     ....  ..       ",
"    ....    ..      ",
"    ....     .      ",
"   .....      .     ",
"   .....      .     ",
"   .....      .     ",
"   ......    ..     ",
"   ....... ....     ",
"    ..........      ",
"    ..........      ",
"     ........       ",
"      .......       ",
"      ..   ..       ",
"      ..   ..       ",
"      ..   ..       ",
"      ..   ..       ",
"      ..   ..       ",
"      ..   ..       ",
"      ..   ..       ",
"      ..   ..       ",
"      ..   ..       ",
"      ..   ..       ",
"      ..   ..       ",
"      ..   ..       ",
"      ..   ..       ",
"      ..   ..       ",
"      ..   ..       ",
"      ..   ..       ",
"      ..   ..       ",
"      ..   ..       ",
"      ..   ..       ",
"      ..   ..       ",
"      .......       ",
"      ....  ..      ",
"     ....     .     ",
"     ...      .     ",
"    ....       .    ",
"    ....       .    ",
"    .....     ..    ",
"    ......   ...    ",
"     ..........     ",
"     ..........     ",
"      ........      ",
"        ....        ",
"                    ",
"                    "};
