/* XPM */
static char * B_metal_xpm[] = {
/* width height ncolors cpp [x_hot y_hot] */
"20 50 2 1",
/* colors */
"  c #A3A3A3",
". c #000000",
/* pixels */
"                    ",
"                    ",
"                    ",
"       ....         ",
"     ....  ..       ",
"    ....    ..      ",
"    ....     .      ",
"   .....      .     ",
"   .....      .     ",
"   .....      .     ",
"   ......    ..     ",
"   ....... ....     ",
"    ..........      ",
"    ..........      ",
"     ........       ",
"       ....         ",
"         ..         ",
"         ..         ",
"         ..         ",
"         ..         ",
"         ..         ",
"         ..         ",
"         ..         ",
"         ..         ",
"         ..         ",
"         ..         ",
"         ..         ",
"         ..         ",
"         ..         ",
"         ..         ",
"         ..         ",
"         ..         ",
"         ..         ",
"         ..         ",
"         ..         ",
"         ..         ",
"                    ",
"              ..    ",
"     ...........    ",
"    ...........     ",
"    .  ..  ..       ",
"       ..  ..       ",
"       ..  ..       ",
"       ..  ..       ",
"       ..  ..       ",
"       ..  ..       ",
"       ..  ..       ",
"                    ",
"                    ",
"                    "};
