/* XPM */
static char * background_xpm[] = {
"18 18 202 2",
"  	c None",
". 	c #C6741F",
"+ 	c #DCA365",
"@ 	c #DAC4AE",
"# 	c #D8D4CA",
"$ 	c #E6E2D0",
"% 	c #F4E5D2",
"& 	c #F0E0CB",
"* 	c #EAC8A4",
"= 	c #D49D62",
"- 	c #B67228",
"; 	c #DDA96A",
"> 	c #F4E3C9",
", 	c #E8F4F6",
"' 	c #95CDFF",
") 	c #B4E0FF",
"! 	c #98CCFE",
"~ 	c #E1EAF1",
"{ 	c #FFE4D6",
"] 	c #FFE7DE",
"^ 	c #FEEFE8",
"/ 	c #F6DEC8",
"( 	c #DBA96F",
"_ 	c #E1B06F",
": 	c #FBEAC6",
"< 	c #FCF0D6",
"[ 	c #E0EAE3",
"} 	c #38B8FC",
"| 	c #48CBFF",
"1 	c #30B6FE",
"2 	c #D5DAD6",
"3 	c #FFB37F",
"4 	c #FFBB81",
"5 	c #FEB37A",
"6 	c #FCC19A",
"7 	c #FDF2DD",
"8 	c #D6A870",
"9 	c #DA9F53",
"0 	c #D29B55",
"a 	c #9A693E",
"b 	c #B98145",
"c 	c #E9C893",
"d 	c #9ADFE6",
"e 	c #90DFF0",
"f 	c #88D4E1",
"g 	c #F6E6C2",
"h 	c #FFB05A",
"i 	c #FFB04E",
"j 	c #FEA234",
"k 	c #FABA77",
"l 	c #FEE6BD",
"m 	c #F9DBAA",
"n 	c #C88E4D",
"o 	c #D59542",
"p 	c #E1B76F",
"q 	c #905C22",
"r 	c #CC9246",
"s 	c #FEEFB7",
"t 	c #FCE7B1",
"u 	c #FEE6AC",
"v 	c #FFE4AB",
"w 	c #FEDDA0",
"x 	c #FCD99E",
"y 	c #F9D08E",
"z 	c #FDD491",
"A 	c #FFE4BA",
"B 	c #FFEFD1",
"C 	c #ECC080",
"D 	c #9A5D1A",
"E 	c #DFAD5B",
"F 	c #F7E49F",
"G 	c #D6A75A",
"H 	c #C88B37",
"I 	c #CD9340",
"J 	c #E9C073",
"K 	c #FFE49D",
"L 	c #FFDF96",
"M 	c #FFDC93",
"N 	c #FFD98F",
"O 	c #FFD78D",
"P 	c #FFD58B",
"Q 	c #FFD287",
"R 	c #FFC961",
"S 	c #FFDD63",
"T 	c #FFE875",
"U 	c #F9C349",
"V 	c #B6701C",
"W 	c #DEAC56",
"X 	c #FFED9E",
"Y 	c #FCE28F",
"Z 	c #F5D881",
"` 	c #F8D780",
" .	c #FEDA82",
"..	c #FFD77E",
"+.	c #FFD479",
"@.	c #FFD075",
"#.	c #FFCD70",
"$.	c #FFCA6C",
"%.	c #FFC869",
"&.	c #FFC365",
"*.	c #FFC546",
"=.	c #FFE73A",
"-.	c #FEF459",
";.	c #FBCA27",
">.	c #C57B1D",
",.	c #BD771F",
"'.	c #E7BA60",
").	c #F8D377",
"!.	c #FED879",
"~.	c #FFD573",
"{.	c #FFD06B",
"].	c #FFCB63",
"^.	c #FFC75B",
"/.	c #FFC255",
"(.	c #FFBE4D",
"_.	c #FFBA47",
":.	c #FFB741",
"<.	c #FFB33B",
"[.	c #FDB038",
"}.	c #F5B844",
"|.	c #F6B947",
"1.	c #FBA927",
"2.	c #C97710",
"3.	c #BB8130",
"4.	c #E3A94A",
"5.	c #F9C863",
"6.	c #FFCC63",
"7.	c #FFC659",
"8.	c #FFC152",
"9.	c #FFBD4B",
"0.	c #FFB841",
"a.	c #FFB438",
"b.	c #FFAF31",
"c.	c #F8A928",
"d.	c #E0B852",
"e.	c #E3D79F",
"f.	c #E8C678",
"g.	c #F69D19",
"h.	c #B76503",
"i.	c #C6842A",
"j.	c #F6BB50",
"k.	c #FFC150",
"l.	c #FFBC49",
"m.	c #FFB842",
"n.	c #FEB236",
"o.	c #F7A439",
"p.	c #F9A12E",
"q.	c #E1A51C",
"r.	c #86C251",
"s.	c #9BEBA0",
"t.	c #8BD980",
"u.	c #B99817",
"v.	c #A65600",
"w.	c #BC731B",
"x.	c #FBB845",
"y.	c #FFB73E",
"z.	c #FEB032",
"A.	c #EFAE7C",
"B.	c #F0DBE5",
"C.	c #F1D8DA",
"D.	c #DEA136",
"E.	c #57CD0E",
"F.	c #44F845",
"G.	c #31E018",
"H.	c #968800",
"I.	c #7B3C00",
"J.	c #E19428",
"K.	c #FEB335",
"L.	c #FEAA2D",
"M.	c #CE88BC",
"N.	c #D1ABFF",
"O.	c #CBA4FF",
"P.	c #D88374",
"Q.	c #CFAA0E",
"R.	c #B9CA4B",
"S.	c #AFAF18",
"T.	c #A46300",
"U.	c #AB640F",
"V.	c #F2A026",
"W.	c #FFA920",
"X.	c #D1839E",
"Y.	c #C89CFF",
"Z.	c #C08EFD",
"`.	c #DB7C54",
" +	c #FE9201",
".+	c #F99607",
"++	c #CE7102",
"@+	c #723900",
"#+	c #AA600A",
"$+	c #DC8611",
"%+	c #EE921F",
"&+	c #E9A160",
"*+	c #E9974A",
"=+	c #F88D02",
"-+	c #EC8701",
";+	c #C16A00",
">+	c #633100",
",+	c #9F5703",
"'+	c #AA5D00",
")+	c #B36300",
"!+	c #A85C01",
"~+	c #8F4B00",
"                                    ",
"                                    ",
"        . + @ # $ % & * = -         ",
"      ; > , ' ) ! ~ { ] ^ / (       ",
"    _ : < [ } | 1 2 3 4 5 6 7 8     ",
"  9 0 a b c d e f g h i j k l m n   ",
"o p q     r s t u v w x y z A B C D ",
"E F G H I J K L M N O P Q R S T U V ",
"W X Y Z `  ...+.@.#.$.%.&.*.=.-.;.>.",
",.'.).!.~.{.].^./.(._.:.<.[.}.|.1.2.",
"    3.4.5.6.7.8.9.0.a.b.c.d.e.f.g.h.",
"        i.j.k.l.m.n.o.p.q.r.s.t.u.v.",
"          w.x.y.z.A.B.C.D.E.F.G.H.I.",
"            J.K.L.M.N.O.P.Q.R.S.T.  ",
"            U.V.W.X.Y.Z.`. +.+++@+  ",
"              #+$+%+&+*+=+-+;+>+    ",
"                  ,+'+)+!+~+        ",
"                                    "};
