/* XPM */
static char * BalloonHelp_xpm2[] = {
/* width height ncolors cpp [x_hot y_hot] */
"16 16 4 1 0 0",
/* colors */
" 	c #F2F2F2F2F2F2",
".	s iconColor2	m white	c white",
"X	s iconColor1	m black	c black",
"o	c #030303030303",
/* pixels */
" .XXXXXXXXXXXX. ",
".X.  ... .. ..o.",
"X. ...XXXX . . X",
"X.. .XX. oX . .X",
"X  . XX .XX. ..X",
"X..... .XX.....X",
"X  ....XX.   . X",
"X. .  .XX .... X",
"X  . . .. .. . X",
"X.  . .XX.... .X",
"X .. ..XX.. .. X",
".X.. .X. .    X ",
" .X..XXXXXXXXX. ",
"..X X. . ..  ...",
". XX .. . ....  ",
"..X... . .. . .."};
