/* XPM */
static char * bent18_xpm[] = {
"18 18 67 1",
" 	c None",
".	c #8B4E01",
"+	c #AD6202",
"@	c #A95F01",
"#	c #AD6100",
"$	c #A85E00",
"%	c #9A5701",
"&	c #D57D09",
"*	c #D78410",
"=	c #AF6B14",
"-	c #B36D14",
";	c #D27704",
">	c #C77002",
",	c #B06404",
"'	c #D5820F",
")	c #C8A774",
"!	c #93908D",
"~	c #92908C",
"{	c #BB9361",
"]	c #C87104",
"^	c #A25A01",
"/	c #8C5E24",
"(	c #979591",
"_	c #B7B7B7",
":	c #A5A5A5",
"<	c #7C7C7C",
"[	c #636363",
"}	c #666666",
"|	c #606060",
"1	c #808080",
"2	c #A4A4A4",
"3	c #A8A8A8",
"4	c #8A8783",
"5	c #805620",
"6	c #858585",
"7	c #ADADAD",
"8	c #929292",
"9	c #7E7E7E",
"0	c #898989",
"a	c #767676",
"b	c #8D8D8D",
"c	c #A2A2A2",
"d	c #7A7A7A",
"e	c #707070",
"f	c #7F7F7F",
"g	c #8F8F8F",
"h	c #9B9B9B",
"i	c #868686",
"j	c #717171",
"k	c #545454",
"l	c #939393",
"m	c #BFBFBF",
"n	c #ABABAB",
"o	c #888888",
"p	c #6C6C6C",
"q	c #464646",
"r	c #6D6D6D",
"s	c #909090",
"t	c #8C8C8C",
"u	c #575757",
"v	c #787878",
"w	c #747474",
"x	c #4D4D4D",
"y	c #4C4C4C",
"z	c #505050",
"A	c #4E4E4E",
"B	c #474747",
"                  ",
"                  ",
"                  ",
"                  ",
"                  ",
" .+@            #$",
" %&*=          -;>",
"  ,')!        ~{]^",
"   /(_:<[}[|12345 ",
"     678906abcd   ",
"      efg2hij}    ",
"      kdlmnopq    ",
"       r6st<|     ",
"       upvw[x     ",
"        yzAB      ",
"                  ",
"                  ",
"                  "};
