/* XPM */
static char *noname[] = {
/* width height ncolors chars_per_pixel */
"64 64 9 1",
/* colors */
"` c #757575",
"a c #515151",
"b c #F0F0F0",
"c c #D1D1D1",
"d c #A3A3A3",
"e c #858585",
"g c #666666",
"h c #E1E1E1",
"i c #BFBFBF",
/* pixels */
"gggggggggggggggggggggggggggggggggggggggggggggggggggggggggggggggg",
"`ddddddddddddddddddddddddddddddddddddddddddddddddddddddddddddd``",
"`deddeddeddeddeddeddeddeddeddeddeddeddeddeddeddeddeddeddeddeddd`",
"`ddddddddddddddddddddddddddeddeddeddeddeddeddeddeddeddeddeddede`",
"didiiidiidiiidiidididididdididddddddddddddddddddddddddddddddddd`",
"diiciiicicicicicciciiciiiiiiciiiicdiddiddidddiddidiiiiciiiiididd",
"dccccchccccchccccchcccccccccccciiiiciiciiciiciicciiciiciciciiidd",
"dccbchbcbchbcbhcbhchcchcchcchccchcccchccccccccccccccccchccccccdd",
"dcbhbbcbbbbcbbbbcbbbbbbbbbbcbchbchcbhcchchcchcchcchchchcchcchcdd",
"dcbbbbbbbbbbbbbbbbbbbbbbcbbbbbbcbbbcbbbbbbbbbbbbbcbbbbbbbbcbchid",
"dcbbbbbbbbbbbbbbbbbbbbbbbbbbbbbbbbbbbbbbbbbbbbbbbbbbbbbbbcbbbbid",
"dcbbbbbbbbbbbbbbbbbbbbbbbbbbbbbbbbbbbbbbbbbbbbbbbbbbbbbbbbbbbbcd",
"dbbbbbbbbbbbbbbbbbbbbbbbbbbbbbbbbbbbbbbbbbbbbbbbbbbbbbbbbbbbbbcd",
"dcbbbbbbbbbbbbbbbbbbbbbbbbbbbbbbbbbbbbbbbbbbbbbbbbbbbbbbbbbbbbhd",
"dcbbbbbbbbbbbbbbbbbbbbbbbbbbbbbbbbbbbbbbbbbbbbbbbbbbbbbbbbbbbbcd",
"dcbbbbbbbbbbbbbbbbbbbbbbbbbbbbbbbbbbbbbbbbbbbbbbbbbbbbbbbbbbbbhd",
"dcbbbbbbbbbbbbbbbbbbbbbbbbbbbbbbbbbbbbbbbbbbbbbbbbbbbbbbbbbbbbhd",
"dcbbbbbbbbbbbbbbbbbbbbbbbbbbbbbbbbbbbbbbbbbbbbbbbbbbbbbbbbbbbbcd",
"dcbbbbbbbbbbbbbbbbbbbbbbbbbbbbbbbbbbbbbbbbbbbbbbbbbbbbbbbbbbbbcd",
"dcbbbbbbbbbbbbbbbbbbbbbbbbbbbbbbbbbbbbbbbbbbbbbbbbbbbbbbbbbbbbhd",
"dcbbbbbbbbbbbbbbbbbbbbbbbbbbbbbbbbbbbbbbbbbbbbbbbbbbbbbbbbbbbbhd",
"dcbbbbbbbbbbbbbbbbbbbbbbbbbbbbbbbbbbbbbbbbbbbbbbbbbbbbbbbbbbbbhd",
"dcbbbbbbbbbbbbbbbbbbbbbbbbbbbbbbbbbbbbbbbbbbbbbbbbbbbbbbbbbbbbhd",
"dcbbbbbbbbbbbbbbbbbbbbbbbbbbbbbbbbbbbbbbbbbbbbbbbbbbbbbbbbbbbbhd",
"dcbbbbbbbbbbbbbbbbbbbbbbbbbbbbbbbbbbbbbbbbbbbbbbbbbbbbbbbbbbbbhd",
"dcbbbbbbbbbbbbbbbbbbbbbbbbbbbbbbbbbbbbbbbbbbbbbbbbbbbbbbbbbbbbhd",
"dcbbbbbbbbbbbbbbbbbbbbbbbbbbbbbbbbbbbbbbbbbbbbbbbbbbbbbbbbbbbbhd",
"dcbbbbbbbbbbbbbbbbbbbbbbbbbbbbbbbbbbbbbbbbbbbbbbbbbbbbbbbbbbbbhd",
"dcbbbbbbbbbbbbbbbbbbbbbbbbbbbbbbbbbbbbbbbbbbbbbbbbbbbbbbbbbbbbhd",
"dcbbbbbbbbbbbbbbbbbbbbbbbbbbbbbbbbbbbbbbbbbbbbbbbbbbbbbbbbbbbbhd",
"dcbbbbbbbbbbbbbbbbbbbbbbbbbbbbbbbbbbbbbbbbbbbbbbbbbbbbbbbbbbbbhd",
"dcbbbbbbbbbbbbbbbbbbbbbbbbbbbbbbbbbbbbbbbbbbbbbbbbbbbbbbbbbbbbcd",
"dcbbbbbbbbbbbbbbbbbbbbbbbbbbbbbbbbbbbbbbbbbbbbbbbbbbbbbbbbbbbbhd",
"dbbbbbbbbbbbbbbbbbbbbbbbbbbbbbbbbbbbbbbbbbbbbbbbbbbbbbbbbbbbbbhd",
"dcbbbbbbbbbbbbbbbbbbbbbbbbbbbbbbbbbbbbbbbbbbbbbbbbbbbbbbbbbbbbcd",
"dbbbbbbbbbbbbbbbbbbbbbbbbbbbbbbbbbbbbbbbbbbbbbbbbbbbbbbbbbbbbbhd",
"dcbbbbbbbbbbbbbbbbbbbbbbbbbbbbbbbbbbbbbbbbbbbbbbbbbbbbbbbbbbbbhd",
"dbbbbbbbbbbbbbbbbbbbbbbbbbbbbbbbbbbbbbbbbbbbbbbbbbbbbbbbbbbbbbcd",
"dcbbbbbbbbbbbbbbbbbbbbbbbbbbbbbbbbbbbbbbbbbbbbbbbbbbbbbbbbbbbbcd",
"dcbbbbbbbbbbbbbbbbbbbbbbbbbbbbbbbbbbbbbbbbbbbbbbbbbbbbbbbbbbbbcd",
"dcbbbbbbbbbbbbbbbbbbbbbbbbbbbbbbbbbbbbbbbbbbbbbbbbbbbbbbbbbbbbcd",
"dcbbbbbbcbbbbbbbbbbbbbbbbbbbbbbbbbbbbbbbbbbcbcbbcbbcbcbcbcbbcbcd",
"dibchcbcbchbchcbcbcbcbbcbbbbcbcbcbcbchbchccbcbchbchbcbcbcbchbccd",
"dccbbchbcbchbbcbhbcbhcbchccbhbcbhbcbhbcbbcbhbcbchbcchchchcbchbcd",
"`chchbcchcbchchcchchbchbcbchbchcchchcchchchcchchcchchchchchcchcd",
"dcchcchchchchchchchcchcchchcchchchcchchchcchchchchchchchchchccce",
"`ccchchchchchchchchchchchchchchchchchchchchchccccccccccccccchccd",
"diccccccccccccccccccchccccccccccccccccccccccccccccciccccccccccid",
"`iccccccccccccccccccciccccccccccccccccciciciciciciiciciiciiciid`",
"`ciiciiiiciiiiiciiiiciiciciiciiciiiiciiciciiciciiiciiiicicicicdd",
"diiciiciiiiciiciiciiciciiiiciiciciiciiciiiiciiiiciiiciiiiciicid`",
"`diiiciiciiiiciiciiciiiiciiiiciiiiciiciiciididididididcdididiid`",
"dddiddiddiddiddidididddidddidddddiddiddddddidididididididididdd`",
"`diddiddiddiddididddididididdicdiddiddididididddddddddiddddddid`",
"`dddddddddidddddddddddddddddddddddddddddddddddddddddddddddddddd`",
"`dddddddddddddddddddddddddddddddddddddddddddddddddddddddddddddd`",
"`dddddddddddddddddddddddddddddddddddddddddddddddddddddddddddddd`",
"`ddeddddddddddddddddddddddddddedddddddddddedddddddeddddddddddde`",
"`dddeddedddeddeddeddeddeddeddddeddeddeddedddeddeddddeddeddedddd`",
"`deddeddededdeddeddeddeddeddededdeddeddeddedddeddedddeddeddeded`",
"`ddeddeddeddeddeddeddeddeddedddedddeddeddeddedddeddeddedddeddd``",
"``d`de`de`dd`de`dd`de`dd`d`d`ed`de`dd`dd`dd`d`d`d`dd`d`de`de`d``",
"```````````````````````````````````````````````````````````````g",
"aaaaaaaaaaaaaaaaaaaaaaaaaaaaaaaaaaaaaaaaaaaaaaaaaaaaaaaaaaaaaaaa"
};
