/* XPM */
static char * bond_triple_large_xpm[] = {
"59 16 102 2",
"  	c None",
". 	c #646464",
"+ 	c #636363",
"@ 	c #676767",
"# 	c #656565",
"$ 	c #616161",
"% 	c #666666",
"& 	c #606060",
"* 	c #6C6C6C",
"= 	c #767676",
"- 	c #7B7B7B",
"; 	c #7D7D7D",
"> 	c #7C7C7C",
", 	c #777777",
"' 	c #717171",
") 	c #757575",
"! 	c #787878",
"~ 	c #727272",
"{ 	c #7E7E7E",
"] 	c #858585",
"^ 	c #888888",
"/ 	c #898989",
"( 	c #808080",
"_ 	c #686868",
": 	c #595959",
"< 	c #848484",
"[ 	c #696969",
"} 	c #5A5A5A",
"| 	c #8E8E8E",
"1 	c #919191",
"2 	c #929292",
"3 	c #828282",
"4 	c #444444",
"5 	c #333333",
"6 	c #484848",
"7 	c #7F7F7F",
"8 	c #8A8A8A",
"9 	c #838383",
"0 	c #6D6D6D",
"a 	c #969696",
"b 	c #989898",
"c 	c #999999",
"d 	c #959595",
"e 	c #737373",
"f 	c #474747",
"g 	c #4B4B4B",
"h 	c #8B8B8B",
"i 	c #818181",
"j 	c #747474",
"k 	c #9C9C9C",
"l 	c #A0A0A0",
"m 	c #9D9D9D",
"n 	c #8F8F8F",
"o 	c #7A7A7A",
"p 	c #575757",
"q 	c #404040",
"r 	c #454545",
"s 	c #5E5E5E",
"t 	c #868686",
"u 	c #6A6A6A",
"v 	c #585858",
"w 	c #AEAEAE",
"x 	c #CCCCCC",
"y 	c #B8B8B8",
"z 	c #9E9E9E",
"A 	c #979797",
"B 	c #6E6E6E",
"C 	c #565656",
"D 	c #ADADAD",
"E 	c #CBCBCB",
"F 	c #BABABA",
"G 	c #6F6F6F",
"H 	c #CDCDCD",
"I 	c #F7F7F7",
"J 	c #E1E1E1",
"K 	c #A5A5A5",
"L 	c #707070",
"M 	c #9F9F9F",
"N 	c #C9C9C9",
"O 	c #F6F6F6",
"P 	c #E5E5E5",
"Q 	c #A6A6A6",
"R 	c #E3E3E3",
"S 	c #CACACA",
"T 	c #E2E2E2",
"U 	c #949494",
"V 	c #6B6B6B",
"W 	c #525252",
"X 	c #5F5F5F",
"Y 	c #545454",
"Z 	c #909090",
"` 	c #555555",
" .	c #4A4A4A",
"..	c #343434",
"+.	c #353535",
"@.	c #505050",
"#.	c #5B5B5B",
"$.	c #3F3F3F",
"%.	c #434343",
"&.	c #3A3A3A",
"*.	c #3E3E3E",
"=.	c #535353",
"          . + @ # $                                                                               + @ % $ &           ",
"        * = - ; > , ' %                                                                       * ) - ; > ! ' %         ",
"    . ~ { ] ^ / ^ ] ( , _ :                                                               + ' { < ^ / ^ ] ( ! [ }     ",
"    ' ( / | 1 2 1 | / 3 , @ 4 5 5 5 5 5 5 5 5 5 5 5 5 5 5 5 5 5 5 5 5 5 5 5 5 5 5 5 5 5 6 ' 7 / | 1 2 1 | 8 9 , _     ",
"  0 { / 2 a b c b d 1 8 ( e f 5 5 5 5 5 5 5 5 5 5 5 5 5 5 5 5 5 5 5 5 5 5 5 5 5 5 5 5 5 g { / 1 d b c b d 1 h i j &   ",
"# = ] | a c k l m c d n ] o p q 5 5 5 5 5 5 5 5 5 5 5 5 5 5 5 5 5 5 5 5 5 5 5 5 5 5 5 r s < | d c k l m c d n t - u v ",
". - ^ 1 b k w x y z A 1 ^ { B C                                                       + o ^ 1 b k D E F z A 2 / { G p ",
"@ ; / 2 c l H I J K A 2 / 7 L p 5 5 5 5 5 5 5 5 5 5 5 5 5 5 5 5 5 5 5 5 5 5 5 5 5 5 5 . > / 1 b M N O P Q b 2 8 7 ' } ",
"% > ^ 1 b m F R S M a 1 ^ { G C 5 5 5 5 5 5 5 5 5 5 5 5 5 5 5 5 5 5 5 5 5 5 5 5 5 5 5 + - ^ 1 A m y T H l a 2 / 7 L : ",
"$ ! ] n d c z K l b U | ] - V W 5 5 5 5 5 5 5 5 5 5 5 5 5 5 5 5 5 5 5 5 5 5 5 5 5 5 5 X , ] | d c z K l b U n t - * Y ",
"$ ' ( 8 1 d A b a U Z 8 i ) #                                                           ' ( / Z d A b a U Z h i = % ` ",
"  % ! 9 h n 1 2 1 n 8 < o B  ...5 5 5 5 5 5 5 5 5 5 5 5 5 5 5 5 5 5 5 5 5 5 5 5 5 5 5 +.@.! 3 8 n 1 2 1 n h < - B #.  ",
"    [ , i t / / ^ ] i o B X $.5 5 5 5 5 5 5 5 5 5 5 5 5 5 5 5 5 5 5 5 5 5 5 5 5 5 5 5 5 %._ , ( ] / / ^ ] i o G &     ",
"    } _ j - { 7 { - ) 0 X @.&.5 5 5 5 5 5 5 5 5 5 5 5 5 5 5 5 5 5 5 5 5 5 5 5 5 5 5 5 5 *.: @ e o { 7 { - = B & @.    ",
"        & u G ' L * # }                                                                       & u B ' L * # #.        ",
"          p C : v =.                                                                              C : v Y =.          "};
