/* XPM */
static char * bond_metal_xpm[] = {
"18 5 14 1",
" 	c None",
".	c #444444",
"+	c #000000",
"@	c #2B2B2B",
"#	c #AAAAAA",
"$	c #CDCDCD",
"%	c #373737",
"&	c #616161",
"*	c #D1D1D1",
"=	c #C8C8C8",
"-	c #424242",
";	c #040404",
">	c #101010",
",	c #0E0E0E",
"  .           ++++",
"@#$%+         + + ",
"&*=-+++++++++ + + ",
";>,++         + + ",
" +++              "};
