/* XPM */
static char *noname[] = {
/* width height ncolors chars_per_pixel */
"48 48 43 2",
/* colors */
"`` c #000000",
"`a c #4A5A84",
"`b c #DEC6C6",
"`c c #A3A3A3",
"`d c #395273",
"`e c #666666",
"`f c #637B9C",
"`g c #858585",
"`h c #757575",
"`i c #282828",
"`j c #AD9C84",
"`k c #CE9C94",
"`l c #29AD29",
"`m c #515151",
"`n c #F0F0F0",
"`o c #3D3D3D",
"`p c #8C9C94",
"`q c #CEBDAD",
"`r c #294239",
"`s c #D67B73",
"`t c #C2C2C2",
"`u c #CEAD9C",
"`v c #949494",
"`w c #4A4A52",
"`x c #5ABD8C",
"`y c #CE6363",
"`z c #29D629",
"a` c #666666",
"aa c #CE0000",
"ab c #6B737B",
"ac c #FFFFFF",
"ad c #523131",
"ae c #00296B",
"af c #EFE7AD",
"ag c #F7DED6",
"ah c #9C3931",
"ai c #E1E1E1",
"aj c #282828",
"ak c #D1D1D1",
"al c #C6D6E7",
"am c #000000",
"an c #B3B3B3",
"ao c #B59C94",
/* pixels */
"````````````````````````````````````````````````````````````````````````````````````````````````",
"``acacacacacacacacacacacacacacacacacacacacacacacacacacacacacacacacacacacacacacacacacacacacacac``",
"``acacacacacacacacacacacacacacacacacacacacacacacacacacacacacacacacacacacacacacacacacacacacacac``",
"``acacacacacacacacacacacacacacacacacacacacacacacacacacacacacacacacacacacacacacacacacacacacacac``",
"``acacacacacacacacacacacacacacacacacacacacacacacacacacacacacacacacacacacacacacacacacacacacacac``",
"``acacacacacacacacacacacac`naiaiacacacacacacacacacacacacacacacacacacacacacacacacacacacacacacac``",
"``acacacacacacacacacacac`t`j`j`j`vacacacacacacacacacacacacacacacacacacacacacacacacacacacacacac``",
"``acacacacacacacacacac`t`jafaf`uad`vacacacacacacacacacacacacacacacacacacacacacacacacacacacacac``",
"``acacacacacacacacacac`j`uafafao`h`oacacacacacacacacacacacacacacacacacacacacacacacacacacacacac``",
"``acacacacacacacacacac`e`j`uao`j`g``acac``````acacacacacacacacacacacacacacacacacacacacacacacac``",
"``acacacacacacacac`f`f`f`m`oad`ramacacacacac``acacacacacacacacacacacacacacacacacacacacacacacac``",
"``acacacacacacac`f`f`f`x`c`d```ra``pacacacac``acacacacacacacacacacacacacacacacacacacacacacacac``",
"``acacacacacac`p`f`f`f`f`f`f`f`d`d`wacacacac``acacacacacacacacacacacacacacacacacacacacacacacac``",
"``acacacacacacae`a`f`f`f`f`f`a`dae``acacacac``acacacacacacacacacacacacacacacacacacacacacacacac``",
"``acacacacac`nae`a`f`f`f`f`a`a`dae``acacacac``acacacacacacacacacacacacacacacacacacacacacacacac``",
"``acacacacakad`d`dae`f`f`a`aaeae`r``acacacac``acacacacacacacacacacacacacacacak`jacacacacacacac``",
"``acacac`n`g`jab`aaeaeae`aae`dae`i`aacacacac``acacacacacacacacacacacacac`nao`uaf`jacacacacacac``",
"``acacac`b`haf`cabaeaeaeaeaeam```dacacacacac``acacacacacacacacacacacacacan`uafaf`eanacacacacac``",
"``acacac`n`j`uaf`j`w`d`rae`i`dabacacacacacac``acacacacacacacacacacacac`q`gaf`qaf`h`eacacacacac``",
"``acacacacak`jaf`ga`anab```ianacacacacacacac``acac``acacacacacacacacacak`g`jaf`j`e`hacacacacac``",
"``acacacacacak`janaiacacacacacacacacacacacac``acacac``acacacacacacacac`t`e`h`j`jajakacacacacac``",
"``acacacacacacacacacacacacac``acacacacacacac``acacacac``acacacacal`a`f`f`f`f`f`fae`tacacacacac``",
"``acacacacacacacacacacacac``````acacacacacac`````````i````acacac`f`f`f`f`f`f`f`aaeabacacacacac``",
"``acacacacacacacacacacacacac``acacacacacacac``acacacac``acacacacae`a`f`f`f`f`f`aae`racacacacac``",
"``acacacacacacacacacacacacacacacacacacacacac``acacac``acacacaf`c`a`a`f`f`f`a`a`a``acacacacacac``",
"``acacacacacacacacacacacacacacacacacacacacac``acac``acacac`j`uaf`pae`a`a`a`aaeae`d`wacacacacac``",
"``acacacacacacacacacacacacacacacacacacacacac``acacacacacac`jafaf`caeaeaeae`a`a`s`z`zamacacacac``",
"``acacacacacacacacacacacacacacacacacacacacac``acacacacacac`g`j`u`u`gaeaeae`a`sag`z`z``acacacac``",
"``acacacacacacacacacacacac`vaiacacacacacacac``acacacacacac`w`e`p`jadamaian`y`sag`l`l`xacacacac``",
"``acacacacacacacac`n`b`k`x`l``akacacacacacac``acacacacacac`t`rajaj```cac`s`y`s`s`yam`sacacacac``",
"``acacacacacacac`n`k`s`s`l`z`zamacacacacacac``acacacacacacac`n`w`raiacac`bah`y`yahadakacacacac``",
"``acacacacacacac`k`s`b`k`l`z``aiacacacacacac``acacacacacacacacacacacacacac`kadahad`vacacacacac``",
"``acacacacacac`naa`s`s`s`yad`oacacacacacacac``acacacacacacacacacacacacacacac`bajaoacacacacacac``",
"``acacacacacacai`yah`s`s`sahadacacacacacacac``acacacacacacacacacacacacacacacacacacacacacacacac``",
"``acacacacacacacac`badamad`tacacacacacacacac``acacacacacacacacacacacacacacacacacacacacacacacac``",
"``acacacacacacacacac`baoaiacacacacacacacacac``acacacacacacacacacacacacacacacacacacacacacacacac``",
"``acacacacacacacacacacacacacacacacacacac``````acacacacacacacacacacacacacacacacacacacacacacacac``",
"``acacacacacacacacacacacacacacacacacacacacacacacacacacacacacacacacacacacacacacacacacacacacacac``",
"``acacacacacacacacacacacacacacacacacacacacacacacacacacacacacacacacacacacacacacacacacacacacacac``",
"``acacacacacacacacacacacacacacacacacacacacacacacacacacacacacacacacacacacacacacacacacacacacacac``",
"``acacacacacacacacacacacacacacacacacacacacacacacacacacacacacacacacacacacacacacacacacacacacacac``",
"``acacacacacacacacacacacacacacacacacacacacacacacacacacacacacacacacacacacacacacacacacacacacacac``",
"``acacacacacacacacacacacacacacacacacacacacacacacacacacacacacacacacacacacacacacacacacacacacacac``",
"``acacacacacacacacacacacacacacacacacacacacacacacacacacacacacacacacacacacacacacacacacacacacacac``",
"``acacacacacacacacacacacacacacacacacacacacacacacacacacacacacacacacacacacacacacacacacacacacacac``",
"``acacacacacacacacacacacacacacacacacacacacacacacacacacacacacacacacacacacacacacacacacacacacacac``",
"``acacacacacacacacacacacacacacacacacacacacacacacacacacacacacacacacacacacacacacacacacacacacacac``",
"````````````````````````````````````````````````````````````````````````````````````````````````"
};
