/* XPM */
static char * calcamica_xpm[] = {
"16 16 2 1",
" 	c None",
".	c #DD0000",
"                ",
"                ",
"     .....      ",
"    ......      ",
"    ... ...     ",
"   ...  ...     ",
"   ...  ...     ",
"  ...    ...    ",
"  ...    ...    ",
"  ..........    ",
". ...........   ",
"....      ...   ",
"....      ....  ",
" ..        .... ",
"                ",
"                "};
