/* XPM */
static char * calcgaussian03 [] = {
"16 16 2 1",
"0 c None",
"1 c #41B141",
"0000000000000000",
"0000000000000000",
"0011111110001110",
"0111000111011011",
"0110000010010001",
"1100000000011011",
"1100000000001110",
"1100001111100000",
"1100001111101111",
"1100000011010001",
"1100000011000011",
"0110000111000111",
"0111011101010001",
"0011111001101111",
"0000000000000000",
"0000000000000000"};
