/* XPM */
static char * calccreated [] = {
"30 12 2 1",
"' c #e5e5e5",
"# c #b0e2ff",
"'''''''''''''''''''''''##'''''",
"'''''''''''''''''''''''##'''''",
"''''''''''''''''''''''####''''",
"''''''''''''''''''''''####''''",
"'''''''''''''''''''''######'''",
"'''''''''''''''''''''######'''",
"''''''''''''''''''''########''",
"''''''''''''''''''''########''",
"'''''''''''''''''''##########'",
"'''''''''''''''''''##########'",
"''''''''''''''''''############",
"''''''''''''''''''############"};
