/* XPM */
static char * calcnwchemmd_xpm[] = {
"16 16 2 1",
" 	c None",
".	c #FF8200",
"                ",
"                ",
"                ",
"                ",
" ..   .. .....  ",
" ... ... ..  .. ",
" ....... ..  .. ",
" .. . .. ..  .. ",
" .. . .. ..  .. ",
" ..   .. ..  .. ",
" ..   .. ..  .. ",
" ..   .. ..  .. ",
" ..   .. .....  ",
"                ",
"                ",
"                "};
