/* XPM */
static char * calcreset [] = {
"13 14 2 1",
"0 c #E5E5E5",
"1 c #0000cc",
"0000000000000",
"0000000000000",
"0011111111000",
"0011111111100",
"0011000001100",
"0011000001100",
"0011111111100",
"0011111111000",
"0011000110000",
"0011000011000",
"0011000011000",
"0011000001100",
"0000000000000",
"0000000000000"};
