/* XPM */
static char * calchf_xpm[] = {
"16 16 6 1",
" 	c None",
".	c #FF0000",
"+	c #FFFF00",
"@	c #FFFFC0",
"#	c #FFC0C0",
"$	c #58A8FF",
"                ",
"                ",
"                ",
"      .+        ",
"    . +@+.  . . ",
"  . ++##.+.  +  ",
"  .+.#.+#+.     ",
"  .+#$+.$+ .    ",
"   +#+.+.#.+    ",
" . +$.+..#+ .   ",
"  + #.+.#.+++   ",
"   .+#.+#+.. +  ",
"  .  +##$.    . ",
".  + +#.+       ",
"                ",
"                "};
