/* XPM */
static char * calcg3_xpm[] = {
"16 16 2 1",
" 	c None",
".	c #0000FF",
"                ",
"                ",
"                ",
"  ....          ",
" ..   .         ",
" .              ",
" .   ...  ...   ",
" .     .  .  .  ",
" ..   .      .  ",
"  .....    ..   ",
"             .  ",
"          .  .  ",
"          ...   ",
"                ",
"                ",
"                "};
