/* XPM */
static char * calcgaussian09_xpm[] = {
"16 16 2 1",
" 	c None",
".	c #41B141",
"                ",
"                ",
"  .......   ... ",
" ...   ... .. ..",
" ..     .  .   .",
"..         .. ..",
"..          ... ",
"..    .....     ",
"..    ..... ....",
"..      .. .   .",
"..      .. .   .",
" ..    ...  ....",
" ... ... .     .",
"  .....  .. ....",
"                ",
"                "};
