/* XPM */
static char * calcsubmitted [] = {
"30 12 2 1",
"' c #e5e5e5",
"# c #b4eeb4",
"'''''''''''''''''''''######'''",
"''''''''''''''''''''########''",
"'''''''''''''''''''##########'",
"''''''''''''''''''############",
"''''''''''''''''''############",
"''''''''''''''''''############",
"''''''''''''''''''############",
"''''''''''''''''''############",
"''''''''''''''''''############",
"'''''''''''''''''''##########'",
"''''''''''''''''''''########''",
"'''''''''''''''''''''######'''"};
