/* XPM */
static char *noname[] = {
/* width height ncolors chars_per_pixel */
"48 48 43 2",
/* colors */
"`` c #000000",
"`a c #4A5A84",
"`b c #DEC6C6",
"`c c #A3A3A3",
"`d c #395273",
"`e c #666666",
"`f c #637B9C",
"`g c #858585",
"`h c #757575",
"`i c #282828",
"`j c #AD9C84",
"`k c #CE9C94",
"`l c #29AD29",
"`m c #515151",
"`n c #F0F0F0",
"`o c #3D3D3D",
"`p c #8C9C94",
"`q c #CEBDAD",
"`r c #294239",
"`s c #D67B73",
"`t c #C2C2C2",
"`u c #CEAD9C",
"`v c #949494",
"`w c #4A4A52",
"`x c #5ABD8C",
"`y c #CE6363",
"`z c #666666",
"a` c #6B737B",
"aa c #FFFFFF",
"ab c #523131",
"ac c #00296B",
"ad c #EFE7AD",
"ae c #636373",
"af c #F7DED6",
"ag c #9C3931",
"ah c #E1E1E1",
"ai c #282828",
"aj c #FFFFC6",
"ak c #D1D1D1",
"al c #C6D6E7",
"am c #000000",
"an c #B3B3B3",
"ao c #B59C94",
/* pixels */
"````````````````````````````````````````````````````````````````````````````````````````````````",
"``aaaaaaaaaaaaaaaaaaaaaaaaaaaaaaaaaaaaaaaaaaaaaaaaaaaaaaaaaaaaaaaaaaaaaaaaaaaaaaaaaaaaaaaaaaaa``",
"``aaaaaaaaaaaaaaaaaaaaaaaaaaaaaaaaaaaaaaaaaaaaaaaaaaaaaaaaaaaaaaaaaaaaaaaaaaaaaaaaaaaaaaaaaaaa``",
"``aaaaaaaaaaaaaaaaaaaaaaaaaaaaaaaaaaaaaaaaaaaaaaaaaaaaaaaaaaaaaaaaaaaaaaaaaaaaaaaaaaaaaaaaaaaa``",
"``aaaaaaaaaaaaaaaaaaaaaaaaaaaaaaaaaaaaaaaaaaaaaaaaaaaaaaaaaaaaaaaaaaaaaaaaaaaaaaaaaaaaaaaaaaaa``",
"``aaaaaaaaaaaaaaaaaaaaah`cananan`c`c`c`c`c`c`c`c`c`c`c`c`c`v`gaaaaaaaaaaaaaaaaaaaaaaaaaaaaaaaa``",
"``aaaaaaaaaaaaaaaaaaaaahak`n`n`n`n`n`n`n`n`n`n`n`n`n`n`n`naf`h`caaaaaaaaaaaaaaaaaaaaaaaaaaaaaa``",
"``aaaaaaaaaaaaaaaaaaaaahak`n`n`n`n`n`n`n`n`n`n`n`n`n`n`naaahanak`vaaaaaaaaaaaaaaaaaaaaaaaaaaaa``",
"``aaaaaaaaaaaaaaaaaaaaah`b`n`n`nafaf`n`n`n`n`n`n`n`n`n`n`n`n`jaa`t`caaaaaaaaaaaaaaaaaaaaaaaaaa``",
"``aaaaaaaaaaaaaaaaaaaaahak`n`naa`nakaa`n`n`n`n`n`n`n`n`n`naf`caaaa`q`caaaaaaaaaaaaaaaaaaaaaaaa``",
"``aaaaaaaaaaaaaaaaaaaaah`b`n`n`nad`baf`n`naf`n`nafah`n`naj`naoaa`naa`t`vaaaaaaaaaaaaaaaaaaaaaa``",
"``aaaaaaaaaaaaaaaaaaaaahanahaj`takaf`taf`n`qahajahaf`nafahah`caa`n`naa`t`vaaaaaaaaaaaaaaaaaaaa``",
"``aaaaaaaaaaaaaaaaaaaaah`q`b`b`bafahah`q`n`q`qah`n`n`n`q`naj`caa`n`n`naa`t`caaaaaaaaaaaaaaaaaa``",
"``aaaaaaaaaaaaaaaaaaaaalan`c`x`can`tak`b`n`b`q`b`n`n`n`qaf`n`v`n`naf`nah`n`q`vaaaaaaaaaaaaaaaa``",
"``aaaaaaaaaaaaaaaa`nal`x`x`x`x`f`x`f`fanah`qahak`q`n`nak`b`n`j`v`c`c`v`j`c`v`gakaaaaaaaaaaaaaa``",
"``aaaaaaaaaaaaaaal`xal`x`x`x`x`x`x`f`f`f`x`t`n`n`baf`n`nahad`naf`n`n`bahaf`n`t`taaaaaaaaaaaaaa``",
"``aaaaaaaaaaaaal`fal`xal`xal`x`x`x`x`x`f`f`xal`n`n`n`n`n`n`n`n`n`n`n`b`nafaa`t`taaaaaaaaaaaaaa``",
"``aaaaaaaaaaal`f`xal`xalal`xal`x`x`x`x`x`f`a`x`n`n`n`n`n`n`n`n`n`najak`n`naa`t`taaah`c`naaaaaa``",
"``aaaaaaaa`n`f`xal`xal`xal`xal`x`x`x`x`x`f`f`aal`n`n`n`n`n`n`n`n`naa`najaaaa`t`taa`eai`z`naaaa``",
"``aaaaaaaa`t`f`xal`xalalal`xal`x`x`x`x`x`x`f`f`x`n`n`n`n`n`n`n`n`n`n`naa`naa`t`t`v`e`kagae`naa``",
"``aaaaaaaa`f`f`x`xalal`xal`x`x`x`x`x`x`x`f`x`a`dal`n`n`nad`naf`n`n`n`n`n`n`nak`haiag`u`e`vaaaa``",
"``aaaaaaah`f`f`x`xal`xal`xal`x`x`x`x`x`x`f`f`d`d`xaa`n`nakaf`n`n`n`n`n`n`naa`uab`s`lab`haaaaaa``",
"``aaaaaaal`a`f`x`x`xal`x`x`x`x`x`x`x`x`x`f`f`dac`x`naf`naf`qak`n`naj`nafah`bab`jad`y`m`naa`naa``",
"``aaaaaaan`a`f`x`x`x`x`xal`x`x`x`x`x`x`x`f`a`d`r`d`qakadakah`q`b`nafanafah`o`jad`s`l`baaaaaaaa``",
"``aaaaaaal`a`f`f`x`x`x`x`x`x`x`x`x`x`x`f`f`d`r`r`dahak`qak`naf`q`nak`qaa`eagad`s`l`kaaaaaaaaaa``",
"``aaaaaaal`d`d`f`x`f`x`x`x`x`x`x`x`x`f`f`aac`iama``najanafaaaf`q`n`qah`gabadad`l`saaaaaaaaaaaa``",
"``aaaaaaaa`dac`f`f`f`x`f`x`x`f`x`f`f`f`f`d`ramam`pafah`qak`nah`q`naf`gabadadag`eaaaaaaaaaaaaaa``",
"``aaaaaaaa`c`rac`a`f`f`f`f`f`f`f`f`f`a`d`ramam`rak`b`b`n`qadakafaa`tab`jad`y`r`qaaaaaaaaaaaaaa``",
"``aaaaaaaa`n`d`rac`d`a`f`f`f`f`f`a`d`d`ramam`i`c`n`n`n`n`n`n`naaahab`jad`j`l`jakaaaaaaaaaaaaaa``",
"``aaaaaaaaaa`tam`racac`d`d`d`dac`d`r`ramamam`f`n`n`n`n`n`n`n`naj`eagad`sab`qak`taaaaaaaaaaaaaa``",
"``aaaaaaaaaaaa`camam`rac`rac`r`raiamamamam`dah`n`n`n`n`n`n`naa`habadad`l`jaa`q`taaaaaaaaaaaaaa``",
"``aaaaaaaaaaaaaaan`i``amamai`iam``amamac`fah`naf`naj`n`n`b`n`cabadadag`had`nak`taaaaaaaaaaaaaa``",
"``aaaaaaaaaaaaaaaaaha`amamamamamam`da`an`n`n`n`najah`n`nadanab`sadag`eaj`naa`t`taaaaaaaaaa`naa``",
"``aaaaaaaaaaaaaaaaaaaa`t`ga`aea``p`t`n`n`n`n`nafakaf`n`nan`o`jad`j`lad`naf`n`q`taaaaaaaaaa`naa``",
"``aaaaaaaaaaaaaaaaaaaa`n`qahaa`bah`n`naf`q`n`n`bak`qafak`wagad`sab`u`b`takaf`c`taaaaaaaaaaaaaa``",
"``aaaaaaaaaaaaaaaaaaaaah`q`n`naf`q`najah`qafahafaf`qah`q`ead`s`l`gaj`qaf`najan`taaaaaaaaaaaaaa``",
"``aaaaaaaaaaaaaaaaaaaaahak`n`n`n`qahahafah`qah`nah`qaf`t`e`u`lagadah`qah`n`nan`taaaaaaaaaaaaaa``",
"``aaaaaaaaaaaaaaaaaaaaah`q`n`n`b`q`n`b`n`n`q`q`najan`n`gam`j`u`q`taf`t`b`naj`c`taaaaaaaaaaaaaa``",
"``aaaaaaaaaaaaaaaaaaaaah`qafak`b`n`naf`n`nafakafah`b`n`u`paf`naf`b`nafakaf`nan`taaaaaaaaaaaaaa``",
"``aaaaaaaaaaaaaaaaaaaaahak`n`n`n`n`n`n`n`n`n`n`n`n`n`n`naa`n`n`n`n`n`n`n`n`n`q`taaaaaaaaaaaaaa``",
"``aaaaaaaaaaaaaaaaaaaaahahaaaaaaaaaaaaaaaaaaaaaaaaaaaaaaaaaaaaaaaaaaaaaa`naaak`taaaaaaaaaaaaaa``",
"``aaaaaaaaaaaaaaaaaaaaah`c`b`t`q`t`qan`q`t`qan`q`t`qan`q`t`qan`q`t`qan`q`q`t`c`taaaaaaaaaaaaaa``",
"``aaaaaaaaaaaaaaaaaaaa`nakakakakakakakak`takakak`takakakakakakak`takakak`takakaaaaaaaaaaaaaaaa``",
"``aaaaaaaaaaaaaaaaaaaaaaaaaaaaaaaaaaaaaaaaaaaaaaaaaaaaaaaaaaaaaaaaaaaaaaaaaaaaaaaaaaaaaaaaaaaa``",
"``aaaaaaaaaaaaaaaaaaaaaaaaaaaaaaaaaaaaaaaaaaaaaaaaaaaaaaaaaaaaaaaaaaaaaaaaaaaaaaaaaaaaaaaaaaaa``",
"``aaaaaaaaaaaaaaaaaaaaaaaaaaaaaaaaaaaaaaaaaaaaaaaaaaaaaaaaaaaaaaaaaaaaaaaaaaaaaaaaaaaaaaaa`naa``",
"``aaaaaaaaaaaaaaaaaaaaaaaaaaaaaaaaaaaaaaaaaaaaaaaaaaaaaaaaaaaaaaaaaaaaaaaaaaaaaaaaaaaaaaaaaaaa``",
"````````````````````````````````````````````````````````````````````````````````````````````````"
};
