/* XPM */
static char * calcsystemerror [] = {
"30 12 2 1",
"' c #e5e5e5",
"# c #000000",
"'''''''''''''''''''''''#''''''",
"''''''''''''''''''''''###'''''",
"'''''''''''''''''''''#####''''",
"''''''''''''''''''''#######'''",
"'''''''''''''''''''#########''",
"''''''''''''''''''###########'",
"''''''''''''''''''###########'",
"'''''''''''''''''''#########''",
"''''''''''''''''''''#######'''",
"'''''''''''''''''''''#####''''",
"''''''''''''''''''''''###'''''",
"'''''''''''''''''''''''#''''''"};
