/* XPM */
static char *noname[] = {
/* width height ncolors chars_per_pixel */
"64 64 37 2",
/* colors */
"`` c #000000",
"`a c #4A5A84",
"`b c #A3A3A3",
"`c c #395273",
"`d c #666666",
"`e c #637B9C",
"`f c #858585",
"`g c #757575",
"`h c #282828",
"`i c #AD9C84",
"`j c #29AD29",
"`k c #515151",
"`l c #F0F0F0",
"`m c #3D3D3D",
"`n c #8C9C94",
"`o c #CEBDAD",
"`p c #294239",
"`q c #C2C2C2",
"`r c #CEAD9C",
"`s c #949494",
"`t c #4A4A52",
"`u c #5ABD8C",
"`v c #29D629",
"`w c #666666",
"`x c #FFFFFF",
"`y c #523131",
"`z c #00296B",
"a` c #EFE7AD",
"aa c #636373",
"ab c #E1E1E1",
"ac c #282828",
"ad c #FFFFC6",
"ae c #D1D1D1",
"af c #C6D6E7",
"ag c #000000",
"ah c #B3B3B3",
"ai c #B59C94",
/* pixels */
"````````````````````````````````````````````````````````````````````````````````````````````````````````````````````````````````",
"```x`x`x`x`x`x`x`x`x`x`x`x`x`x`x`x`x`x`x`x`x`x`x`x`x`x`x`x`x`x`x`x`x`x`x`x`x`x`x`x`x`x`x`x`x`x`x`x`x`x`x`x`x`x`x`x`x`x`x`x`x`x``",
"```x`x`x`x`x`x`x`x`x`x`x`x`x`x`x`x`x`x`x`x`x`x`x`x`x`x`x`x`x`x`x`lababab`x`x`x`x`x`x`x`x`x`x`x`x`x`x`x`x`x`x`x`x`x`x`x`x`x`x`x``",
"```x`x`x`x`x`x`x`x`x`x`x`x`x`x`x`x`x`x`x`x`x`x`x`x`x`x`x`x`x`xae`oaiai`iah`l`x`x`x`x`x`x`x`x`x`x`x`x`x`x`x`x`x`x`x`x`x`x`x`x`x``",
"```x`x`x`x`x`x`x`x`x`x`x`x`x`x`x`x`x`x`x`x`x`x`x`x`x`x`x`x`x`l`ra`ada``i`w`b`x`x`x`x`x`x`x`x`x`x`x`x`x`x`x`x`x`x`x`x`x`x`x`x`x``",
"```x`x`x`x`x`x`x`x`x`x`x`x`x`x`x`x`x`x`x`x`x`x`x`x`x`x`x`x`x`ra`adadad`o`d`d`x`x`x`x`x`x`x`x`x`x`x`x`x`x`x`x`x`x`x`x`x`x`x`x`x``",
"```x`x`x`x`x`x`x`x`x`x`x`x`x`x`x`x`x`x`x`x`x`x`m`m`m`m`m`m`m`s`oadad`o`r`dac`l`x`x`x`x`x`x`x`x`x`x`x`x`x`x`x`x`x`x`x`x`x`x`x`x``",
"```x`x`x`x`x`x`x`x`x`x`x`x`x`x`x`x`x`x`x`x`x`x`m`x`x`x`x`x`x`f`i`o`o`r`f`k`m`x`x`x`x`x`x`x`x`x`x`x`x`x`x`x`x`x`x`x`x`x`x`x`x`x``",
"```x`x`x`x`x`x`x`x`x`x`x`x`x`x`x`x`x`x`x`x`x`x`m`x`x`x`x`x`x`i`m`g`g`g`kac`f`l`x`x`x`x`x`x`x`x`x`x`x`x`x`x`x`x`x`x`x`x`x`x`x`x``",
"```x`x`x`x`x`x`x`x`x`x`x`x`x`x`x`x`x`x`x`x`x`x`m`x`x`x`x`x`x`l`i`p`y`pac`dad`x`x`x`x`x`x`x`x`x`x`x`x`x`x`x`x`x`x`x`x`x`x`x`x`x``",
"```x`x`x`x`x`x`x`x`x`x`x`x`x`x`x`x`x`x`x`x`x`x`m`x`x`x`x`x`x`x`l`r`d`d`iad`x`x`x`x`x`x`x`x`x`x`x`x`x`x`x`x`x`x`x`x`x`x`x`x`x`x``",
"```x`x`x`x`x`x`x`x`x`x`x`x`x`x`x`x`x`x`x`x`x`x`m`x`x`x`x`x`x`x`x`x`x`x`x`x`x`x`x`x`x`x`x`x`x`x`x`x`x`x`x`x`x`x`x`x`x`x`x`x`x`x``",
"```x`x`x`x`x`x`x`x`x`x`x`x`x`x`x`x`x`x`x`x`x`x`m`x`x`x`x`x`x`x`x`x`x`x`x`x`x`x`x`x`x`x`x`x`x`x`x`x`x`x`x`x`x`x`x`x`x`x`x`x`x`x``",
"```x`x`x`x`x`x`x`x`x`x`x`x`x`x`x`x`x`x`x`x`x`x`m`x`x`x`x`x`x`x`x`x`x`xaeahah`q`x`x`x`x`x`x`x`x`x`x`x`x`x`x`x`x`x`x`x`x`x`x`x`x``",
"```x`x`x`x`x`x`x`x`x`x`x`x`x`x`x`x`x`x`x`x`x`x`m`x`x`x`x`x`xae`f`f`f`f`g`g`f`fab`x`x`x`x`x`x`x`x`x`x`x`x`x`x`x`x`x`x`x`x`x`x`x``",
"```x`x`x`x`x`x`x`x`x`x`x`x`x`x`x`x`x`x`x`x`x`x`m`x`x`x`x`xab`faeaeaeab`s`w`w`t`q`x`x`x`x`x`x`x`x`x`x`x`x`x`x`x`x`x`x`x`x`x`x`x``",
"```x`x`x`x`x`x`x`x`x`x`x`x`x`x`x`x`x`x`x`x`x`x`m`x`x`x`x`xabah`x`l`l`l`l`l`l`f`q`x`x`x`x`x`x`x`x`x`x`x`x`x`x`x`x`x`x`x`x`x`x`x``",
"```x`x`x`x`x`x`x`x`x`x`x`x`x`x`x`x`x`x`x`x`x`x`m`x`x`x`x`xaeah`x`l`l`l`l`l`l`g`q`x`x`x`x`x`x`x`x`x`x`x`x`x`x`x`x`x`x`x`x`x`x`x``",
"```x`x`x`x`x`x`x`x`x`x`x`x`x`x`x`x`x`x`x`x`x`x`m`m`m`m`m`m`tah`x`l`l`lababah`w`q`x`x`x`x`x`x`x`x`x`x`x`x`x`x`x`x`x`x`x`x`x`x`x``",
"```x`x`x`x`x`x`x`x`x`xababab`x`x`x`x`x`x`x`x`x`m`x`x`x`x`xab`b`laeabae`q`b`f`k`q`x`x`x`x`x`x`x`x`x`x`x`x`x`x`lababab`x`x`x`x`x``",
"```x`x`x`x`x`qahahahah`k`k`k`q`x`x`x`x`x`x`x`x`m`x`x`x`x`xae`g`b`s`b`f`w`w`k`mah`x`x`x`x`x`x`x`x`x`x`x`x`xaeah`n`b`eah`l`x`x`x``",
"```x`x`x`xah`w`w`d`k`w`g`f`g`d`x`x`x`x`x`x`x`x`m`x`x`x`x`xab`g`f`f`f`f`g`f`g`wae`x`x`x`x`x`x`x`x`x`x`x`xab`bafafaf`eaa`b`x`x`x``",
"```x`xae`d`t`t`m`m`m`m`k`k`w`d`x`x`x`x`x`x`x`x`m`x`x`x`x`x`x`x`x`x`x`x`x`x`x`x`x`x`x`x`x`x`x`x`x`x`x`x`x`bafafafaf`b`a`c`x`x`x``",
"```x`xae`sab`l`l`lababab`d`d`t`x`x`x`x`x`x`x`x`m`x`x`x`x`x`x`x`x`x`x`x`x`x`x`x`x`x`x`x`x`x`x`x`m`m`m`m`m`e`bafaf`eaf`cac`l`x`x``",
"```x`x`l`g`b`l`l`l`l`l`x`s`h`m`m`m`m`m`m`m`m`m`m`x`x`x`x`x`x`x`x`x`x`x`xababab`x`x`x`x`x`x`x`x`m`x`x`x`x`e`eah`eaf`a`p`m`x`x`x``",
"```x`x`xae`wahab`labab`lab`t`m`x`x`x`x`x`x`x`x`m`x`x`x`x`x`x`x`qahahahah`k`k`k`q`x`x`x`x`x`x`x`m`x`x`x`x`n`c`a`e`a`cag`e`x`x`x``",
"```x`x`x`x`g`f`b`b`bahahah`k`m`x`x`x`x`x`x`x`x`m`x`x`x`x`x`xah`w`w`d`k`w`g`f`g`d`x`x`x`x`x`x`x`m`x`x`x`x`l`e`p`p`hac`a`l`x`x`x``",
"```x`x`x`x`x`g`d`w`w`k`k`k`d`g`x`x`x`x`x`x`x`x`m`x`x`x`xae`d`t`t`m`m`m`m`k`k`w`d`x`x`x`x`x`x`x`m`x`x`x`x`x`lah`aaa`eab`x`x`x`x``",
"```x`x`x`x`x`x`x`x`x`x`x`x`x`x`x`x`x`x`x`x`x`x`m`x`x`x`xae`sab`l`l`lababab`d`d`t`x`x`x`x`x`x`x`m`x`x`x`x`x`x`x`x`x`x`x`x`x`x`x``",
"```x`x`x`x`x`x`x`x`x`x`x`x`x`x`x`x`x`x`x`x`x`x`m`m`m`m`m`d`w`b`l`l`l`l`l`x`s`h`m`m`m`m`m`m`m`m`m`x`x`x`x`x`x`x`x`x`x`x`x`x`x`x``",
"```x`x`x`x`x`x`x`x`x`x`x`x`x`x`x`x`x`x`x`x`x`x`m`x`x`x`x`xae`wahab`labab`lab`t`m`x`x`x`x`x`x`x`m`x`x`x`x`x`x`x`x`x`x`x`x`x`x`x``",
"```x`x`x`x`x`x`x`x`x`x`x`x`x`x`x`x`x`x`x`x`x`x`m`x`x`x`x`x`x`g`f`b`b`bahahah`k`m`x`x`x`x`x`x`x`m`x`x`x`x`x`x`lababab`x`x`x`x`x``",
"```x`x`x`x`x`x`x`x`x`x`x`x`x`x`x`x`x`x`x`x`x`x`m`x`x`x`x`x`x`x`g`d`w`w`k`k`k`d`g`x`x`x`x`x`x`x`m`x`x`x`x`x`q`e`e`e`e`b`l`x`x`x``",
"```x`x`x`x`x`x`x`x`x`x`x`x`x`x`x`x`x`x`x`x`x`x`m`x`x`x`x`x`x`x`x`x`x`x`x`x`x`x`x`x`x`x`x`x`x`x`m`x`x`x`xaf`e`e`e`e`e`z`b`x`x`x``",
"```x`x`x`x`x`x`x`x`x`x`x`x`x`x`x`x`x`x`x`x`x`x`m`x`x`x`x`x`x`x`x`x`x`x`x`x`x`x`x`x`x`x`x`x`x`x`m`x`x`x`x`e`eaf`e`e`e`z`c`x`x`x``",
"```x`x`x`x`x`x`x`x`x`x`x`x`x`x`x`x`x`x`x`x`x`x`m`x`x`x`x`x`x`x`x`lababab`x`x`x`x`x`x`x`x`x`x`x`m`m`m`m`t`a`e`e`u`e`e`z`h`l`x`x``",
"```x`x`x`x`x`x`x`x`x`x`x`x`x`x`x`x`x`x`x`x`x`x`m`x`x`x`x`x`x`xah`u`j`j`d`u`x`x`x`x`x`x`x`x`x`x`x`x`x`x`x`a`a`e`e`e`a`z`z`x`x`x``",
"```x`x`x`x`x`x`x`x`x`x`x`x`x`x`x`x`x`x`x`x`x`x`m`x`x`x`x`x`xae`v`v`v`v`v`p`n`x`x`x`x`x`x`x`x`x`x`x`x`x`x`e`z`z`a`z`z`h`a`x`x`x``",
"```x`x`x`x`x`x`x`x`x`x`x`x`x`x`x`x`x`x`x`x`x`x`m`x`x`x`x`x`x`u`v`v`u`v`v`j`p`l`x`x`x`x`x`x`x`x`x`x`x`x`xaf`a`z`z`z`h`caf`x`x`x``",
"```x`x`x`x`x`x`x`x`x`x`x`x`x`x`x`x`x`x`x`x`x`x`m`x`x`x`x`x`x`j`v`v`v`v`v`pag`l`x`x`x`x`x`x`x`x`x`x`x`x`x`xaf`e`c`c`aaf`x`x`x`x``",
"```x`x`x`x`x`x`x`x`x`x`x`x`x`x`x`x`x`x`x`x`x`x`m`m`m`m`m`m`m`j`j`v`v`v`j`p`p`l`x`x`x`x`x`x`x`x`x`x`x`x`x`x`x`x`x`x`x`x`x`x`x`x``",
"```x`x`x`x`x`x`x`x`x`x`x`x`x`x`x`x`x`x`x`x`x`x`x`x`x`x`x`x`x`j`p`j`j`p`pag`j`x`x`x`x`x`x`x`x`x`x`x`x`x`x`x`x`x`x`x`x`x`x`x`x`x``",
"```x`x`x`x`x`x`x`x`x`x`x`x`x`x`x`x`x`x`x`x`x`x`x`x`x`x`x`x`xab`jagag`pag`j`q`x`x`x`x`x`x`x`x`x`x`x`x`x`x`x`x`x`x`x`x`x`x`x`x`x``",
"```x`x`x`x`x`x`x`x`x`x`x`x`x`x`x`x`x`x`x`x`x`x`x`x`x`x`x`x`x`xae`u`j`p`jae`l`x`x`x`x`x`x`x`x`x`x`x`x`x`x`x`x`x`x`x`x`x`x`x`x`x``",
"```x`x`x`x`x`x`x`x`x`x`x`x`x`x`x`x`x`x`x`x`x`x`x`x`x`x`x`x`x`x`x`l`l`l`x`x`x`x`x`x`x`x`x`x`x`x`x`x`x`x`x`x`x`x`x`x`x`x`x`x`x`x``",
"```x`x`x`x`x`x`x`x`x`x`x`x`x`x`x`x`x`x`x`x`x`x`x`x`x`x`x`x`x`x`x`x`x`x`x`x`x`x`x`x`x`x`x`x`x`x`x`x`x`x`x`x`x`x`x`x`x`x`x`x`x`x``",
"```x`x`x`x`x`x`x`x`x`x`x`x`x`x`x`x`x`x`x`x`x`x`x`x`x`x`x`x`x`x`x`x`x`x`x`x`x`x`x`x`x`x`x`x`x`x`x`x`x`x`x`x`x`x`x`x`x`x`x`x`x`x``",
"```x`x`x`x`x`x`x`x`x`x`x`x`x`x`x`x`x`x`x`x`x`x`x`x`x`x`x`x`x`x`x`x`x`x`x`x`x`x`x`x`x`x`x`x`x`x`x`x`x`x`x`x`x`x`x`x`x`x`x`x`x`x``",
"```x`x`x`x`x`x`x`x`x`x`x`x`x`x`x`x`x`x`x`x`x`x`x`x`x`x`x`x`x`x`x`x`x`x`x`x`x`x`x`x`x`x`x`x`x`x`x`x`x`x`x`x`x`x`x`x`x`x`x`x`x`x``",
"```x`x`x`x`x`x`x`x`x`x`x`x`x`x`x`x`x`x`x`x`x`x`x`x`x`x`x`x`x`x`x`x`x`x`x`x`x`x`x`x`x`x`x`x`x`x`x`x`x`x`x`x`x`x`x`x`x`x`x`x`x`x``",
"```x`x`x`x`x`x`x`x`x`x`x`x`x`x`x`x`x`x`x`x`x`x`x`x`x`x`x`x`x`x`x`x`x`x`x`x`x`x`x`x`x`x`x`x`x`x`x`x`x`x`x`x`x`x`x`x`x`x`x`x`x`x``",
"```x`x`x`x`x`x`x`x`x`x`x`x`x`x`x`x`x`x`x`x`x`x`x`x`x`x`x`x`x`x`x`x`x`x`x`x`x`x`x`x`x`x`x`x`x`x`x`x`x`x`x`x`x`x`x`x`x`x`x`x`x`x``",
"```x`x`x`x`x`x`x`x`x`x`x`x`x`x`x`x`x`x`x`x`x`x`x`x`x`x`x`x`x`x`x`x`x`x`x`x`x`x`x`x`x`x`x`x`x`x`x`x`x`x`x`x`x`x`x`x`x`x`x`x`x`x``",
"```x`x`x`x`x`x`x`x`x`x`x`x`x`x`x`x`x`x`x`x`x`x`x`x`x`x`x`x`x`x`x`x`x`x`x`x`x`x`x`x`x`x`x`x`x`x`x`x`x`x`x`x`x`x`x`x`x`x`x`x`x`x``",
"```x`x`x`x`x`x`x`x`x`x`x`x`x`x`x`x`x`x`x`x`x`x`x`x`x`x`x`x`x`x`x`x`x`x`x`x`x`x`x`x`x`x`x`x`x`x`x`x`x`x`x`x`x`x`x`x`x`x`x`x`x`x``",
"```x`x`x`x`x`x`x`x`x`x`x`x`x`x`x`x`x`x`x`x`x`x`x`x`x`x`x`x`x`x`x`x`x`x`x`x`x`x`x`x`x`x`x`x`x`x`x`x`x`x`x`x`x`x`x`x`x`x`x`x`x`x``",
"```x`x`x`x`x`x`x`x`x`x`x`x`x`x`x`x`x`x`x`x`x`x`x`x`x`x`x`x`x`x`x`x`x`x`x`x`x`x`x`x`x`x`x`x`x`x`x`x`x`x`x`x`x`x`x`x`x`x`x`x`x`x``",
"```x`x`x`x`x`x`x`x`x`x`x`x`x`x`x`x`x`x`x`x`x`x`x`x`x`x`x`x`x`x`x`x`x`x`x`x`x`x`x`x`x`x`x`x`x`x`x`x`x`x`x`x`x`x`x`x`x`x`x`x`x`x``",
"```x`x`x`x`x`x`x`x`x`x`x`x`x`x`x`x`x`x`x`x`x`x`x`x`x`x`x`x`x`x`x`x`x`x`x`x`x`x`x`x`x`x`x`x`x`x`x`x`x`x`x`x`x`x`x`x`x`x`x`x`x`x``",
"```x`x`x`x`x`x`x`x`x`x`x`x`x`x`x`x`x`x`x`x`x`x`x`x`x`x`x`x`x`x`x`x`x`x`x`x`x`x`x`x`x`x`x`x`x`x`x`x`x`x`x`x`x`x`x`x`x`x`x`x`x`x``",
"```x`x`x`x`x`x`x`x`x`x`x`x`x`x`x`x`x`x`x`x`x`x`x`x`x`x`x`x`x`x`x`x`x`x`x`x`x`x`x`x`x`x`x`x`x`x`x`x`x`x`x`x`x`x`x`x`x`x`x`x`x`x``",
"```x`x`x`x`x`x`x`x`x`x`x`x`x`x`x`x`x`x`x`x`x`x`x`x`x`x`x`x`x`x`x`x`x`x`x`x`x`x`x`x`x`x`x`x`x`x`x`x`x`x`x`x`x`x`x`x`x`x`x`x`x`x``",
"```x`x`x`x`x`x`x`x`x`x`x`x`x`x`x`x`x`x`x`x`x`x`x`x`x`x`x`x`x`x`x`x`x`x`x`x`x`x`x`x`x`x`x`x`x`x`x`x`x`x`x`x`x`x`x`x`x`x`x`x`x`x``",
"````````````````````````````````````````````````````````````````````````````````````````````````````````````````````````````````"
};
