/* XPM */
static char * camera16_xpm[] = {
"16 16 124 2",
"  	c None",
". 	c #757575",
"+ 	c #686868",
"@ 	c #D0D0D0",
"# 	c #D4D4D4",
"$ 	c #DEDEDE",
"% 	c #DADADA",
"& 	c #CFCFD0",
"* 	c #CCCCCF",
"= 	c #C5C6C8",
"- 	c #BDBDBD",
"; 	c #F2F2F2",
"> 	c #F0F0F0",
", 	c #ECECEC",
"' 	c #E5E5E5",
") 	c #E0E0E0",
"! 	c #D9D9D9",
"~ 	c #F4F4F4",
"{ 	c #F5F5F5",
"] 	c #E7E7E6",
"^ 	c #DDDFE2",
"/ 	c #A8C2E9",
"( 	c #A8BFE3",
"_ 	c #74787E",
": 	c #FFFFFF",
"< 	c #FEFEFE",
"[ 	c #F6F6F6",
"} 	c #EDEDED",
"| 	c #E4E4E4",
"1 	c #DBDBDB",
"2 	c #EEEEEE",
"3 	c #E6E6E6",
"4 	c #E8E8E8",
"5 	c #D3D5D7",
"6 	c #A8BFDE",
"7 	c #AEC1DB",
"8 	c #73767A",
"9 	c #C9C9C9",
"0 	c #DDDDDD",
"a 	c #D5D5D5",
"b 	c #CECECE",
"c 	c #C7C7C7",
"d 	c #C3C3C3",
"e 	c #E9E9E9",
"f 	c #EAEAEA",
"g 	c #BBBBBB",
"h 	c #999998",
"i 	c #A7A7A5",
"j 	c #D6D6D6",
"k 	c #D7D6D6",
"l 	c #DBDADA",
"m 	c #787878",
"n 	c #B4B4B4",
"o 	c #AAAAAA",
"p 	c #A5A5A5",
"q 	c #A0A0A0",
"r 	c #AEAEAE",
"s 	c #DEDEDD",
"t 	c #575C65",
"u 	c #333E5B",
"v 	c #42444F",
"w 	c #A4A3A2",
"x 	c #CCCCCC",
"y 	c #CBCBCB",
"z 	c #D7D7D7",
"A 	c #777777",
"B 	c #B3B3B3",
"C 	c #A9A9A9",
"D 	c #A4A4A4",
"E 	c #9D9D9D",
"F 	c #F9F9F9",
"G 	c #C9C8C5",
"H 	c #15244F",
"I 	c #4E82E3",
"J 	c #192E62",
"K 	c #7C7A75",
"L 	c #C1C1C1",
"M 	c #BCBCBC",
"N 	c #6B6B6B",
"O 	c #B1B1B1",
"P 	c #AFAFAF",
"Q 	c #A6A6A6",
"R 	c #9B9B9B",
"S 	c #B0B0B0",
"T 	c #E3E3E2",
"U 	c #596372",
"V 	c #6A8FBD",
"W 	c #505D6E",
"X 	c #9A9998",
"Y 	c #C2C2C2",
"Z 	c #9C9C9C",
"` 	c #797979",
" .	c #494949",
"..	c #ACACAC",
"+.	c #989898",
"@.	c #D2D2D1",
"#.	c #B3B4B4",
"$.	c #ADADAD",
"%.	c #B6B7B7",
"&.	c #878787",
"*.	c #7B7B7B",
"=.	c #4A4A4A",
"-.	c #A8A8A8",
";.	c #999999",
">.	c #959595",
",.	c #8E8E8E",
"'.	c #CFCECE",
").	c #7A7A7A",
"!.	c #B5B5B5",
"~.	c #9F9F9F",
"{.	c #B2B2B2",
"].	c #CDCDCD",
"^.	c #C8C8C8",
"/.	c #969696",
"(.	c #949494",
"_.	c #929292",
":.	c #565656",
"<.	c #D8D8D8",
"[.	c #D3D3D3",
"}.	c #C4C4C4",
"|.	c #BFBFBF",
"1.	c #B6B6B6",
"2.	c #A7A7A7",
"3.	c #5D5D5D",
"                                ",
"                                ",
"    . +         @ # $ % & * =   ",
"- ; > , ' ) ! $ ~ { > ] ^ / ( _ ",
"% : < [ } | 1 2 ; 3 4 ' 5 6 7 8 ",
"9 0 a b c d e f g h i 9 j k l m ",
"n n o p q r [ s t u v w x y z A ",
"n B C D E g F G H I J K c L M N ",
"O P Q q R S ; T U V W X Y Z `  .",
"P ..D E +.Z $ 4 @.#.$.%.g &.*.=.",
"..-.q ;.>.,.r 1 ! '.d - Z *.).=.",
"!.!.P C Q ~.Z {.].^.d ../.(._.:.",
"g | 0 <.[.b 9 }.}.|.g 1.{.P 2.3.",
"                                ",
"                                ",
"                                "};
