/* XPM */
static char * center_xpm[] = {
"19 19 56 1",
" 	c None",
".	c #1B6CD0",
"+	c #206DCC",
"@	c #ECF7FF",
"#	c #2D79D4",
"$	c #B86920",
"%	c #EAF5FF",
"&	c #A9D7FF",
"*	c #2A78D4",
"=	c #FFFFDE",
"-	c #FFFFD3",
";	c #FFFFC9",
">	c #FFFBC0",
",	c #FFF9C0",
"'	c #E7F4FF",
")	c #9FD0FF",
"!	c #2876D4",
"~	c #FFFFD0",
"{	c #FFFF19",
"]	c #FFFB02",
"^	c #FFE200",
"/	c #FFD900",
"(	c #E4F2FF",
"_	c #93C9FF",
":	c #2574D4",
"<	c #4C4465",
"[	c #FFFFC3",
"}	c #FFF900",
"|	c #FFF000",
"1	c #FFD600",
"2	c #FFCE00",
"3	c #E0F0FF",
"4	c #83C0FF",
"5	c #2172D4",
"6	c #FFFDC0",
"7	c #FFEE00",
"8	c #FFE500",
"9	c #FFCB00",
"0	c #FFC200",
"a	c #DDEDFF",
"b	c #74B6FF",
"c	c #1D70D4",
"d	c #FFFAC0",
"e	c #FFDA00",
"f	c #FFC000",
"g	c #FAB100",
"h	c #D9EBFF",
"i	c #64ADFF",
"j	c #196DD4",
"k	c #D6E9FF",
"l	c #59A6FF",
"m	c #166CD4",
"n	c #065DC9",
"o	c #006A00",
"p	c #00FF00",
"q	c #00AE00",
"                   ",
"                   ",
"                   ",
"          ......+  ",
"          .@@@@@#  ",
"  $$$$$$$ .%&&&&*  ",
"  $=-;>,$ .'))))!  ",
"  $~{]^/$ .(____:  ",
"<<$[}|12$<.344445<<",
"<<$67890$<.abbbbc<<",
"  $d^efg$ .hiiiij  ",
"  $$$$$$$ .kllllm  ",
"          .kllllm  ",
"          .mmmmmn  ",
"            ooooooo",
"            opppppo",
"             oqqqo ",
"              oqo  ",
"               o   "};
