/* XPM */
static char *check16rmask[]={
"16 16 2 1",
"# c #000000",
". c #ff0000",
"................",
"................",
"................",
".............##.",
"............##..",
"...........##...",
"..........##....",
".........###....",
"........###.....",
".#.....###......",
".#########......",
"..#######.......",
"...######.......",
".....###........",
"......#.........",
"................"};
