/* XPM */
static char * chem_xpm[] = {
"16 16 137 2",
"  	c None",
". 	c #F2AA34",
"+ 	c #E9CFB3",
"@ 	c #57563E",
"# 	c #F37121",
"$ 	c #DB995F",
"% 	c #FED4B3",
"& 	c #D4B38B",
"* 	c #CF1614",
"= 	c #57534E",
"- 	c #D2824B",
"; 	c #DE7F3A",
"> 	c #BE9376",
", 	c #FED9BD",
"' 	c #D0A877",
") 	c #393834",
"! 	c #87836A",
"~ 	c #1F1D17",
"{ 	c #1E1C15",
"] 	c #B34A21",
"^ 	c #F07E2E",
"/ 	c #FFA553",
"( 	c #FEC9A8",
"_ 	c #FEDDCB",
": 	c #C9AF93",
"< 	c #35332F",
"[ 	c #24231A",
"} 	c #B0271A",
"| 	c #F55F25",
"1 	c #F08330",
"2 	c #FF9E4D",
"3 	c #FED6BB",
"4 	c #FAE0D5",
"5 	c #A99F8F",
"6 	c #282719",
"7 	c #28281A",
"8 	c #27251A",
"9 	c #682711",
"0 	c #F86128",
"a 	c #F78D3F",
"b 	c #DC9653",
"c 	c #EFCAA3",
"d 	c #DEBCAF",
"e 	c #E35C52",
"f 	c #AF221F",
"g 	c #8B8A81",
"h 	c #7F7E76",
"i 	c #52524A",
"j 	c #3F3E24",
"k 	c #41402A",
"l 	c #1F1C12",
"m 	c #EC4726",
"n 	c #F0793B",
"o 	c #FEBD84",
"p 	c #E9C198",
"q 	c #EB6D6B",
"r 	c #FE3028",
"s 	c #FC2723",
"t 	c #584E45",
"u 	c #616055",
"v 	c #68685F",
"w 	c #3A3D3C",
"x 	c #23231C",
"y 	c #212015",
"z 	c #373623",
"A 	c #CE3C29",
"B 	c #BC341E",
"C 	c #D97E4E",
"D 	c #8C755E",
"E 	c #5B584B",
"F 	c #7B3A32",
"G 	c #DD2521",
"H 	c #B4302C",
"I 	c #4B4D47",
"J 	c #4B4C4A",
"K 	c #F6F6F6",
"L 	c #7D7E7E",
"M 	c #777563",
"N 	c #3E3923",
"O 	c #601C12",
"P 	c #942A1A",
"Q 	c #82452C",
"R 	c #5E5D52",
"S 	c #494B45",
"T 	c #484840",
"U 	c #31221C",
"V 	c #462624",
"W 	c #4B2A29",
"X 	c #160E0D",
"Y 	c #434241",
"Z 	c #232323",
"` 	c #B43023",
" .	c #9E291B",
"..	c #683A33",
"+.	c #59584E",
"@.	c #303231",
"#.	c #464843",
"$.	c #4F4F48",
"%.	c #9A2220",
"&.	c #751413",
"*.	c #851E16",
"=.	c #7D6862",
"-.	c #52534B",
";.	c #56554B",
">.	c #5F5D52",
",.	c #535249",
"'.	c #4E2522",
").	c #C21815",
"!.	c #AB2A1F",
"~.	c #B52E20",
"{.	c #DF442D",
"].	c #383633",
"^.	c #55554D",
"/.	c #40423E",
"(.	c #505148",
"_.	c #805448",
":.	c #FE2F27",
"<.	c #F92926",
"[.	c #B42E1F",
"}.	c #8A2418",
"|.	c #BF3D25",
"1.	c #4D3630",
"2.	c #6F706F",
"3.	c #201313",
"4.	c #4C4642",
"5.	c #54544C",
"6.	c #CE2C28",
"7.	c #A61D1A",
"8.	c #A03622",
"9.	c #512417",
"0.	c #EF2D27",
"a.	c #BB2F2B",
"b.	c #3C2423",
"c.	c #DB2621",
"d.	c #F16A68",
"e.	c #ADADAC",
"f.	c #2C2524",
"                . +             ",
"          @   # $ % &           ",
"    *     = - ; > , ' )         ",
"    ! ~ { ] ^ / ( _ : <         ",
"    [   } | 1 2 3 4 5           ",
"  6 7 8 9 0 a b c d e f   g h   ",
"i j k l   m n o p q r s t u v w ",
"  x y z A B C D E F G H I J K L ",
"  M   N O P Q R S T U V W X Y Z ",
"      `    ...+.@.#.$.%.&.      ",
"          *.=.-.;.>.,.'.).      ",
"        !.~.{.].^./.(._.:.<.    ",
"        [.}.|.1.2.3.4.5.6.7.    ",
"            8.9.    0.a.b.      ",
"                    c.d.e.      ",
"                      f.        "};
