/* XPM */
static char * clean [] = {
"20 20 9 1",
"0 c #B3B3B3",
"1 c black",
"2 c #858585",
"3 c #757575",
"6 c #D1D1D1",
"7 c #FFFFFF",
"M c #A3A3A3",
"Q c #8C9C94",
"U c #DEC6C6",
"00000000001000000000",
"00000000001000000000",
"00000000001000000000",
"00000000001000000000",
"00000000001000000000",
"00000000001000000000",
"00000000001000000000",
"00111111111111111100",
"00122222222222222100",
"00111111111111111100",
"00033333333333333000",
"000367777777777U6000",
"000367777777777U3000",
"00637777777777773700",
"00667777777777776600",
"00337M77U77U7UM7MM70",
"077222QU33QQM3MM0MU0",
"000737637UM070006677",
"00000000000000000000",
"00000000000000000000"};
