/* XPM */
static char * clip [] = {
"20 20 2 1",
"0 s iconGray8 m black c #000000",
"3 c #D1D1D1",
"33333333333333333333",
"33333333000333333333",
"33333333030333333333",
"33330000030000033333",
"33303333030333303333",
"33303330030033300333",
"33303300000003300333",
"33303000000000300333",
"33303333333333300333",
"33303333333333300333",
"33303333333333300333",
"33303333333333300333",
"33303333333333300333",
"33303333333333300333",
"33303333333333300333",
"33303333333333300333",
"33300333333333303333",
"33330000000000003333",
"33333300000000333333",
"33333333333333333333"};
