#define test.xbm_width 16
#define test.xbm_height 16
static unsigned char test.xbm_bits[] = {
   0x00, 0x00, 0x00, 0x00, 0xfc, 0x3f, 0xfc, 0x3f, 0xfc, 0x3f, 0xfc, 0x3f,
   0xfc, 0x3f, 0xfc, 0x3f, 0xfc, 0x3f, 0xfc, 0x3f, 0xfc, 0x3f, 0xfc, 0x3f,
   0xfc, 0x3f, 0xfc, 0x3f, 0x00, 0x00, 0x00, 0x00};
