#define test.xbm_width 16
#define test.xbm_height 16
static unsigned char test.xbm_bits[] = {
   (char)0x00, (char)0x00, (char)0x00, (char)0x00, (char)0xfc, (char)0x3f, (char)0xfc, (char)0x3f, (char)0xfc, (char)0x3f, (char)0xfc, (char)0x3f,
   (char)0xfc, (char)0x3f, (char)0xfc, (char)0x3f, (char)0xfc, (char)0x3f, (char)0xfc, (char)0x3f, (char)0xfc, (char)0x3f, (char)0xfc, (char)0x3f,
   (char)0xfc, (char)0x3f, (char)0xfc, (char)0x3f, (char)0x00, (char)0x00, (char)0x00, (char)0x00};
