/* XPM */
static char * continuebtni [] = {
"40 26 18 1",
"0 c #000000",
"1 c #A3A3A3",
"2 c #666666",
"3 c #858585",
"4 c #757575",
"5 c #515151",
"6 c #F0F0F0",
"7 c #3D3D3D",
"8 c #8C9C94",
"9 c #C2C2C2",
"A c #949494",
"B c #666666",
"C c #6B737B",
"D c #FFFFFF",
"E c #E1E1E1",
"F c #D1D1D1",
"G c #000000",
"H c #B3B3B3",
"4CCCCCCCC4CCCCCCCCCCCCCCCCCCCC4CCCC444CB",
"AHHHHHHHHHHHHHHHHH11111111111111HH1H1113",
"HFFFFFFFFFFFFFFFF999999999HH999999999H9A",
"9EEEEEEEEEEEEEEEEEEEFFFFFFFFFFFFFFFFFFF1",
"96DDDE6666666666666666666EE6E66E666333EH",
"9DDDDDDDDDDDDDDDDDDDDDDDDDDDDDDDDDD333D9",
"HDDDDDDDDDDDDDDDDDDDDDDDDDDDDDDDDDD333D9",
"HDDDDDDDDDDDDDDDDDDDDDDDDDDDD3DDDDD333DH",
"HDDDDDDDDDDDDDDDDDDDDDDDDDDDD33DDDD333DH",
"HD333333333333333333333333333333DDD333D9",
"HD3333333333333333333333333333333DD333DH",
"HD33333333333333333333333333333333D3336H",
"HE333333333333333333333333333333333333D9",
"HE333333333333333333333333333333333333D9",
"9E33333333333333333333333333333333E333D9",
"HE3333333333333333333333333333333EE33369",
"HE333333333333333333333333333333EEE3336H",
"HE9EEEFFEEEEEEEEEEEEEEEEEEEEE33EEEE333EH",
"HHH999FFFFFEFEEFFFFFEEEFFEFEF3FFFFF333FH",
"1H9H9HH99FFFFFFFFFFFFFFFFFFF9999999333F1",
"1H9HHHHH9999999999999999999999999993339A",
"1HHHHHHHHHHHHHHHHHHHHHHHHHHHHHHHHHH333HA",
"AHHHHHHHH1H1111HH1HHHHHHHHH11HHH1113331A",
"A111111111111111111111111111111111111113",
"3A8AAAAAAAAAAAAA8A38AAA8A8AAAAA8AAA8AAA3",
"B2222222252222222222222B222B222225522555"};
