/* XPM */
static char * continuebtn [] = {
"40 26 18 1",
"0 c #000000",
"1 c #A3A3A3",
"2 c #666666",
"3 c #858585",
"4 c #757575",
"5 c #515151",
"6 c #F0F0F0",
"7 c #3D3D3D",
"8 c #8C9C94",
"9 c #C2C2C2",
"A c #949494",
"B c #666666",
"C c #6B737B",
"D c #FFFFFF",
"E c #E1E1E1",
"F c #D1D1D1",
"G c #000000",
"H c #B3B3B3",
"4CCCCCCCC4CCCCCCCCCCCCCCCCCCCC4CCCC444CB",
"AHHHHHHHHHHHHHHHHH11111111111111HH1H1113",
"HFFFFFFFFFFFFFFFF999999999HH999999999H9A",
"9EEEEEEEEEEEEEEEEEEEFFFFFFFFFFFFFFFFFFF1",
"96DDDE6666666666666666666EE6E66E666000EH",
"9DDDDDDDDDDDDDDDDDDDDDDDDDDDDDDDDDD000D9",
"HDDDDDDDDDDDDDDDDDDDDDDDDDDDDDDDDDD000D9",
"HDDDDDDDDDDDDDDDDDDDDDDDDDDDD0DDDDD000DH",
"HDDDDDDDDDDDDDDDDDDDDDDDDDDDD00DDDD000DH",
"HD000000000000000000000000000000DDD000D9",
"HD0000000000000000000000000000000DD000DH",
"HD00000000000000000000000000000000D0006H",
"HE000000000000000000000000000000000000D9",
"HE000000000000000000000000000000000000D9",
"9E00000000000000000000000000000000E000D9",
"HE0000000000000000000000000000000EE00069",
"HE000000000000000000000000000000EEE0006H",
"HE9EEEFFEEEEEEEEEEEEEEEEEEEEE00EEEE000EH",
"HHH999FFFFFEFEEFFFFFEEEFFEFEF0FFFFF000FH",
"1H9H9HH99FFFFFFFFFFFFFFFFFFF9999999000F1",
"1H9HHHHH9999999999999999999999999990009A",
"1HHHHHHHHHHHHHHHHHHHHHHHHHHHHHHHHHH000HA",
"AHHHHHHHH1H1111HH1HHHHHHHHH11HHH1110001A",
"A111111111111111111111111111111111111113",
"3A8AAAAAAAAAAAAA8A38AAA8A8AAAAA8AAA8AAA3",
"B2222222252222222222222B222B222225522555"};
