/* XPM */
static char * cubic24_xpm[] = {
"24 24 212 2",
"  	c None",
". 	c #8F5000",
"+ 	c #9A5600",
"@ 	c #935200",
"# 	c #975400",
"$ 	c #7E4600",
"% 	c #8B4D00",
"& 	c #8F4F00",
"* 	c #C97000",
"= 	c #C56E00",
"- 	c #985400",
"; 	c #512D00",
"> 	c #A65C00",
", 	c #D8820F",
"' 	c #CA7305",
") 	c #995500",
"! 	c #774200",
"~ 	c #A45B00",
"{ 	c #884C00",
"] 	c #B26300",
"^ 	c #D47803",
"/ 	c #D88312",
"( 	c #985500",
"_ 	c #8D4E00",
": 	c #C16B00",
"< 	c #CD7200",
"[ 	c #CB7100",
"} 	c #7A4708",
"| 	c #45331C",
"1 	c #9E5902",
"2 	c #D67D07",
"3 	c #CB7302",
"4 	c #A25A00",
"5 	c #705A3E",
"6 	c #8B6637",
"7 	c #9E5C09",
"8 	c #7C4908",
"9 	c #84500E",
"0 	c #BE6A00",
"a 	c #D97900",
"b 	c #DC7B01",
"c 	c #D57D08",
"d 	c #965300",
"e 	c #BA6800",
"f 	c #C57512",
"g 	c #988976",
"h 	c #4B4A4A",
"i 	c #664214",
"j 	c #A75D00",
"k 	c #B96700",
"l 	c #855314",
"m 	c #575757",
"n 	c #6E6E6E",
"o 	c #747474",
"p 	c #645C51",
"q 	c #706B64",
"r 	c #A7804F",
"s 	c #DC7B00",
"t 	c #DD7B00",
"u 	c #CC7200",
"v 	c #90724D",
"w 	c #8D8D8D",
"x 	c #848484",
"y 	c #494137",
"z 	c #844C05",
"A 	c #B06200",
"B 	c #B56706",
"C 	c #81694C",
"D 	c #555555",
"E 	c #484848",
"F 	c #5C5C5C",
"G 	c #707070",
"H 	c #626262",
"I 	c #797979",
"J 	c #939393",
"K 	c #9D9994",
"L 	c #C6812B",
"M 	c #5C5750",
"N 	c #737373",
"O 	c #898989",
"P 	c #4F4436",
"Q 	c #7D6545",
"R 	c #877967",
"S 	c #7B7B7A",
"T 	c #666666",
"U 	c #686868",
"V 	c #636363",
"W 	c #656565",
"X 	c #959595",
"Y 	c #9A9A9A",
"Z 	c #929292",
"` 	c #7F7B76",
" .	c #76552D",
"..	c #6C6C6C",
"+.	c #565656",
"@.	c #767676",
"#.	c #7D7D7D",
"$.	c #727272",
"%.	c #787878",
"&.	c #818181",
"*.	c #868686",
"=.	c #979797",
"-.	c #8C8C8C",
";.	c #5F5F5F",
">.	c #545454",
",.	c #7E7E7E",
"'.	c #919191",
").	c #909090",
"!.	c #888888",
"~.	c #8F8F8F",
"{.	c #838383",
"].	c #696969",
"^.	c #7A7A7A",
"/.	c #878787",
"(.	c #A5A5A5",
"_.	c #ADADAD",
":.	c #999999",
"<.	c #8E8E8E",
"[.	c #7C7C7C",
"}.	c #616161",
"|.	c #585858",
"1.	c #777777",
"2.	c #8B8B8B",
"3.	c #989898",
"4.	c #CFCFCF",
"5.	c #E0E0E0",
"6.	c #9E9E9E",
"7.	c #606060",
"8.	c #535353",
"9.	c #7B7B7B",
"0.	c #9C9C9C",
"a.	c #A0A0A0",
"b.	c #969696",
"c.	c #676767",
"d.	c #5D5D5D",
"e.	c #595959",
"f.	c #808080",
"g.	c #828282",
"h.	c #615B54",
"i.	c #8A8A8A",
"j.	c #645849",
"k.	c #876C4A",
"l.	c #8F7F6D",
"m.	c #7F7F7E",
"n.	c #646464",
"o.	c #5B5B5B",
"p.	c #85817C",
"q.	c #7E5C30",
"r.	c #915100",
"s.	c #92744E",
"t.	c #8D8C8C",
"u.	c #686055",
"v.	c #8F5205",
"w.	c #BC6C06",
"x.	c #836B4D",
"y.	c #515151",
"z.	c #3E3E3E",
"A.	c #474747",
"B.	c #4A4A4A",
"C.	c #757575",
"D.	c #9E9A94",
"E.	c #CA842C",
"F.	c #C86F00",
"G.	c #9B5600",
"H.	c #BC6900",
"I.	c #C37412",
"J.	c #978876",
"K.	c #6F4818",
"L.	c #C16C00",
"M.	c #B66500",
"N.	c #845314",
"O.	c #433E39",
"P.	c #696560",
"Q.	c #A47E4E",
"R.	c #DC7A01",
"S.	c #E07D01",
"T.	c #D27500",
"U.	c #AA5F00",
"V.	c #905000",
"W.	c #CA7000",
"X.	c #A6630F",
"Y.	c #5A4328",
"Z.	c #A25B02",
"`.	c #DC830E",
" +	c #CE7504",
".+	c #68543A",
"++	c #836034",
"@+	c #7B4808",
"#+	c #4E2F08",
"$+	c #7A4A0D",
"%+	c #D77800",
"&+	c #DE7E03",
"*+	c #DA820E",
"=+	c #9E5800",
"-+	c #8C4E00",
";+	c #C06B00",
">+	c #A15A00",
",+	c #794300",
"'+	c #D17B09",
")+	c #C57003",
"!+	c #6F3D00",
"~+	c #8D4F00",
"{+	c #804700",
"]+	c #AB5F00",
"^+	c #CF7502",
"/+	c #D27E0C",
"(+	c #955300",
"_+	c #824900",
":+	c #854A00",
"<+	c #764200",
"[+	c #814700",
"}+	c #8A4D00",
"                                                ",
"                                                ",
"                                                ",
"  . +         @ #             $ %         @ @   ",
"& * = - ;   > , ' )         ! # ~ +   { ] ^ / ( ",
"_ : < [ } | 1 2 3 4         5 6 7 8 9 0 a b c + ",
"  d e f g h i j k ] l     m n o p q r s t u 4   ",
"    % v w x y z A B C D E F G H I J K L : )     ",
"      M N O o P Q R S T U V W x X Y Z `  .      ",
"          ..x H +.@.#.$.%.&.*.=.=.-.N           ",
"            V ;.>.T I ,.'.).!.~.{.].            ",
"              D N ^./.(._.:.<.[.}.              ",
"              |.1.2.3.4.5.6.).,.7.              ",
"              8.$.9.O 0.a.b.-.9.V               ",
"            c.d.e.n f.g.w -.x ).O G             ",
"          G *.%.;.#.{.o o 9.g.=.Y ).^.          ",
"      h.@.i.-.j.k.l.m.n.7.o.F f.X 0.b.p.q.      ",
"    r.s.t.~.u.v.e w.x.y.z.A.y.B.C.).D.E.F.4     ",
"  G.H.I.J.$.K.A L.M.N.    y.c.|.O.P.Q.R.S.T.U.  ",
"V.: W.= X.Y.Z.`. +4         .+++@+#+$+k %+&+*+=+",
"-+;+0 >+,+  >+'+)+@         !+~+G.{+  {+]+^+/+(+",
"  _+r.        { :+            <+[+        { }+  ",
"                                                ",
"                                                "};
