/* XPM */
static char * cubic48_xpm[] = {
"48 48 413 2",
"  	c None",
". 	c #764200",
"+ 	c #754100",
"@ 	c #834900",
"# 	c #663900",
"$ 	c #744000",
"% 	c #794300",
"& 	c #643800",
"* 	c #7A4400",
"= 	c #713F00",
"- 	c #814800",
"; 	c #734000",
"> 	c #A65D00",
", 	c #A25A00",
"' 	c #B16300",
") 	c #9D5700",
"! 	c #965300",
"~ 	c #AE6100",
"{ 	c #B36300",
"] 	c #A55C00",
"^ 	c #965400",
"/ 	c #8D4E00",
"( 	c #9B5600",
"_ 	c #804700",
": 	c #7E4600",
"< 	c #874B00",
"[ 	c #B06200",
"} 	c #B46400",
"| 	c #A85D00",
"1 	c #703E00",
"2 	c #A75D00",
"3 	c #C46D00",
"4 	c #CA7100",
"5 	c #B96700",
"6 	c #A65C00",
"7 	c #5B3300",
"8 	c #925100",
"9 	c #CD7200",
"0 	c #D27500",
"a 	c #C97000",
"b 	c #AB5F00",
"c 	c #8E4F00",
"d 	c #693B00",
"e 	c #854A00",
"f 	c #975400",
"g 	c #A15900",
"h 	c #A35B00",
"i 	c #995500",
"j 	c #AC6000",
"k 	c #C26C00",
"l 	c #D07400",
"m 	c #C76F00",
"n 	c #844900",
"o 	c #CB7100",
"p 	c #CE7300",
"q 	c #BD6900",
"r 	c #824800",
"s 	c #4B2A00",
"t 	c #E38D15",
"u 	c #F3A93A",
"v 	c #D87800",
"w 	c #955300",
"x 	c #774200",
"y 	c #915100",
"z 	c #9E5800",
"A 	c #A45C00",
"B 	c #945200",
"C 	c #B46500",
"D 	c #C86F00",
"E 	c #D57700",
"F 	c #E48206",
"G 	c #F5B64A",
"H 	c #D67801",
"I 	c #BA6700",
"J 	c #8A4D00",
"K 	c #A35A00",
"L 	c #CF7300",
"M 	c #C16C00",
"N 	c #4B2A01",
"O 	c #432E14",
"P 	c #563103",
"Q 	c #E0850A",
"R 	c #EB991C",
"S 	c #BE6A00",
"T 	c #663F0F",
"U 	c #7E5119",
"V 	c #8E5C1C",
"W 	c #A05C08",
"X 	c #A45B00",
"Y 	c #9C5700",
"Z 	c #894C00",
"` 	c #5B3200",
" .	c #A05900",
"..	c #BB6800",
"+.	c #DF7D00",
"@.	c #D27603",
"#.	c #EA9D21",
"$.	c #D57701",
"%.	c #6C3C00",
"&.	c #B56500",
"*.	c #B66602",
"=.	c #493822",
"-.	c #353535",
";.	c #4E381B",
">.	c #8B4D00",
",.	c #B86600",
"'.	c #D37500",
").	c #B76600",
"!.	c #915000",
"~.	c #5A5651",
"{.	c #686868",
"].	c #717171",
"^.	c #7A7268",
"/.	c #916732",
"(.	c #A15A02",
"_.	c #905000",
":.	c #59380F",
"<.	c #5E5140",
"[.	c #A85E00",
"}.	c #C16B00",
"|.	c #DA7A00",
"1.	c #E07D00",
"2.	c #E17E00",
"3.	c #DD7B00",
"4.	c #784300",
"5.	c #9C5600",
"6.	c #BF6A00",
"7.	c #D07401",
"8.	c #AA8557",
"9.	c #7E7E7E",
"0.	c #373634",
"a.	c #6E430C",
"b.	c #B86700",
"c.	c #B36400",
"d.	c #77480E",
"e.	c #4C4C4C",
"f.	c #626262",
"g.	c #6E6E6E",
"h.	c #747474",
"i.	c #767676",
"j.	c #755B3A",
"k.	c #5A4326",
"l.	c #65625F",
"m.	c #7F7B76",
"n.	c #BD7316",
"o.	c #D47600",
"p.	c #DC7B00",
"q.	c #DB7A00",
"r.	c #BC6900",
"s.	c #AB8453",
"t.	c #939393",
"u.	c #929292",
"v.	c #656565",
"w.	c #363636",
"x.	c #413526",
"y.	c #7D4601",
"z.	c #87571A",
"A.	c #5A5A5A",
"B.	c #6A6A6A",
"C.	c #727272",
"D.	c #5F5F5F",
"E.	c #6D6D6D",
"F.	c #818181",
"G.	c #8E8E8E",
"H.	c #AE8A5D",
"I.	c #DD7B01",
"J.	c #DE7C00",
"K.	c #A15A00",
"L.	c #AF6B15",
"M.	c #8D8882",
"N.	c #909090",
"O.	c #4E4E4E",
"P.	c #5B390E",
"Q.	c #B26300",
"R.	c #87663E",
"S.	c #5B5B5B",
"T.	c #515151",
"U.	c #707070",
"V.	c #757575",
"W.	c #5D5D5D",
"X.	c #585858",
"Y.	c #868686",
"Z.	c #919191",
"`.	c #979797",
" +	c #9B9B9B",
".+	c #CA8731",
"++	c #D57600",
"@+	c #826643",
"#+	c #7D7D7D",
"$+	c #888888",
"%+	c #8D8D8D",
"&+	c #464646",
"*+	c #3D3428",
"=+	c #774302",
"-+	c #B66500",
";+	c #A46D28",
">+	c #797673",
",+	c #4F4F4F",
"'+	c #474747",
")+	c #454545",
"!+	c #545454",
"~+	c #616161",
"{+	c #7A7A7A",
"]+	c #898989",
"^+	c #999999",
"/+	c #9C9C9C",
"(+	c #A09586",
"_+	c #C77917",
":+	c #C36C00",
"<+	c #AD6000",
"[+	c #8F4F00",
"}+	c #594C3B",
"|+	c #696969",
"1+	c #858585",
"2+	c #797979",
"3+	c #393939",
"4+	c #4A3B28",
"5+	c #7C521C",
"6+	c #936122",
"7+	c #A06A26",
"8+	c #97754A",
"9+	c #827F7B",
"0+	c #7B7B7B",
"a+	c #5E5E5E",
"b+	c #646464",
"c+	c #606060",
"d+	c #595959",
"e+	c #4D4D4D",
"f+	c #575757",
"g+	c #6B6B6B",
"h+	c #7F7F7F",
"i+	c #8C8C8C",
"j+	c #949494",
"k+	c #9A9A9A",
"l+	c #8F8F8F",
"m+	c #8A8176",
"n+	c #8C6535",
"o+	c #76480E",
"p+	c #838383",
"q+	c #8B8B8B",
"r+	c #777777",
"s+	c #5C5C5C",
"t+	c #737373",
"u+	c #848484",
"v+	c #969696",
"w+	c #555555",
"x+	c #808080",
"y+	c #8A8A8A",
"z+	c #3C3C3C",
"A+	c #7C7C7C",
"B+	c #636363",
"C+	c #878787",
"D+	c #3D3D3D",
"E+	c #4A4A4A",
"F+	c #959595",
"G+	c #505050",
"H+	c #787878",
"I+	c #828282",
"J+	c #989898",
"K+	c #6C6C6C",
"L+	c #565656",
"M+	c #484848",
"N+	c #9E9E9E",
"O+	c #9D9D9D",
"P+	c #666666",
"Q+	c #B0B0B0",
"R+	c #D1D1D1",
"S+	c #C0C0C0",
"T+	c #A1A1A1",
"U+	c #525252",
"V+	c #A0A0A0",
"W+	c #D7D7D7",
"X+	c #FFFFFF",
"Y+	c #F2F2F2",
"Z+	c #ADADAD",
"`+	c #6F6F6F",
" @	c #676767",
".@	c #C8C8C8",
"+@	c #F6F6F6",
"@@	c #E3E3E3",
"#@	c #A8A8A8",
"$@	c #A2A2A2",
"%@	c #B1B1B1",
"&@	c #A9A9A9",
"*@	c #494949",
"=@	c #5E503E",
"-@	c #4F3F2A",
";@	c #87581F",
">@	c #9E6825",
",@	c #A97028",
"'@	c #9F7B4E",
")@	c #878481",
"!@	c #444444",
"~@	c #90877B",
"{@	c #946B38",
"]@	c #7F4E10",
"^@	c #866945",
"/@	c #483E32",
"(@	c #814902",
"_@	c #C06B00",
":@	c #AA7129",
"<@	c #7B7976",
"[@	c #4B4B4B",
"}@	c #404040",
"|@	c #414141",
"1@	c #3B3B3B",
"2@	c #383838",
"3@	c #A39788",
"4@	c #CD7D18",
"5@	c #CA7000",
"6@	c #8F5000",
"7@	c #A95E00",
"8@	c #B16C15",
"9@	c #8D8883",
"0@	c #623D0E",
"a@	c #9A5600",
"b@	c #C36D00",
"c@	c #B66600",
"d@	c #88683E",
"e@	c #CC8833",
"f@	c #D97900",
"g@	c #7D4500",
"h@	c #985500",
"i@	c #AF6200",
"j@	c #A98252",
"k@	c #443726",
"l@	c #884C01",
"m@	c #AA5F00",
"n@	c #AC895C",
"o@	c #DC7B01",
"p@	c #E27E01",
"q@	c #D37600",
"r@	c #C56E00",
"s@	c #8C4E00",
"t@	c #CC7200",
"u@	c #CC7201",
"v@	c #A58155",
"w@	c #3E3D3C",
"x@	c #72440C",
"y@	c #74470D",
"z@	c #3D3121",
"A@	c #4A3923",
"B@	c #605D59",
"C@	c #7A7772",
"D@	c #B87016",
"E@	c #D17400",
"F@	c #E17E01",
"G@	c #E37F01",
"H@	c #DF7C00",
"I@	c #D77800",
"J@	c #703F00",
"K@	c #9F5800",
"L@	c #CC7100",
"M@	c #BD6A02",
"N@	c #927147",
"O@	c #4D371B",
"P@	c #AE6000",
"Q@	c #54504B",
"R@	c #736C63",
"S@	c #845E2E",
"T@	c #5B3301",
"U@	c #4B300E",
"V@	c #584C3C",
"W@	c #E07D01",
"X@	c #E48002",
"Y@	c #DA7900",
"Z@	c #7F4700",
"`@	c #BA6800",
" #	c #8B4D01",
".#	c #6A3C03",
"+#	c #E58C13",
"@#	c #F2A433",
"##	c #BE6900",
"$#	c #7B4400",
"%#	c #5E3A0D",
"&#	c #754B17",
"*#	c #85561A",
"=#	c #975707",
"-#	c #5A3200",
";#	c #432500",
">#	c #D37906",
",#	c #F2AB3A",
"'#	c #D77801",
")#	c #DD840D",
"!#	c #EA9C23",
"~#	c #6E3D00",
"{#	c #9B5700",
"]#	c #9D5800",
"^#	c #E07F04",
"/#	c #ECA931",
"(#	c #D37601",
"_#	c #6D3D00",
":#	c #B16200",
"<#	c #8B4E00",
"[#	c #C66E00",
"}#	c #864B00",
"|#	c #623600",
"1#	c #7C4500",
"2#	c #8D4F00",
"3#	c #7C4400",
"4#	c #935200",
"5#	c #673900",
"6#	c #794400",
"7#	c #744100",
"8#	c #AA5E00",
"9#	c #7D4600",
"0#	c #5D3400",
"a#	c #693A00",
"b#	c #6F3E00",
"c#	c #603600",
"d#	c #5C3300",
"e#	c #683A00",
"f#	c #6B3C00",
"                                                                                                ",
"                                                                                                ",
"                                                                                                ",
"                                                                                                ",
"                                                                                                ",
"    . + @                 # $ % .                           & & * =                 - ; .       ",
"  @ > , ' ) *           = ! ~ { ] ^                       . / ( , ) _           : < [ } | <     ",
"1 2 3 4 3 5 6 7         8 5 9 0 a b c                   d e f g ] h i         c j k l 0 m b +   ",
"n , o p 9 m q r s       h m t u v q w                   x y z A ] g ^       B C D E F G H I J   ",
"_ K 3 o L p 4 M = N O P , D Q R v S g :               T U V W > X Y Z ` _  ...9 v +.@.#.$.5 <   ",
"%.( &.k 4 L l 9 *.=.-.;.>.,.9 '.m ).b !.              ~.{.].^./.(._.:.<.[.}.l |.1.2.3.E 3 6 %   ",
"  4.5.[ 6.a L 7.8.9.-.0.a.Y ~ b.....c.g d.          e.f.g.h.i.h.j.k.l.m.n.o.p.1.1.q.0 k  .;     ",
"    + 8 j r.m s.t.u.v.w.x.y.z [ 5 ..).b z.          A.B.C.i.i.D.e.E.F.G.H.I.1.J.v 9 q K.r       ",
"        Z ] L.M.N.t.t.O.-.P.c 6 } I 5 Q.R.S.      T.v.U.i.V.W.X.h.Y.Z.`. +.+p.++D &.f           ",
"          r @+#+$+G.u.%+&+*+=+i j -+5 ;+>+{.,+&+'+)+!+E.i.!+~+{+]+t.^+/+ +(+_+:+<+[+            ",
"            }+|+{+1+%+u.2+3+4+5+6+7+8+9+0+].a+a+b+c+d+e+f+g+h+i+j+^+ +k+`.l+m+n+o+              ",
"              O.f.i.p+q+Z.B.w.O.{.V.#+h+9.r+|+s+i.t+g.{.C.u+l+v+k+ +^+j+i+9.B.w+                ",
"                  S.].x+y+l+d+z+s+g.2+9.9.{+].c+i.x+A+r+1+Z.`.k+k+`.u.$+{+B+                    ",
"                    X.g+A+C+u+D+E+v.t+0+9.A+i.g+x+y+Y.F.C+`.k+^+F+G.u+C.D.                      ",
"                      G+v.H+r+O.)+X.g+i.A+#+{+{+t.Z.G.$+I+t.J+t.q+h+K+L+                        ",
"                          S.G+S.v.,+~+U.H+0+9.N.J+`.t.l+$+F.i+C+2+~+                            ",
"                            M+f.C.i.v.{.r+C+^+N+O+k+`.t.i+u+{+t+A.                              ",
"                            ,+P+V.F.y+N.v+/+Q+R+S+T+k+F+l+C+A+E.f+                              ",
"                            U+{.r+I+q+u.J+V+W+X+Y+Z+ +v+N.$+#+`+A.                              ",
"                            U+ @i.F.q+Z.`.N+.@+@@@#@k+F+l+C+#+`+A.                              ",
"                            O.b+h.h+$+l+j+^+$@%@&@/+J+j+%+1+{+K+L+                              ",
"                            &+D.U.V.B.U.9.y+`.^+^+`.j+N.y+F.H+r+c+                              ",
"                          a+M+f+|+L+|+H+x+I+p+G.j+t.N.q+u+9.G.%+x+|+                            ",
"                      L+|+0+r+e+e+D.t+9.p+I+#+0+G.i+]+u+#+j+ +`.Z.1+t+a+                        ",
"                    W.`+h+]+l+w+G+K+0+I+u+F.{+g+0+u+x+0+p+`. + +^+t.]+2+P+                      ",
"                  c+V.I+q+N.i+*@b+i.x+u+u+9.t+D.].2+V.].I+l+v+ +/+k+v+%+x+B.                    ",
"              !+P+H+u+i+Z.u.d+w+U.#+u+Y.I+{+B.X.g.g+ @c+E.x+i+F+k+/+/+J+Z.1+].W.                ",
"            =@E.#+Y.%+Z.u.C.-@;@>@,@'@)@h+t+A.L+S.X.T.!@!@v.0+]+t.^+O+O+k+j+~@{@]@              ",
"          Z ^@h+$+G.Z.Z.u+/@(@] )._@M :@<@{.[@}@|@1@2@&+}@D+S.i.1+N.J+/+N+3@4@5@-+i             ",
"        6@7@8@9@l+Z.N.q+!+0@a@' S b@_@c@d@d+      1@w+|+|+}@2@T.`+I+G.v+ +e@1.f@L q  .          ",
"    g@h@i@q m j@N.G.y+E.k@l@m@..:+b@q ~ z.          !+B+K+B.}@w.&+{.#+q+n@o@p@p@3.q@r@b s@      ",
"  _ g c._@D t@u@v@$+0+w@x@K c@q k k )., y@          '+S. @E.g+}@z@A@B@C@D@E@q.F@G@H@I@5@2 4.    ",
"J@K@).k a L@o m M@N@!+O@y S q@f@o ,.P@6@              Q@~+B.R@S@T@s U@V@g ..t@v W@X@p@Y@a j Z@  ",
"r X 3 a o a 3 `@b  #O .#X a +#@#Y@## .$#              %#&#*#=#z f -#s ;#. h@&.a E H@>#,#'#..Z   ",
"@  .a 4 m }.&.X e       K.3 )#!#++`@_.                  ~#< B {#]#w 7       >.<+b@0 ^#/#(#).Z   ",
"_#, -+r.q :#Y r         <#Q.[#o k X }#                  |#1#2#f Y Y c         e ] r.5@t@}.] =   ",
"  3#]#>.[.4#+           5#J , 2 a@+                       _#n 8 i w 6#          7#: ] 8#z 9#    ",
"    _#_#*                 0#a#b#a#                          c#d#%.e#                7#f#%.      ",
"                                                                                                ",
"                                                                                                ",
"                                                                                                ",
"                                                                                                ",
"                                                                                                "};
