/* XPM */
static char * cubic18_xpm[] = {
"18 18 151 2",
"  	c None",
". 	c #8C4E00",
"+ 	c #A35B00",
"@ 	c #975400",
"# 	c #A25D04",
"$ 	c #A75E02",
"% 	c #854A00",
"& 	c #925100",
"* 	c #A15A00",
"= 	c #A75F03",
"- 	c #925202",
"; 	c #9C5700",
"> 	c #C76F00",
", 	c #B96700",
"' 	c #673D09",
") 	c #824C09",
"! 	c #CA7608",
"~ 	c #C16D03",
"{ 	c #8A5B1F",
"] 	c #9B5805",
"^ 	c #874F07",
"/ 	c #A55D02",
"( 	c #CB7200",
"_ 	c #D77D07",
": 	c #A96003",
"< 	c #8D4E00",
"[ 	c #AF6100",
"} 	c #C2710D",
"| 	c #806F59",
"1 	c #5F482B",
"2 	c #9F5C06",
"3 	c #9E5C09",
"4 	c #65625E",
"5 	c #766F66",
"6 	c #726048",
"7 	c #8A6F4D",
"8 	c #C87813",
"9 	c #D77800",
"0 	c #BE6B01",
"a 	c #955401",
"b 	c #866740",
"c 	c #858585",
"d 	c #6E6B68",
"e 	c #6C4B22",
"f 	c #A2651A",
"g 	c #936E40",
"h 	c #68625C",
"i 	c #595959",
"j 	c #656565",
"k 	c #6D6D6D",
"l 	c #878787",
"m 	c #979694",
"n 	c #AA8557",
"o 	c #AD6308",
"p 	c #6E6E6E",
"q 	c #7B7B7B",
"r 	c #635F5B",
"s 	c #6C6357",
"t 	c #7D7A76",
"u 	c #717171",
"v 	c #727272",
"w 	c #767676",
"x 	c #898989",
"y 	c #959595",
"z 	c #8A8A8A",
"A 	c #787674",
"B 	c #616161",
"C 	c #5C5C5C",
"D 	c #737373",
"E 	c #7F7F7F",
"F 	c #909090",
"G 	c #8B8B8B",
"H 	c #8D8D8D",
"I 	c #555555",
"J 	c #777777",
"K 	c #ABABAB",
"L 	c #B7B7B7",
"M 	c #818181",
"N 	c #606060",
"O 	c #545454",
"P 	c #888888",
"Q 	c #A7A7A7",
"R 	c #B0B0B0",
"S 	c #939393",
"T 	c #808080",
"U 	c #636363",
"V 	c #626262",
"W 	c #7A7A7A",
"X 	c #828282",
"Y 	c #8C8C8C",
"Z 	c #76726D",
"` 	c #756B5E",
" .	c #83807C",
"..	c #6C6C6C",
"+.	c #707070",
"@.	c #868686",
"#.	c #979797",
"$.	c #8E8E8E",
"%.	c #7E7C7A",
"&.	c #896A42",
"*.	c #888787",
"=.	c #807E7A",
"-.	c #7E5A2D",
";.	c #AB6B1B",
">.	c #987241",
",.	c #66615B",
"'.	c #4D4D4D",
").	c #515151",
"!.	c #848484",
"~.	c #989694",
"{.	c #AE8959",
"].	c #B46808",
"^.	c #B16200",
"/.	c #C0700D",
"(.	c #8F7B63",
"_.	c #745C3E",
":.	c #A86108",
"<.	c #BF6B01",
"[.	c #9F5D09",
"}.	c #5D5A56",
"|.	c #625B53",
"1.	c #564939",
"2.	c #80694B",
"3.	c #C67613",
"4.	c #DA7A01",
"5.	c #C46F02",
"6.	c #9B5701",
"7.	c #9B5600",
"8.	c #C26C00",
"9.	c #B86700",
"0.	c #8C540F",
"a.	c #88510D",
"b.	c #CA7609",
"c.	c #C06D03",
"d.	c #81551D",
"e.	c #814A04",
"f.	c #6A3E07",
"g.	c #9D5802",
"h.	c #C87001",
"i.	c #D77D08",
"j.	c #A96103",
"k.	c #844900",
"l.	c #995600",
"m.	c #965400",
"n.	c #985702",
"o.	c #995601",
"p.	c #7C4500",
"q.	c #874B00",
"r.	c #985500",
"s.	c #9F5A02",
"t.	c #8B4F01",
"                                    ",
"                                    ",
". + @     # $         % &     * = - ",
"; > , ' ) ! ~         { ] ^ / ( _ : ",
"< [ } | 1 2 , 3     4 5 6 7 8 9 0 a ",
"    b c d e f g h i j k l m n o     ",
"      p q r s t u v w x y z A       ",
"          B C D E F G H E           ",
"          I J l K L y M N           ",
"          O J P Q R S T B           ",
"          U V W X G l Y c           ",
"      v X Z `  .v ..+.@.#.$.%.      ",
"    &.*.=.-.;.>.,.'.).i !.~.{.].    ",
"& ^./.(._.:.<.[.    }.|.1.2.3.4.5.6.",
"7.8.9.0.a.b.c.        d.e.f.g.h.i.j.",
"k.l.m.    n.o.        p.q.    r.s.t.",
"                                    ",
"                                    "};
