/* XPM */
static char *noname[] = {
/* width height ncolors chars_per_pixel */
"48 48 30 2",
/* colors */
"`` c #000000",
"`a c #DEC6C6",
"`b c #666666",
"`c c #637B9C",
"`d c #757575",
"`e c #AD9C84",
"`f c #CE9C94",
"`g c #29AD29",
"`h c #F0F0F0",
"`i c #3D3D3D",
"`j c #CEBDAD",
"`k c #294239",
"`l c #D67B73",
"`m c #C2C2C2",
"`n c #CEAD9C",
"`o c #4A4A52",
"`p c #5ABD8C",
"`q c #CE6363",
"`r c #29D629",
"`s c #CE0000",
"`t c #FFFFFF",
"`u c #523131",
"`v c #00296B",
"`w c #EFE7AD",
"`x c #F7DED6",
"`y c #9C3931",
"`z c #E1E1E1",
"a` c #FFFFC6",
"aa c #C6D6E7",
"ab c #000000",
/* pixels */
"````````````````````````````````````````````````````````````````````````````````````````````````",
"```t`t`t`t`t`t`t`t`t`t`t`t`t`t`t`t`t`t`t`t`t`t`t`t`t`t`t`t`t`t`t`t`t`t`t`t`t`t`t`t`t`t`t`t`t`t``",
"```t`t`t`t`t`t`t`t`t`t`t`t`t`t`t`t`t`t`t`t`t`t`t`t`t`t`t`t`t`t`t`t`t`t`t`t`t`t`t`t`t`t`t`t`t`t``",
"```t`t`t`t`t`t`t`t`t`t`t`t`t`t`t`t`t`t`t`t`t`t`t`t`t`t`t`t`t`t`t`t`t`t`t`t`t`t`t`t`t`t`t`t`t`t``",
"```t`t`t`t`t`t`t`t`t`t`t`t`t`t`t`t`t`t`t`t`t`t`t`t`t`t`t`t`t`t`t`t`t`t`t`t`t`t`t`t`t`t`t`t`t`t``",
"```t`t`t`t`t`t`t`t`t`t`t`t`t`t`t`t`t`t`t`t`t`t`t`t`t`t`t`t`t`t`t`t`t`t`t`t`t`t`t`t`t`t`t`t`t`t``",
"```t`t`t`i`i`i`i`i`i`i`i`i`i`i`i`i`i`i`i`i`i`i`i`i`i`i`i`i`i`i`i`i`i`i`t`t`t`t`t`t`t`t`t`t`t`t``",
"```t`t`t`i`i`i`i`i`i`i`i`i`i`i`i`i`i`i`i`i`i`i`i`i`i`i`i`i`i`i`i`i`i`i`t`t`t`t`t`t`t`t`t`t`t`t``",
"```t`t`t`i`i`i`i`i`i`i`s`s`s`s`u`u`s`i`i`i`i`i`i`i`i`i`i`i`i`i`i`i`i`i`t`t`t`t`t`t`t`t`t`t`t`t``",
"```t`t`t`i`i`i`i`i`i`s`y`s`s```s``ab`s`i`k`i`i`i`i`g`r`r`r`k`i`i`i`i`i`t`t`t`t`t`t`t`t`t`t`t`t``",
"```t`t`t`i`i`i`i`s`sab`s`s```s```s`s```s`i`i`i`r`g```r```r```r`i`i`i`i`t`t`t`t`t`t`t`t`t`t`t`t``",
"```t`t`t`i`i`i`k`y```s```s```s`````s```s`s`i`r`r```r```r```r`g`r`i`i`i`t`t`t`t`t`t`t`t`t`t`t`t``",
"```t`t`t`i`i`i`y```s`````s`````s```s`s```s`k`r`g`````g`g```r`g`g`g`i`i`t`t`t`t`t`t`t`t`t`t`t`t``",
"```t`t`t`i`i`i`i`s```s`s`s```s```s```````s`r```g`r```````r`````r`g`i`i`t`t`t`t`t`t`t`t`t`t`t`t``",
"```t`t`t`i`i`i`s`s```s`````s`````s`````s`s`r`r``ab```r`r`g```````r`i`i`t`t`t`t`t`t`t`t`t`t`t`t``",
"```t`t`t`i`i`i`y```s`s`````s`s``ab`t`f```g`l```i`t`r`````r`````g`r`i`i`t`t`t`t`t`t`t`t`t`t`t`t``",
"```t`t`t`i`i`i`s`s```s`s```s`````t`t`t```s`w```t`t`t`p`````r```r`i`i`i`t`t`t`t`t`t`t`t`t`t`t`t``",
"```t`t`t`i`i`i`s`s```````s```s`s`t`t`tab`s`r```t`t`t`d`g`````r`r`i`i`i`t`t`t`t`t`t`t`t`t`t`t`t``",
"```t`t`t`i`i`i`y```s`s```s`s````ab`t`t`s`````r`r`p`r```r`r`r`g`i`i`i`i`t`t`t`t`t`t`t`t`t`t`t`t``",
"```t`t`t`i`i`i`i```s```s`````s`s`````s`z`r`r```h`uab`r`k`i`i`i`i`i`i`i`t`t`t`t`t`t`t`t`t`t`t`t``",
"```t`t`t`i`i`i`k`s`````s```s`y`s`s`s`e```r`s`w`s```s`s`i`k`i`i`i`i`i`i`t`t`t`t`t`t`t`t`t`t`t`t``",
"```t`t`t`i`i`i`k`y`s`s`s`s`s`s`y`r`r```w`sa``s`s`````s`y`i`k`i`i`i`i`i`t`t`t`t`t`t`t`t`t`t`t`t``",
"```t`t`t`i`i`i`i`k`i`y`u`i`s`k`k`r```g`g`s`t`s`w```s```s`s`i`i`i`i`i`i`t`t`t`t`t`t`t`t`t`t`t`t``",
"```t`t`t`i`i`i`i`i`i`i`i`i`i`k`r`````g```r`b```w`s`o`y`i`s`i`i`i`i`i`i`t`t`t`t`t`t`t`t`t`t`t`t``",
"```t`t`t`i`i`i`i`i`i`i`i`i`i`g`r```r`````g```r`y`s```````````````````````````````````````t`t`t``",
"```t`t`t`i`i`i`i`i`i`i`i`i`i`g`r```r`````r`r```g`s```t`t`t`t`t`t`t`t`t`t`t`t`t`t`t`t`t```t`t`t``",
"```t`t`t`i`i`i`i`i`i`i`i`i`i`i`r`r`````r`````r`g`i```t`t`t`t`t`t`t`t`t`t`t`t`t`t`t`t`t```t`t`t``",
"```t`t`t`i`i`i`i`i`i`i`i`i`i`i`k`r`g`g```g`g`g`i`i```t`t`t`c`h`t`t`t`t`t`t`t`t`t`t`t`t```t`t`t``",
"```t`t`t`i`i`i`i`i`i`i`i`i`i`i`i`g`r`r`r`r`r`i`i`i```t`t`m`v`x`t`t`t`t`t`t`t`t`t`t`t`t```t`t`t``",
"```t`t`t`i`i`i`i`i`i`i`i`i`i`i`i`i`i`i`r`i`i`i`i`i```t`n`y`h`y`q`t`t`t`t`t`t`t`t`t`t`t```t`t`t``",
"```t`t`t`i`i`i`i`i`i`i`i`i`i`i`i`i`i`i`i`i`i`i`i`i```z`y`t`t`t`f`y`j`t`t`t`t`t`t`t`t`t```t`t`t``",
"```t`t`t`t`t`t`t`t`t`t`t`t`t`t`t`t`t`t`t`t`t`t`t`t```q`t`t`t`t`t`x`q`y`t`t`t`t`q`v`t`t```t`t`t``",
"```t`t`t`t`t`t`t`t`t`t`t`t`t`t`t`t`t`t`t`t`t`t`t`t```t`t`t`t`t`t`t`t`f`y`a`p`y`a`v`t`t```t`t`t``",
"```t`t`t`t`t`t`t`t`t`t`t`t`t`t`t`t`t`t`t`t`t`t`t`t```t`t`t`t`t`t`t`t`t`t`v`v`z`t`t`y`j```t`t`t``",
"```t`t`t`t`t`t`t`t`t`t`t`t`t`t`t`t`t`t`t`t`t`t`t`t```t`t`t`t`t`t`t`t`t`t`taa`t`t`t`t`qab`t`t`t``",
"```t`t`t`t`t`t`t`t`t`t`t`t`t`t`t`t`t`t`t`t`t`t`t`t```t`t`t`t`t`t`t`t`t`t`t`t`t`t`t`t`t```t`t`t``",
"```t`t`t`t`t`t`t`t`t`t`t`t`t`t`t`t`t`t`t`t`t`t`t`t```t`t`t`t`t`t`t`t`t`t`t`t`t`t`t`t`t```t`t`t``",
"```t`t`t`t`t`t`t`t`t`t`t`t`t`t`t`t`t`t`t`t`t`t`t`t```t`t`t`t`t`t`t`t`t`t`t`t`t`t`t`t`t```t`t`t``",
"```t`t`t`t`t`t`t`t`t`t`t`t`t`t`t`t`t`t`t`t`t`t`t`t```t`t`t```t`t`t`t```t`t`t`t```t`t`t```t`t`t``",
"```t`t`t`t`t`t`t`t`t`t`t`t`t`t`t`t`t`t`t`t`t`t`t`t```t`t`t```t`t`t`t```t`t`t`t```t`t`t```t`t`t``",
"```t`t`t`t`t`t`t`t`t`t`t`t`t`t`t`t`t`t`t`t`t`t`t`t```````````````````````````````````````t`t`t``",
"```t`t`t`t`t`t`t`t`t`t`t`t`t`t`t`t`t`t`t`t`t`t`t`t`t`t`t`t`t`t`t`t`t`t`t`t`t`t`t`t`t`t`t`t`t`t``",
"```t`t`t`t`t`t`t`t`t`t`t`t`t`t`t`t`t`t`t`t`t`t`t`t`t`t`t`t`t`t`t`t`t`t`t`t`t`t`t`t`t`t`t`t`t`t``",
"```t`t`t`t`t`t`t`t`t`t`t`t`t`t`t`t`t`t`t`t`t`t`t`t`t`t`t`t`t`t`t`t`t`t`t`t`t`t`t`t`t`t`t`t`t`t``",
"```t`t`t`t`t`t`t`t`t`t`t`t`t`t`t`t`t`t`t`t`t`t`t`t`t`t`t`t`t`t`t`t`t`t`t`t`t`t`t`t`t`t`t`t`t`t``",
"```t`t`t`t`t`t`t`t`t`t`t`t`t`t`t`t`t`t`t`t`t`t`t`t`t`t`t`t`t`t`t`t`t`t`t`t`t`t`t`t`t`t`t`t`t`t``",
"```t`t`t`t`t`t`t`t`t`t`t`t`t`t`t`t`t`t`t`t`t`t`t`t`t`t`t`t`t`t`t`t`t`t`t`t`t`t`t`t`t`t`t`t`t`t``",
"````````````````````````````````````````````````````````````````````````````````````````````````"
};
