/* XPM */
static char * decahedral24_xpm[] = {
"24 24 185 2",
"  	c None",
". 	c #8B4D00",
"+ 	c #9A5600",
"@ 	c #8D4F00",
"# 	c #B56500",
"$ 	c #E29118",
"% 	c #B86600",
"& 	c #BA6701",
"* 	c #EBA52B",
"= 	c #BC6901",
"- 	c #BA6801",
"; 	c #ECA931",
"> 	c #BD6A01",
", 	c #917C61",
"' 	c #CBBA9D",
") 	c #937E63",
"! 	c #844A00",
"~ 	c #704713",
"{ 	c #7F7D7B",
"] 	c #C1C1C1",
"^ 	c #858585",
"/ 	c #935200",
"( 	c #D68211",
"_ 	c #CE7706",
": 	c #B06200",
"< 	c #8B4E01",
"[ 	c #764D1A",
"} 	c #7D7A76",
"| 	c #C2C2C2",
"1 	c #A85D00",
"2 	c #C36D00",
"3 	c #CE7300",
"4 	c #975500",
"5 	c #8D4E00",
"6 	c #C67206",
"7 	c #E78C11",
"8 	c #E4860B",
"9 	c #AE7C3D",
"0 	c #767574",
"a 	c #6E522E",
"b 	c #635F5A",
"c 	c #7D7D7C",
"d 	c #717171",
"e 	c #8B8276",
"f 	c #C57A1D",
"g 	c #D37500",
"h 	c #C06B00",
"i 	c #915100",
"j 	c #B36400",
"k 	c #CE7D15",
"l 	c #AFA18E",
"m 	c #9A9A9A",
"n 	c #82817F",
"o 	c #666361",
"p 	c #575757",
"q 	c #6A6A6A",
"r 	c #898989",
"s 	c #6D6D6D",
"t 	c #6B6B6B",
"u 	c #808080",
"v 	c #909090",
"w 	c #969595",
"x 	c #A0835F",
"y 	c #AD6000",
"z 	c #806646",
"A 	c #848483",
"B 	c #9F9F9F",
"C 	c #727272",
"D 	c #7D7D7D",
"E 	c #838383",
"F 	c #7E7E7E",
"G 	c #6C6C6C",
"H 	c #747474",
"I 	c #969696",
"J 	c #929292",
"K 	c #6F6B67",
"L 	c #7E776F",
"M 	c #A07C50",
"N 	c #85663F",
"O 	c #71685C",
"P 	c #848484",
"Q 	c #919191",
"R 	c #7C7C7C",
"S 	c #676767",
"T 	c #787877",
"U 	c #7C6B55",
"V 	c #815722",
"W 	c #955504",
"X 	c #854E0B",
"Y 	c #CA7507",
"Z 	c #BA6903",
"` 	c #754A15",
" .	c #63615E",
"..	c #939393",
"+.	c #818181",
"@.	c #837C74",
"#.	c #AE6B16",
"$.	c #BA6700",
"%.	c #C87204",
"&.	c #C16F06",
"*.	c #7C490A",
"=.	c #C37107",
"-.	c #B46603",
";.	c #704714",
">.	c #605E5B",
",.	c #7A7A7A",
"'.	c #7F7971",
").	c #A96816",
"!.	c #C36F03",
"~.	c #BB6C06",
"{.	c #5E5E5E",
"].	c #464039",
"^.	c #6D4B21",
"/.	c #674B27",
"(.	c #645C51",
"_.	c #7F7F7F",
":.	c #8D8D8D",
"<.	c #777777",
"[.	c #5D5D5D",
"}.	c #605F5E",
"|.	c #64543F",
"1.	c #734C1C",
"2.	c #8B4F04",
"3.	c #886C4A",
"4.	c #8B8A89",
"5.	c #A0A0A0",
"6.	c #8E8E8E",
"7.	c #757575",
"8.	c #787878",
"9.	c #666666",
"0.	c #6F6F6F",
"a.	c #8F8F8F",
"b.	c #73706B",
"c.	c #BB6901",
"d.	c #D4851B",
"e.	c #B6A996",
"f.	c #7D7C7B",
"g.	c #575653",
"h.	c #474747",
"i.	c #646464",
"j.	c #828282",
"k.	c #686868",
"l.	c #8C8C8C",
"m.	c #949494",
"n.	c #A28560",
"o.	c #B26300",
"p.	c #905000",
"q.	c #CB7709",
"r.	c #EA981C",
"s.	c #E28A11",
"t.	c #A8783B",
"u.	c #706F6E",
"v.	c #674C2B",
"w.	c #5C5853",
"x.	c #7B7B7B",
"y.	c #BFBFBF",
"z.	c #857C71",
"A.	c #C1781C",
"B.	c #D17400",
"C.	c #C26C00",
"D.	c #955300",
"E.	c #D28112",
"F.	c #C87406",
"G.	c #A75D00",
"H.	c #844A01",
"I.	c #704A19",
"J.	c #7B7975",
"K.	c #BEBEBE",
"L.	c #9E5800",
"M.	c #BC6900",
"N.	c #C66E00",
"O.	c #794300",
"P.	c #6A4413",
"Q.	c #7F7D7A",
"R.	c #BDBDBD",
"S.	c #8F4F00",
"T.	c #8F7A61",
"U.	c #C5B092",
"V.	c #917C62",
"W.	c #E8941A",
"X.	c #BB6800",
"Y.	c #B76600",
"Z.	c #E78E15",
"`.	c #DC820B",
" +	c #864A00",
"                      . + @                     ",
"                      # $ %                     ",
"                      & * =                     ",
"                      - ; >                     ",
"                      , ' )                     ",
"      +           ! ~ { ] ^               +     ",
"    / ( _ :       < [ } | ^           1 2 3 4   ",
"    5 6 7 8 9 0   a b c | ^       d e f g h i   ",
"        j k l m n o p q r s   t u v w x y       ",
"          z A m B v C D E F G H I J u K         ",
"              C L M N O P Q R S T U V W         ",
"                X Y Z `  ...+.D @.#.$.%.&.      ",
"                *.=.-.;.>.Q F ,.'.).# !.~.      ",
"              {.].^./.(._.:.<.[.}.|.1.2.        ",
"          3.4.5.6.7.S <.D 8.9.0...a._.b.        ",
"        c.d.e.m f.g.h.i.j.k.  i.,.l.m.n.o.      ",
"    p.q.r.s.t.u.  v.w.x.y.P       q z.A.B.C.D.  ",
"    p.E.F.G.      H.I.J.K.P           L.M.N.D.  ",
"      p.          O.P.Q.R.P               S.    ",
"                      T.U.V.                    ",
"                      % W.X.                    ",
"                      Y.Z.$.                    ",
"                      o.`.#                     ",
"                      ! i  +                    "};
