/* XPM */
static char * G13_xpms[] = {
/* width height ncolors cpp [x_hot y_hot] */
"30 30 3 1 0 0",
/* colors */
"  c #A3A3A3",
". s iconColor1 m black c black",
"X s iconGray8 m black c #282828",
/* pixels */
"                              ",
"                              ",
"   . ......   XX   ......     ",
"   ..         XX           .  ",
"   ... .....  XX  .....   ..  ",
"   ....       XX         ...  ",
"   ..... .... XX        ....  ",
"   ......     XX ....  .....  ",
"    ...... ....X..   .......  ",
"      ....... . ...........   ",
"        ....    .  .....      ",
"          .   . . ....        ",
"         .   .   .....        ",
"         .. .  .. . ..        ",
"         . . ..  . ...        ",
"         ... .  ......        ",
"      .  ... . ... ...  .     ",
"   .  .  .............  .     ",
"   .  .  ..... .. ....  . .   ",
"   .  .  ... ..... ...  . .   ",
"   .  . ...   XX   .... . .   ",
"   .   ....   XX    ....  .   ",
"   .  ....    XX     .... .   ",
"     ....     XX     ......   ",
"    .....     XX      .....   ",
"   .....      XX      ......  ",
"  .....       XX       ...... ",
" ......       XX        ......",
"                        ......",
"                              "};
