/* XPM */
static char *delete[] = {
/* columns rows colors chars-per-pixel */
"22 22 111 2",
"   c #747885",
".  c red",
"X  c #FF0A00",
"o  c #FE0F0F",
"O  c #FF1806",
"+  c #FE1910",
"@  c #FF2810",
"#  c #FF371B",
"$  c #FE351F",
"%  c #FB2D2E",
"&  c #FC2D2E",
"*  c #FF4729",
"=  c #FC4033",
"-  c #FF5737",
";  c #FD5B45",
":  c #FF6745",
">  c #F8634D",
",  c #FE7050",
"<  c #FF7755",
"1  c #FD755C",
"2  c #FF8565",
"3  c #FE8C6E",
"4  c #FC8E73",
"5  c #FF9374",
"6  c #8C91A3",
"7  c #B2B7C8",
"8  c #F39498",
"9  c #F59A93",
"0  c #EFA29E",
"q  c #FFA285",
"w  c #FFA78E",
"e  c #FFA88D",
"r  c #F1A39F",
"t  c #FFAD93",
"y  c #EFA1A6",
"u  c #EAAAA9",
"i  c #EFB5AD",
"p  c #E9B9B5",
"a  c #F8AAA3",
"s  c #F9ABA4",
"d  c #F9ACA4",
"f  c #F5B1A6",
"g  c #F2B8AF",
"h  c #FFBBA4",
"j  c #FFBCA7",
"k  c #FFBFAA",
"l  c #F9BFB4",
"z  c #FABFB4",
"x  c #C1C5D3",
"c  c #C4C8D5",
"v  c #C8CCD9",
"b  c #C9CDDA",
"n  c #C9CEDA",
"m  c #CACFDB",
"M  c #CCD0DC",
"N  c #CDD1DD",
"B  c #CFD2DE",
"V  c #CFD3DE",
"C  c #DBD2D9",
"Z  c #DDD6DD",
"A  c #D2D6E0",
"S  c #D3D6E2",
"D  c #D4D7E3",
"F  c #D5D9E3",
"G  c #D6DAE4",
"H  c #D9DCE6",
"J  c #DCDFE9",
"K  c #DFE2EB",
"L  c #F0C2C8",
"P  c #F4C5C9",
"I  c #F4CACA",
"U  c #F7DFDB",
"Y  c #E9DBE3",
"T  c #ECDEE5",
"R  c #ECDFE5",
"E  c #FFE8DF",
"W  c #E1E4ED",
"Q  c #E3E6EE",
"!  c #E5E7F0",
"~  c #E6E8F0",
"^  c #E7E9F1",
"/  c #E8EAF2",
"(  c #EAECF3",
")  c #EAEDF3",
"_  c #EBEDF4",
"`  c #EDEFF6",
"'  c #EEF0F7",
"]  c #F2EBEF",
"[  c #FDEAE4",
"{  c #FFECE5",
"}  c #F8EDEE",
"|  c #FFF0EB",
" . c #F0F1F8",
".. c #F0F2F8",
"X. c #F1F2F8",
"o. c #F1F3F8",
"O. c #F3F5F9",
"+. c #F5F6FA",
"@. c #F5F7FA",
"#. c #F6F8FA",
"$. c #F7F8FB",
"%. c #FDF8F6",
"&. c #F8F9FB",
"*. c #F9FAFC",
"=. c #FAFBFC",
"-. c #FBFCFD",
";. c #FFFBF9",
":. c #FCFCFD",
">. c #FDFEFE",
",. c gray100",
"<. c None",
/* pixels */
"<.V V V V V V V b c x 7 7 <.<.<.<.<.<.<.<.<.",
"<.V ,.,.,.,.,.-.#.' ' V W 7 <.<.<.<.<.<.<.<.",
"<.V ,.,.,.,.,.,.&.O.' V ^ ^ 7 <.<.<.<.<.<.<.",
"<.V ,.,.,.,.,.,.-.#.O.V ' -.J 7 <.<.<.<.<.<.",
"<.V ,.,.,.,.,.,.,.$.O.V &.,.#.^ 7 <.<.<.<.<.",
"<.V ,.,.,.,.,.,.-.$.#.6 6 6 6 6 6 6 <.<.<.<.",
"<.V ,.,.,.,.,.,.,.$.$.' ` ( B b b   <.<.<.<.",
"<.V ,.,.,.,.,.,.,.,.$.o.) J V V b   <.<.<.<.",
"<.V ,.,.,.[ ;.-.$.-.#.^ p Z F S A   <.<.<.<.",
"<.V ,.,.E h k %.#.#.o.i - > C H H   <.<.<.<.",
"<.V ,.,.k t q e ] ) g - * # u K J   <.<.<.<.",
"<.V ,.,.| e 5 2 4 f - * # 0 W W J   <.<.<.<.",
"<.V ,.,.,.[ 3 , : - * # r ^ ^ W W   <.<.<.<.",
"<.V ,.#.#.#.E , - * # r ) ) ^ ^ ^   <.<.<.<.",
"<.V ,.#.$.$.l - * # @ & T ) ^ ^ W   <.<.<.<.",
"<.V ,.#.#.l - * # # O X % T ^ ^ !   <.<.<.<.",
"<.V ,.$.z - * # s I + . . % Y ^ !   <.<.<.<.",
"<.V ,.$.1 * # s O.o.P o . . y ^ !   <.<.<.<.",
"<.V ,.$.} ; d #.O.o.o.L o 8 ^ ^ !   <.<.<.<.",
"<.V ,.O.#.$.O.o.o.O.' ` ) ) ^ ^ W   <.<.<.<.",
"<.V ,.-.-.-.$.-.$.#.O.o.' ' ) ) ^   <.<.<.<.",
"<.A                                 <.<.<.<."
};
