/* XPM */
static char * anydoc [] = {
"12 12 2 1",
"0 c #E5E5E5",
"1 c #000000",
"000000000000",
"000000000000",
"001111111100",
"001000100100",
"001000010100",
"001000001100",
"001000000100",
"001000000100",
"001000000100",
"001000000100",
"001111111100",
"000000000000"};
