/* XPM */
static char * unknown_xpm[] = {
"16 16 86 1",
" 	c None",
".	c #9DA0A6",
"+	c #9CA3B3",
"@	c #98A0B3",
"#	c #969FB3",
"$	c #939CB3",
"%	c #909AB3",
"&	c #8D98B3",
"*	c #8A96B3",
"=	c #8894B3",
"-	c #8A95B3",
";	c #979CA6",
">	c #ADB8D0",
",	c #AAC3FF",
"'	c #9DB9FF",
")	c #93B2FF",
"!	c #88A9FF",
"~	c #7EA2FF",
"{	c #749AFF",
"]	c #6992FF",
"^	c #628DFF",
"/	c #618CFF",
"(	c #6891FF",
"_	c #98A9D0",
":	c #C9CBD0",
"<	c #F0F4FF",
"[	c #ECF2FF",
"}	c #EAF1FF",
"|	c #E7EFFF",
"1	c #E4ECFF",
"2	c #E1E9FF",
"3	c #DDE6FE",
"4	c #DAE3FC",
"5	c #D8E2FA",
"6	c #D6DFF9",
"7	c #D5DDF7",
"8	c #D6DFF7",
"9	c #C1C4CD",
"0	c #D0D0D0",
"a	c #FFFFFF",
"b	c #FFFFFE",
"c	c #FDFDFB",
"d	c #FCFBFA",
"e	c #F9F9F8",
"f	c #F7F7F6",
"g	c #F6F6F4",
"h	c #F3F3F2",
"i	c #CACAC9",
"j	c #FDFDFD",
"k	c #FBFBFB",
"l	c #F9F9F9",
"m	c #F7F7F7",
"n	c #F5F5F5",
"o	c #F4F4F4",
"p	c #EEEEEE",
"q	c #C8C8C8",
"r	c #FEFEFE",
"s	c #FCFCFC",
"t	c #FAFAFA",
"u	c #F8F8F8",
"v	c #F6F6F6",
"w	c #F0F0F0",
"x	c #EBEBEB",
"y	c #CACACA",
"z	c #F1F1F1",
"A	c #ECECEC",
"B	c #EDEDED",
"C	c #CBCBCB",
"D	c #F2F2F2",
"E	c #EFEFEF",
"F	c #CCCCCC",
"G	c #CDCDCD",
"H	c #F3F3F3",
"I	c #CECECE",
"J	c #ABABAB",
"K	c #B9B9B9",
"L	c #BBBBBB",
"M	c #B6B6B6",
"N	c #939393",
"O	c #B1B1B1",
"P	c #BEBEBE",
"Q	c #BCBCBC",
"R	c #AEAEAE",
"S	c #A6A6A6",
"T	c #B3B3B3",
"U	c #9B9B9B",
" .+@#$%&*====-; ",
" >,')!~{]^///(_ ",
" :<[}|123456789 ",
" 0aaaaabcdefghi ",
" 0aaaaajklmnopq ",
" 0aaaarstuvowxy ",
" 0aaaajtlmnzABC ",
" 0aaaastmvDBAEF ",
" 0rrrjtunDEppzG ",
" 0vvmmnHDwwwwHI ",
" 0nHHHHHoHBAAEy ",
" 0mvvvvvvvJKLMN ",
" 0luuuuuuuOmjP  ",
" 0kttttttkOBQ   ",
" 0jjjjjjjrRM    ",
" STTTTTTTTU     "};
