/* XPM */
static char * download32_xpm[] = {
"32 32 615 2",
"  	c None",
". 	c #9C9CCA",
"+ 	c #666588",
"@ 	c #757691",
"# 	c #9495B7",
"$ 	c #B0B0D6",
"% 	c #C4C5E9",
"& 	c #DAD8FB",
"* 	c #E3E2FB",
"= 	c #C9CAED",
"- 	c #4B4A64",
"; 	c #83839A",
"> 	c #9F9FBC",
", 	c #B5B6D7",
"' 	c #C6C7EC",
") 	c #D7D9FE",
"! 	c #E1E0FF",
"~ 	c #EEE9FF",
"{ 	c #F2EFFF",
"] 	c #F1F4FD",
"^ 	c #E4F4E4",
"/ 	c #E5F7DF",
"( 	c #FEFEFF",
"_ 	c #747494",
": 	c #8E8EA0",
"< 	c #A9A9C2",
"[ 	c #C0C2DF",
"} 	c #CCCFF1",
"| 	c #D6DAFF",
"1 	c #D9DBFF",
"2 	c #DCDCFF",
"3 	c #E0DEFF",
"4 	c #DEE0FD",
"5 	c #DAE3EF",
"6 	c #C9E4C8",
"7 	c #ADE296",
"8 	c #8FDC67",
"9 	c #6AD136",
"0 	c #43C10A",
"a 	c #40BD0F",
"b 	c #D2F0CE",
"c 	c #9692B8",
"d 	c #D4D4EA",
"e 	c #DFE4FF",
"f 	c #D1DAFF",
"g 	c #CED3FF",
"h 	c #CBCFFC",
"i 	c #C7CEEE",
"j 	c #C2D1D8",
"k 	c #B4DCA9",
"l 	c #A2E476",
"m 	c #8CE948",
"n 	c #73E81B",
"o 	c #5FE203",
"p 	c #4FD900",
"q 	c #42D000",
"r 	c #3EC700",
"s 	c #38BF00",
"t 	c #23B100",
"u 	c #A1DE93",
"v 	c #B7AFD9",
"w 	c #E7E8FE",
"x 	c #CFDAFF",
"y 	c #BDC3F4",
"z 	c #AFC2BE",
"A 	c #AEE38B",
"B 	c #9EF158",
"C 	c #8EFA2D",
"D 	c #7FFF0C",
"E 	c #72FF00",
"F 	c #6AF600",
"G 	c #63EC00",
"H 	c #5CE300",
"I 	c #54DA00",
"J 	c #4CD100",
"K 	c #44C800",
"L 	c #3BC000",
"M 	c #24B000",
"N 	c #8BD476",
"O 	c #C7C1E6",
"P 	c #D1D2E9",
"Q 	c #B1B7E1",
"R 	c #B1EB7F",
"S 	c #AAFF54",
"T 	c #98FF37",
"U 	c #8BFF20",
"V 	c #7FFF0A",
"W 	c #76FC00",
"X 	c #6EF300",
"Y 	c #65EA00",
"Z 	c #5DE200",
"` 	c #54D900",
" .	c #4BD100",
"..	c #43C700",
"+.	c #25AD00",
"@.	c #6EC556",
"#.	c #CFCFE9",
"$.	c #B5B5CC",
"%.	c #D9E0FF",
"&.	c #B7BEEB",
"*.	c #A8E779",
"=.	c #A1FF47",
"-.	c #91FF2F",
";.	c #87FF19",
">.	c #7DFF05",
",.	c #73FA00",
"'.	c #6CF100",
").	c #64E900",
"!.	c #5BE000",
"~.	c #53D800",
"{.	c #4ACF00",
"].	c #42C600",
"^.	c #3ABE00",
"/.	c #22A700",
"(.	c #4EB435",
"_.	c #DADEEE",
":.	c #878699",
"<.	c #DCE1FF",
"[.	c #B4C2ED",
"}.	c #65C351",
"|.	c #35C20F",
"1.	c #2FB618",
"2.	c #4CC139",
"3.	c #51C33F",
"4.	c #49C037",
"5.	c #2BB517",
"6.	c #1BB200",
"7.	c #34AE00",
"8.	c #46C800",
"9.	c #40C500",
"0.	c #33B600",
"a.	c #20A200",
"b.	c #33A616",
"c.	c #E4EDF2",
"d.	c #44425F",
"e.	c #96C8AD",
"f.	c #32A83F",
"g.	c #32B632",
"h.	c #78D676",
"i.	c #B1EBB0",
"j.	c #D4F9D5",
"k.	c #DBFCDC",
"l.	c #D2F8D3",
"m.	c #AEEBAE",
"n.	c #79D777",
"o.	c #1BB619",
"p.	c #17A500",
"q.	c #31AE00",
"r.	c #2AAC00",
"s.	c #20A100",
"t.	c #259E08",
"u.	c #D6EBDB",
"v.	c #5A5778",
"w.	c #068607",
"x.	c #119F12",
"y.	c #63D663",
"z.	c #A8F8A8",
"A.	c #C5FFC5",
"B.	c #BDFFBD",
"C.	c #BBFFBB",
"D.	c #BAFFBA",
"E.	c #C1FFC2",
"F.	c #C5FFC6",
"G.	c #96EF96",
"H.	c #30B930",
"I.	c #0A9B00",
"J.	c #239B00",
"K.	c #209F00",
"L.	c #1B9800",
"M.	c #BCE0BD",
"N.	c #7C769A",
"O.	c #048708",
"P.	c #11A311",
"Q.	c #5DE05D",
"R.	c #63E063",
"S.	c #4ECF4E",
"T.	c #2DB62D",
"U.	c #34BD34",
"V.	c #49CE49",
"W.	c #69E669",
"X.	c #84FB84",
"Y.	c #88FF88",
"Z.	c #8FFF8F",
"`.	c #82FB82",
" +	c #21B421",
".+	c #0C8800",
"++	c #1D9800",
"@+	c #0E9000",
"#+	c #A2D69E",
"$+	c #9992B6",
"%+	c #80ADCD",
"&+	c #4CAB7C",
"*+	c #059605",
"=+	c #21B921",
"-+	c #0F9B13",
";+	c #10801F",
">+	c #267D44",
",+	c #2A8D1C",
"'+	c #279800",
")+	c #188B00",
"!+	c #0A9000",
"~+	c #18AC18",
"{+	c #49E349",
"]+	c #5CFF5C",
"^+	c #5EFF5E",
"/+	c #4FF14F",
"(+	c #069C05",
"_+	c #127800",
":+	c #068B00",
"<+	c #87C97E",
"[+	c #B7B0D5",
"}+	c #9FC4D3",
"|+	c #BEEFFF",
"1+	c #95D4B5",
"2+	c #048B05",
"3+	c #039004",
"4+	c #3F8C44",
"5+	c #6A9F8C",
"6+	c #76A9CB",
"7+	c #71A9DF",
"8+	c #5FA1D3",
"9+	c #56BD59",
"0+	c #59D600",
"a+	c #48BA00",
"b+	c #238F00",
"c+	c #038900",
"d+	c #1ECD1E",
"e+	c #2CFF2C",
"f+	c #13C813",
"g+	c #077200",
"h+	c #077F00",
"i+	c #67B75D",
"j+	c #C3C1DD",
"k+	c #BADCE7",
"l+	c #B7EDFF",
"m+	c #B9F0FF",
"n+	c #219528",
"o+	c #0D8C0E",
"p+	c #759C7C",
"q+	c #A7CBCF",
"r+	c #A2D4E6",
"s+	c #96D0F0",
"t+	c #84C8F8",
"u+	c #76BCFC",
"v+	c #54A1FD",
"w+	c #4DB399",
"x+	c #51D906",
"y+	c #43CF00",
"z+	c #269700",
"A+	c #038600",
"B+	c #05D005",
"C+	c #06FF06",
"D+	c #06FE06",
"E+	c #05E505",
"F+	c #028700",
"G+	c #036B00",
"H+	c #44A242",
"I+	c #D1D3E7",
"J+	c #AEC8DA",
"K+	c #9CDBFF",
"L+	c #A3E0FF",
"M+	c #CEF4FF",
"N+	c #168918",
"O+	c #95AF9A",
"P+	c #D3DCDC",
"Q+	c #C3EAED",
"R+	c #B5E9FB",
"S+	c #A1DDFF",
"T+	c #88CDFF",
"U+	c #71BEFF",
"V+	c #59ADFF",
"W+	c #4190FF",
"X+	c #39A469",
"Y+	c #2EAF00",
"Z+	c #158C00",
"`+	c #008800",
" @	c #00E900",
".@	c #00F900",
"+@	c #00F800",
"@@	c #00EA00",
"#@	c #009500",
"$@	c #036400",
"%@	c #72AD6F",
"&@	c #BED2CB",
"*@	c #88C6FF",
"=@	c #8FD2FF",
"-@	c #CBEEFF",
";@	c #EBF9FF",
">@	c #CBD7D9",
",@	c #D6DCE0",
"'@	c #E0EFF0",
")@	c #CFFAFE",
"!@	c #BAECFF",
"~@	c #A3DEFF",
"{@	c #92D1FF",
"]@	c #70BDFF",
"^@	c #59AFFF",
"/@	c #3E97D7",
"(@	c #057E14",
"_@	c #048102",
":@	c #048400",
"<@	c #037E00",
"[@	c #007D00",
"}@	c #00C600",
"|@	c #00F400",
"1@	c #00EE00",
"2@	c #00EC00",
"3@	c #00A300",
"4@	c #067906",
"5@	c #108810",
"6@	c #0C810E",
"7@	c #007401",
"8@	c #007500",
"9@	c #87AECF",
"0@	c #70BEFF",
"a@	c #C8ECFF",
"b@	c #E4F8FF",
"c@	c #E5F7FF",
"d@	c #E7F6FC",
"e@	c #E4F3F8",
"f@	c #CEF5FD",
"g@	c #C4F2FF",
"h@	c #BAE9FF",
"i@	c #B2E2FF",
"j@	c #8DCDFF",
"k@	c #68B8FF",
"l@	c #56ABFF",
"m@	c #50A6FE",
"n@	c #15616E",
"o@	c #008400",
"p@	c #00D200",
"q@	c #00E600",
"r@	c #00E500",
"s@	c #00E700",
"t@	c #00ED00",
"u@	c #007A00",
"v@	c #004400",
"w@	c #71B3F6",
"x@	c #85C0FC",
"y@	c #DCF8FF",
"z@	c #DBF5FF",
"A@	c #E1F7FF",
"B@	c #DBF4FF",
"C@	c #B8EAFF",
"D@	c #AFE8FF",
"E@	c #A8E2FF",
"F@	c #9BDAFF",
"G@	c #89CEFF",
"H@	c #74C0FF",
"I@	c #60B2FF",
"J@	c #51A9FF",
"K@	c #51A8FF",
"L@	c #1F5CE3",
"M@	c #116147",
"N@	c #008300",
"O@	c #00CA00",
"P@	c #00E000",
"Q@	c #00DB00",
"R@	c #00E200",
"S@	c #00BF00",
"T@	c #007700",
"U@	c #004000",
"V@	c #55A2FF",
"W@	c #81BBF7",
"X@	c #D7F8FF",
"Y@	c #D9F5FF",
"Z@	c #DCF5FF",
"`@	c #D2F1FF",
" #	c #9CDAFF",
".#	c #93D6FF",
"+#	c #90D3FF",
"@#	c #78C3FF",
"##	c #66B6FF",
"$#	c #5EB1FF",
"%#	c #55A6FB",
"&#	c #0B41D5",
"*#	c #1E63CC",
"=#	c #146A14",
"-#	c #007B00",
";#	c #00C400",
">#	c #00D600",
",#	c #00D300",
"'#	c #00D900",
")#	c #00B900",
"!#	c #007000",
"~#	c #003F00",
"{#	c #4F6A7D",
"]#	c #4F9AFE",
"^#	c #4A9BF3",
"/#	c #76CAFE",
"(#	c #C1EEFF",
"_#	c #DAF5FF",
":#	c #BFE7FF",
"<#	c #9CD7FF",
"[#	c #8ECEFF",
"}#	c #72BEFF",
"|#	c #56ACFF",
"1#	c #54ABFF",
"2#	c #5EAFFE",
"3#	c #4987EA",
"4#	c #164ED7",
"5#	c #2063E0",
"6#	c #A8C4E8",
"7#	c #467551",
"8#	c #00BE00",
"9#	c #00CD00",
"0#	c #00C900",
"a#	c #00CF00",
"b#	c #00B500",
"c#	c #006B00",
"d#	c #003C00",
"e#	c #46647C",
"f#	c #428AF7",
"g#	c #3D86EA",
"h#	c #459CF4",
"i#	c #6CC5FE",
"j#	c #BAEAFF",
"k#	c #D4F3FF",
"l#	c #D8F4FF",
"m#	c #B3E1FF",
"n#	c #5CB0FF",
"o#	c #52ABFF",
"p#	c #53A9FF",
"q#	c #5D9FF5",
"r#	c #3770E3",
"s#	c #1D56DA",
"t#	c #357CEB",
"u#	c #96AFE8",
"v#	c #A3A4CB",
"w#	c #336C42",
"x#	c #007800",
"y#	c #00B800",
"z#	c #00C700",
"A#	c #00B100",
"B#	c #006F00",
"C#	c #003D01",
"D#	c #377AF1",
"E#	c #2C70E2",
"F#	c #3B82E9",
"G#	c #4293F0",
"H#	c #93CEFB",
"I#	c #CAEDFE",
"J#	c #C9EEFF",
"K#	c #CDF0FF",
"L#	c #BBE6FF",
"M#	c #55ABFF",
"N#	c #4DA5FE",
"O#	c #3E8EF3",
"P#	c #5B9AEF",
"Q#	c #6EA4F0",
"R#	c #356CE0",
"S#	c #4280E8",
"T#	c #4E97F4",
"U#	c #BED3F9",
"V#	c #DFE4FE",
"W#	c #BEC8E4",
"X#	c #286436",
"Y#	c #007C00",
"Z#	c #00A600",
"`#	c #376949",
" $	c #767DA3",
".$	c #4A4C6F",
"+$	c #3772E8",
"@$	c #114DD7",
"#$	c #2566E0",
"$$	c #5B94EC",
"%$	c #ACD6FB",
"&$	c #BAE3FE",
"*$	c #C4EAFF",
"=$	c #CAEFFF",
"-$	c #C2E9FE",
";$	c #498EEE",
">$	c #1F64E0",
",$	c #316ADD",
"'$	c #8EBFF5",
")$	c #73A5F0",
"!$	c #073BCE",
"~$	c #1047D3",
"{$	c #5698F3",
"]$	c #E0ECFF",
"^$	c #E1E6FF",
"/$	c #CDD6FF",
"($	c #8289BA",
"_$	c #1E602A",
":$	c #006C00",
"<$	c #2A6138",
"[$	c #8F9BBA",
"}$	c #BCC7E5",
"|$	c #BFCAFA",
"1$	c #686AAD",
"2$	c #4E86DD",
"3$	c #0030CF",
"4$	c #588AE8",
"5$	c #AAD6FC",
"6$	c #BCE5FE",
"7$	c #CAEEFF",
"8$	c #D3F3FF",
"9$	c #E0FCFF",
"0$	c #709DEA",
"a$	c #2057D8",
"b$	c #8BB7F2",
"c$	c #A0CDF9",
"d$	c #6A9BED",
"e$	c #0C3DCF",
"f$	c #033BD0",
"g$	c #89BCFB",
"h$	c #E8ECFF",
"i$	c #B6BAE6",
"j$	c #8E91C9",
"k$	c #9194C9",
"l$	c #8D96B9",
"m$	c #5F747A",
"n$	c #919CBB",
"o$	c #AAB2E3",
"p$	c #8F93D5",
"q$	c #555692",
"r$	c #4C769D",
"s$	c #2861E6",
"t$	c #85B2F2",
"u$	c #B8E3FE",
"v$	c #C7ECFF",
"w$	c #D5F4FF",
"x$	c #E0F7FF",
"y$	c #E7F8FF",
"z$	c #E7F9FF",
"A$	c #D4EDFD",
"B$	c #C5E6FC",
"C$	c #CBF1FF",
"D$	c #92BDF4",
"E$	c #83B4F3",
"F$	c #7AADF2",
"G$	c #4F91EF",
"H$	c #8FA8DF",
"I$	c #A09ECC",
"J$	c #9B9ECF",
"K$	c #B6BCE3",
"L$	c #C8CFF4",
"M$	c #CAD4FB",
"N$	c #BEC6FA",
"O$	c #898FCB",
"P$	c #4F5089",
"Q$	c #548FE1",
"R$	c #71A0F2",
"S$	c #BEE7FE",
"T$	c #EAF9FF",
"U$	c #F5FDFF",
"V$	c #F2FBFF",
"W$	c #E8FAFF",
"X$	c #DCF7FF",
"Y$	c #C8EDFF",
"Z$	c #B2DDFC",
"`$	c #A0CFF9",
" %	c #82BDF8",
".%	c #92C7FF",
"+%	c #D3D6F2",
"@%	c #CFD4F3",
"#%	c #E0E7FF",
"$%	c #DEE5FF",
"%%	c #C6CDFB",
"&%	c #9498D5",
"*%	c #53538A",
"=%	c #8BC7FA",
"-%	c #C2EBFF",
";%	c #D0F2FF",
">%	c #E3FAFF",
",%	c #F0FDFF",
"'%	c #FBFFFF",
")%	c #F8FFFF",
"!%	c #E9FAFF",
"~%	c #D9F4FF",
"{%	c #CAEDFF",
"]%	c #B7E0FC",
"^%	c #8DC6FA",
"/%	c #7FBDFC",
"(%	c #DBE7FF",
"_%	c #F1F3FF",
":%	c #E8EEFF",
"<%	c #CBD1F9",
"[%	c #9598D1",
"}%	c #515286",
"|%	c #86C2F2",
"1%	c #CAF5FF",
"2%	c #BAD7F9",
"3%	c #D2E6FB",
"4%	c #EAF7FE",
"5%	c #E7F5FE",
"6%	c #E3F7FF",
"7%	c #DFFAFF",
"8%	c #C9F0FF",
"9%	c #99D2FF",
"0%	c #9BCCFF",
"a%	c #E6F1FF",
"b%	c #F3F3FF",
"c%	c #D0D4F7",
"d%	c #9598CE",
"e%	c #505082",
"f%	c #4477AB",
"g%	c #3D7BE2",
"h%	c #316BE8",
"i%	c #4579EE",
"j%	c #3E73ED",
"k%	c #5186F1",
"l%	c #7EB5F5",
"m%	c #77ADE4",
"n%	c #A2C0F2",
"o%	c #F2F3FF",
"p%	c #D6D6F4",
"q%	c #9697CB",
"r%	c #4F4F7F",
"s%	c #1F487B",
"t%	c #224B7C",
"u%	c #174072",
"v%	c #625F86",
"w%	c #8686BB",
"x%	c #484873",
"                                                    . +         ",
"                                          @ # $ % & * = -       ",
"                                ; > , ' ) ! ~ { ] ^ / ( _       ",
"                      : < [ } | 1 2 3 4 5 6 7 8 9 0 a b c       ",
"                    d e f g h i j k l m n o p q r s t u v       ",
"                    w x y z A B C D E F G H I J K L M N O       ",
"                    P f Q R S T U V W X Y Z `  ...L +.@.#.      ",
"                    $.%.&.*.=.-.;.>.,.'.).!.~.{.].^./.(._.      ",
"                    :.<.[.}.|.1.2.3.3.4.5.6.7.8.9.0.a.b.c.d.    ",
"                      e.f.g.h.i.j.k.k.l.m.n.o.p.q.r.s.t.u.v.    ",
"                    w.x.y.z.A.A.B.C.D.C.E.F.G.H.I.J.K.L.M.N.    ",
"                  O.P.Q.R.S.T.U.V.W.X.Y.Y.Y.Z.`. +.+++@+#+$+    ",
"              %+&+*+=+-+;+>+,+'+)+!+~+{+]+]+]+^+/+(+_+:+<+[+    ",
"          }+|+1+2+3+4+5+6+7+8+9+0+a+b+c+d+e+e+e+e+f+g+h+i+j+    ",
"        k+l+m+n+o+p+q+r+s+t+u+v+w+x+y+z+A+B+C+D+C+E+F+G+H+I+    ",
"      J+K+L+M+N+O+P+Q+R+S+T+U+V+W+X+0.Y+Z+`+ @.@+@@@#@$@%@&@    ",
"      *@=@-@;@>@,@'@)@!@~@{@]@^@/@(@_@:@<@[@}@|@1@2@3@4@5@6@7@8@",
"    9@0@a@b@c@d@e@f@g@h@i@j@k@l@m@n@o@p@2@q@r@r@r@r@q@s@t@}@u@v@",
"    w@x@y@z@A@B@C@D@E@F@G@H@I@J@K@L@M@N@O@P@Q@Q@Q@Q@Q@R@S@T@U@  ",
"    V@W@X@Y@Z@`@ #.#+#T+@###$#^@%#&#*#=#-#;#>#,#,#p@'#)#!#~#    ",
"  {#]#^#/#(#_#Y@:#<#[#}###|#1#2#3#4#5#6#7#8@8#9#0#a#b#c#d#      ",
"  e#f#g#h#i#j#k#k#l#m#n#1#o#p#q#r#s#t#u#v#w#x#y#z#A#B#C#        ",
"    D#E#F#G#H#I#J#K#L#M#N#O#P#Q#R#S#T#U#V#W#X#Y#Z#!#`# $.$      ",
"    +$@$#$$$%$&$*$=$-$;$>$,$'$)$!$~${$]$^$/$($_$:$<$[$}$|$1$    ",
"    2$3$4$5$6$7$8$l#9$0$a$b$c$d$e$f$g$h$i$j$k$l$m$n$o$p$q$      ",
"    r$s$t$u$v$w$x$y$z$A$B$C$D$E$F$G$H$I$J$K$L$M$N$O$P$          ",
"      Q$R$S$K#Z@T$U$V$W$X$Y$Z$`$ %.%+%@%#%$%%%&%*%              ",
"        =%-%;%>%,%'%)%!%~%{%]%^%/%(%_%:%<%[%}%                  ",
"          |%1%2%3%4%5%6%7%8%9%0%a%b%c%d%e%                      ",
"            f%g%h%i%j%k%l%m%n%o%p%q%r%                          ",
"                  s%t%u%    v%w%x%                              ",
"                                                                "};
