/* XPM */
static char *down16rmask[]={
"16 16 5 1",
"# c #000000",
"b c #7e7e7e",
"a c #808080",
"c c #848484",
". c #ff0000",
"................",
"................",
"................",
"...#.......#....",
"..#a#.....#a#...",
".#aaa#...#aaa#..",
"..#aaa#.#baa#...",
"...#aaa#aaa#....",
"....#aaaaa#.....",
".....#aaa#......",
"......#c#.......",
".......#........",
"................",
"................",
"................",
"................"};
