/* XPM */
static char * noname[] = {
"24 24 14 1",
"0 c #000000",
"1 c #A3A3A3",
"2 c #666666",
"3 c #858585",
"4 c #757575",
"5 c #515151",
"6 c #3D3D3D",
"7 c #C2C2C2",
"8 c #949494",
"9 c #FF0000",
"A c #666666",
"B c #6B737B",
"C c #D1D1D1",
"D c #B3B3B3",
"9CCCCCCCCCCCCCCCCCCCCCC9",
"99CCCCCCC77CCCCCCCCCCC99",
"C99CCCCCD3A4DCCCCCCCC99C",
"CC99CC71118A63CCCCCC99CC",
"CCC99CDBCCC7853CCCC99CCC",
"CCCC998A000000000099CCCC",
"CCCCC998CCCCCC36399CCCCC",
"CCCCCC99CCCCCC729900CCCC",
"CCCCC0A99CCCCC799CC0CCCC",
"CCC00C4199CCCC995AC00CCC",
"CCC0CC33C99CC99786C80CCC",
"CC0000350099997C75370CCC",
"CC0C7CDA17C990CCC42CC0CC",
"CC30CC743C999900000000CC",
"CCC0CCC1A997C99CCD5A0CCC",
"CCC80CC7997CCC99C350CCCC",
"CCCC0CC994DCCCC99300CCCC",
"CCCCD099C347CCC0990CCCCC",
"CCCCC99CC85BCCCC099CCCCC",
"CCCC9900005AA0000099CCCC",
"CCC99CCCCCCD4BCCD8C99CCC",
"CC99CCCCCCCCD84317CC99CC",
"C99CCCCCCCCCCC77CCCCC99C",
"99CCCCCCCCCCCCCCCCCCCC99"};
