/* XPM */
static char * dropValid [] = {
"50 50 24 1",
"0 c #000000",
"1 c #000000",
"2 c #3D3D3D",
"3 c #000000",
"4 c #666666",
"5 c #757575",
"6 c #858585",
"7 c #949494",
"8 c #A3A3A3",
"9 c #BFBFBF",
"A c #C2C2C2",
"B c #BFBFBF",
"C c #E5E5E5",
"D c #5ABD8C",
"E c #CEBDAD",
"F c #29AD29",
"G c #29D629",
"H c #8C9C94",
"I c #59FF66",
"J c #294239",
"L c #8CB9BE",
"K c #666666",
"M c #6B737B",
"N c #B59C94",
"3333333333333333333333333333333333333333333333333B",
"333333333333333333333333333333333333333333333333BB",
"33333333333333333333333333333333333333333333333BBB",
"33366666666666666666666666666666666666666666666BBB",
"33366666666666666666666666666666666666666666666BBB",
"33366666666666666666666666666666666666666666666BBB",
"33366666666666666666666666666666666666666666666BBB",
"33366666666666666666666666666666666666666666666BBB",
"3336666666666666666666666666666666666666666HHHHBBB",
"3336666666666666666666666666666666666666HHHHH55BBB",
"3336666666666666666666666666666666666HHD555555DBBB",
"333666666666666666666666666666666566HDD5DD55555BBB",
"333666666666666666666666666666666HDD5DD555DDDDDBBB",
"3336666666666666666666666666665HHDDDD55D5555555BBB",
"3336666666666666666666666666666DDDDDDDD5DDDDD5DBBB",
"333666666666666666666666666655DFFDDD5DDD5555555BBB",
"3336666666666666666666666665HHDDDFDDDDD55555556BBB",
"3336666666666666666666666666DDDFFDDDD5556666666BBB",
"333666666666666666666666655HDDFFFDFFF4456666666BBB",
"333666666666666666666666666DFFFDDDFF55566666666BBB",
"333666666666666666666666677FGGFFFF3356666666666BBB",
"3336666666666666666666666DDGFFFFF34466666666666BBB",
"3336666666666666666666666LLGGGFFF36666666666666BBB",
"3336666666666666666666667LLGFFFJJ66666666666666BBB",
"333666666666666666666655DLLGFFF3366666666666666BBB",
"333666666666666666666555DGGFFFJ4466666666666666BBB",
"3336666666666666666DDDFFGGGFFF35566666666666666BBB",
"3336666666666666666GGGGGFFFGFFFFFH5566666666666BBB",
"3336666666666666665GGG110001FFGGGF5566666666666BBB",
"3336666666666666666FFG11000011GFF35566666666666BBB",
"3336666666666666666DDGFF0000FFGJJ56666666666666BBB",
"333666666666666666666GFF000FGGF3366666666666666BBB",
"333666666666666666655GGG000GGGJ4466666666666666BBB",
"333666666666666666666DGG1FFGFF36666666666666666BBB",
"333666666666666666666DGGFFFGJJ56666666666666666BBB",
"3336666666666666666665GGGGGFKK66666666666666666BBB",
"333666666B885666666665GGGGGJ55666666688B5666666BBB",
"333666666C88K666666666DDGFF366666666699BK666666BBB",
"333666666C88566666666655533666666666699C4666666BBB",
"333666666C88466666666666666666666666699B4666666BBB",
"333666666C88466666666666666666666655699BK666666BBB",
"333666666C88566666666666666666666666699C4666666BBB",
"333666666C886AAAAAAAAAAAAAAAAAAAAAAAACCB3666666BBB",
"333666666B7769999999999999999999999999963666666BBB",
"33366666622222222222222222222222222222223666666BBB",
"33366666666666666666666666666666666666666666666BBB",
"33366666666666666666666666666666666666666666666BBB",
"33BBBBBBBBBBBBBBBBBBBBBBBBBBBBBBBBBBBBBBBBBBBBBBBB",
"3BBBBBBBBBBBBBBBBBBBBBBBBBBBBBBBBBBBBBBBBBBBBBBBBB",
"BBBBBBBBBBBBBBBBBBBBBBBBBBBBBBBBBBBBBBBBBBBBBBBBBB"};
