/* XPM */
static char * drop_w [] = {
"50 60 13 1",
"0 c #949494",
"1 c #000000",
"2 c #8C9C94",
"3 c #F0F0F0",
"4 c #D1D1D1",
"5 c #8C9C94",
"6 c #A3A3A3",
"7 c #B59C94",
"8 c #858585",
"9 c #C6D6E7",
"A c #BFBFBF",
"B c #F0F0F0",
"C c #C2C2C2",
"AAAAAAAAAAAAAAAAAAAAAAAAAAAAAAAAAAAAAAAAAAAAAAAAAA",
"AAAAAAAAAAAAAAAAAAAAAAAAAAAAAAAAAAAAAAAAAAAAAAAAA1",
"AAAAAAAAAAAAAAAAAAAAAAAAAAAAAAAAAAAAAAAAAAAAAAAA11",
"AAA44444444444444444444444444444444444444444444111",
"AAA44444444444444444444444444444444444444444444111",
"AAA44444444444444444444444444444444444444444444111",
"AAA44444444444444444444444444444444444444444444111",
"AAA44444444444444444444444444444444444444444444111",
"AAA44444444444444444444444444444444444444444444111",
"AAA44444444444444444444444444444444444444444444111",
"AAA444444444444444444444444444444C94C4444444444111",
"AAA4444444444444444444444444444C4C4444444444444111",
"AAA44444444444444444444444444464444444444444444111",
"AAA4444444444444444444444444CC44444444444444444111",
"AAA44444444444444444444444CCC444444444444444444111",
"AAA444444444444444444444446C4444444444444444444111",
"AAA44444444444444444444446944444444444444444444111",
"AAA44444444444444444444466444444434343444444444111",
"AAA44444444444444444444C04444434344444444444444111",
"AAA44444444444444444444094444334444444444444444111",
"AAA4444444444444444444C044443344444444444444444111",
"AAA44444444444444444440C44433444444444444444444111",
"AAA444444444444444444C0C44334444444444444444444111",
"AAA44444444444444444400444A34444444444444444444111",
"AAA44444444444444444409443344444444444444444444111",
"AAA44444444444444444C2C43A444444444444444444444111",
"AAA44444444444444444C843A3444444444444444444444111",
"AAA44444444444444444C843A4444444444444444444444111",
"AAA44444444444444CC40243A4444444444444444444444111",
"AAA44444444444444C20204346C44444444444444444444111",
"AAA44444444444444C0C44446C344444444444444444444111",
"AAA4444444444444440444444AA44444444444444444444111",
"AAA4444444444444446644443A344444444444444444444111",
"AAA444444444444444664444A3444444444444444444444111",
"AAA444444444444444404443A3444444444444444444444111",
"AAA44444444444444440C44A34444444444444444444444111",
"AAA44444444444444446643A44444444444444444444444111",
"AAA4444444444444444C64A344444444444444444444444111",
"AAA44444440C4444444C03A444444C04444444444444444111",
"AAA44444442C34444444433444444623444444444444444111",
"AAA44444442C34444444434444444683444444444444444111",
"AAA44444448C34444444444444444C73444444444444444111",
"AAA44444448C34444444444444444683444444444444444111",
"AAA44444442C34444444444444444623444444444444444111",
"AAA44444442C06066666666666606763444444444444444111",
"AAA44444448C466690C66666666C664A444444444444444111",
"AAA444444404AAAAAAAAAAAAAAAAAAAA444444444444444111",
"AAA4444444C433333333333333333333444444444444444111",
"AAA44444444444444444444444444444444444444444444111",
"AAA44444444444444444444444444444444444444444444111",
"AAA44444444444444444444444444444444444444444444111",
"AAA44444444444444444444444444444444444444444444111",
"AAA44444444444444444444444444444444444444444444111",
"AAA44444444444444444444444444444444444444444444111",
"AAA44444444444444444444444444444444444444444444111",
"AAA44444444444444444444444444444444444444444444111",
"AAA44444444444444444444444444444444444444444444111",
"AAA11111111111111111111111111111111111111111111111",
"AA111111111111111111111111111111111111111111111111",
"A1111111111111111111111111111111111111111111111111"};
