/* XPM */
static char * editdelete_xpm[] = {
"22 22 111 2",
"  	c None",
". 	c #CDD1DD",
"+ 	c #CFD3DE",
"@ 	c #C9CEDA",
"# 	c #C4C8D5",
"$ 	c #C1C5D3",
"% 	c #B2B7C8",
"& 	c #FFFFFF",
"* 	c #FDFEFE",
"= 	c #F5F7FA",
"- 	c #F1F3F8",
"; 	c #EDEFF6",
"> 	c #DFE2EB",
", 	c #F8F9FB",
"' 	c #F3F5F9",
") 	c #F0F1F8",
"! 	c #E6E8F0",
"~ 	c #E7E9F1",
"{ 	c #FBFCFD",
"] 	c #F7F8FB",
"^ 	c #F0F2F8",
"/ 	c #DCDFE9",
"( 	c #F6F8FA",
"_ 	c #F9FAFC",
": 	c #8C91A3",
"< 	c #FAFBFC",
"[ 	c #EEF0F7",
"} 	c #EBEDF4",
"| 	c #CFD2DE",
"1 	c #C9CDDA",
"2 	c #C8CCD9",
"3 	c #747885",
"4 	c #CCD0DC",
"5 	c #CACFDB",
"6 	c #FFECE5",
"7 	c #FFFBF9",
"8 	c #FCFCFD",
"9 	c #E9B9B5",
"0 	c #DDD6DD",
"a 	c #D5D9E3",
"b 	c #D4D7E3",
"c 	c #D3D6E2",
"d 	c #FFE8DF",
"e 	c #FFBBA4",
"f 	c #FFBCA7",
"g 	c #FDF8F6",
"h 	c #EFB5AD",
"i 	c #FF5737",
"j 	c #F8634D",
"k 	c #DBD2D9",
"l 	c #D9DCE6",
"m 	c #D6DAE4",
"n 	c #FFBFAA",
"o 	c #FFAD93",
"p 	c #FFA285",
"q 	c #FFA78E",
"r 	c #F2EBEF",
"s 	c #F2B8AF",
"t 	c #FF4729",
"u 	c #FF371B",
"v 	c #EAAAA9",
"w 	c #FFF0EB",
"x 	c #FFA88D",
"y 	c #FF9374",
"z 	c #FF8565",
"A 	c #FC8E73",
"B 	c #F5B1A6",
"C 	c #EFA29E",
"D 	c #E1E4ED",
"E 	c #FDEAE4",
"F 	c #FE8C6E",
"G 	c #FF7755",
"H 	c #FF6745",
"I 	c #F1A39F",
"J 	c #E5E7F0",
"K 	c #E3E6EE",
"L 	c #F7DFDB",
"M 	c #FE7050",
"N 	c #F59A93",
"O 	c #EAEDF3",
"P 	c #F9BFB4",
"Q 	c #FF2810",
"R 	c #FC4033",
"S 	c #ECDFE5",
"T 	c #EAECF3",
"U 	c #FABFB4",
"V 	c #FE351F",
"W 	c #FF1806",
"X 	c #FF0A00",
"Y 	c #FC2D2E",
"Z 	c #ECDEE5",
"` 	c #E8EAF2",
" .	c #F8AAA3",
"..	c #F4CACA",
"+.	c #FE1910",
"@.	c #FF0000",
"#.	c #FB2D2E",
"$.	c #E9DBE3",
"%.	c #FD755C",
"&.	c #F9ABA4",
"*.	c #F4C5C9",
"=.	c #FE0F0F",
"-.	c #EFA1A6",
";.	c #F8EDEE",
">.	c #FD5B45",
",.	c #F9ACA4",
"'.	c #F0C2C8",
").	c #F39498",
"!.	c #F5F6FA",
"~.	c #F1F2F8",
"{.	c #D2D6E0",
"  . + + + + + + @ # $ % %                   ",
"  + & & & & & * = - ; + > %                 ",
"  + & & & & & * , ' ) + ! ~ %               ",
"  + & & & & & & { ] ' + ^ { / %             ",
"  + & & & & & & { , ' + , & ( ~ %           ",
"  + & & & & & & { _ = : : : : : : :         ",
"  + & & & & & & * < ] [ [ } | 1 2 3         ",
"  + & & & & & & * { ] - } > . 4 5 3         ",
"  + & & & 6 7 & 8 < = ~ 9 0 a b c 3         ",
"  + & & d e f g , = - h i j k l m 3         ",
"  + & & n o p q r } s i t u v > / 3         ",
"  + & & w x y z A B i t u C D D > 3         ",
"  + & * * E F G H i t u I ~ J K D 3         ",
"  + & ( ( ( L M i t u N } O ~ J J 3         ",
"  + & ] ] ] P i t u Q R S T ~ ! K 3         ",
"  + & ] ] U i t u V W X Y Z ` ~ J 3         ",
"  + & ] U i t u  ...+.@.@.#.$.~ J 3         ",
"  + & ] %.t u &.' - *.=.@.@.-.~ J 3         ",
"  + & ] ;.>.,.= ' - - '.=.).~ ~ J 3         ",
"  + & = = = !.' - - ~.; } O ~ ! K 3         ",
"  + & { { { _ _ ( = ' - ^ [ } O ~ 3         ",
"  {.3 3 3 3 3 3 3 3 3 3 3 3 3 3 3 3         "};
