/* XPM */
static char * editcopy32_xpm[] = {
"32 32 70 1",
" 	c None",
".	c #D9D8E7",
"+	c #A1A2B5",
"@	c #FFFFFF",
"#	c #EDECF4",
"$	c #FEFDFF",
"%	c #FAF9FD",
"&	c #F7F6FA",
"*	c #F2F1F7",
"=	c #EFEEF6",
"-	c #ACADBE",
";	c #F8F7FC",
">	c #F6F4FA",
",	c #F1EFF7",
"'	c #DCDAE8",
")	c #ADAFBE",
"!	c #FCFAFE",
"~	c #F6F6FA",
"{	c #E3E2ED",
"]	c #B2B3C3",
"^	c #FDFCFF",
"/	c #F4F3F9",
"(	c #EAE9F3",
"_	c #DEDDE9",
":	c #D3D3E3",
"<	c #FEFEFF",
"[	c #E2E1ED",
"}	c #D8D7E6",
"|	c #D4D3E3",
"1	c #D6D6E4",
"2	c #9A99A3",
"3	c #C4C3D1",
"4	c #E6E4EF",
"5	c #DDDCE9",
"6	c #B7B7B7",
"7	c #EAEAEA",
"8	c #E8E7F1",
"9	c #E1DFEC",
"0	c #DFDEEA",
"a	c #B3B3B6",
"b	c #E2E1E5",
"c	c #ECEAF3",
"d	c #E7E6EF",
"e	c #E4E3EE",
"f	c #E9E8F2",
"g	c #B4B4B6",
"h	c #E4E2E5",
"i	c #E5E4E6",
"j	c #F3F2F8",
"k	c #EEEDF6",
"l	c #E5E5E8",
"m	c #F9F8FD",
"n	c #B2B1B3",
"o	c #B3B2B4",
"p	c #E0DFE4",
"q	c #AFAFB2",
"r	c #DBDADF",
"s	c #ACACB0",
"t	c #DCDBE0",
"u	c #DCDCE1",
"v	c #B6B6B7",
"w	c #B1B0B3",
"x	c #AEAEB1",
"y	c #C0BEC3",
"z	c #E2E1E7",
"A	c #E8E6E9",
"B	c #E1E0E5",
"C	c #DEDEE2",
"D	c #E4E2E8",
"E	c #EEEDF3",
"                                ",
" ............+                  ",
" .@@@@@@@@@@.#+                 ",
" .@@@@$%&*#=.#-+                ",
" .@@@@$%;>,=.#')+               ",
" .@@@@@!%~*=.$={]+              ",
" .@@@@@^%&>=++++++              ",
" .@@@@@$!;/=#(_::+              ",
" .@@@@<$!;>*#[}|1+23.....+      ",
" .@@@@@$^%~=45'.'+67@@@@.#+     ",
" .@@@@@^%&=8{9050+ab&*#=.#-+    ",
" .@@@$!%;*cde{{9e+ab;>,=.#')+   ",
" .@@$$^;*#(fdd4{4+gh%~*=.$={]+  ",
" .@@<<;*==#c(8d48+gi%&>=++++++  ",
" .@@@%/j,=k#cf8d(+gl!;/=#(_::+  ",
" .@@$&//*==##(8dc+al!;>*#[}|1+  ",
" .@@%~>/*,=k#cfdc+gl^%~=45'.'+  ",
" .@@m~>/j*,=#c(8#+gi%&=8{9050+  ",
" .@@;~>/j*,=#cf8#+nb;*cde{{9e+  ",
" .@<~>//*,=k#cf8#+op*#(fdd4{4+  ",
" .@^~~/j*,=##(fdc+qr==#c(8d48+  ",
" .@@$$$^!%%;~//*~+st,=k#cf8d(+  ",
" +++++++++++++++++su*==##(8dc+  ",
"             26vwxyz*,=k#cfdc+  ",
"             37ABCDEj*,=#c(8#+  ",
"             .@@;~>/j*,=#cf8#+  ",
"             .@<~>//*,=k#cf8#+  ",
"             .@^~~/j*,=##(fdc+  ",
"             .@@$$$^!%%;~//*~+  ",
"             +++++++++++++++++  ",
"                                ",
"                                "};
