/* XPM */
static char * editcut32_xpm[] = {
"32 32 262 2",
"  	c None",
". 	c #BDBDCA",
"+ 	c #C2C2CF",
"@ 	c #B6B6C5",
"# 	c #F1F1F4",
"$ 	c #D8D8E0",
"% 	c #A5A5B7",
"& 	c #DFDFE5",
"* 	c #FFFFFF",
"= 	c #D3D3DC",
"- 	c #CFCFD9",
"; 	c #B5B5C4",
"> 	c #B8B8C6",
", 	c #B0B0C0",
"' 	c #FCFCFD",
") 	c #C9C9D4",
"! 	c #A9A9BA",
"~ 	c #E1E1E7",
"{ 	c #CECED8",
"] 	c #A8A8BA",
"^ 	c #F6F6F8",
"/ 	c #C2C2CE",
"( 	c #9C9CB0",
"_ 	c #DDDDE4",
": 	c #9F9FB3",
"< 	c #F0F0F3",
"[ 	c #BABAC8",
"} 	c #9090A7",
"| 	c #D7D7DF",
"1 	c #9797AD",
"2 	c #E9E9EE",
"3 	c #B3B3C2",
"4 	c #84849D",
"5 	c #CDCDD7",
"6 	c #F9F9FA",
"7 	c #FDFDFD",
"8 	c #EDEDF0",
"9 	c #9494A6",
"0 	c #8F8FA6",
"a 	c #E3E3E9",
"b 	c #ABABBC",
"c 	c #787893",
"d 	c #C3C3CF",
"e 	c #F4F4F6",
"f 	c #E5E5EB",
"g 	c #9B9BAF",
"h 	c #8787A0",
"i 	c #A3A3B6",
"j 	c #696987",
"k 	c #B9B9C7",
"l 	c #E7E7EC",
"m 	c #EBEBF0",
"n 	c #DCDCE3",
"o 	c #8F8FA5",
"p 	c #7F7F99",
"q 	c #D6D6DE",
"r 	c #5F5F7F",
"s 	c #AFAFBF",
"t 	c #DEDEE5",
"u 	c #E3E3E8",
"v 	c #D2D2DB",
"w 	c #83839C",
"x 	c #777793",
"y 	c #D0D0DA",
"z 	c #C8C8D4",
"A 	c #6D6D8B",
"B 	c #A4A4B7",
"C 	c #D5D5DE",
"D 	c #DADAE1",
"E 	c #787892",
"F 	c #72728F",
"G 	c #6B6B8A",
"H 	c #9D9DB1",
"I 	c #CCCCD7",
"J 	c #D1D1DA",
"K 	c #BFBFCC",
"L 	c #6C6C89",
"M 	c #6A6A89",
"N 	c #C4C4D0",
"O 	c #C8C8D3",
"P 	c #60607F",
"Q 	c #B77829",
"R 	c #C48D2C",
"S 	c #DCB834",
"T 	c #E2C136",
"U 	c #E1BB35",
"V 	c #CD902C",
"W 	c #846E64",
"X 	c #8A8AA2",
"Y 	c #9393A9",
"Z 	c #5B5B7C",
"` 	c #B57B2A",
" .	c #E8D038",
"..	c #FFFA3F",
"+.	c #FCF23E",
"@.	c #D9A52F",
"#.	c #D18D2A",
"$.	c #957E66",
"%.	c #E6E6EB",
"&.	c #757592",
"*.	c #5A5A7C",
"=.	c #B8842B",
"-.	c #FAE638",
";.	c #FFEE39",
">.	c #F4D335",
",.	c #EEC333",
"'.	c #F0C934",
").	c #FDE938",
"!.	c #FCE838",
"~.	c #CF8F2B",
"{.	c #EDC933",
"].	c #B7AD56",
"^.	c #9B9BB0",
"/.	c #5D5973",
"(.	c #554437",
"_.	c #A66E29",
":.	c #F9DC33",
"<.	c #FCDE33",
"[.	c #DCA32D",
"}.	c #B47A24",
"|.	c #96651E",
"1.	c #D2912A",
"2.	c #FFE434",
"3.	c #F8D832",
"4.	c #D7B93F",
"5.	c #C28D3B",
"6.	c #DBAE36",
"7.	c #975F28",
"8.	c #DAAC2B",
"9.	c #FFD92E",
"0.	c #D2982B",
"a.	c #865A1C",
"b.	c #E8B82C",
"c.	c #F5CA2D",
"d.	c #D6972B",
"e.	c #F7E038",
"f.	c #E7BF33",
"g.	c #B47925",
"h.	c #C68528",
"i.	c #C48428",
"j.	c #9A6527",
"k.	c #FFCD28",
"l.	c #F1BD28",
"m.	c #9C6723",
"n.	c #DBA328",
"o.	c #F4C028",
"p.	c #CF902B",
"q.	c #F5D935",
"r.	c #FFEC38",
"s.	c #F2D234",
"t.	c #EFCC33",
"u.	c #D7A02D",
"v.	c #B87B27",
"w.	c #B27A25",
"x.	c #FFC222",
"y.	c #E9AD23",
"z.	c #7D501E",
"A.	c #A46A27",
"B.	c #EFB223",
"C.	c #F2B624",
"D.	c #C08128",
"E.	c #D29A2C",
"F.	c #FFE334",
"G.	c #DBA62D",
"H.	c #AB7125",
"I.	c #C58722",
"J.	c #FFB81C",
"K.	c #E6A21F",
"L.	c #7F5121",
"M.	c #C18223",
"N.	c #F1AC1F",
"O.	c #B97C27",
"P.	c #CE952B",
"Q.	c #FFDB2F",
"R.	c #F2C22E",
"S.	c #EDB92E",
"T.	c #C68A2A",
"U.	c #A56923",
"V.	c #FFAD16",
"W.	c #B17221",
"X.	c #7C4C23",
"Y.	c #7F4F24",
"Z.	c #895526",
"`.	c #C07C1F",
" +	c #F8A717",
".+	c #EFA21A",
"++	c #B17527",
"@+	c #CA9029",
"#+	c #FFD32B",
"$+	c #E2A72B",
"%+	c #B47A25",
"&+	c #B77B25",
"*+	c #E5B12A",
"=+	c #905F20",
"-+	c #804F26",
";+	c #E89315",
">+	c #FFA110",
",+	c #E08C15",
"'+	c #F09713",
")+	c #EE9715",
"!+	c #AB6E26",
"~+	c #C68B28",
"{+	c #FFCB27",
"]+	c #F4BE27",
"^+	c #B57926",
"/+	c #B77B27",
"(+	c #FAC627",
"_+	c #A46C26",
":+	c #8A5425",
"<+	c #E88A10",
"[+	c #FF970B",
"}+	c #F9930D",
"|+	c #CD7E1A",
"1+	c #A06625",
"2+	c #C28527",
"3+	c #FFC323",
"4+	c #DC9F26",
"5+	c #734C19",
"6+	c #B27726",
"7+	c #784A23",
"8+	c #9E5E21",
"9+	c #A8651F",
"0+	c #AB671F",
"a+	c #8B5725",
"b+	c #71481D",
"c+	c #BE8125",
"d+	c #FFBB1E",
"e+	c #D69623",
"f+	c #BD8026",
"g+	c #9F6627",
"h+	c #FFB31A",
"i+	c #E29C1E",
"j+	c #7F5220",
"k+	c #9B6427",
"l+	c #DC971F",
"m+	c #935F24",
"n+	c #976127",
"o+	c #EC9E19",
"p+	c #F9A617",
"q+	c #A06624",
"r+	c #9B6226",
"s+	c #855522",
"t+	c #BD7920",
"u+	c #FFA312",
"v+	c #E99415",
"w+	c #985E24",
"x+	c #825025",
"y+	c #975E24",
"z+	c #5F3C19",
"A+	c #8C5826",
"B+	c #E38B14",
"C+	c #FF9B0D",
"D+	c #EA8F12",
"E+	c #845323",
"F+	c #915925",
"G+	c #E28410",
"H+	c #FF9309",
"I+	c #905824",
"J+	c #784923",
"K+	c #9C5D21",
"L+	c #B2681B",
"M+	c #724621",
"                                    . +                         ",
"                                  @ # $                         ",
"                                % & * =                         ",
"                                % * * -               ; >       ",
"                                , ' ' )             ! ~ {       ",
"                                ] ^ ^ /           ( _ * $       ",
"                                : < < [         } | * * [       ",
"                                1 2 2 3       4 5 6 7 8 9       ",
"                                0 a a b     c d < e f g         ",
"                                h _ _ i   j k l m n o           ",
"                                p q q ( r s t u v w             ",
"                                x y z A B C D ) E               ",
"                                F + G H I J K L                 ",
"                                M M 1 N O @ P                   ",
"              Q R S T U V       W X Y k s Z                     ",
"            `  .........+.@.  #.$.< %.&.*.                      ",
"          =.-.;.>.,.'.).;.!.~.{.].^.Y /.(.                      ",
"        _.:.<.[.}.  |.1.<.2.3.2.2.4.5.6.                        ",
"      7.8.9.0.a.        b.9.9.9.c.d.e.f.g.h.i.                  ",
"      j.k.l.m.          n.k.k.o.p.q.r.s.t.r.t.u.v.              ",
"      w.x.y.z.        A.B.x.C.D.E.F.F.F.F.F.F.F.G.H.            ",
"      I.J.K.L.        M.J.N.O.  P.Q.Q.Q.R.S.R.Q.Q.T.            ",
"      U.V.V.W.X.Y.Z.`. +.+++    @+#+#+$+%+  &+$+#+*+=+          ",
"      -+;+>+>+,+,+'+>+)+!+      ~+{+]+^+      /+]+(+_+          ",
"        :+<+[+[+[+}+|+1+        2+3+4+5+        4+3+6+          ",
"          7+8+9+0+a+b+          c+d+e+          e+d+f+          ",
"                                g+h+i+j+      k+l+h+m+          ",
"                                n+o+p+q+      r+p+o+s+          ",
"                                  t+u+v+w+x+y+v+u+t+z+          ",
"                                  A+B+C+C+C+C+C+D+E+            ",
"                                    F+G+H+H+H+G+I+              ",
"                                      J+K+L+K+M+                "};
