/* XPM */
static char * collapse_xpm[] = {
"9 9 3 1",
" 	c None",
"x	c #000000",
".	c #757575",
".........",
".       .",
".       .",
".       .",
". xxxxx .",
".       .",
".       .",
".       .",
"........."};
