/* XPM */
static char * filefind_xpm[] = {
"22 22 265 2",
"  	c None",
". 	c #DADAE1",
"+ 	c #BCCCE3",
"@ 	c #A6C3E4",
"# 	c #98BDE6",
"$ 	c #B3C6DE",
"% 	c #C0C6D6",
"& 	c #AFC4E2",
"* 	c #86BCED",
"= 	c #7DC2F6",
"- 	c #8CCFF7",
"; 	c #90D3F8",
"> 	c #8FD2F8",
", 	c #89CEF7",
"' 	c #98C3E6",
") 	c #B2B8C9",
"! 	c #CED0DB",
"~ 	c #A3BEE1",
"{ 	c #9AC5EC",
"] 	c #AED2EA",
"^ 	c #B2D6EB",
"/ 	c #B2D6EA",
"( 	c #AFD3E7",
"_ 	c #ABCEE6",
": 	c #A8CCE1",
"< 	c #AACDE2",
"[ 	c #97D5F5",
"} 	c #A4B2C6",
"| 	c #AABEDA",
"1 	c #ACD6F9",
"2 	c #C8EAFB",
"3 	c #D1F2FD",
"4 	c #D7F7FD",
"5 	c #D5F5FC",
"6 	c #D0F0FA",
"7 	c #C5E7F8",
"8 	c #B3D6EB",
"9 	c #C0E3F3",
"0 	c #B0D3E2",
"a 	c #A2D6ED",
"b 	c #9CA2B6",
"c 	c #BEBECB",
"d 	c #97BFE6",
"e 	c #C4E5FB",
"f 	c #D1F1FD",
"g 	c #DDFCFE",
"h 	c #E4FEFE",
"i 	c #E4FCFD",
"j 	c #CEEEFA",
"k 	c #D7F6FB",
"l 	c #BBDEED",
"m 	c #C8EAF6",
"n 	c #CBEDF7",
"o 	c #B5D7E3",
"p 	c #9CB8CB",
"q 	c #A7B1CA",
"r 	c #9FC9EB",
"s 	c #D7F6FD",
"t 	c #E5FEFE",
"u 	c #F0FEFE",
"v 	c #F2FDFE",
"w 	c #CEEFFB",
"x 	c #DEF7FB",
"y 	c #C3E5EE",
"z 	c #D6F7FB",
"A 	c #DCFCFE",
"B 	c #CFEEF4",
"C 	c #B2D0DD",
"D 	c #86869E",
"E 	c #90A8CC",
"F 	c #AACFEB",
"G 	c #CBECFC",
"H 	c #D8F8FD",
"I 	c #E6FEFE",
"J 	c #F3FEFE",
"K 	c #E7F9FD",
"L 	c #D5F6FC",
"M 	c #E4F9FC",
"N 	c #CAE9EE",
"O 	c #E0FCFD",
"P 	c #E0FBFC",
"Q 	c #D7F4F8",
"R 	c #8A8BA3",
"S 	c #7CA1D2",
"T 	c #AED1EA",
"U 	c #CCEDFC",
"V 	c #CCEEFC",
"W 	c #CFEFFC",
"X 	c #D6F4FD",
"Y 	c #D6F6FC",
"Z 	c #E1FBFD",
"` 	c #E9FBFC",
" .	c #BAD4DD",
"..	c #BCD4DD",
"+.	c #BDD4DD",
"@.	c #BBD4DC",
"#.	c #808199",
"$.	c #A4A9BB",
"%.	c #819CC5",
"&.	c #AED3EB",
"*.	c #CBEDFC",
"=.	c #D3F3FD",
"-.	c #D8F6FD",
";.	c #E3FCFE",
">.	c #EAFDFD",
",.	c #E3FBFD",
"'.	c #E3F7FB",
").	c #E6F7FB",
"!.	c #E6F6F9",
"~.	c #D8E8EE",
"{.	c #D2E6ED",
"].	c #82839B",
"^.	c #8A8FA2",
"/.	c #8791AF",
"(.	c #A6CFED",
"_.	c #CDEEFC",
":.	c #C6E8FB",
"<.	c #D2F2FD",
"[.	c #DBF9FE",
"}.	c #E0FDFE",
"|.	c #E3FDFE",
"1.	c #E6FBFD",
"2.	c #E8F9FB",
"3.	c #E9F6F9",
"4.	c #E6F0F5",
"5.	c #DBE8EE",
"6.	c #CAD9E2",
"7.	c #9092A8",
"8.	c #8B90A3",
"9.	c #84849B",
"0.	c #95BBDD",
"a.	c #CEEFFC",
"b.	c #CFF0FD",
"c.	c #D8F8FE",
"d.	c #DFFDFE",
"e.	c #E4FDFD",
"f.	c #E7FBFC",
"g.	c #E5F4F8",
"h.	c #E8F0F5",
"i.	c #E9EEF3",
"j.	c #E3EBF0",
"k.	c #A0A5B9",
"l.	c #BCBFCE",
"m.	c #7C89A8",
"n.	c #BDE6FB",
"o.	c #D7F8FD",
"p.	c #DDFBFD",
"q.	c #E1FBFC",
"r.	c #E5F9FB",
"s.	c #E4F3F7",
"t.	c #E8F1F5",
"u.	c #D5DCE3",
"v.	c #5F5F7C",
"w.	c #C8CCD8",
"x.	c #8C91A3",
"y.	c #B1B4C4",
"z.	c #8096B6",
"A.	c #C3EBFB",
"B.	c #D8F7FB",
"C.	c #DBF6F9",
"D.	c #E0F6F9",
"E.	c #E3F4F8",
"F.	c #E6F2F7",
"G.	c #D5DFE7",
"H.	c #70718D",
"I.	c #818199",
"J.	c #BCBECD",
"K.	c #CFD3DE",
"L.	c #CECED8",
"M.	c #717E9A",
"N.	c #ACD0E2",
"O.	c #CFF4FC",
"P.	c #D6F6FB",
"Q.	c #DAF6FA",
"R.	c #DDF6F9",
"S.	c #DEF5F8",
"T.	c #AEBBC9",
"U.	c #5C5E7B",
"V.	c #88889F",
"W.	c #A7A7B7",
"X.	c #A49690",
"Y.	c #D0821F",
"Z.	c #CF7F1B",
"`.	c #FFFFFF",
" +	c #F3F4F6",
".+	c #9B9CAF",
"++	c #6F7692",
"@+	c #65738F",
"#+	c #65728D",
"$+	c #65708B",
"%+	c #6F708A",
"&+	c #AAACBD",
"*+	c #D3D4E0",
"=+	c #C9CAD7",
"-+	c #AFA19A",
";+	c #C68128",
">+	c #E6A035",
",+	c #DA8310",
"'+	c #C5781A",
")+	c #F6F8FA",
"!+	c #F5F7FA",
"~+	c #F5F6FA",
"{+	c #F3F5F9",
"]+	c #F1F3F8",
"^+	c #F1F2F8",
"/+	c #EDEFF6",
"(+	c #EBEDF4",
"_+	c #EAEDF3",
":+	c #E7E9F1",
"<+	c #BF7727",
"[+	c #F1D07C",
"}+	c #F6D78B",
"|+	c #ECA839",
"1+	c #D68010",
"2+	c #BB701A",
"3+	c #F7F8FB",
"4+	c #F2F4F9",
"5+	c #EAECF3",
"6+	c #D4B99F",
"7+	c #CE8D2D",
"8+	c #FDE89B",
"9+	c #F6D688",
"0+	c #D27C0F",
"a+	c #B06919",
"b+	c #E8EAF2",
"c+	c #CFB69F",
"d+	c #C6882E",
"e+	c #FDE99E",
"f+	c #F6D687",
"g+	c #ECA737",
"h+	c #CE790E",
"i+	c #A66219",
"j+	c #E5E7F0",
"k+	c #947E70",
"l+	c #C0842F",
"m+	c #FDE99F",
"n+	c #F6D585",
"o+	c #ECA636",
"p+	c #CA760E",
"q+	c #9C5B19",
"r+	c #E6E8F0",
"s+	c #E3E6EE",
"t+	c #8D92A4",
"u+	c #B9812F",
"v+	c #FDEBA0",
"w+	c #F6D384",
"x+	c #E6A032",
"y+	c #995D1F",
"z+	c #FBFCFD",
"A+	c #F9FAFC",
"B+	c #F0F2F8",
"C+	c #EEF0F7",
"D+	c #B37C30",
"E+	c #F6DE96",
"F+	c #A06B33",
"G+	c #8C8085",
"H+	c #D2D6E0",
"I+	c #9A9FB0",
"J+	c #979CAE",
"K+	c #959AAC",
"L+	c #8F94A7",
"M+	c #824919",
"N+	c #884F1B",
"O+	c #7A6E78",
"P+	c #5C5C7A",
"        . + @ # $ %                         ",
"      & * = - ; > , ' )                     ",
"  ! ~ { ] ^ / ( _ : < [ }                   ",
"  | 1 2 3 4 5 6 7 8 9 0 a b                 ",
"c d e f g h i j k l m n o p                 ",
"q r 2 s t u v w x y z A B C D               ",
"E F G H I J K L M N O t P Q R               ",
"S T U V W X Y Z `  ...+.+.@.#.$.            ",
"%.&.*.=.s -.;.>.,.'.).!.~.{.].^.            ",
"/.(._.:.<.[.}.|.1.2.3.4.5.6.7.8.            ",
"9.0.a.U b.c.d.e.f.g.h.i.j.k.l.8.            ",
"  m.n.=.3 o.p.q.r.s.t.i.u.v.w.x.            ",
"  y.z.A.c.H B.C.D.E.F.G.H.I.J.x.            ",
"  K.L.M.N.O.P.Q.R.S.T.U.V.W.X.Y.Z.          ",
"  K.`. +.+++@+#+$+%+&+*+=+-+;+>+,+'+        ",
"  K.`.)+!+~+{+]+^+/+(+_+:+<+[+}+|+1+2+      ",
"  K.`.3+!+!+4+]+^+/+(+5+:+6+7+8+9+|+0+a+    ",
"  K.`.3+)+~+{+]+]+/+/+(+b+:+c+d+e+f+g+h+i+  ",
"  K.`.3+)+!+{+]+]+/+/+(+:+:+j+k+l+m+n+o+p+q+",
"  K.`.!+~+{+]+]+^+/+(+_+:+r+s+t+  u+v+w+x+y+",
"  K.`.z+A+A+)+!+{+]+B+C+(+_+:+t+    D+E+F+G+",
"  H+I+J+J+J+J+J+J+J+J+K+K+K+K+L+    M+N+O+P+"};
