/* XPM */
static char * filefind32_xpm[] = {
"32 32 395 2",
"  	c None",
". 	c #C4D0E5",
"+ 	c #BFC7D9",
"@ 	c #BCC0D0",
"# 	c #BBBBCA",
"$ 	c #C2C2CF",
"% 	c #CACAD5",
"& 	c #C6C6D2",
"* 	c #BABAC8",
"= 	c #BCBFCF",
"- 	c #BFC5D7",
"; 	c #9FABC1",
"> 	c #FBFFFF",
", 	c #FFFFFF",
"' 	c #EBEBEF",
") 	c #BDBDCA",
"! 	c #A1B2CF",
"~ 	c #8CB5E2",
"{ 	c #8CC3F3",
"] 	c #87C5F6",
"^ 	c #8BC8F7",
"/ 	c #8ECBF7",
"( 	c #9BC5EA",
"_ 	c #A4BBD7",
": 	c #B4B5C5",
"< 	c #ADB2C3",
"[ 	c #FCFFFF",
"} 	c #D5D5DE",
"| 	c #A8ADC1",
"1 	c #85B2E3",
"2 	c #88C6F6",
"3 	c #9AD5F9",
"4 	c #9ED8F9",
"5 	c #A1DBFA",
"6 	c #A4DDFA",
"7 	c #A7E0FA",
"8 	c #A9E2FB",
"9 	c #ABE3FB",
"0 	c #99CDF1",
"a 	c #A8B7CC",
"b 	c #AAACBE",
"c 	c #D2D2DB",
"d 	c #9AA6C3",
"e 	c #7AB6F1",
"f 	c #97D2F8",
"g 	c #9FD9F9",
"h 	c #A5DEFA",
"i 	c #AAE2FB",
"j 	c #ACE4FB",
"k 	c #AEE5FB",
"l 	c #A2DCFA",
"m 	c #AFE6FB",
"n 	c #B3EAFC",
"o 	c #B2E9FC",
"p 	c #A6DFFA",
"q 	c #A4BAD1",
"r 	c #A4A6BA",
"s 	c #E4E7EC",
"t 	c #9BA0B7",
"u 	c #79B5F0",
"v 	c #98D3F8",
"w 	c #A4DEFA",
"x 	c #B6EDFC",
"y 	c #BBF0FD",
"z 	c #B8EEFD",
"A 	c #BAF0FD",
"B 	c #B5ECFC",
"C 	c #A0DAF9",
"D 	c #A3DCFA",
"E 	c #BBF1FD",
"F 	c #A2B4CA",
"G 	c #A0A5BA",
"H 	c #A5A5B7",
"I 	c #7DAEE3",
"J 	c #95D1F8",
"K 	c #A3DDFA",
"L 	c #B1E9FC",
"M 	c #BEF3FD",
"N 	c #C7FBFE",
"O 	c #CCFDFF",
"P 	c #C5F9FE",
"Q 	c #ADE5FB",
"R 	c #B0E8FC",
"S 	c #C1F5FE",
"T 	c #B2E5F7",
"U 	c #9A9EB3",
"V 	c #A0A9BE",
"W 	c #B1B8CE",
"X 	c #8798BB",
"Y 	c #89C6F7",
"Z 	c #9CD7F9",
"` 	c #BDF2FD",
" .	c #CBFDFF",
"..	c #D6FFFF",
"+.	c #DCFFFF",
"@.	c #B5E9FC",
"#.	c #BBEFFD",
"$.	c #CDFCFF",
"%.	c #B7EEFC",
"&.	c #C3F7FE",
"*.	c #AFCDDC",
"=.	c #A5A9BF",
"-.	c #9EABC1",
";.	c #9DA1B8",
">.	c #7DA6D6",
",.	c #C4F8FE",
"'.	c #D4FFFF",
").	c #E1FFFF",
"!.	c #EBFFFF",
"~.	c #BFEFFD",
"{.	c #D8FEFF",
"].	c #C2F6FE",
"^.	c #C8FCFF",
"/.	c #CDFFFF",
"(.	c #C1F2F8",
"_.	c #8B8BA3",
":.	c #97A7C3",
"<.	c #98A9C5",
"[.	c #8889A2",
"}.	c #89C0F0",
"|.	c #9BD6F9",
"1.	c #A5DFFA",
"2.	c #C7FBFF",
"3.	c #D8FFFF",
"4.	c #E7FFFF",
"5.	c #F6FFFF",
"6.	c #EEFDFF",
"7.	c #C0F5FE",
"8.	c #DBFDFF",
"9.	c #CBFEFF",
"0.	c #CEFFFF",
"a.	c #D0FFFF",
"b.	c #D1FFFF",
"c.	c #96A2B6",
"d.	c #A3AFCB",
"e.	c #8495B1",
"f.	c #8B8BA2",
"g.	c #88C6F7",
"h.	c #A8E1FB",
"i.	c #B2EAFC",
"j.	c #C6F9FE",
"k.	c #D5FFFF",
"l.	c #E4FFFF",
"m.	c #E8FDFF",
"n.	c #C5F3FD",
"o.	c #C1F6FE",
"p.	c #CBFCFF",
"q.	c #E5FFFF",
"r.	c #D2FFFF",
"s.	c #D7FFFF",
"t.	c #AABBC9",
"u.	c #9CA5C0",
"v.	c #9191A8",
"w.	c #90CCF7",
"x.	c #AEE6FB",
"y.	c #B0E6FB",
"z.	c #BAECFC",
"A.	c #B7EDFC",
"B.	c #E2FFFF",
"C.	c #DEFFFF",
"D.	c #DBFFFF",
"E.	c #DDFFFF",
"F.	c #A7BBC9",
"G.	c #9AA1BC",
"H.	c #7E7E98",
"I.	c #B6ECFC",
"J.	c #BCF2FD",
"K.	c #C6FAFE",
"L.	c #E9FFFF",
"M.	c #E0FFFF",
"N.	c #E3FFFF",
"O.	c #A6B3C3",
"P.	c #9FA6C0",
"Q.	c #6A6A88",
"R.	c #87C1EF",
"S.	c #9DD7F9",
"T.	c #B4EBFC",
"U.	c #C8FBFE",
"V.	c #CBFAFE",
"W.	c #D5FCFF",
"X.	c #DCFEFF",
"Y.	c #DAFFFF",
"Z.	c #E6FFFF",
"`.	c #E8FFFF",
" +	c #888FA6",
".+	c #B0BAD3",
"++	c #8185A2",
"@+	c #7EA5D0",
"#+	c #B9EFFD",
"$+	c #C3F8FE",
"%+	c #CDFEFF",
"&+	c #D3FFFF",
"*+	c #EFFFFF",
"=+	c #F2FFFF",
"-+	c #F1FFFF",
";+	c #EEFFFF",
">+	c #E0F5F7",
",+	c #636383",
"'+	c #C7D3E9",
")+	c #9DA5BE",
"!+	c #64749B",
"~+	c #9DD8F9",
"{+	c #F4FFFF",
"]+	c #F8FFFF",
"^+	c #F7FFFF",
"/+	c #B6C2CE",
"(+	c #8284A1",
"_+	c #D2DEF2",
":+	c #6B6B8A",
"<+	c #7EACD7",
"[+	c #ABE4FB",
"}+	c #B1E8FC",
"|+	c #CFFFFF",
"1+	c #F0FFFF",
"2+	c #FAFFFF",
"3+	c #EAF4F7",
"4+	c #696B89",
"5+	c #B8BED3",
"6+	c #D5E0F4",
"7+	c #C8CAD5",
"8+	c #5C6388",
"9+	c #97CEF1",
"0+	c #9095AB",
"a+	c #71718E",
"b+	c #A7ABC1",
"c+	c #D9E3F6",
"d+	c #A0A0B3",
"e+	c #616C90",
"f+	c #9DD3F2",
"g+	c #BFF4FD",
"h+	c #CCFEFF",
"i+	c #D9FFFF",
"j+	c #EAFFFF",
"k+	c #6F6F8C",
"l+	c #A7A7B9",
"m+	c #9A9EB5",
"n+	c #DBE5F7",
"o+	c #5E6588",
"p+	c #90BBDA",
"q+	c #D6EAEE",
"r+	c #848AA2",
"s+	c #72728F",
"t+	c #B7B7C6",
"u+	c #9A9AAF",
"v+	c #ABABBD",
"w+	c #CCD1E1",
"x+	c #AD8F67",
"y+	c #AC7324",
"z+	c #6A6A89",
"A+	c #6B7999",
"B+	c #96BBD3",
"C+	c #BFF1FA",
"D+	c #C7FAFE",
"E+	c #C1DBE2",
"F+	c #909BB0",
"G+	c #5E6080",
"H+	c #9598B1",
"I+	c #9192A9",
"J+	c #BEBECB",
"K+	c #B5B5C4",
"L+	c #C19868",
"M+	c #D18C26",
"N+	c #D0871C",
"O+	c #BE7E29",
"P+	c #BBBECC",
"Q+	c #7E7F9A",
"R+	c #555578",
"S+	c #696C8B",
"T+	c #727F9A",
"U+	c #717793",
"V+	c #5B5B7D",
"W+	c #727391",
"X+	c #979AB2",
"Y+	c #D6DCEB",
"Z+	c #E6EDFA",
"`+	c #D0D7E7",
" @	c #E3EBF9",
".@	c #A4A7BC",
"+@	c #B69065",
"@@	c #CF9C4E",
"#@	c #F1BB56",
"$@	c #EBA020",
"%@	c #CA821B",
"&@	c #B57729",
"*@	c #F9FEFF",
"=@	c #F8FDFF",
"-@	c #F6FBFF",
";@	c #E0E4EE",
">@	c #CBCFDD",
",@	c #CBCEDD",
"'@	c #F0F6FF",
")@	c #EDF3FE",
"!@	c #EBF2FD",
"~@	c #E9F0FC",
"{@	c #E7EEFA",
"]@	c #E3EBF8",
"^@	c #B99670",
"/@	c #CC9F57",
"(@	c #FCF1BF",
"_@	c #F7D78C",
":@	c #F1BC56",
"<@	c #EBA121",
"[@	c #C47E1C",
"}@	c #AB6F29",
"|@	c #F7FDFF",
"1@	c #F7FCFF",
"2@	c #F4F9FF",
"3@	c #F3F8FF",
"4@	c #F2F8FF",
"5@	c #EFF5FF",
"6@	c #ECF2FE",
"7@	c #E8EFFC",
"8@	c #E4ECF9",
"9@	c #AF814F",
"0@	c #DCA843",
"a@	c #FFEBA1",
"b@	c #F7D78D",
"c@	c #F1BC57",
"d@	c #EBA122",
"e@	c #BE791B",
"f@	c #A16728",
"g@	c #FEFFFF",
"h@	c #FAFEFF",
"i@	c #F5FAFF",
"j@	c #F1F7FF",
"k@	c #EEF4FF",
"l@	c #ECF2FD",
"m@	c #E3EAF9",
"n@	c #DDE1EA",
"o@	c #A87C4F",
"p@	c #D8A543",
"q@	c #FFEAA0",
"r@	c #F7D78E",
"s@	c #F1BC58",
"t@	c #ECA122",
"u@	c #B8741B",
"v@	c #986028",
"w@	c #EAF1FD",
"x@	c #E3EAF8",
"y@	c #E2EAF8",
"z@	c #DDE1EB",
"A@	c #9F754F",
"B@	c #D4A241",
"C@	c #FFEA9F",
"D@	c #FCF1C0",
"E@	c #F7D88E",
"F@	c #F1BD58",
"G@	c #ECA223",
"H@	c #B26F1B",
"I@	c #8E5827",
"J@	c #F2F7FF",
"K@	c #E1E9F7",
"L@	c #DBE0EE",
"M@	c #865F41",
"N@	c #D19F40",
"O@	c #FFE99E",
"P@	c #FDF1C0",
"Q@	c #F7D88F",
"R@	c #F1BD59",
"S@	c #ECA224",
"T@	c #AB6B1B",
"U@	c #845127",
"V@	c #E1E8F7",
"W@	c #E0EAFC",
"X@	c #8490A8",
"Y@	c #774724",
"Z@	c #CD9C3F",
"`@	c #FFE99D",
" #	c #FDF2C0",
".#	c #F7D890",
"+#	c #F1BD5A",
"@#	c #A6661B",
"##	c #7B4926",
"$#	c #754426",
"%#	c #CB9A3E",
"&#	c #FFE99B",
"*#	c #FDF2C1",
"=#	c #F7D990",
"-#	c #F1BE5A",
";#	c #D59125",
">#	c #76492E",
",#	c #F4FDFF",
"'#	c #744426",
")#	c #C2923D",
"!#	c #FFE89A",
"~#	c #DFBD7D",
"{#	c #805333",
"]#	c #887F8D",
"^#	c #A87A3A",
"/#	c #E5C983",
"(#	c #83583B",
"_#	c #B2A9AE",
":#	c #72452B",
"<#	c #847B8A",
"[#	c #656585",
". . . . . . + @ # $ % & * = - ;                                 ",
". > , , ' ) ! ~ { ] ^ / ^ ( _ : <                               ",
". [ , } | 1 2 3 4 5 6 7 8 9 5 0 a b                             ",
". [ c d e f g h i j k l i m n o p q r                           ",
". s t u v w m x y z A B C D 9 x E m F G                         ",
". H I J K L M N O O j P z Q R o E S T U V                       ",
"W X Y Z Q `  ...+.+.@.#.$.%.y ` M P &.*.=.-.                    ",
";.>.v 5 n ,.'.).!.!.~.%.{.].P N ^.^./.(._.:.<.                  ",
"[.}.|.1.B 2.3.4.5.6.A 7.8.9.0.a.a.a.b.0.c.d.e.                  ",
"f.g.4 h.i.j.k.l.m.n.o.p.q.r.'...s.s...k.t.u.e.                  ",
"v.w.C 8 x.l y.z.A.7.^.B.C.s.D.E.C.C.+.D.F.G.e.                  ",
"H.^ l i n I.9 i.J.K.E.L.3.E.M.N.l.l.B.M.O.P.e.                  ",
"Q.R.6 9 S.T.U.V.W.X.Y.s.E.B.Z.L.!.!.`.l. +.+e.                  ",
"++@+h j 6 6 x.#+$+%+&+Y.M.Z.!.*+=+-+;+>+,+'+e.                  ",
")+!+~+Q x.p R y P 0.k.D.B.`.;+{+]+^+=+/+(+_+e.                  ",
". :+<+9 T.[+}+E K.|+k.+.N.L.1+5.[ 2+3+4+5+6+e.                  ",
". 7+8+9+n #+n y P 0.k.D.B.`.;+{+^+5.0+a+b+c+e.                  ",
". [ d+e+f+%.g+J.&.h+&+i+M.q.j+*+-+0+k+l+m+n+e.                  ",
". [ , d+o+p+I.,.2.h+b.s.+.).Z.q+r+s+t+u+v+w+x+y+                ",
". [ , , % z+A+B+C+D+a.'.3.E+F+G+H+l+I+J+K+L+M+N+O+              ",
". [ , , , [ P+Q+R+S+T+U+V+W+X+Y+Z+`+ @.@+@@@#@$@%@&@            ",
". [ , , , [ *@=@-@;@>@,@'@)@!@~@{@Z+]@^@/@(@_@:@<@[@}@          ",
". [ , , , > *@|@1@2@3@4@'@5@6@~@7@Z+8@9@0@a@(@b@c@d@e@f@        ",
". [ , , g@h@*@=@-@i@3@j@'@k@l@~@{@Z+m@n@o@p@q@(@r@s@t@u@v@      ",
". [ , , g@h@*@=@i@i@3@j@'@5@!@w@{@Z+x@y@z@A@B@C@D@E@F@G@H@I@    ",
". [ , , [ h@=@1@i@2@J@j@'@)@!@~@{@Z+]@y@K@L@M@N@O@P@Q@R@S@T@U@  ",
". [ , , *@*@=@1@2@2@4@j@'@)@w@~@Z+8@y@y@V@W@X@Y@Z@`@ #.#+#S@@###",
". [ , , *@*@=@1@2@2@4@j@'@)@w@~@Z+8@y@y@V@W@e.  $#%#&#*#=#-#;#>#",
". ,#, , *@*@=@1@2@2@4@j@'@)@w@~@Z+8@y@y@V@W@e.    '#)#!#*#~#{#]#",
". e.e.e.e.e.e.e.e.e.e.e.e.e.e.e.e.e.e.e.e.e.e.      '#^#/#(#_#z+",
"                                                      '#:#<#[#  ",
"                                                                "};
