/* XPM */
static char * folder_open_xpm[] = {
"16 16 148 2",
"  	c None",
". 	c #858CA0",
"+ 	c #A4AAB8",
"@ 	c #E8EAED",
"# 	c #E7E8ED",
"$ 	c #E7E9ED",
"% 	c #E1E3E8",
"& 	c #AEB3C0",
"* 	c #A6ABBA",
"= 	c #F6F6F9",
"- 	c #E8E9F0",
"; 	c #EAEBF1",
"> 	c #EDEDF2",
", 	c #F0F0F4",
"' 	c #E9EAEF",
") 	c #BDC1CC",
"! 	c #B1B6C3",
"~ 	c #898E9F",
"{ 	c #F2F3F6",
"] 	c #E4E5EC",
"^ 	c #E6E8EE",
"/ 	c #E9EBF0",
"( 	c #EDEEF1",
"_ 	c #F9F8FA",
": 	c #FEFDFD",
"< 	c #E4ECFB",
"[ 	c #97B7F1",
"} 	c #8BAFEF",
"| 	c #6F94D9",
"1 	c #4C82E3",
"2 	c #4981E6",
"3 	c #F4F4F7",
"4 	c #E6E7EE",
"5 	c #E4E7F0",
"6 	c #CFDAEF",
"7 	c #C8D6F0",
"8 	c #CAD7F1",
"9 	c #CDDAF3",
"0 	c #C5D6F4",
"a 	c #85AAEE",
"b 	c #AECAF9",
"c 	c #B7D0FC",
"d 	c #A0BEF5",
"e 	c #8FAFF0",
"f 	c #8EADF2",
"g 	c #4368BC",
"h 	c #F5F5F8",
"i 	c #BACCEF",
"j 	c #7AA5EF",
"k 	c #88AFF1",
"l 	c #88AEF1",
"m 	c #86ADF1",
"n 	c #85ACF1",
"o 	c #9EBFF8",
"p 	c #7DADFF",
"q 	c #6EA3FF",
"r 	c #437EEB",
"s 	c #0448DB",
"t 	c #0D4CE1",
"u 	c #2755BA",
"v 	c #F6F6F8",
"w 	c #EBECF1",
"x 	c #A0BBED",
"y 	c #9DBFF5",
"z 	c #A5C9FD",
"A 	c #9AC1FD",
"B 	c #91BBFD",
"C 	c #87B3FE",
"D 	c #76A8FE",
"E 	c #679DFF",
"F 	c #457DEC",
"G 	c #0444DD",
"H 	c #1E56E3",
"I 	c #F7F7FA",
"J 	c #E4E7F2",
"K 	c #6999ED",
"L 	c #ACCCFC",
"M 	c #86B3FD",
"N 	c #78AAFD",
"O 	c #70A3FD",
"P 	c #679DFE",
"Q 	c #659CFF",
"R 	c #669BFF",
"S 	c #679BFF",
"T 	c #4577EC",
"U 	c #0537DE",
"V 	c #204DDD",
"W 	c #FAFAFA",
"X 	c #D7E0F2",
"Y 	c #78A3EF",
"Z 	c #9AC0FD",
"` 	c #78A9FD",
" .	c #6FA3FD",
"..	c #689EFE",
"+.	c #669CFF",
"@.	c #669AFF",
"#.	c #6697FF",
"$.	c #6796FF",
"%.	c #4572EC",
"&.	c #0B34DF",
"*.	c #355FD9",
"=.	c #FEFDFB",
"-.	c #BACDF0",
";.	c #7FA8F0",
">.	c #90B8FE",
",.	c #6CA1FD",
"'.	c #669CFD",
").	c #649BFF",
"!.	c #6499FF",
"~.	c #6495FF",
"{.	c #6490FF",
"].	c #668FFF",
"^.	c #4368EC",
"/.	c #1731E0",
"(.	c #426EE0",
"_.	c #FEFDFC",
":.	c #78A1EB",
"<.	c #E4EEFD",
"[.	c #D3E3FF",
"}.	c #C6DAFE",
"|.	c #C5D9FF",
"1.	c #C5D8FF",
"2.	c #C5D6FF",
"3.	c #C5D4FF",
"4.	c #C6D3FF",
"5.	c #B8C4F6",
"6.	c #8D9EE8",
"7.	c #466BC6",
"8.	c #FEFDFE",
"9.	c #7AA3EC",
"0.	c #FDFDFF",
"a.	c #FFFFFF",
"b.	c #FBFBFC",
"c.	c #F8F8F7",
"d.	c #A0B3DD",
"e.	c #172F77",
"f.	c #9BA0B0",
"g.	c #ACBEDC",
"h.	c #9AB4E7",
"i.	c #E8E9EE",
"j.	c #DEE0E8",
"k.	c #DADCE5",
"l.	c #D5D8E2",
"m.	c #D4D6E1",
"n.	c #D2D5E0",
"o.	c #CFD2DE",
"p.	c #CFD1DC",
"q.	c #7495DE",
"                                ",
"  . . . . .                     ",
"+ @ # $ $ % &                   ",
"* = - ; > , ' ) ! ! ! ! ~       ",
"* { ] ^ / ( , _ : < [ } | 1 2   ",
"* 3 4 5 6 7 8 9 0 a b c d e f g ",
"* h ' i j k l m n o p q r s t u ",
"* v w x y z A B C D E E F G H   ",
"* I J K L M N O P Q R S T U V   ",
"* W X Y Z `  ...+.@.#.$.%.&.*.  ",
"* =.-.;.>.,.'.).!.~.{.].^./.(.  ",
"* _.:.<.[.}.|.|.1.2.3.4.5.6.7.  ",
"* 8.9.0.a.a.a.a.a.a.a.b.c.d.e.  ",
"f.g.h.i.] j.k.l.m.m.n.o.p.q.    ",
"  . . . . . . . . . . . .       ",
"                                "};
