/* XPM */
static char * folder_home_xpm[] = {
"16 16 156 2",
"  	c None",
". 	c #C43E03",
"+ 	c #F99A5A",
"@ 	c #EB4E06",
"# 	c #CE3300",
"$ 	c #F4772A",
"% 	c #FB9754",
"& 	c #FFA060",
"* 	c #E84B04",
"= 	c #E23A00",
"- 	c #D93800",
"; 	c #E35B09",
"> 	c #FD8E43",
", 	c #FF944F",
"' 	c #FF9956",
") 	c #E94B02",
"! 	c #E03B00",
"~ 	c #E33C00",
"{ 	c #DD3A00",
"] 	c #F85900",
"^ 	c #FE5E03",
"/ 	c #FF8130",
"( 	c #FF9044",
"_ 	c #F97932",
": 	c #E03400",
"< 	c #EB4100",
"[ 	c #EC4500",
"} 	c #EE4500",
"| 	c #EA4400",
"1 	c #C03800",
"2 	c #CE5307",
"3 	c #FF6C06",
"4 	c #FF6906",
"5 	c #FE6E10",
"6 	c #EF6323",
"7 	c #DF7760",
"8 	c #E2A8A5",
"9 	c #E05635",
"0 	c #F64E04",
"a 	c #FE5600",
"b 	c #FE5500",
"c 	c #EF5600",
"d 	c #F57D2A",
"e 	c #FF832C",
"f 	c #FE7E29",
"g 	c #EB6937",
"h 	c #E39B93",
"i 	c #F9F0F1",
"j 	c #FEFDFD",
"k 	c #EDD4D5",
"l 	c #DF7155",
"m 	c #F45F10",
"n 	c #FF6C0C",
"o 	c #FA6B0B",
"p 	c #CC520A",
"q 	c #F59B53",
"r 	c #FA9051",
"s 	c #E57555",
"t 	c #E2B0A6",
"u 	c #DBC2B5",
"v 	c #E4D5CD",
"w 	c #EDDBD0",
"x 	c #E8CDBB",
"y 	c #E7D1C9",
"z 	c #D98879",
"A 	c #EE6F39",
"B 	c #FE8B37",
"C 	c #D7742C",
"D 	c #E69F74",
"E 	c #F49E79",
"F 	c #E29A93",
"G 	c #F6E6E6",
"H 	c #D9B197",
"I 	c #94552F",
"J 	c #856A64",
"K 	c #A78D8A",
"L 	c #B6774C",
"M 	c #D1AD91",
"N 	c #EFF3F4",
"O 	c #D6B4B4",
"P 	c #E2856B",
"Q 	c #EA9765",
"R 	c #B7695A",
"S 	c #E2ACA7",
"T 	c #F9F2F2",
"U 	c #FFFFFF",
"V 	c #E9D2C3",
"W 	c #BF9172",
"X 	c #B08266",
"Y 	c #AF7D65",
"Z 	c #C2906F",
"` 	c #D8C1B1",
" .	c #EEF1F2",
"..	c #E8EBEB",
"+.	c #D4BEBE",
"@.	c #C97C6E",
"#.	c #EDE8E8",
"$.	c #FDFDFD",
"%.	c #F8F8F7",
"&.	c #E9E3E0",
"*.	c #DBCEC8",
"=.	c #D7CAC2",
"-.	c #D9CEC9",
";.	c #E6E5E4",
">.	c #E7E7E8",
",.	c #E4E4E4",
"'.	c #DEDFDF",
").	c #948685",
"!.	c #E9E9E9",
"~.	c #F8F8F8",
"{.	c #F4F4F5",
"].	c #CFB2A2",
"^.	c #AA6133",
"/.	c #B65F27",
"(.	c #B27753",
"_.	c #DFDDDC",
":.	c #E1E1E1",
"<.	c #DEDEDE",
"[.	c #D8D8D8",
"}.	c #D5D5D5",
"|.	c #F9F9F9",
"1.	c #F2F2F2",
"2.	c #EDEEEF",
"3.	c #CEAB94",
"4.	c #BF6121",
"5.	c #D46A1E",
"6.	c #BE7B4B",
"7.	c #D9D7D6",
"8.	c #DADADA",
"9.	c #D2D2D2",
"0.	c #C1C1C1",
"a.	c #F6F6F6",
"b.	c #EEEEEE",
"c.	c #E9EAEB",
"d.	c #DBB498",
"e.	c #E37A27",
"f.	c #E77D23",
"g.	c #C98955",
"h.	c #D7D4D3",
"i.	c #D7D7D7",
"j.	c #D1D1D1",
"k.	c #989898",
"l.	c #D3D3D3",
"m.	c #CCCCCC",
"n.	c #C8C9CA",
"o.	c #D1AE94",
"p.	c #F49340",
"q.	c #FA933B",
"r.	c #D39565",
"s.	c #BBB9B8",
"t.	c #BBBBBB",
"u.	c #B3B3B3",
"v.	c #8C7D75",
"w.	c #AD907F",
"x.	c #BC9F8D",
"y.	c #9D887D",
"                .               ",
"              + @ #             ",
"          $ % & * = -           ",
"        ; > , ' ) ! ~ {         ",
"      ] ^ / ( _ : < [ } | 1     ",
"    2 3 4 5 6 7 8 9 0 a b c     ",
"    d e f g h i j k l m n o p   ",
"    q r s t u v w x y z A B C   ",
"  D E F G H I J K L M N O P Q   ",
"  R S T U V W X Y Z `  ...+.@.  ",
"    #.U $.%.&.*.=.-.;.>.,.'.).  ",
"    !.$.~.{.].^./.(._.:.<.[.    ",
"    }.|.1.2.3.4.5.6.7.8.[.9.    ",
"    0.a.b.c.d.e.f.g.h.i.}.j.    ",
"    k.l.m.n.o.p.q.r.s.t.t.u.    ",
"            v.w.x.y.            "};
