/* XPM */
static char * foreground_xpm[] = {
"18 18 123 2",
"  	c None",
". 	c #7C1111",
"+ 	c #D73737",
"@ 	c #D73D3D",
"# 	c #DC3B3B",
"$ 	c #DD3B3B",
"% 	c #DD3C3C",
"& 	c #DD3D3C",
"* 	c #DE403E",
"= 	c #DE3F3F",
"- 	c #E24241",
"; 	c #E13B3A",
"> 	c #A81E1D",
", 	c #952323",
"' 	c #FD7372",
") 	c #EA6463",
"! 	c #D85554",
"~ 	c #E45756",
"{ 	c #FF7D7C",
"] 	c #FE7675",
"^ 	c #E55756",
"/ 	c #D65353",
"( 	c #E96565",
"_ 	c #FF7372",
": 	c #BD3C3B",
"< 	c #A51818",
"[ 	c #E5413F",
"} 	c #9B1615",
"| 	c #960D0C",
"1 	c #FF5554",
"2 	c #F04443",
"3 	c #970E0E",
"4 	c #971515",
"5 	c #DA3434",
"6 	c #A92625",
"7 	c #AD0908",
"8 	c #D61817",
"9 	c #ED3131",
"0 	c #942E2E",
"a 	c #503A3A",
"b 	c #494A4A",
"c 	c #4D4646",
"d 	c #714242",
"e 	c #664545",
"f 	c #4D4B4B",
"g 	c #515151",
"h 	c #3F3F3F",
"i 	c #E21110",
"j 	c #824242",
"k 	c #868D8D",
"l 	c #7A7A7A",
"m 	c #6D6D6D",
"n 	c #777979",
"o 	c #969797",
"p 	c #8C8C8C",
"q 	c #6E6E6E",
"r 	c #878787",
"s 	c #7D7D7D",
"t 	c #DF0101",
"u 	c #713130",
"v 	c #3E4646",
"w 	c #0C0C0C",
"x 	c #000000",
"y 	c #272727",
"z 	c #505050",
"A 	c #090909",
"B 	c #1E1E1E",
"C 	c #494949",
"D 	c #1D1D1D",
"E 	c #DC0101",
"F 	c #531717",
"G 	c #101717",
"H 	c #212121",
"I 	c #353535",
"J 	c #1F1F1F",
"K 	c #0D0D0D",
"L 	c #EE0000",
"M 	c #9D0303",
"N 	c #460404",
"O 	c #101010",
"P 	c #252525",
"Q 	c #1A1A1A",
"R 	c #FE0000",
"S 	c #F20000",
"T 	c #9F0000",
"U 	c #020202",
"V 	c #050505",
"W 	c #030303",
"X 	c #FF0100",
"Y 	c #F50100",
"Z 	c #A20000",
"` 	c #FF0900",
" .	c #F50800",
"..	c #A20400",
"+.	c #FF1700",
"@.	c #F61500",
"#.	c #A30B00",
"$.	c #D01600",
"%.	c #FF2500",
"&.	c #FD2400",
"*.	c #CB1900",
"=.	c #AB0D00",
"-.	c #DA2700",
";.	c #F32C00",
">.	c #F52B00",
",.	c #F22B00",
"'.	c #E82300",
").	c #151515",
"!.	c #111111",
"~.	c #212222",
"{.	c #393939",
"].	c #2F2F2F",
"^.	c #454545",
"/.	c #5B5B5B",
"(.	c #545454",
"_.	c #333333",
":.	c #616161",
"<.	c #696969",
"[.	c #6C6C6C",
"}.	c #4D4D4D",
"|.	c #282828",
"1.	c #292929",
"2.	c #262626",
". + @ # $ % & * = - ; >             ",
", ' ) ! ~ { ] ^ / ( _ :             ",
"< [ }   | 1 2 3   4 5 6             ",
"7 8       9 0 a b c d e f g g g h   ",
"          i j k l m n o p m q r s   ",
"          t u v w x y m z A x B C D ",
"          E F G     H C I       J K ",
"          L M N     O P Q           ",
"          R S T     U V W           ",
"          X Y Z     x x x           ",
"          `  ...    x x x           ",
"          +.@.#.    x x x           ",
"        $.%.&.*.=.  x x x           ",
"      -.;.>.>.,.'.  w ).!.          ",
"                    ~.{.].          ",
"                    ^./.(._.        ",
"                  :.<.[.<.:.}.      ",
"                  |.1.y 2.|.        "};
