/* XPM */
static char * gasrxnstudy_xpm[] = {
"16 16 25 1",
" 	c None",
".	c #E5E5E5",
"+	c #9FBA9F",
"@	c #377937",
"#	c #74BF74",
"$	c #4B904B",
"%	c #44BF44",
"&	c #3FA33F",
"*	c #9DED9D",
"=	c #C2CFC2",
"-	c #60A760",
";	c #000000",
">	c #5E8E5E",
",	c #7EBE7E",
"'	c #1B4C1B",
")	c #3C953C",
"!	c #89D689",
"~	c #3F5F3F",
"{	c #1F2F1F",
"]	c #41B141",
"^	c #68D168",
"/	c #79DB79",
"(	c #3A873A",
"_	c #5A8F5A",
":	c #7DA47D",
".+@@@@@@@@@@@@+.",
".+#$%%%%%%%%%&+.",
".+#$*********#+.",
"=-*$;;;;*>;,;')=",
"=--!;~*{{>;,;')=",
"=--!;~*{{*~;{*-=",
"=--!;;;;**~;{*-=",
"=--!;~~;*>;,;')=",
"=--!;~*{{>;,;')=",
"$*-]**^%*//**/%(",
"$#&%%%%%%%%%%%%(",
"@@@@@@@@@@@@@@@@",
"_.............:=",
"$*************-=",
"$*************-=",
"=@@@@@@@@@@@@@@@"};
