/* XPM */
static char *noname[] = {
/* width height ncolors chars_per_pixel */
"24 24 18 1",
/* colors */
"` c #000000",
"a c #A3A3A3",
"b c #666666",
"c c #858585",
"d c #757575",
"e c #282828",
"f c #515151",
"g c #F0F0F0",
"h c #8C9C94",
"i c #C2C2C2",
"j c #949494",
"l c #666666",
"m c #6B737B",
"n c #FFFFFF",
"o c #E1E1E1",
"p c #282828",
"q c #D1D1D1",
"r c #B3B3B3",
/* pixels */
"qqqqqqqqqqqqqqqqqqqqqqqq",
"qqqqqqqqqqqorjaqqqqqqqqq",
"qqqqqqqqqqqqllcldrqqqqqq",
"qqqqqqqqqqqqbqnijfjqqqqq",
"qqqqqqqqqqqdlgnnnobrqqqq",
"qqqqqqqqqqalnnnnnnifqqqq",
"qqqqqqqqqqjdnnn`n`ncaqqq",
"qqqqqqqqqqqbinnnnnnrmqqq",
"qqqqqqablcijlonnnnofrqqq",
"qqqqqrbiialejnnnngfjqqqq",
"qqqqqadnnnnnnnnnnccqqqqq",
"qqqqqrbonnnnnnnnnldaqqqq",
"qqqqqqhfcgnnnnnnnojmljqq",
"qqqqqqqrdjnnnnnnnnngimiq",
"qqqqqqqqibnnnnnnnnnnncaq",
"qqqqqqqqjcnnnnnnnqriadiq",
"qqraiqqifinnnnnnqblldiqq",
"qqdplllfrnnnnnnnhmqqqqqq",
"qqiflqiqnnnnnnnncjqqqqqq",
"qqqqmbqnnnnnnnnodrqqqqqq",
"qqqqoafcronnnnilcoqqqqqq",
"qqqqqoqclccccclcoqqqqqqq",
"qqqqqqqoqrjccjioqqqqqqqq",
"qqqqqqqqqqqqqqqqqqqqqqqq"
};
