/* XPM */
static char * ghostclear [] = {
"24 24 19 1",
"0 c #000000",
"1 c #A3A3A3",
"2 c #666666",
"3 c #858585",
"4 c #757575",
"5 c #282828",
"6 c #515151",
"7 c #F0F0F0",
"8 c #8C9C94",
"9 c #C2C2C2",
"A c #949494",
"B c #FF0000",
"C c #666666",
"D c #6B737B",
"E c #FFFFFF",
"F c #E1E1E1",
"G c #282828",
"H c #D1D1D1",
"I c #B3B3B3",
"BHHHHHHHHHHHHHHHHHHHHHHB",
"BBHHHHHHHHHFIA1HHHHHHHBB",
"HBBHHHHHHHHHCC3C4IHHHBBH",
"HHBBHHHHHHHH2HE9A6AHBBHH",
"HHHBBHHHHHH4C7EEEF2BBHHH",
"HHHHBBHHHH1CEEEEEEBBHHHH",
"HHHHHBBHHHA4EEE0EBB31HHH",
"HHHHHHBBHHH29EEEBBEIDHHH",
"HHHHHH1BB39ACFEBBEF6IHHH",
"HHHHHI29BBC5AEBBE76AHHHH",
"HHHHH14EEBBEEBBEE33HHHHH",
"HHHHHI2FEEBBBBEEEC41HHHH",
"HHHHHH8637EBBEEEEFADCAHH",
"HHHHHHHI4ABBBBEEEEE79D9H",
"HHHHHHHH9BBEEBBEEEEEE31H",
"HHHHHHHHBBEEEEBBEHI9149H",
"HHI19HHBB9EEEEEBB2CC49HH",
"HH4GCCBBIEEEEEEEBBHHHHHH",
"HH96CBBHEEEEEEEE3BBHHHHH",
"HHHHBBHEEEEEEEEF4IBBHHHH",
"HHHBB163IFEEEE9C3FHBBHHH",
"HHBBHFH3C33333C3FHHHBBHH",
"HBBHHHHFHIA33A9FHHHHHBBH",
"BBHHHHHHHHHHHHHHHHHHHHBB"};
