/* XPM */
static char * up_xpm[] = {
"22 22 128 2",
"  	c None",
". 	c #007500",
"+ 	c #007200",
"@ 	c #007000",
"# 	c #006F00",
"$ 	c #007700",
"% 	c #007900",
"& 	c #009300",
"* 	c #2FAD08",
"= 	c #53BA1B",
"- 	c #41B211",
"; 	c #009100",
"> 	c #007400",
", 	c #007800",
"' 	c #007B00",
") 	c #189D02",
"! 	c #88DB4A",
"~ 	c #D8F3B8",
"{ 	c #F2FBE5",
"] 	c #E5F7CF",
"^ 	c #A4E46A",
"/ 	c #2C9F08",
"( 	c #007600",
"_ 	c #38BA0C",
": 	c #C8EF9E",
"< 	c #E0F6C5",
"[ 	c #D4F3B1",
"} 	c #64C528",
"| 	c #34B90A",
"1 	c #C1EE93",
"2 	c #CCF2A5",
"3 	c #9CD761",
"4 	c #C7E89D",
"5 	c #D5EFB2",
"6 	c #D7F5B7",
"7 	c #5BC221",
"8 	c #007100",
"9 	c #139A01",
"0 	c #ADE977",
"a 	c #B8ED85",
"b 	c #8FCF51",
"c 	c #D7EAB7",
"d 	c #FEFEFE",
"e 	c #FAFEF7",
"f 	c #C6F09B",
"g 	c #2DA008",
"h 	c #64D428",
"i 	c #A2E768",
"j 	c #80C641",
"k 	c #D7E7B7",
"l 	c #FAFDF5",
"m 	c #B5EC82",
"n 	c #77DA38",
"o 	c #82E043",
"p 	c #89E24B",
"q 	c #70C232",
"r 	c #D7E5B7",
"s 	c #F8FDF2",
"t 	c #9CE561",
"u 	c #61D426",
"v 	c #39C80D",
"w 	c #0FBE01",
"x 	c #25AD05",
"y 	c #70DC32",
"z 	c #5FBF24",
"A 	c #F2FAE5",
"B 	c #43C811",
"C 	c #00BB00",
"D 	c #00A400",
"E 	c #25B305",
"F 	c #55D61D",
"G 	c #B6D883",
"H 	c #F5FCEC",
"I 	c #94D057",
"J 	c #A8E570",
"K 	c #D7F2B7",
"L 	c #00A900",
"M 	c #1DB303",
"N 	c #36D10B",
"O 	c #B8E885",
"P 	c #F3FBE9",
"Q 	c #61D926",
"R 	c #66C62A",
"S 	c #92DE55",
"T 	c #1BC003",
"U 	c #CAEEA1",
"V 	c #05A900",
"W 	c #13CA01",
"X 	c #59D71F",
"Y 	c #38D10C",
"Z 	c #58C01F",
"` 	c #92DF55",
" .	c #00BD00",
"..	c #1BC103",
"+.	c #54CE1C",
"@.	c #00A600",
"#.	c #009500",
"$.	c #03C500",
"%.	c #03C600",
"&.	c #00C200",
"*.	c #00C000",
"=.	c #54BD1C",
"-.	c #92E055",
";.	c #009400",
">.	c #07C300",
",.	c #55BF1D",
"'.	c #93E156",
").	c #0F9C01",
"!.	c #1EC603",
"~.	c #5DC022",
"{.	c #9BE35F",
"].	c #057500",
"^.	c #2BBA07",
"/.	c #34CB0A",
"(.	c #41C911",
"_.	c #E9F8D5",
":.	c #F4FBEA",
"<.	c #6FD831",
"[.	c #077600",
"}.	c #3CBE0E",
"|.	c #48CF15",
"1.	c #097600",
"2.	c #31A309",
"3.	c #5AD320",
"4.	c #0A7600",
"5.	c #359E0B",
"6.	c #4DB818",
"7.	c #53BE1B",
"                                            ",
"                . + @ # # #                 ",
"            $ % & * = = - ; > #             ",
"        , ' ) ! ~ { { { { ] ^ / > #         ",
"      ( % _ : < < < < < < < < [ } > #       ",
"      , | 1 2 2 2 3 4 5 6 2 2 2 2 7 >       ",
"    8 9 0 a a a b c d d e f a a a a g #     ",
"    > h i i i j k d d d d l m i i i n >     ",
"  # ; o p p q r d d d d d d s t u v w ; #   ",
"  # x y y z r d d d d d d d d A B C C D #   ",
"  # E F F G d d H I d d J K d d K C C L #   ",
"  # M N N O d P Q R d d S T K d U C C L #   ",
"  # V W W W X Y W Z d d `  ...+... . .@.#   ",
"  # #.$.%.$.$.&.*.=.d d -.*.*.*.*.*.*.;.#   ",
"    . >.>.>.>.>.>.,.d d '.>.>.>.>.>.>..     ",
"    # ).!.!.!.!.!.~.d d {.!.!.!.!.!.).#     ",
"      ].^././././.(._.:.<././././.^.].      ",
"      # [.}.|.|.|.|.|.|.|.|.|.|.}.[.#       ",
"        # 1.2.3.3.3.3.3.3.3.3.2.1.#         ",
"            # 4.5.6.7.7.6.5.4.#             ",
"                # # # # # #                 ",
"                                            "};
