/* XPM */
static char * up32_xpm[] = {
"32 32 187 2",
"  	c None",
". 	c #005F00",
"+ 	c #005E00",
"@ 	c #005D00",
"# 	c #005B00",
"$ 	c #005900",
"% 	c #005700",
"& 	c #006300",
"* 	c #006200",
"= 	c #006000",
"- 	c #006800",
"; 	c #007400",
"> 	c #006700",
", 	c #005A00",
"' 	c #005500",
") 	c #006100",
"! 	c #006B00",
"~ 	c #009300",
"{ 	c #00B100",
"] 	c #10C110",
"^ 	c #3ECD3E",
"/ 	c #1FC51F",
"( 	c #009200",
"_ 	c #006600",
": 	c #009A00",
"< 	c #0FC10F",
"[ 	c #77DC77",
"} 	c #C3F0C3",
"| 	c #F1FCF1",
"1 	c #E1F8E1",
"2 	c #95E495",
"3 	c #2CC92C",
"4 	c #009800",
"5 	c #007700",
"6 	c #00B700",
"7 	c #70DA70",
"8 	c #D5F5D5",
"9 	c #E3F9E3",
"0 	c #9BE69B",
"a 	c #1CBE1C",
"b 	c #005300",
"c 	c #008200",
"d 	c #1AC41A",
"e 	c #ACEBAC",
"f 	c #D4F5D4",
"g 	c #C7F2C7",
"h 	c #41CE41",
"i 	c #008000",
"j 	c #007500",
"k 	c #18C318",
"l 	c #B8EEB8",
"m 	c #C5F2C5",
"n 	c #68BF68",
"o 	c #9FD79F",
"p 	c #BCE5BC",
"q 	c #C8F0C8",
"r 	c #48D048",
"s 	c #0BBA0B",
"t 	c #92E592",
"u 	c #B5EEB5",
"v 	c #55B055",
"w 	c #CFE8CF",
"x 	c #FFFFFF",
"y 	c #D2F5D2",
"z 	c #21C021",
"A 	c #5BD65B",
"B 	c #A4EBA4",
"C 	c #4FA74F",
"D 	c #CFE6CF",
"E 	c #C7F3C7",
"F 	c #8FE58F",
"G 	c #0A9B0A",
"H 	c #004C00",
"I 	c #12C212",
"J 	c #93E793",
"K 	c #499E49",
"L 	c #CFE3CF",
"M 	c #BDF0BD",
"N 	c #49D249",
"O 	c #51D451",
"P 	c #82E382",
"Q 	c #429842",
"R 	c #CFE1CF",
"S 	c #B3EEB3",
"T 	c #7BE07B",
"U 	c #5CD75C",
"V 	c #33CB33",
"W 	c #69DC69",
"X 	c #71DF71",
"Y 	c #3C973C",
"Z 	c #CFE0CF",
"` 	c #A7EBA7",
" .	c #48D248",
"..	c #25C825",
"+.	c #00BD00",
"@.	c #18C418",
"#.	c #5FDB5F",
"$.	c #359535",
"%.	c #60D660",
"&.	c #005400",
"*.	c #27CA27",
"=.	c #4DD74D",
"-.	c #37A337",
";.	c #D4E8D4",
">.	c #DDF7DD",
",.	c #50D250",
"'.	c #1DC81D",
").	c #3BD33B",
"!.	c #7EC17E",
"~.	c #D9F6D9",
"{.	c #38B738",
"].	c #BFD6BF",
"^.	c #44CF44",
"/.	c #9FE69F",
"(.	c #BFEFBF",
"_.	c #14C614",
":.	c #29CF29",
"<.	c #7ECE7E",
"[.	c #D6F6D6",
"}.	c #35D135",
"|.	c #1EB21E",
"1.	c #40CE40",
"2.	c #AFEAAF",
"3.	c #0BC40B",
"4.	c #16CA16",
"5.	c #24CD24",
"6.	c #B4EEB4",
"7.	c #11AE11",
"8.	c #40CF40",
"9.	c #00BF00",
"0.	c #80DF80",
"a.	c #EFFBEF",
"b.	c #CFF3CF",
"c.	c #30CB30",
"d.	c #02C402",
"e.	c #05C605",
"f.	c #04C504",
"g.	c #02AA02",
"h.	c #40D240",
"i.	c #00C300",
"j.	c #00B900",
"k.	c #01C601",
"l.	c #01C501",
"m.	c #00C600",
"n.	c #00C700",
"o.	c #00AC00",
"p.	c #40D540",
"q.	c #004A00",
"r.	c #00CB00",
"s.	c #00AF00",
"t.	c #40D840",
"u.	c #003900",
"v.	c #006900",
"w.	c #05CE05",
"x.	c #03B103",
"y.	c #43DA43",
"z.	c #0AA40A",
"A.	c #10D010",
"B.	c #0CB30C",
"C.	c #4CDC4C",
"D.	c #004700",
"E.	c #016201",
"F.	c #1ACB1A",
"G.	c #1CD31C",
"H.	c #C1DEC1",
"I.	c #38D838",
"J.	c #097909",
"K.	c #27D527",
"L.	c #5BD85B",
"M.	c #F2FCF2",
"N.	c #94EA94",
"O.	c #003800",
"P.	c #128912",
"Q.	c #32D732",
"R.	c #004D00",
"S.	c #0E7A0E",
"T.	c #39D139",
"U.	c #3ED93E",
"V.	c #046304",
"W.	c #2CAB2C",
"X.	c #49DB49",
"Y.	c #0A6B0A",
"Z.	c #2EA42E",
"`.	c #49CD49",
" +	c #54DE54",
".+	c #0B6C0B",
"++	c #177C17",
"                                                                ",
"                        . + @ # # # $ %                         ",
"                  & * = + - ; ; ; ; > # # , '                   ",
"                & ) ! ~ { ] ^ ^ ^ ^ / { ( > # ,                 ",
"            & * _ : < [ } | | | | | | 1 2 3 4 ) # '             ",
"          * ) 5 6 7 8 9 9 9 9 9 9 9 9 9 9 9 0 a ; # b           ",
"        ) = c d e f f f f f f f f f f f f f f g h i # b         ",
"        . j k l m m m m m m n o p q m m m m m m m r ; #         ",
"      + * s t u u u u u u v w x x x y u u u u u u u z ) ,       ",
"    # # 4 A B B B B B B C D x x x x x E B B B B B B F G # H     ",
"    # > I J J J J J J K L x x x x x x x M J J J J J J N > ,     ",
"    # ( O P P P P P Q R x x x x x x x x x S P P P T U V ( #     ",
"  , # { W X X X X Y Z x x x x x x x x x x x `  ...+.+.+.{ # H   ",
"  , > @.#.#.#.#.$.Z x x x x x x x x x x x x x %.+.+.+.+.+.> &.  ",
"  # ; *.=.=.=.-.Z x x x x ;.Z x x x >.x x x x x ,.+.+.+.+.; $   ",
"  # ; '.).).).!.x x x x ~.{.].x x x ^./.x x x x (.+.+.+.+.; #   ",
"  # ; _.:.:.:.<.x x x [.}.|.].x x x 1.+./.x x x 2.+.+.+.+.; #   ",
"  # ; 3.4.4.4.5.6.x 6.5.4.7.].x x x 8.9.9.0.a.b.c.9.9.9.9.; $   ",
"  $ - d.e.e.e.e.e.e.e.e.f.g.].x x x h.i.i.i.i.i.i.i.i.i.i.- b   ",
"  % # j.k.k.l.k.k.k.m.n.n.o.].x x x p.n.n.n.n.n.n.n.n.n.j.# q.  ",
"    # : r.r.r.r.r.r.r.r.r.s.].x x x t.r.r.r.r.r.r.r.r.r.: # u.  ",
"    , v.w.w.w.w.w.w.w.w.w.x.].x x x y.w.w.w.w.w.w.w.w.w.v.$     ",
"    ' # z.A.A.A.A.A.A.A.A.B.].x x x C.A.A.A.A.A.A.A.A.z.# D.    ",
"      , E.F.G.G.G.G.G.G.G.G.H.x x x I.G.G.G.G.G.G.G.F.E.$       ",
"        # J.K.K.K.K.K.K.K.K.L.M.x N.K.K.K.K.K.K.K.K.J.# O.      ",
"        ' # P.Q.Q.Q.Q.Q.Q.Q.Q.Q.Q.Q.Q.Q.Q.Q.Q.Q.Q.P.# R.        ",
"          b # S.T.U.U.U.U.U.U.U.U.U.U.U.U.U.U.T.S.# R.          ",
"            b # V.W.X.X.X.X.X.X.X.X.X.X.X.X.W.V.# R.            ",
"                , # Y.Z.`. + + + + + +`.Z.Y.# $ O.              ",
"                  H , # # .+++++++++.+# # $ D.                  ",
"                        H &.$ # # $ b q.u.                      ",
"                                                                "};
