/* XPM */
static char * gwblank2 [] = {
"64 64 10 1",
"0 c #757575",
"1 c #858585",
"2 c #949494",
"3 c #A3A3A3",
"4 c #B3B3B3",
"5 c #C2C2C2",
"6 c #D1D1D1",
"7 c #E1E1E1",
"8 c #F0F0F0",
"9 c #FFFFFF",
"1111111111111111111111111111111111111111111111111111111111111111",
"4444444444443444444444344444444444444444444444444444444444444444",
"4444444444444444444444444444444444444444444443444444444444444444",
"4554545455455554555555554545444444444444444444444444444544444444",
"5556555555565556566655555555555555555555455555555555555555555555",
"6666666666666666666666666666666555555555555555555556565656555555",
"7777777777777777777777776767666666666666666666666666666666666666",
"7777777777787777777777777777777777767667676666666676767776666666",
"8888888888888888888888888887878777777777777777777777777777777777",
"8888888888888888888888888888888888888888787887878787888787777877",
"8888888888888888888888888888888888888888888888888888888888888888",
"9998989999999989899899898988889888898889889888898898989889888889",
"9999999999999999999999999999999999989999998999989989898998989989",
"9999999999999999999999999999999999999999999999999999999999999999",
"9999999999999999999999999999999999999999999999999999999999999999",
"9999999999999999999999999999999999999999999999999999999999999999",
"9999999999999999999999999999999999999999999999999999999999999999",
"9999999999999999999999999999999999999999999999999999999999999999",
"9999999999999999999999999999999999999999999999999999999999999999",
"9999999999999999999999999999999999999999999999999999999999999999",
"9999999999999999999999999999999999999999999999999999999999999999",
"9999999999999999999999999999999999999999999999999999999999999999",
"9999999999999999999999999999999999999999999999999999999999999999",
"9999999999999999999999999999999999999999999999999999999999999999",
"9999999999999999999999999999999998999999999989999999999999999999",
"9999999999999999999999999999999999999999999999999999999999999999",
"9999999999999999999999999999999999999999999999999999999999999999",
"9999999999999999999999999999999999999999999999999999999999999999",
"9999899999999999999999999999999999999999999999999999999999999999",
"9999989999999999999999999999999999999999999999999999999999999999",
"9998999989999999999999999999999999999999999999999999999999999999",
"9999998999899999999999999999999999999999999999999999999999999999",
"9998989999998999999999999999999999999999999999999998999999989999",
"9999898989899989999999998999999999999999999999999999899999998999",
"9998998989989899899989899898989999998998989899999999999999999999",
"9998989899899998998998999999899989989999998999899899899998998999",
"9999898988988989999989898898989998998998989899989989999899899999",
"9999989999999998999999899999989999898899999899989899898898998989",
"9998888888999888888899898889989988888988899899898988899989888999",
"8888898888888889888898988989898988988889898989888888888888888888",
"8888878889888887888998888899888988888888889999888888888888888888",
"8887887879888788787988788898878988888788787787888888888888888888",
"8888778788888877878878878787887977777877877877788888888888888888",
"7877787778787778777878778787877887878778778778777777898887787877",
"7777777778777777777877778787777877777777777777777777777677777777",
"7777777777777777777777777777777877777777777777777777677777777777",
"7777777777777777777777777777777877777777767676767666766666767777",
"6667666766666766676676676767667767666666676767666666666667666666",
"6666666666666666666666666766666666666666666666666666666666666666",
"6666666666666666666666666667766666666666666666666666666666666666",
"6666666666666666666666666666666666666666666666656656656666666666",
"5665656566565665656565656565656565656565655555556565556555555655",
"5555555555555555655655565555555555555555556565565555655565655655",
"5566665555555565666665556665555556555556555555555555555555555555",
"5555555555555555555555555555555555555555555555555555555555555555",
"5555555555555555555554554555555555555555555555545545555555555555",
"5556444444644444445445445444444444544444444454454454444444445444",
"5545454545545454544544544545445454454454545445445445454454544544",
"4444444444444444444444444444444444444444444444444444444444444444",
"4444444444444444444444444444444444444444444444444444444444444444",
"4434343434434343434343434343434343433343434343434343434343434334",
"4443434343343434343434343434343434343434343434343434343434343434",
"2223444333444443333333444433243333323232323232323232323232323223",
"1111011101011101111111111011111110110101010110110110110101101110"};
