/* XPM */
static char * gwbst [] = {
"64 64 40 1",
"0 c #000000",
"1 c #4A5A84",
"2 c #DEC6C6",
"3 c #A3A3A3",
"4 c #395273",
"5 c #666666",
"6 c #637B9C",
"7 c #858585",
"8 c #757575",
"9 c #282828",
"A c #AD9C84",
"B c #CE9C94",
"C c #515151",
"D c #F0F0F0",
"E c #3D3D3D",
"F c #8C9C94",
"G c #CEBDAD",
"H c #294239",
"I c #D67B73",
"J c #C2C2C2",
"L c #CEAD9C",
"K c #949494",
"M c #4A4A52",
"N c #CE6363",
"O c #666666",
"P c #CE0000",
"Q c #6B737B",
"R c #FFFFFF",
"S c #523131",
"T c #00296B",
"U c #636373",
"V c #F7DED6",
"W c #9C3931",
"X c #E1E1E1",
"Y c #282828",
"Z c #D1D1D1",
"a c #C6D6E7",
"b c #000000",
"c c #B3B3B3",
"d c #B59C94",
"7K7K7K7K7K7K7K7K7K7K7K7K7K7K7K7K7K7K7K7K7K7K7K7K7K7K7K7K7K7K7K70",
"33ccccccccccccccccccccccccccccccccccccccccccccccccccccccccccc330",
"3ccccccccccccccccccccccccccccccccccccccccccccccccccccccccccccc30",
"3JJJJJJJJJJJJJJJJJJJJJJJJJJJJcJcJcc5b0b5ccccJcccccJJcJJcJcJcJcc0",
"cJJZJJZJJZJZJZJZJZJJJJJJJJJJJJJJJJCY636YCJJJJJJJJJJJJJJJJJJJJJc0",
"cZZZZZZZZZZZZZZZZZZZZZZZZZZZZZZJJcb33333bcJJJJJJZJZZJZZZZZJJJJJ0",
"cZXXXXXXXXXXXXXXXXXXXXXXZXZXZZZZZ39cca6a93ZZZZZZZZZZZZZZZZZZZZJ0",
"JXXXXXXXXXXDXXXXXXXXXXXXXXXXXXXXX3bbT9Tb03XZXXZXZXXXXXXXXXXZZXJ0",
"JXDDDDDDDDDDDDDDDDDDDDDDDDDXDXDXX39F6F63H3XXXXXXXXXXXXXXXXXXXXJ0",
"JXDDDDDDDDDDDDDDDDDDDDDDDDDDDDDDDabaaaaa0DDDDDDDDDDDDDDDDDXDXXZ0",
"JXDDDDDDDDDDDDDDDDDDDDDDDDDDDDDDDXbcaaa69DDDDDDDDDDDDDDDDDDDDDZ0",
"JXRDRDRRRRRRRRDRDRRDRRDRDRDDDDRDDDH6aaa6MDDDDDDDDDDDDDDDDDDDDDX0",
"JXRRRRRRRRRRRRRRRRRRRRRRRRRRRRRRRRQ6aaa6QRRRRRRRRRRRRRRRRRDRDDX0",
"JXRRRRRRRRRRRRRRRRRRRRRRRRRRRRRRRR74aaa4KRRRRRRRRRRRRRRRRRRRRRX0",
"JXRRRRRRRRRRRRRRRRRRRRRRRRRRRRRRRRcHaaaHJRRRRRRRRRRRRRRRRRRRRRX0",
"cXRRRRRRRRRRRRRRRRRRRRRRRRRRRRRRRRabaaa0XRRDKUQ3RRRRRRRRRRRRRRX0",
"cXRRRRRRRRRRRRRRRRRRRRRRRRRRRRRRRRRbcacbRRDYC6MEURRRRRRDRDDDDDZ0",
"cXRRRRRRRRRRRRRRRRRRRRRRRRRRRRRRRRDM6a64RRCUaaa6E3DRDDDRDRDDDDZ0",
"cXRRRRRRRRRRRRRRRRRRRRRRRRRRRRRRDDDQ6a6OD39aaacc45VVV2V22222DD20",
"JXRRRRRRRRRRRRRRRRRRRRRRRRRRDDDDDDD74aM7V96Jacaa152222222222DDZ0",
"cXRRRRRRRRRRRRRRRRRRRRRRDRDDDDDDVVV3EaE37Eaaca3aM72222222G2GDDZ0",
"cXRRRRRRRRRRRRRRRRRRRDDDDDDDDVVVVVX2babG9Faca6a1E22222GG2LG2DD20",
"cXRRRRRRRRRRRRRRRRRRDDDDDVDVVVVX2V22YQ98Maccc6EC222GGG2LL2LLDDZ0",
"cXRRRRRRRRRRRRRXJJcDDDVVVXVVXV222222MYEEcca64E32222G2LL2I7ABVD20",
"cXRRRRRRRRRRDRO0bE90bE87c2XX222222GG5b9Uc649Q2222LA85SY09bYb8DZ0",
"cXRRRRRRRRDDD89UMaaa3FUCEbbEU83GGLGL8bY81EQcK78CYbEC583cKY3KE820",
"cXRRRRRRRRDDDYK1UJaaaaaaaa36UM90bE58OYS9EME9MUQKcaccccac6MJ36920",
"cXRRRRRRRRDDD0a11Jacacacacaacc3KU9bbbb0bbbCKJcaacacaaaaa64c3a0Z0",
"cXRRRRRRRRDDDbF1Uacaacaaca666MM0bY00bbYSbSYYUQ63aaacacaa6Ma36920",
"cXRRRRRRRRDDD894Macc6614T0bMO7SWY0YSbbbPWWWWWSSY0bH4166c6933E820",
"cXRRRRRRRRDDDDO0b9TbbMUOd2XV2VS0bWWbb0bWIIIIIININ8dO5EYb9b9bUVJ0",
"cXDRDRRDRRVDVDVZccdXXXVVXV2VKbbSWSSbbYbWINNANNANINGGGGLLK77BVX20",
"cXRDRDRRDRDVDVDVXVX2VVX2V22E0bSWSWYSbSbWINANANNANNGGLGGGLLLLVV20",
"cXDRDRDRRDVXVXVXVX2V2X2V22bEQM0SWS0W0WbWINNNNANNANGG2L2LL2LLVX20",
"cXRDRDDDDRXVXVVVVV222V222OEc3cS0SYSWbWbWN7NANNNANNGLLLLLLLLLVX20",
"cXDDDDDDDDVVVXVXVX2222222EQ333SYbbWSYWYSNNANN7NNNALGLGLLL2LLV220",
"cXDDDDDDDRXXXVXVXV22222229Qc3cWS0SWSSSSSNNNANNN8NNLLLLLLLLLLVXG0",
"cXDDDDDDDDV2V2X22VG222G22OYK36SbbWWYSWSbN8NNN5NNNNLLLLLLLBLB2VJ0",
"cXDDDDDDDDDDDDDDDDVX2VX2V2Y96QYbWNWbWSWbBBLLLLLLLL222222222222G0",
"cXDDDDDDDDDDDDDDDDX2X2222228E9SNNNNbO88bdGLLLLLLLL222222G22222J0",
"cXDDDDDDDDDDDDDDDDXDXDXVDXDXX2NN7N5Y888Yd22G2G2G2GXXXXXXXXXXDDX0",
"cXDDDDDDDDDDDDDDDDXXXXXXXXXXVZN8NNSS8W8S8G2GG2G2G2VXVXVXVXVXDDX0",
"3XDDDDDDDXDDDDDDDDXXXVXXVXVXX2NN8NSSO88SC2G2GGGGGGXXXXXXXXXXXDZ0",
"cXXXXXXXDXXXDXXDXDXXXXXXXXXXX2WNN8YCOW8CSGGGGGGGGGXXXZXXXXXXXXX0",
"3XXXXXXXXXXXXXXXXXXZXZX2XX2XZ2W8WNbWO8W5bGGGGGGGGGZX2X2ZZZX2XXZ0",
"3ZXEcXXXXXXXXXXXXXZX3EZZZZZZX2WNWN0555OO0LGLGLGLGLZ2ZZZZZZZZXXZ0",
"3ZXE3XXXXXXXXXXXXX2ZZZZZZZ2Z2JWN5Wb5WOWOY7LGGcLcLcZZZZZZ2ZZZXXZ0",
"3ZXECbbKXcY0bKXcb0EZ35Z3Y0EZ2ZNW8WY5O8O8SKXZZZZZZ2XZZZXZXZZXZXZ0",
"3ZZEEZ3bZ5OZ8EZEKZMcK92E7GMcJJdLd7bEMMMEbKZZZZZZZZZZZZZZZZZZZZJ0",
"3ZZE3ZZE3ZKOEEZObMKJKEJ5bMKJJJdcdA0MMMMM0cZZZZZZZZZZZZZZZZZZZZJ0",
"3ZZE3ZZE3EEOOEZZc5b8K9JJ3Cb8JJddddCYU7UYCJZZZZZZZZZZZZZZZZZZZZJ0",
"3JZYEJKbJ0cJMEJYKZEOK9JY7JEOJGdddddCbbbCGGJZZJZJZJZJZJZJZZJZZZJ0",
"3JZEMbb3ZO0bCbZ8b0Yc79G8b09cGcddddddddddccJJJZJJJJJJJZJZJJZJJJJ0",
"3JJJJJJJJJJJJJJZJJJGcGcccGcccGddddddddddcGJJJJJJJJJJJJJJJJJJJJJ0",
"3JJJJJJJJJJJJJ37JJccK8cGccccccAdAdAY8AAAccJJJJJJJJJJJJJJJJJJJJc0",
"3JJJJJJJJJJJJJ55JJcc5CccccccccAKdKAY8AAddcJJJJJJJJJJJJJJJJJJJJc0",
"3JcC0b7JcY093Kbb3Jc7bbK7Y0YKc7Y0Y7AY8AK7c3JJJJcJcJcJJJcJJJcJJJc0",
"3c7Yc8OcE8c8EcEMcc3dEE3EC3CEdEMAS9AY5AAAd3JcccJcccJcccJcccJcccc0",
"3ccbYOcc0YYY0c5Ccc33CC30333030d3d0dY8dKd3dccccccccccccccccccccc0",
"3cc3OYbc07777cC5cc33CCd0ddd0d03K303Y8dKdd3cccccccccccccccccccc30",
"Kc8E37bcECcOYcCCccd3CC39C3CE39CKC9KY8KdKd3cccccccccccccccccccc30",
"K33Y0bOc7Y0b7c80OcK3O057Y0Y8K7Y0Y7AY8AKKKK3c33c3c3c3c3c3c3c3c330",
"33333K3K33333K333KK7K7K7K7K7K77777777777K73333K3K3K3K3K3K3K3K3K0",
"7877777777877778778888888888888888888888887777777777777777777770"};
