/* XPM */
static char * gwbuilder [] = {
"64 64 35 1",
"0 c #000000",
"1 c #4A5A84",
"2 c #DEC6C6",
"3 c #A3A3A3",
"4 c #395273",
"5 c #666666",
"6 c #637B9C",
"7 c #858585",
"8 c #757575",
"9 c #AD9C84",
"A c #CE9C94",
"C c #F0F0F0",
"D c #3D3D3D",
"E c #8C9C94",
"F c #CEBDAD",
"G c #D67B73",
"H c #C2C2C2",
"I c #CEAD9C",
"J c #949494",
"L c #4A4A52",
"M c #CE6363",
"O c #666666",
"P c #6B737B",
"Q c #FFFFFF",
"R c #00296B",
"S c #EFE7AD",
"T c #636373",
"U c #F7DED6",
"V c #9C3931",
"W c #E1E1E1",
"X c #D1D1D1",
"Y c #C6D6E7",
"Z c #B3B3B3",
"a c #B59C94",
"b c #00BFFF",
"7777777777777777777777777777777777777777777777777777777777777777",
"ZZZZZZZZZZZZ3ZZZZZZZZZ3ZZZZZZZZZZZZZZZZZZZZZZZZZZZZZZZZZZZZZZZZZ",
"ZZZZZZZZZZZZZZZZZZZZZZZZZZZZZZZZZZZZZZZZZZZZZ3ZZZZZZZZZZZZZZZZZZ",
"ZHHZHZHZHHZHHHHZHHHHHHHHZHZHZZZZZZZZZZZZZZZZZZZZZZZZZZZHZZZZZZZZ",
"HHHXHHHHHHHXHHHXHXXXHHHHHHHHHHHHHHHHHHHHZHHHHHHHHHHHHHHHHHHHHHHH",
"XXXXXXXXXXXXXXXXHZ99ZXXXXXXXXHXHHHHHHHHHHHHHHHHHHHHXHXHXHXHHHHHH",
"WXWXWWWWWXWWWWWH9ISa8JWWXXXXXXXXXXXXXXXXXXXXXXXXXXXXXXXXXXXXXXXX",
"WWWWWWWWWWWWWCX9SSSI95ZCWWWWWWWWWWWXWXXWXWXXXXXXXXWXWXWWWXXXXXXX",
"CCCCCWCCCCCCCQ99FFSa9DOQWCQWCWCWWWWWWWWWWWWWWWWWWWWWWWWWWWWWWWWW",
"CCCCCCCCCCCCCQ89Sa99E50QCCJ777CWCCCCCCCCWCWCCWCWCWCWCCCWCWWWWCWW",
"CCCCCCCCCCQCYE579a998DDQCQL0D0OQCCCCCCCCCCCCCCCCCCCCCCCCCCCCCCCC",
"QQQQCQQQQQWYE665589500XQQCQQQL7QQCCQCCCQCCQCCCCQCCQCQCQCCQCCCCCQ",
"QQQQQQCQQQY66636DDDD05XQQQQQQD7QQQQCQQQQQQCQQQQCQQCQCQCQQCQCQQCQ",
"QQQQQQQQQWE6666b6D0057EQQQQQQDJQQQQQQQQQQQQQQQQQQQQQQQQQQQQQQQQQ",
"QQQQQQQQQY666b66666441PQQQQQQL7QQQQQQQQQQQQQQQQQQQQQQQQQQQQQQQQQ",
"QQQQQQQQQ61666666614RDDQQQQQQDJQQQQQQQQQQQQQQQQQQQQQQQQQQQQQQQQQ",
"QQQQQQQQQR166666611R4R0QQQQQQDJQQQQQQQQQQQQQQQQQQQQQQQQQQQQQQQQQ",
"QQQQQQQH94R166661611R00QQQQQQDJQQQQQQQQQQQQQQQQQQQQQQQQQQQQQQQQQ",
"QQQQQQ3D5411R1116R4RRD0QQQQQQDJQQQQQQQQQQQQQQQQQQQQW9FWQQQQQQQQQ",
"QQQQQH79I71R1R11R4RRD1PQQQQQQDJQQQQQQQQQQQQQQQQQQCIIIa9ZQQQQQQQQ",
"QQQQQJ9IS774RRRR1RR00PYQQQQQQDJQQQQQQQQQQQQQQQQQQIISSS95HQQQQQQQ",
"QQQQQ79SISEORD4RRD004YQQQQQQQDJQQQQQQQQQQQQQQQQQX9SFSS978QQQQQQQ",
"QQQQQS9ISSI7O4D00D16XQQQQQQQQDJQQQQQQQQQQQQQQQQQ79ZSa997DQQQQQQQ",
"QQQQQQZaISa8PZE004HQQQQQQQQQQDJQQQQQQQQQQQQQQQQQE99Ia997DQQQQQQQ",
"QQQQQQQSaE99CQQCQQQQQQQQQQQQQDJQQCQQQQQQQQQQQQQQE5E999809QQQQQQQ",
"QQQQQQQQQQQQQQQQQQQQQQQQQQQQQDJQQD0QQQQQQQQQQQY66OD555D5QQQQQQQQ",
"QQQQQQQQQQQQQQQQQQQQQQQQQQQQQDJQQQ00QQQQQQQQQY1636DDD00JQQQQQQQQ",
"QQQQQQQQQQQQQQQQQQ0QQQQQQQQQQDJQQQQ00QQQQQQQC1666b6O00DOWQQQQQQQ",
"QQQQCQQQQQQQQQQQQQ0QQQQQQQQQQL3QQQQQ00QQQQQQH666b666614RZQQCQQQQ",
"QQQQQCQQQQQQQQQQ00000QQQQQQQQL00000000DQQQQQ166666666R4R4QQQQQQQ",
"QQQCQQQQCQQQQQQQQQ0QQQQQQQQQQLJQQQQQC0CQQQQQR6666661614D0QQCQQQQ",
"QQQQQQCQQQCQQQQQQQ0QQQQQQQQQQD7QQQQZ0QQQQXS6416666616R4R0QQQQQQQ",
"QQQCQCQQQQQQCQQQQQXQQQQQQQQQQDJQQQD0QQQQXIS36R616111R1RR7QQCQQQQ",
"QQQQCQCQCQCQQQCQQQQQQQQQCQQCQDJQQW0QQQQW9ISF6RR11111RRR5bZQQCQQQ",
"QQQCQQCQCQQCQCQQCQQQCQCQQCQQQD7QQQQQCQQ99IFSJ4RRR1R4aA5bb0XQQQQQ",
"QQQCQCQCQQCQQQQCQQCQQCQQQQQQQDEQCQQCQQQ599SI9PRRRR4aGGbbbb0QCQQQ",
"QQQQCQCQCCQCCQCQQQQQCQCQCCCQQDJQQCQQCQQZOE9997D4E4VG2UDbb0HQQQQQ",
"QQQQQCQQQQCQQQQQHbJQQQCQQQQCQD7QQQCQCCQCTD588D0ZQaMGGGGDbDQQCQQQ",
"QQQCCCCCCCQCUAG8bb0JQQCQCCCQQD7QCCCCCQCQWDDD007QQMGGGGGMVDQCCQQQ",
"CCCCCQCCCCCWGGGbbbb0QCQCCQCCQD7QCCQCCCCCQQ30DHQCCA9VMGMVD7QCCCCC",
"CCCCCWCCCQXAGUULbbb7QCCCCCCCQD7QCCCCCCCCCCQQQQCCCCaVVV5DOUCCCCCC",
"CCCWCCWCWQGGGGGGD00QCCWCCCCCQD7QCCCCCWCCWCWWCWCWCCWa5DDVYQCWCCWC",
"CCCCWWCWCCVGGGGGMMDQWCCWCWCWQD7QWWWWWCWWCWWCWWWCWCCWa07WCWWWWWWW",
"WCWWWCWWWCAVMMGMVD5QWCWWCWWWQD7CCWCWCWWCWWCWWCWWWWWWCQCCCWWCWCWW",
"WWWWWWWWWCXaVDVVDOHWWWWWCWCWQDPCWWWWWWWWWWWWWWWWWWWWWWWYWWWWWWWW",
"WWWWWWWWWWWXaVDDOFWWWWWWWWWWQD7CWWWWWWWWWWWWWWWWWWWWXWWWWWWWWWWW",
"WWWWWWWWWWWW2P05ZWWWWWWWWWWWQ0DCWWWWWWWWWXWXWXWXWXXXWXXXXXWXWWWW",
"XXXWXXXWXXXYWUCCWWWXWXXWXWHP70OWXWXXXXXXXWXWXWXXXXXXXXXXXWXXXXXX",
"XXXXXXXXXXWXXYXXXXXXXXXXXW700DHXXXXXXXXXXXXXXXXXXXXXXXXXXXXXXXXX",
"XXXXXXXXXXXXXXXXXXXXXXXXXXXWWXXXXXXXXXXXXXXXXXXXXXXXXXXXXXXXXXXX",
"XXXXXXXXXXXXXXXXXXXXXXXXXXXXXXXXXXXXXXXXXXXXXXXHXXHXXHXXXXXXXXXX",
"HXXHXHXHXXHXHXXHXHXHXHXHXHXHXHXHXHXHXHXHXHHHHHHHXHXHHHXHHHHHHXHH",
"HHHHHHHHHHHHHHHHXHHXHHHXHHHHHHHHHHHHHHHHHHXHXHHXHHHHXHHHXHXHHXHH",
"HHXXXXHHHHHHHHXHXXXXXHHHXXXHHHHHHXHHHHHXHHHHHHHHHHHHHHHHHHHHHHHH",
"HHHX0WHHHHHHHHHX0JJ0XHHHJ0XHHHHHHHHHHHHHHHHHHHHHHHHHHHHHHHHHHHHH",
"HHHW0CXXXHXXHHXXWX30XXXW30XHXXXHHXXXHHHHHHHHHHHZHHZHHHHHHHHHHHHH",
"HHHX0D003X07HX0W0JJ0WJ0000W3000HX0D0XZZZZZZZHZZHZZHZZZZZZZZZHZZZ",
"HHZX0OWP0W0JHX0C0J30W0ZWD0W0ZW70W00XHZHZHZHZZHZZHZZHZHZZHZHZZHZZ",
"ZZZX0XHX0W0EHX0C0JJ0Z0XHJ0Z03730W0JHZZZZZZZZZZZZZZZZZZZZZZZZZZZZ",
"ZZZX0XZX0W0JZX0W0JJ030HZJ030DDLDX0JZZZZZZZZZZZZZZZZZZZZZZZZZZZZZ",
"ZZ3H0JHJ0X0JHJ0W0JJ0H0HHD0X0HXZ0X07ZZ3Z3Z3Z3Z3Z3Z3Z3Z3Z3Z3Z3Z33Z",
"ZZZH00L0JHP0D00X0770X50D00HO0L08H07Z3Z3Z3Z3Z3Z3Z3Z3Z3Z3Z3Z3Z3Z3Z",
"JJJ3ZZ8333Z78ZZ333333377ZZ33J833333J3J3J3J3J3J3J3J3J3J3J3J3J3JJ3",
"7777P777P7P777P7777777777P7777777P77P7P7P7P77P77P77P77P7P77P777P"};
