/* XPM */
static char * gwbuilder [] = {
"64 64 35 1",
"0 c #000000",
"1 c #4A5A84",
"2 c #DEC6C6",
"3 c #A3A3A3",
"4 c #395273",
"5 c #666666",
"6 c #637B9C",
"7 c #858585",
"8 c #757575",
"9 c #AD9C84",
"A c #CE9C94",
"C c #F0F0F0",
"D c #3D3D3D",
"E c #8C9C94",
"F c #CEBDAD",
"G c #D67B73",
"H c #C2C2C2",
"I c #CEAD9C",
"J c #949494",
"L c #4A4A52",
"M c #CE6363",
"O c #666666",
"P c #6B737B",
"Q c #FFFFFF",
"R c #00296B",
"S c #EFE7AD",
"T c #636373",
"U c #F7DED6",
"V c #9C3931",
"W c #E1E1E1",
"X c #D1D1D1",
"Y c #C6D6E7",
"Z c #B3B3B3",
"a c #B59C94",
"b c #00BFFF",
"7777777777777777777777777777777777777777777777777777777777777770",
"JZZZZZZZZZZZ3ZZZZZZZZZ3ZZZZZZZZZZZZZZZZZZZZZZZZZZZZZZZZZZZZZZZ30",
"JZZZZZZZZZZZZZZZZZZZZZZZZZZZZZZZZZZZZZZZZZZZZ3ZZZZZZZZZZZZZZZZ30",
"JHHZHZHZHHZHHHHZHHHHHHHHZHZHZZZZZZZZZZZZZZZZZZZZZZZZZZZHZZZZZZZ0",
"3HHXHHHHHHHXHHHXHXXXHHHHHHHHHHHHHHHHHHHHZHHHHHHHHHHHHHHHHHHHHHZ0",
"3XXXXXXXXXXXXXXXHZ99ZXXXXXXXXHXHHHHHHHHHHHHHHHHHHHHXHXHXHXHHHHZ0",
"ZXWXWWWWWXWWWWWH9ISa8JWWXXXXXXXXXXXXXXXXXXXXXXXXXXXXXXXXXXXXXXH0",
"ZWWWWWWWWWWWWCX9SSSI95ZCWWWWWWWWWWWXWXXWXWXXXXXXXXWXWXWWWXXXXXH0",
"ZWCCCWCCCCCCCQ99FFSa9DOQWCQWCWCWWWWWWWWWWWWWWWWWWWWWWWWWWWWWWWH0",
"ZWCCCCCCCCCCCQ89Sa99E50QCCJ777CWCCCCCCCCWCWCCWCWCWCWCCCWCWWWWCX0",
"ZWCCCCCCCCQCYE579a998DDQCQL0D0OQCCCCCCCCCCCCCCCCCCCCCCCCCCCCCWX0",
"ZWQQCQQQQQWYE665589500XQQCQQQL7QQCCQCCCQCCQCCCCQCCQCQCQCCQCCCCW0",
"ZCQQQQCQQQY66636DDDD05XQQQQQQD7QQQQCQQQQQQCQQQQCQQCQCQCQQCQCQQX0",
"ZWQQQQQQQWE6666b6D0057EQQQQQQDJQQQQQQQQQQQQQQQQQQQQQQQQQQQQQQQW0",
"ZWQQQQQQQY666b66666441PQQQQQQL7QQQQQQQQQQQQQQQQQQQQQQQQQQQQQQQX0",
"ZWQQQQQQQ61666666614RDDQQQQQQDJQQQQQQQQQQQQQQQQQQQQQQQQQQQQQQQW0",
"3WQQQQQQQR166666611R4R0QQQQQQDJQQQQQQQQQQQQQQQQQQQQQQQQQQQQQQQX0",
"ZWQQQQQH94R166661611R00QQQQQQDJQQQQQQQQQQQQQQQQQQQQQQQQQQQQQQQX0",
"ZXQQQQ3D5411R1116R4RRD0QQQQQQDJQQQQQQQQQQQQQQQQQQQQW9FWQQQQQQQX0",
"ZWQQQH79I71R1R11R4RRD1PQQQQQQDJQQQQQQQQQQQQQQQQQQCIIIa9ZQQQQQQW0",
"3WQQQJ9IS774RRRR1RR00PYQQQQQQDJQQQQQQQQQQQQQQQQQQIISSS95HQQQQQW0",
"ZWQQQ79SISEORD4RRD004YQQQQQQQDJQQQQQQQQQQQQQQQQQX9SFSS978QQQQQW0",
"3WQQQS9ISSI7O4D00D16XQQQQQQQQDJQQQQQQQQQQQQQQQQQ79ZSa997DQQQQQW0",
"ZWQQQQZaISa8PZE004HQQQQQQQQQQDJQQQQQQQQQQQQQQQQQE99Ia997DQQQQQW0",
"3WQQQQQSaE99CQQCQQQQQQQQQQQQQDJQQCQQQQQQQQQQQQQQE5E999809QQQQQW0",
"ZWQQQQQQQQQQQQQQQQQQQQQQQQQQQDJQQD0QQQQQQQQQQQY66OD555D5QQQQQQW0",
"ZWQQQQQQQQQQQQQQQQQQQQQQQQQQQDJQQQ00QQQQQQQQQY1636DDD00JQQQQQQW0",
"3WQQQQQQQQQQQQQQQQ0QQQQQQQQQQDJQQQQ00QQQQQQQC1666b6O00DOWQQQQQW0",
"3WQQCQQQQQQQQQQQQQ0QQQQQQQQQQL3QQQQQ00QQQQQQH666b666614RZQQCQQW0",
"3WQQQCQQQQQQQQQQ00000QQQQQQQQL00000000DQQQQQ166666666R4R4QQQQQW0",
"3WQCQQQQCQQQQQQQQQ0QQQQQQQQQQLJQQQQQC0CQQQQQR6666661614D0QQCQQW0",
"3WQQQQCQQQCQQQQQQQ0QQQQQQQQQQD7QQQQZ0QQQQXS6416666616R4R0QQQQQW0",
"3CQCQCQQQQQQCQQQQQXQQQQQQQQQQDJQQQD0QQQQXIS36R616111R1RR7QQCQQW0",
"3WQQCQCQCQCQQQCQQQQQQQQQCQQCQDJQQW0QQQQW9ISF6RR11111RRR5bZQQCQW0",
"ZWQCQQCQCQQCQCQQCQQQCQCQQCQQQD7QQQQQCQQ99IFSJ4RRR1R4aA5bb0XQQQW0",
"3WQCQCQCQQCQQQQCQQCQQCQQQQQQQDEQCQQCQQQ599SI9PRRRR4aGGbbbb0QCQW0",
"3CQQCQCQCCQCCQCQQQQQCQCQCCCQQDJQQCQQCQQZOE9997D4E4VG2UDbb0HQQQW0",
"3WQQQCQQQQCQQQQQHbJQQQCQQQQCQD7QQQCQCCQCTD588D0ZQaMGGGGDbDQQCQW0",
"3WQCCCCCCCQCUAG8bb0JQQCQCCCQQD7QCCCCCQCQWDDD007QQMGGGGGMVDQCCQW0",
"3WCCCQCCCCCWGGGbbbb0QCQCCQCCQD7QCCQCCCCCQQ30DHQCCA9VMGMVD7QCCCW0",
"3WCCCWCCCQXAGUULbbb7QCCCCCCCQD7QCCCCCCCCCCQQQQCCCCaVVV5DOUCCCCW0",
"3WCWCCWCWQGGGGGGD00QCCWCCCCCQD7QCCCCCWCCWCWWCWCWCCWa5DDVYQCWCCW0",
"3WCCWWCWCCVGGGGGMMDQWCCWCWCWQD7QWWWWWCWWCWWCWWWCWCCWa07WCWWWWWW0",
"3WWWWCWWWCAVMMGMVD5QWCWWCWWWQD7CCWCWCWWCWWCWWCWWWWWWCQCCCWWCWCX0",
"3WWWWWWWWCXaVDVVDOHWWWWWCWCWQDPCWWWWWWWWWWWWWWWWWWWWWWWYWWWWWWW0",
"JWWWWWWWWWWXaVDDOFWWWWWWWWWWQD7CWWWWWWWWWWWWWWWWWWWWXWWWWWWWWWX0",
"3XWWWWWWWWWW2P05ZWWWWWWWWWWWQ0DCWWWWWWWWWXWXWXWXWXXXWXXXXXWXWWX0",
"JWXWXXXWXXXYWUCCWWWXWXXWXWHP70OWXWXXXXXXXWXWXWXXXXXXXXXXXWXXXXX0",
"JXXXXXXXXXWXXYXXXXXXXXXXXW700DHXXXXXXXXXXXXXXXXXXXXXXXXXXXXXXWH0",
"JXXXXXXXXXXXXXXXXXXXXXXXXXXWWXXXXXXXXXXXXXXXXXXXXXXXXXXXXXXXXXH0",
"3XXXXXXXXXXXXXXXXXXXXXXXXXXXXXXXXXXXXXXXXXXXXXXHXXHXXHXXXXXXXXH0",
"JXXHXHXHXXHXHXXHXHXHXHXHXHXHXHXHXHXHXHXHXHHHHHHHXHXHHHXHHHHHHXH0",
"JHHHHHHHHHHHHHHHXHHXHHHXHHHHHHHHHHHHHHHHHHXHXHHXHHHHXHHHXHXHHXZ0",
"3HXXXXHHHHHHHHXHXXXXXHHHXXXHHHHHHXHHHHHXHHHHHHHHHHHHHHHHHHHHHHH0",
"JHHX0WHHHHHHHHHX0JJ0XHHHJ0XHHHHHHHHHHHHHHHHHHHHHHHHHHHHHHHHHHHH0",
"JHHW0CXXXHXXHHXXWX30XXXW30XHXXXHHXXXHHHHHHHHHHHZHHZHHHHHHHHHHHZ0",
"JHHX0D003X07HX0W0JJ0WJ0000W3000HX0D0XZZZZZZZHZZHZZHZZZZZZZZZHZZ0",
"JHZX0OWP0W0JHX0C0J30W0ZWD0W0ZW70W00XHZHZHZHZZHZZHZZHZHZZHZHZZHZ0",
"JZZX0XHX0W0EHX0C0JJ0Z0XHJ0Z03730W0JHZZZZZZZZZZZZZZZZZZZZZZZZZZZ0",
"JZZX0XZX0W0JZX0W0JJ030HZJ030DDLDX0JZZZZZZZZZZZZZZZZZZZZZZZZZZZ30",
"JZ3H0JHJ0X0JHJ0W0JJ0H0HHD0X0HXZ0X07ZZ3Z3Z3Z3Z3Z3Z3Z3Z3Z3Z3Z3Z330",
"JZZH00L0JHP0D00X0770X50D00HO0L08H07Z3Z3Z3Z3Z3Z3Z3Z3Z3Z3Z3Z3Z3Z30",
"JJJ3ZZ8333Z78ZZ333333377ZZ33J833333J3J3J3J3J3J3J3J3J3J3J3J3J3JJ0",
"7777P777P7P777P7777777777P7777777P77P7P7P7P77P77P77P77P7P77P7770"};
