/* XPM */
static char * gwcalcviewer_xpm[] = {
/* width height ncolors cpp [x_hot y_hot] */
"64 64 25 1 0 0",
/* colors */
" 	s iconGray4	m white	c #949494949494",
".	c #B3B3B3",
"X	c #A3A3A3",
"o	s iconColor1	m black	c black",
"O	c #BFBFBF",
"+	c #C2C2C2",
"@	c #858585",
"#	c #CECEAD",
"$	c #E1E1E1",
"%	c #CECEBD",
"&	c #9C3931",
"*	c #CE0000",
"=	c #FF0000",
"-	c #D1D1D1",
";	c #E5E5E5",
":	c #F0F0F0",
">	c #3D3D3D",
",	c #4A4A4A",
"<	c #636363",
"1	c #1E90FF",
"2	s iconColor2	m white	c white",
"3	c #282828",
"4	c #666666",
"5	c #515151",
"6	c #757575",
/* pixels */
" ...............X............................X................Xo",
" OOOOOO...................+............................O.......o",
"XOO+....... .............................OOOOOOOOOOOOOOOOOOOOO.o",
"X++. @@@@@@@@@@@@@@@@@@@@@@@@@@@@@@@@@@ XOOOOOOOOOO+O+O+O+OOOO.o",
".++.OOOOOOOOOOO+O.####.+++OOOOOOOOOOOOOOXO++++++++++++++++++++Oo",
".$+ OOOOOOOOOO+%&******&.+OOOOOOOOOOOOOO +++++++++$+$+$$$++++++o",
".$+ OOOOOOOOOO#*======**&X+OOOOOOOOOOOOO +$$$$$$$$$$$$$$$$$$$$Oo",
".$-XOOOOOOOO+#*========**&XOOO++OOOOOOOO +$;;$;$;$;$;;;$;$$$$:+o",
".$-XOOOOOOO+%**========***>,,,<.+OOOOOOO -;::;:;:;:;:::;:;;;;;-o",
".$$ OOOOOOOO&**=========**>1111o<OOOOOOOX-:::::::::::::::::::;-o",
".$$XOOOOOOOO&****=======**>o1111o<+OOOOOX-2:::::::::::::::::::$o",
".$$.OOOOOOO.&*****=====***>o11111oX+OOOO.;:2222:22:2:2:22:2:22-o",
".$$.OOOOOOOO&>&*****===***>o11111o,++OOO.;22222222222222222222$o",
".$$.OOOOOOO+@>>>&********&>o111111o.+OOO.;22222222222222222222-o",
".$$.OOOOO+++O>o>>>&******>31111111oX+OOO.;22222222222222222222$o",
"X$$.OOO+OX X+Xooo>>>&&&&>oo1o11111o.+OOO.;22222222222222222222-o",
".$$.OO+X,ooo><4ooooo>>>>>3oooo111oo.OOOO.;22222222222222222222-o",
".$$.O+ 1111ooo>>,564>ooo3o33oo111o,OOOOO.;22222222222222222222+o",
".$$.+.,111111ooo4+++O,333>564o111o<+OOOO.;22222222222222222222$o",
"X$$.+ 11111111ooo,O+++. XO+.&>111o&.+OOO.;22222222222222222222$o",
".$$.+<111111111ooo6+O. .++#**>o11>*&.+OO.;22222222222222222222$o",
"X$$.+<111111111ooo>OO<,,.#***&o1o&=*#+OO.;22222222222222222222$o",
".$$.+<o11111111oo35+O,,>.&****>1o*=*&+OO.;22222222222222222222$o",
".$$.+Xo11111ooooo3X++X6@+@>***&o>=**&O..X-:::::::::::::::::::2$o",
"X$$.OO,oooooooo3o@+OOO.O++@>>**&&**>4XXX@O-----------------;::$o",
".$$.O+.,ooooo33>>5+OX,oo, +X,>>&**>333oooooooooooooooooooooo;:$o",
".$$.OOOO@,,,>>&&>>>>>>>ooo> .@5>>>o222222222222222222222222o-:$o",
"X$$.OOOO+++.&*&&&&*****>>oooo,<X. o222222222222222222222222o-:$o",
"X$$.OOOOOOO&************>o11111oXXoo22222222222222222222222o-:$o",
"X$$.OOOOO+.**************>11111o,Xo222222222222222222222222o-:$o",
"X$$.OOOOO+#******======**>11111oo o222222222222222222222222o-:$o",
"X$$.OOOOO+#*****=======**>o1111oo oo22222222222222222222222o-:$o",
"X$$XOOOOO+#***========***>o1111o> o222222222222222=222=2222o-:$o",
"X$$.OOOOO+#***========***>o111oo,Xo22222222222222=2=2=2=222o+:$o",
".$$XOOOOOO.&**=======****>111oo>.Xooo2o2o2o2o2o2=2o2=2o2=2oo-:$o",
"X$$XOOOOOO+#************>ooooo,OOXo2222=2222222=222222222=2o+:$o",
"X$$XOOOOOOOO#**********>5,,,,X++.Xo222=2=22222=22222222222=o-:$o",
"X$$XOOOOOOOO+#&******&>4O++++++O.Xoo2=222=222=2222222222222o+:$o",
"X$$.OOOOOOOOO+.#&&&>>& ++OOOOOOO.Xo2=22222===22222222222222o+:$o",
"X$$OOOOOOOOOOO++O.XX.++OOOOOOOOO.Xo=22222222222222222222222o+;$o",
"X$;-OXXXXXXXXXXXXXXXXXXXXXXXXXXX @o222222222222222222222222o+$$o",
"X;:;$-------+--+----------------+.o222o22o22o22o22o22o22o22o+;$o",
"X:::::::::::;;;;::::::::::::::::;-oooooooooooooooooooooooooo+;;o",
"X$:$$:$:;;$;:$;::;;$:;;$:;;$$:$:$$+OO+.+O+.O+.O++O+.+O+.+O++-;$o",
"X$$$$$$$:$$:$$:$$:$$$:$$$:$$$$$$$$;-$---$--$--$--$---$---$--;$-o",
"X$$$$$$$$$$$$$X>$$$$$$$$$$$$X>$$$$$$$6$X>$$$$$$$$$$$$$$$$$$$$$$o",
" $$$$$$$$$$$$$X>$$$$$$$$$$$$X>$:$$$$$o$$$$$$$$$$$$$$$$$$$$$$$$+o",
"X-$4oo4$$4oo>$X>$6oo4$.4$$5. >-4oo>$4o4.4$6oo6$.5>o5$-$-$$$$$$-o",
" -.3..3..3++3  >.3+.3. >-->  >.3+-3 .o. >.3+.3. o.+3.----$-----o",
" -44-----.65o  >44---- >-->  >-.65o -o- >44--44 >--> --------$+o",
" -44--.- o563  >44--.- >-->  > o563 -o- >44--44 >--> ---------+o",
"X-.3.+3@45- o  >.3.+3@X3+ o  >45- o -o- >.3..3. >-+> +--------+o",
" +-6oo5-.3o>>6 >+6oo5+O5o>>  >.3o>>6-33 >+4oo4+@>++> O-++++++-+o",
"@O+++++++++++O++++O+OO++++++++++O+OO+++O+++O+OO++++++++++O+OO-.o",
" +++++++@>OOO+OOO+++++++++++++++++++++++OO++++++++++++++++++++Oo",
" ++++++++++++++++++++++++++++++++++++++++++++++++++++++++++++++o",
" +6@++4@ 5O6oo4+>++65+O5 6oo4+ 5o3+++++++++++++O++O+++++++++++Oo",
" +@>++o. >X3..3 >@O>3OXo 3..3 @oXXO++OOOOOOO+OOOOOOOOOOOOOOO+O.o",
" O.3X@>O@>43>>356>X3>64553>>35@>...O+.......O..O..O.........O..o",
" .O54>@.@35>@@@X.o6>653 5>@@@ @>.O..O.O.O.O..O..O..O.O..O.O..O.o",
" .. 33..@3@3 X3@.>36X33.@3 X3@@3...............................o",
" ...35..@3.5oo5..6oX.35..5oo5.@3..............................Xo",
" ..........X.X..X.X.X.X.X.X.X.X.X.X..X.X.X.X.X.X.X.X.X.X.X.X.XXo",
"@. . . . . . .  . . . . . . . . . .  . . . . . . . . . . . . . o"};
