/* XPM */
static char * gweditor2 [] = {
"64 64 42 1",
"0 c #757575",
"1 c #858585",
"2 c #949494",
"3 c #A3A3A3",
"4 c #B3B3B3",
"5 c #C2C2C2",
"6 c #D1D1D1",
"7 c #E1E1E1",
"8 c #F0F0F0",
"9 c #FFFFFF",
"A c #CEBDAD",
"B c #5ABD8C",
"C c #C6D6E7",
"D c #637B9C",
"E c #4A5A84",
"F c #395273",
"G c #294239",
"H c #282828",
"I c #000000",
"J c #666666",
"L c #F7DED6",
"K c #00296B",
"M c #DEC6C6",
"N c #FFFFC6",
"O c #6B737B",
"P c #8C9C94",
"Q c #AD9C84",
"R c #3D3D3D",
"S c #515151",
"T c #EFE7AD",
"U c #B59C94",
"V c #523131",
"W c #D67B73",
"X c #9C3931",
"Y c #CE6363",
"Z c #CEAD9C",
"a c #29AD29",
"b c #CE9C94",
"c c gray75",
"d c gray82",
"e c #4A4A52",
"f c #001bf4",
"1111111111111111111111111111111111111111111111111111111111111111",
"4444444444443444444444344444444444444444444444444444444444444444",
"4444444444444441222220101101101101101101J44443444444444444444444",
"45545454554555548888888888888888888888880J4444444444444544444444",
"555655555556555A88888888888888888888888815J555555555555555555555",
"6666666666666664888888888888888888888888155J55555556565656555555",
"777777777777777A8888888888888888888888881666J6666666666666666666",
"777777777778777488888888888888888888888817666J666676767776666666",
"888888888888888A88888N888888888888888888177777J77777777777777777",
"8888888888888884L888L8A7L88L7L88LM788L880878878J8787888787777877",
"888888888888888A8L8M5LMLAL8LA68L7L88LA8818888888J888888888888888",
"9998989999999984A6AA68A85M88AM7L8888A688089888898J98989889888889",
"999999999999999A6A6ALLA86A8NAAA78888A6881989999899J9898998989989",
"99999999999999948A7A783C6A8LA5MA8888A68809999999999J999999999999",
"999999999999999A8A8A88A88A88A68A6888MA88101101101010J99999999999",
"99999999999999948AAA88AAA77CAM87AM88NMMLL7M88LAM8MA8199999999999",
"999999999999999A8A8888A88777A88LLAL8987L8L88877M7T88199999999999",
"99999999999999948A888888888888898888888888888T6N8888199999999999",
"999999999999999ff88888888888888888888888888887A88888199999999999",
"999999999999999ff88888888888888888888888888888M888881997RR599999",
"99999999999999ffff8888888888888988888888888888888888198JVJV39999",
"99999999999999ffff8888888888888888888888888888888888192VWbYH4999",
"9999999999999ffffffLL8888888888988888LLLL8888888888814HSbbWH4999",
"9999999999999ffffff87L8888888888888886687L8888888888JRVVQWH29999",
"999999999999ffffffff8N988888888889888LAL8N9888888887VVTWSH089999",
"999999999999ffffffff6888L8ML88L6A888887A6888L88N88LVVTTTVR799999",
"99999999999ffffffffffM887TA68L7ML6A7LL6AAM887T5MLAJVQTTXaM999999",
"99999999999ffffffffffA68N6ML88L6A5MA6A786A68N6A783HQTTQVQ9999999",
"9999899998ffffffffffffM8LAA68L7ML5N5AA88NAM8LA68AHXTTWa099999999",
"9999999999ffffffffffff586A6A8L68L686A5N98A586AL7VaTTWaX799999999",
"999899998ffffffffffffff8MA8A67L8L78LA5888AM8MA5VVTTTXR7999999999",
"999999999ffffffffffffff88A8MA6L886L7AAL8LAM88AJVWTTXaA9999999999",
"99989999ffffffffffffffff8Q8LA6M8LAAM8M56A6888QHQTTQGV99999989999",
"99998999ffffffffffffffffA888MAM8788888N88N884HXTTWGQ099999998999",
"9998999ffffffffffffffffff888888N88888888898MHXTTWaJN199999999999",
"9998999ffffffffffffffffff88888898888888888LVaWTTaX78199998998999",
"999989ffffffffffffffffffff8888888888888888VVWTTXV588199899899999",
"999999ffffffffffffffffffff88888888L88N8881VQTTXaUN98198898998989",
"999889998899988A88888888888888898N7886M8UHQTTQVQ6688199989888999",
"888888888888888488888888888888888L7887A5HXTTWaJN8888188888888888",
"888888888888888A88888888888888888L888L4SXTTWaX888888188888888888",
"88878878798887845M6A567888ML88L6A6LLMARVQTTXRA7T6MM7088888888888",
"888877878888887AA888AMN98LA68L7MLA5L80HWTTaVZT65L7LA188888888888",
"78777877787877746888MA78866A8L68LAA7LR1TTYV0N6AL8T86198887787877",
"777777777877777A78887AM8LL8A67L8LA5L6JTTYaXA8MA7878L077677777777",
"7777777777777774L888MA68A88MA6L88AM77RJ0JJZA86A688L7177777777777",
"777777777777777A688NA588A88LA6M8LA58QISQZ6A5N6A588NA066666767777",
"6667666766666764AM75M888A888MAM87A683SU7L8AA788AM8L5166667666666",
"666666666666666A88L8L8888888888N8888888888888888N788166666666666",
"6666666666666664888888888888888988888888888888888888166666666666",
"666666666666666A888888888888888888888888888888888888156666666666",
"5665656566565664888888888888888888888888888888888888156555555655",
"5555555555555551222220111111111111111111111111111111355565655655",
"5566665555555565666665556665555556555556555555555555555555555555",
"555555555ccdcI5I55I555555555555555555555555555555555555555555555",
"5556444443333I5555I554554555555555555555555555545545555555555555",
"5553III444RIII4I0III00RII30JIII444544444444454454454444444445444",
"554I141I40I43I5I42I240I43I4Ie43454454454545445445445454454544544",
"444IIIII4I344I4I34I44I344I4I343444444444444444444444444444444444",
"444I33233I344I4I24I44I344I4I233444444444444444444444444444444444",
"443IJ30I40I42I4I54I44JI32I4I233343433343434343434343434343434334",
"4443III334JIII3I44IIO5eII14I233434343434343434343434343434343434",
"2223444333444443333333444433243333323232323232323232323232323223",
"1111011101011101111111111011111110110101010110110110110101101110"};
