/* XPM */
static char * gwsupport [] = {
"64 13 17 1",
"0 c #000000",
"1 c #A3A3A3",
"2 c #666666",
"3 c #858585",
"4 c #757575",
"5 c #282828",
"6 c #515151",
"7 c #3D3D3D",
"8 c #C2C2C2",
"9 c #949494",
"A c #FFFFFF",
"B c #E1E1E1",
"C c #282828",
"D c #D1D1D1",
"E c #B3B3B3",
"F c #F0F0F0",
"G c #4A4A52",
"DDFFFFFFFFFFFFFFFFFFFFFFFFFFFFFFFFFFFFFFFFFFFFFFFFFFFFFFFFFFFFDB",
"DDFFFFFFFFFFFFFFFFFFFFFFFFFFFFFFFFFFFFFFFFFFFFFFFFFFFFFFFFFFFFBB",
"DDFFFFFFFFFFFFFFFFFFFFFFFFFFFFFFFFFFF2FFFFFFFFFFFFFFFFFFFFFFFFBB",
"DDFFFFFFFFFFFFFFFFFFFFFFFFFFFFFFFFFFF0FFFFFFFFFFFFFFFFFFFFFFFFBB",
"DDFF4002F2BB6F22003B22003BD7001F270F707FFFFFFFFFFFFFFFFFFFFFFFBB",
"DDFF0FF7F7DD7F77810D77810F47FF0F7GFFE0FFFFFFFFFFFFFFFFFFFFFFFFBB",
"DDFF50GFF7DD7F73FF7F73FF7F71FF7F71FFE0FFFFFFFFFFFFFFFFFFFFFFFFBB",
"DDFFFF70F7DD7F71FF7F71FF7F71FD7F79FFE0FFFFFFFFFFFFFFFFFFFFFFFFBB",
"DDFF5FF0F5FF0F0E890F0E890F2E8E0F79FFE0EFFFFFFFFFFFFFFFFFFFFFFFBB",
"DDFFG00GF6077F7G00FF7G00FD8G003F79FFE00FFFFFFFFFFFFFFFFFFFFFFFBB",
"DDFFFFFFFFFFFF7FFFFF7FFFFFFFFFFFFFFFFFFFFFFFFFFFFFFFFFFFFFFFFFBB",
"DDFFFFFFFFFFFF7FFFF87FFFFFFFFFFFFFFFFFFFFFFFFFFFFFFFFFFFFFFFFFBB",
"DDFFFFFFFFFFFFFFFFFFFFFFFFFFFFFFFFFFFFFFFFFFFFFFFFFFFFFFFFFFFFBB"};
