/* XPM */
static char * gwhelp8 [] = {
"64 16 15 1",
"0 c #000000",
"1 c #A3A3A3",
"2 c #666666",
"3 c #858585",
"4 c #757575",
"5 c #282828",
"6 c #515151",
"7 c #3D3D3D",
"8 c #C2C2C2",
"9 c #949494",
"A c #D1D1D1",
"B c #B3B3B3",
"C c #F0F0F0",
"D c #E1E1E1",
"E c #BFBFBF",
"0000000000000000000000000000000000000000000000000000000000000000",
"0111111111111111111111111111111111111111111111111111111111111140",
"0131131131131131131131131131131131131131131131131131131131131110",
"0111111111111111111111111113113113113113113113113113145543113130",
"0E1E511EE1EEE1EE541E1E1E11E1E11111111111111111111111600007111110",
"0EEA79EAEAEAEAEA74AEEAEEEEEEAEEEEA1E11E11E111E11E1EE00AE00EE1E10",
"0AAA56754AA777AA54D27556AAAAAAAEEEEAEEAEEAEEAEEAAEEA23AE70AEEE10",
"0AAC728B0A62A10A74A20AD62DAADAAADAAAADAAAAAAAAAAAAAAAA8405AAAA10",
"0ACD59A80C0A3C5C54C22CC35CCACADCADACDAADADAADAADAADADA905BAADA10",
"0ACC59C80C02262C54C26CC97CCCCCCACCCACCCCCCCCCCCCCACCCC70CCACADE0",
"0ACC59CB0C51CC6C54C67CC22CCCCCCCCCCCCCCCCCCCCCCCCCCCCC99CACCCCE0",
"0ACC53C80CC565CC54C20775CCCCCCCCCCCCCCCCCCCCCCCCCCCCCC75CCCCCCA0",
"0CCCCCCCCCCCCCCCCCC66CCCCCCCCCCCCCCCCCCCCCCCCCCCCCCCCC50CCCCCCA0",
"0ACCCCCCCCCCCCCCCCC66CCCCCCCCCCCCCCCCCCCCCCCCCCCCCCCCCCCCCCCCCD0",
"0ACCCCCCCCCCCCCCCCCCCCCCCCCCCCCCCCCCCCCCCCCCCCCCCCCCCCCCCCCCCCA0",
"0000000000000000000000000000000000000000000000000000000000000000"};
