/* XPM */
static char * gwlauncher2 [] = {
"64 64 39 1",
"0 c #000000",
"1 c #4A5A84",
"2 c #A3A3A3",
"3 c #395273",
"4 c #666666",
"5 c #637B9C",
"6 c #858585",
"7 c #757575",
"8 c #282828",
"9 c #AD9C84",
"A c #515151",
"B c #F0F0F0",
"C c #3D3D3D",
"D c #8C9C94",
"E c #CEBDAD",
"F c #294239",
"G c #C2C2C2",
"H c #CEAD9C",
"I c #949494",
"J c #4A4A52",
"L c #5ABD8C",
"K c #666666",
"M c #6B737B",
"N c #FFFFFF",
"O c #00296B",
"P c #EFE7AD",
"Q c #636373",
"R c #E1E1E1",
"S c #282828",
"T c #FFFFC6",
"U c #D1D1D1",
"V c #C6D6E7",
"W c #000000",
"X c #B3B3B3",
"Y c #008000",
"Z c #21A604",
"a c #6DD62F",
"b c #C6F09A",
"c c #FEFEFE",
"M7MM7MM7MM7MM7MM7MM7MM7MM7MM7MM7MM7MM7MM7MM7MM7MM7MM7MM7MM7MM7M7",
"IDIDIDIID6IIDID6IIDID6IIDID6IIDIDIIDIDIDID6IIDID6IIDIDIDID6IID6I",
"IIIDIDIIIIDDDIIIDDIIIIDDIIIIII000000000000000000000000000000000I",
"222222222222222222222222D22D22099999999999999999999999999999990I",
"22222222222222222222222222222209999999999744QQQ4Q47699999999990I",
"XXXXXXXXXXXXXXXXXXXXXXXXXX2XX2X9H9H99997CA38000008JJC799H9H9H99D",
"XXXXXXXXXXXXXVXXXXXXXXXXXXXXXXXHH9E9EH9AM50000000001MAH9E9E9E9E2",
"XXVXVXVXVXVXVXVXVXVXVXVXVXGVXGEHEEEEHE943F0000000F3313HEHEHEHE92",
"XXVXVXVXVXVVXVXVXVXVXVXVXVXXVXEEP9PHP995Q0000000035QM59EEP9P9PE2",
"XXX53CFCFF8FF8FC3J35DXVGVXVVXVEEPEEEEP9L100000000J5515HPHEPEEHE2",
"XXDJM6MMM6656MQAJJJK5GVVVVVVVVPPPPPPPPP5180000000J5555PPPPPPPPPV",
"RR6666676222IIIIIU7AK2BNNNNNNNTTPTPPTPP51800000003555MPPPPPPPPPB",
"RR772GGGXGGGGGGGIG7KAABNNNNNNNTTTTTTTTE5M08000000JD555PPTTTTTTTB",
"RR77XUUUUUUURUUUXG74CKBNNNNNNNTTPTTPTTP518000000035555PTTTTTTTTN",
"RR67XGUURURRRUUUXUK4SKBNNNNNNNTTTTTTTTP55080000003D555PTTTTTTTTN",
"RR67XUURRRRRRRUGXG74SCBNNNNNNNTTTTTTTTU550000000035555PTTTTTTTTN",
"RR67XUURRRBBBRRGXG7ASCBNNNNNNNTTTTTTTTI5M8000000032555ETTTTTTTTN",
"RR67XURRRBRBBBRGXG7ASCBNNNNNNNTTTTTTEM551080000003555579TTTTTTTN",
"RR7KXURRRRRBBBRUXG7ASCBNNNNNNNTTTTT665555080000003D5555DMETTTTTN",
"RR7KGUURRRRRRRRUXG7ASJNNNNNNNNTTTP7XV255500000000355555XV5XTTTTN",
"RR6KXUGGGGGGURRR2U64C6RNNNNNNNTTT95555555080000003255515555ETTTN",
"RR7K76622222222XIG64AMKNNNNNNNTTT625XV15500000000355555X5VX5TTTN",
"RR67KKKKKKK4K77IXR6JK4KNNNNNNNTTT5X5555550883M6M03D55555555DTTTN",
"RRIK7666II2XGUBBBBICAKXNNNNNNNTTT355X5V5308ITTTT835515X25V51TTTN",
"RRRICAACSSSSSSSCCCCCK7BNNNNNNNTTTQ5VLV530809TTTTCJ55552V5V51TTTN",
"RRGJ44JJJJJJAJJCCCSCJXNNNNNNNNTTT5555O808889TTTTJFDV2555V555TTTN",
"RVQM4JAJCCSCCCCCJAMJMVBBBBBBBBTTT5D188080F0HTTTTJ835V5V51555TTTB",
"RGQ62XVX22D22DMMMI6A2VVVVVVVVVPPPQ510888806PPPPPA8055L5555L5PPPV",
"UUX2IIMQQM657M62XXDQGVVVYYYYYYPPE72108804EPEPEPP2088555555XMEPEV",
"UUVRVVGGXXXI6665M4Q2VYYYZZZZZZYYY25180FDEPPPPPEPPA8855525X52PPPV",
"RRRRRRRVRVVVVVVRVVVVYYZbbbbbbbbZYY6C86EPPEPEPPPEPH0F55D5X5DPEPEV",
"RRBRRRRRRRRRVRVVRVVYYZbbbbbbbbbbZYY9EPPEPPPPEPPPPE685X55M9PEPPPV",
"BBBBRBBVRRRVRVRRVVYYZbbbbbbbbbbbbZYYEEPPEPEPPEPEPPEF51MIEPEPEPEV",
"BBBRBRRBRBRRRVVRVVYZbbbbbbccbbbbbbZYPPEPPPPEPPPPEPP96HEPPPPPPE0V",
"BBBBBBBRBRVBRRRVRRYabbbbbbccccbbbbZYPPPEPEPPEPEPEPEPEEPEPEPEPP0V",
"BBBBBBBBRBRRRRRRRYZabbbbbbbbcccbbbZZY80800000000000000000000000V",
"BBBBBBBRBRBBRBVRRYZabbbbbbbbccccbZZZYVVVVVVUVVUVVUVUVVVUGVVUVVVV",
"BBBBBBBBBBRRBRRRRYZaabcccccccccccZZZYUVUVVGVGVVGVVGVGVGVVVGVVVVV",
"BBBBBBBBRBBRBRBRBYZaabcccccccccccZZZYUVGVGVVVGVVVGVVVGVVGVVGVGVV",
"BBBBBBBBBRBRRRRRRYZZZZaaaaaaccccaZZZYVUVGVVGVVGVGVGVGVGVGGVGVGVV",
"BBBBBBBRBRRBRBRRBYZZZZZZZZZacccaZZZZYVUGVGVGGVGVGGVGVGVGVGVGGVGV",
"BBBBRBRBRBRRRRRRRRYZZZZZZZccccaZZZZYGUVVGVGVGVGGVGVGVGGVGVGVGGVG",
"RRRBBRBRBRRRRRRRRRYZZZZZZZccaaZZZZZYGUGVGGVGVGVGGGVGGVGGGGGGVGVG",
"RRRRRRRRRRRRRRRRRRYYZZZZZZZZZZZZZZYYGVGGVGGGGGGVGGGVGGVGVGGGGVGV",
"RRRRRRRRRRRRRRRRRRRYYZZZZZZZZZZZZYYGVGVGGVGVGGGGVVGGGGGGXVXVXVGV",
"RRRRRRRRRRRRRRRRRRRRYYZZZZZZZZZZYYGGGGVXGXVGVXVXVGGGGGGGVXGXVGVX",
"RRRRRRRRRRRRRRRRRRRRRYYYZZZZZZYYYGGVGXXVXGXGVXXVGGGGGGGXXVXGXGVX",
"RRRRUUURUUUUURUUURRRRRRRYYYYYYGGGVGGVGGXGXVXXXGGGGGGXGGGGXGXVXXX",
"UUUUUUUUUUUUUUUUUUUUUUUUUGGGGGGXXGGXGXXGXXXXXXGGGXXGGXGXXGXXXXXX",
"UUUUUUUUUUUUUUUUUUUUUUUUUGGGGXGGGXGXXGXXGXXVXXGXGGGXGXXGXXGXXVXX",
"UUUUUUUUUUUUUUUUUUUUUUUUUGXXGXGXXGXXXXXXXXXXXXGXGXXGXXXXXXXXXXXX",
"UUUGUGUGUUGUGUUGUGUGUGUGUGUGUGGGGGGGGGGGGGGGGXGXXXXXXXGXXXXXXXXX",
"UUUGGGGGGGGGGGGGUGGUGGGUGGGGGGGGGGGGGGGGGGUGXGXXXGXXXXXXXXXXXXXX",
"GGGGGGGGGGGUGGGGGGGGGGGGGGGGGGGGGGGGGGGGGGXXXXXGXXXXGXXXXXXXXXXX",
"GG2CXXXXXXXXXXXXXXXXXXXXXXXX2CGGGGGGGGGGXGXGXXXXXXXXXXXXXXXXXXXX",
"GG2CXXXXXXXXXXXXXXXXXXXXGXGG2CGGGGGGGXGXGXGXXXXXXXXXXXXXXXXXXXXX",
"GG28XX800IX06XX0XA4002XXC00X28C0XXXA006X7A0AXXXXXXXXXXXXX2XX2XXX",
"XX20X44G7CX0IXX0X8CXMCXC4X44202G024CGI0X4822XXXXXXXXXX22XX2X2XXX",
"XX2CXXI4CCX0DXX0XCIXICX0XXXX2CXXCI888806AAXXXXXXX2X2X2X2222X22XX",
"XXICXCC44CX0IXX02CIXI8X0XXXXICXXCI8466624AXXX2X2XX2X222X2222222X",
"XX28X0XGJCX0IXI0X8IXICXC4X7028XX8I4C2602AAXXXX2X22X2X22222222222",
"XXICX400A0XM0C002CIXI8XGC002ICXXCI2C004XAAX222222222222222222222",
"2I222I22I2222222II2I22I2I22I22I2I22I2222I22I2I2I2I2IIIIIIIIIIIII",
"6666666666676676667666666666666667667676676666666676666666666666"};
