/* XPM */
static char * gwmain8 [] = {
"64 64 16 1",
"1 c #858585",
"2 c #B3B3B3",
"3 c #C2C2C2",
"4 c #D1D1D1",
"5 c #E1E1E1",
"6 c #F0F0F0",
"7 c #FFFFFF",
"8 c #DD9133",
"9 c #000000",
"A c #282828",
"B c #719500",
"C c #BFBFBF",
"D c #A3A3A3",
"E c #515151",
"F c #3D3D3D",
"G c #949494",
"1111111111111111111111111111111111111111111111111111111111111111",
"2222222222222222222222222222222222222222222222222222222222222222",
"2222222222222222222222222222222222222222222222222222222222222222",
"3333333333333333333333333333333333333333333333333333333333333333",
"3333333333333333333333333333333333333333333333333333333333333333",
"4444444444444444444444444444444444444444444444444444444444444444",
"5555555555555555555555555555555555555555555555555555555555555555",
"5555555555555555555555555555555555555555555555555555555555555555",
"6666666666666666666666666666666666666666666666666666666666666666",
"6666666666666666666666666666666666666666666666666666666666666666",
"6666666666666666666666666666666666666666666666666666666666666666",
"7777777777777777777777777777777777777777777777777777777777777777",
"7777777777777777777777777777777777777777777766677777777777777777",
"7777777777777777777777777777777777777777768888886777777777777777",
"7777777777688677777777777777777777777776888888888777777777777777",
"7777777768888887777777777777777777777768888888888777777777777777",
"7777777888888886777777777777777777777888888888888777777777777777",
"7777768888888888777777777777777777778888888888888777777777777777",
"7777788888888888777777777777777777688888888888888777777777777777",
"7777888888888888777777777777777776888888888888888777777777777777",
"7778888888888888677777777777777768888888888888886777777777777777",
"77788888889999999999A7777777777888888888888888887777777777777777",
"7788888888999999999977777777778888888888678888887777777777777777",
"768888888A999AAAAAAA77777777788888888886768888867777777777777777",
"788888888A9998888777777777A7A888888888A7A888888777A7A77777777777",
"68888888799998888777777A999999A8888A999999A8888A9999997777777777",
"8888888779999999999777999999999888999999999888999AAA999777777777",
"888888777999999999A77A99988899A88A99977799A88A999777999777777777",
"88888777A999A8A8A7777999888888888999777788888999AA7A999A76666667",
"88887777A99988888776799988888888699977788888A9999999999888888888",
"88877777999988888777A99988888A86A99977788A8889997776888888888888",
"886777779999999999A77999A88999A67999A66999A8A999788AAA8888888888",
"887777779999999999A7899999999A77799999999A88799999999A8888888888",
"8666777A99999999996888A99999A77777A99999888868A99999888888888888",
"6777767777788888868888888887777777777788888888888888877777777776",
"6666777999999999999999999999999999999999999999999999999999999999",
"6666777777788888888888888777777777777788888888888877777777777777",
"6666666666668BBBBBBBBBBBBBBB666BBBBB668BBB88888BBB66666666666666",
"6666666666668BBBBBBBBBBBBBBB666BBBBB66BBBB8888BBBB66666666666666",
"6666666666666BBBB888886BBBBB66BBBBBB66BBB88886BBBB66666666666666",
"6666666666666BBBB888866BBBBBB6BBBBBB66BBBB6666BBBB66666666666666",
"6666666666666BBBBBBB666BBBBBB6BBBBBB66BBBBBBB6BBBB66666666666666",
"6666666666666BBBBBBB66BBBB6BBBBB6BBB666BBBBBBBBBBB66666666666666",
"5555555555555BBBB55555BBBB5BBBBB5BBBB55555BBBBBBBB55555555555555",
"5555555555555BBBB55555BBBB55BBB55BBBB55555BBBBBBBB55555555555555",
"5555555555555BBBBBBB55BBB555BBB55BBBBBBBBBBBB5BBBBBBBB5555555555",
"5555555555555BBBBBBB55BBB555BB5555BBBBBBBBBB55BBBBBBBB5555555555",
"5555555555555555555555555555555555555555555555555555555555555555",
"4444444444444444444444444544444444444444444444444444444444444444",
"4444444444444444444444444445544444444444444444444444444444444444",
"4444444444444444444444444444444444444444444444434434434444444444",
"3443434344343443434343434343434343434343433333334343334333333433",
"3333333333333333493493343333333333333333334343343333433343433433",
"3344443333333343444493334443333334333334333333333333333333333333",
"3333339993393339393999333333333333333333333333333333333333333333",
"3333393339339393393392332333333333333333333333323323333333333333",
"3334292229422932293293223222222222322222222232232232222222223222",
"3323299993323932392392322323223232232232323223223223232232322322",
"2222292222229292292292222222222222222222222222222222222222222222",
"2222229999292229292299222222222222222222222222222222222222222222",
"22D2D2D2D22D2D2D2D2D2D2D2D2D2D2D2D2DDD2D2D2D2D2D2D2D2D2D2D2D2DD2",
"222D2D2D2DD2D2D2D2D2D2D2D2D2D2D2D2D2D2D2D2D2D2D2D2D2D2D2D2D2D2D2",
"GGGD222DDD22222DDDDDDD2222DDG2DDDDDGDGDGDGDGDGDGDGDGDGDGDGDGDGGD",
"1111B111B1B111B1111111111B1111111B11B1B1B1B11B11B11B11B1B11B111B"};
