/* XPM */
static char * gwmain2 [] = {
"64 64 16 1",
"1 c #858585",
"2 c #B3B3B3",
"3 c #C2C2C2",
"4 c #D1D1D1",
"5 c #E1E1E1",
"6 c #F0F0F0",
"7 c #DD9133",
"8 c #FFFFFF",
"9 c #000000",
"A c #282828",
"B c #719500",
"C c #BFBFBF",
"D c #A3A3A3",
"E c #515151",
"F c #3D3D3D",
"G c #949494",
"1111111111111111111111111111111111111111111111111111111111111111",
"2222222222222222222222222222222222222222222222222222222222222222",
"2222222222222222222222222222222222222222222222222222222222222222",
"3333333333333333333333333333333333333333333333333333333333333333",
"3333333333333333333333333333333333333333333333333333333333333333",
"4444444444444444444444444444444444444444444444444444444444444444",
"5555555555555555555555555555555555555555555555555555555555555555",
"5555555555555555555555555555677655555555555555555555555555555555",
"6666666666666666666666666667777776666666666666666666666666666666",
"6666666666666666666666666777777776666666666666666666666666666666",
"6666666666666666666666677777777776666666666666666666666666666666",
"8888888888888888888888777777777777888888888888888888888888888888",
"8888888888888888888867777777777777888888888888888888888888888888",
"8888888888888888888677777777777777888888888888888888888888888888",
"8888888888888888886777777777777777888888888888888888888888888888",
"8888888888888888867777777777777776888888888888888888888888888888",
"8888888888888888677777777767777776888888888888888888888888888888",
"8888888888888887777777777887777778888888888888888888888888888888",
"8888888888888877777777768867777778888888888888888668888888888888",
"8888888888888677777777888877777778888888888888677777888888888888",
"8888888888886777777778888877777768888888888867777777788888888888",
"88888888889999999999A8888877777768888888888777777777788888888888",
"8888888888999999999988888677777788888888867777777777768888888888",
"888888888A999AAAAAAA88888777777788888888677777777777768888888888",
"888888888A9997776888888887A7A777888888A7A777777777A7A88888888888",
"88888888699997768888888A999999A6888A999999A7777A9999998888888888",
"8888888679999999999888999999999688999999999777999AAA999868888888",
"888888877999999999A88A99977799A88A99977799A77A999777999888888888",
"88888877A999A8A8A8888999777777788999777777777999AA7A999A88888888",
"88888777A99988888888899977777768899977777776A9999999999886888888",
"88887777999988888888A99977777A68A99977777A8889997777888888888886",
"666677779999999999A88999A77999A67999A77999A6A999777AAA8888666777",
"888777779999999999A8899999999A67799999999A88899999999A8865677777",
"6677777A99999999998888A99999A77777A99999888867A99999888877777777",
"8677768888888888888888877777777777777888888886777778887777777777",
"6677788999999999999999999999999999999999999999999999999999999999",
"6667888888888888888888877777777777778888888887777777777777777777",
"6666666666666BBBBBBBBBBBBBBB777BBBBB666BBB66677BBB77777777766666",
"6666666666666BBBBBBBBBBBBBBB777BBBBB66BBBB6666BBBB77777776666666",
"6666666666666BBBB666666BBBBB77BBBBBB66BBB66666BBBB77776666666666",
"6666666666666BBBB666666BBBBBB7BBBBBB66BBBB6666BBBB77666666666666",
"6666666666666BBBBBBB666BBBBBB7BBBBBB66BBBBBBB6BBBB66666666666666",
"6666666666666BBBBBBB66BBBB7BBBBB6BBB666BBBBBBBBBBB66666666666666",
"5555555555555BBBB55555BBBB5BBBBB5BBBB55555BBBBBBBB55555555555555",
"5555555555555BBBB55555BBBB55BBB55BBBB55555BBBBBBBB55555555555555",
"5555555555555BBBBBBB55BBB555BBB55BBBBBBBBBBBB5BBBBBBBB5555555555",
"5555555555555BBBBBBB55BBB555BB5555BBBBBBBBBB55BBBBBBBB5555555555",
"5555555555555555555555555555555555555555555555555555555555555555",
"4444444444444444444444444544444444444444444444444444444444444444",
"4444444444444444444444444445544444444444444444444444444444444444",
"4444444444444444444444444444444444444444444444434434434444444444",
"3443434344343443434343434343434343434343433333334343334333333433",
"3333333333333333493493343333333333333333334343343333433343433433",
"3344443333333343444493334443333334333334333333333333333333333333",
"3333339993393339393999333333333333333333333333333333333333333333",
"3333393339339393393392332333333333333333333333323323333333333333",
"3334292229422932293293223222222222322222222232232232222222223222",
"3323299993323932392392322323223232232232323223223223232232322322",
"2222292222229292292292222222222222222222222222222222222222222222",
"2222229999292229292299222222222222222222222222222222222222222222",
"22D2D2D2D22D2D2D2D2D2D2D2D2D2D2D2D2DDD2D2D2D2D2D2D2D2D2D2D2D2DD2",
"222D2D2D2DD2D2D2D2D2D2D2D2D2D2D2D2D2D2D2D2D2D2D2D2D2D2D2D2D2D2D2",
"GGGD222DDD22222DDDDDDD2222DDG2DDDDDGDGDGDGDGDGDGDGDGDGDGDGDGDGGD",
"1111B111B1B111B1111111111B1111111B11B1B1B1B11B11B11B11B1B11B111B"};
