/* XPM */
static char * gwmachinebrowser2 [] = {
"64 64 43 1",
"0 c #000000",
"1 c #4A5A84",
"2 c #A3A3A3",
"3 c #395273",
"4 c #666666",
"5 c #637B9C",
"6 c #858585",
"7 c #757575",
"8 c #282828",
"9 c #AD9C84",
"A c #515151",
"B c #F0F0F0",
"C c #3D3D3D",
"D c #8C9C94",
"E c #CEBDAD",
"F c #294239",
"G c #C2C2C2",
"H c #CEAD9C",
"I c #949494",
"J c #4A4A52",
"L c #5ABD8C",
"K c #666666",
"M c #6B737B",
"N c #FFFFFF",
"O c #00296B",
"P c #EFE7AD",
"Q c #636373",
"R c #E1E1E1",
"S c #282828",
"T c #FFFFC6",
"U c #D1D1D1",
"V c #C6D6E7",
"W c #000000",
"X c #B3B3B3",
"Y c #46629A",
"Z c #77A1D0",
"a c #89D6F6",
"b c #C2FBFD",
"c c #86430C",
"d c #4F200A",
"e c #CA9640",
"f c #D27D19",
"g c #FED774",
"M7MM7MM7MM7MM7MM7MM7MM7MM7MM7MM7MM7MM7MM7MM7MM7MM7MM7MM7MM7MM7M7",
"IDIDIDIID6IIDID6IIDID6IIDID6IIDIDIIDIDIDID6IIDID6IIDIDIDID6IID6I",
"IIIDIDIIIIDDDIIIDDIIIIDDIII000000000000000000000000000000000DIII",
"222222222222222222222222D22099999999999999999999999999999990DIDI",
"2222222222222222222222222220999999999974KQQQ4QK769999999999022II",
"XXXXXXXXXXXXXXXXXXXXXXXXXX2X9H9H99997CA38WWWWWSJJC799H9H9H9922DD",
"XXXXXXXXXXXXXVXXXXXXXXXXXXXXHH9E9EH9AM5W000000001MAH9E9E9E9E2X22",
"XXVXVXVXVXVXVXVXVXVXVXVXVXGEHEEEEHE943FW000000F3313HEHEHEHE9GX22",
"XXVXVXVXVXVVXVXVXVXVXVXVXVXEEP9PHP995QWW00000035QM59EEP9P9PEXX22",
"XXX53CFCFF8FF8FC3J35DXVGVXVEEPEEEEP9L1WW000000J5515HPHEPEEHEGG22",
"XXDJM6MMM6656MQAJJJK5GVVVVVPPPPPPPPP51SW000000J5555PPPPPPPPPVVVV",
"RR6666676222IIIIIU7AK2BNNNNTTPTPPTPP51SW0000003555MPPPPPPPPPBBBB",
"RR772GGGXGGGGGGGIG7KAABNNNNTTTTTTTTE5MWS000000JD555PPTTTTTTTBBBB",
"RR77XUUUUUUURUUUXG74CKBNNNNTTPTTPTTP51SW00000035555PTTTTTTTTNNNN",
"RR67XGUURURRRUUUXUK4SKBNNNNTTTTTTTTP55WS0000003D555PTTTTTTTTNNNN",
"RR67XUURRRRRRRUGXG74SCBNNNNTTTTTTTTU55WW00000035555PTTTTTTTTNNNN",
"RR67XUURRRBBBRRGXG7ASCBNNNNTTTTTTTTI5MSW00000032555ETTTTTTTTNNNN",
"RR67XURRRBRBBBRGXG7ASCBNNNNTTTTTTEM551W80000003555579TTTTTTTNNNN",
"RR7KXURRRRRBBBRUXG7ASCBNNNNTTTTT665555WS0000003D5555DMETTTTTNNNN",
"RR7KGUURRRRRRRRUXG7ASJNNNNNTTTP7XV2555WW000000355555XV5XTTTTNNNN",
"RR6KXUGGGGGGURRR2U64C6RNNNNTTT95555555WS0000003255515555ETTTNNNN",
"RR7K76622222222XIG64AMKNNNNTTT625XV155WW000000355555X5VX5TTTNNNN",
"RR67KKKKKKK4K77IXR6JK4KNNNNTTT5X555555WS83M6MW3D55555555DTTTNNNN",
"RRIK7666II2XGUBBBBICAKXNNNNTTT355X5V53WSITTTT835515X25V51TTTNNNN",
"RRRICAACSSSSSSSCCCCCK7BNNNNTTTQ5VLV53W8W9TTTTCJ55552V5V51TTTNNNN",
"RRGJ44JJJJJJAJJCCCSCJXNNNNNTTT5555O8W8SS9TTTTJFDV2555V555TTTNNNN",
"RVQM4JAJCCSCCCCCJAMJMVBBBBBTTT5D18SW8WFWHTTTTJ835V5V51555TTTBBBB",
"RGQ62XVX22D22DMMMI6A2VVVVVVPPPQ51W8888WHYYYYYYYY55L5555L5PPPVVVV",
"UUX2IIMQQM657M62XXDQGVVVVVVPPE721W88W4EYZZaaaaaaY555555XMEPEVVVV",
"UUVRVVGGXXXI6665M4Q2VVVVVVVPPP251SWFDEPYaabbbaaaaY5525X52PPPVVVV",
"RRRRRRRVRVVVVVVRVVVVVVVVVUVPEPP6CS6EPPEYaabbbbaaaY5D5X5DPEPEVVVV",
"RRBRRRRRRRRRVRVVRVVVVVVVVVVPPEPP9EPPEPPYaabbbbbaaYX55M9PEPPPGVVV",
"BBBBRBBVRRRVRVRRVRVRVVVVVVVPPPEPPPEPPEPYaabbbbbaaY1MIEPEPEPEVVVV",
"BBBRBRRBRBRRRVVRVRVRVRVRVVV0PEPEPPPEPPPYaaabbbbaaYHEPPPPPPE0VVVV",
"BBBBBBBRBRVBRRRVRVRVVVRVRVVSPPPPPEPPEPEYaaaabbbaZYEPEPEPEPP0VVVV",
"BBBBBBBBRBRRRRRRRVRRRVVRVVVCS88SSSSWSWWYaaaaaaaaYYW00000W000VVVV",
"BBBBBBBRBRBBRBVRRRVVVRVVRVRVVRVVVUVUVVVUYZaaaaZYYYddUVVUGVVUVVVV",
"BBBBBBBBBBRRBRRRRRRRRVRRVRVVRVVVVVUVVUVUUYYYYYYYYcfcdUUVVVGVVVVV",
"BBBBBBBBRBBRBRBRBRRRVRVRVVRVVVUVUVVUVUVGVGVVVGVVdegfcdUVGVVGVGVV",
"BBBBBBBBBRBRRRRRRRRRRRVRRVVUVUVUVUVVUVUVGVVGVVGVddegfcdVGGVGVGVV",
"BBBBBBBRBRRBRBRRBVRRVRRRVRVVUVUVUVUVVVUGVGVGGVGVUddegfdGVGVGGVGV",
"BBBBRBRBRBRRRRRRRRRRRRRRVRUVVUVUVUUVUUVVGVGVGVGGVUddeedVGVGVGGVG",
"RRRBBRBRBRRRRRRRRRRRRRRVRVRUUVUUVUVUVUGVGGVGVGVGVVUddddGGGGGVGVG",
"RRRRRRRRRRRRRRRRRRRRRRURURUVUUUVUUUUUVGGVGGGGGGVGGGVGGVGVGGGGVGV",
"RRRRRRRRRRRRRRRRRRRRRRRURUVRUVUUUUUGVGVGGVGVGGGGVVGGGGGGXVXVXVGV",
"RRRRRRRRRRRRRRRRRRRRRUR2CUUUU28UVGVUGVGGGGGXVXVXVGGGGGGGVXGXVGVX",
"RRRRRRRRRRRRRRRRURUURUU2CUUUUUUUUUGUGGGGGGGVXGXVGGGGGGGXXVXGXGVX",
"RRRCK0S2W0KRXS0WIUXC0WX2SC0JU24UA4W02GGF082GGGGGGGGGXGGGGXGXVXXX",
"UUU0KUCWUX0U4KU7CUCKU44202GW228U8CGMCGCMG7CGGGGGGXXGGXGXXGXXXXXX",
"UUU0UUKKUU0UUIKCCU0UUUU2CUUCIICGCIGICG0C880GGGGXGGGXGXXGXXGXXVXX",
"UUU0UUKKUU0UCCKKCU0UUUXICGUCIICGCIGI8G0IIIIGXXGXGXXGXXXXXXXXXXXX",
"UUU0UUKKUU0U0XGJCGCKU7W2SUG8II8G8IGICGC4GM8GGXGXXXXXXXGXXXXXXXXX",
"UUU0GUKKGU0GK0WAWUGC0W2ICGGCIICGCIGISGI80WIGXGXXXGXXXXXXXXXXXXXX",
"GGGGGGGGGGGUGGGGGGGGGGGGGGGGGGGGGGGGGGGGGGXXXXXGXXXXGXXXXXXXXXXX",
"GGGC6GGGGGGGGGGGGGGGGGGGGGGGGGGGGGGGGGXGXGXGXXXXXXXXXXXXXXXXXXXX",
"GGGSIGGGGGGGGGGGGGGGGGGGGGGGGGGGGGGXGXGXGXXXXXXXXXXXXXXXXXXXXXXX",
"GGXCCWW6GAC066W0CGA2GISGGK77WW4XXA0W6X7A0AXXXXXXXXXXXXXXX2XX2XXX",
"XXXSCX6WXCCXXW6XCKKJX4W7GWI0XICXKCGIWX4S22XXXXXXXXXXXX22XX2X2XXX",
"XXXS6XXS6S6X6SXX6SXWXS4JISXSWJ2XSSSSW6AAXXXXXXXXX2X2X2X2222X22XX",
"XXXS6XXS6S6X6SXX6SXC7WISJKXX7C02SK66624AXXXXX2X2XX2X222X2222222X",
"XXXSC26WXS6XXW62CKXKSJXWSIIS22W6KC26W2AAXXX2XX2X22X2X22222222222",
"XX2SCWW6XS7X27W0C2X207XJSX2J00JX2C0WKXAAX22X22222222222222222222",
"2I222I22I22222222I2I22I2I22I22I2I22I2222I22I2I2I2I2IIIIIIIIIIIII",
"6666666666676676667666666666666667667676676666666676666666666666"};
