/* XPM */
static char * gwmain1 [] = {
"64 64 16 1",
"1 c #858585",
"2 c #B3B3B3",
"3 c #C2C2C2",
"4 c #F0F0F0",
"5 c #DD9133",
"6 c #D1D1D1",
"7 c #E1E1E1",
"8 c #FFFFFF",
"9 c #000000",
"A c #282828",
"B c #719500",
"C c #BFBFBF",
"D c #A3A3A3",
"E c #515151",
"F c #3D3D3D",
"G c #949494",
"1111111111111111111111111111111111111111111111111111111111111111",
"2222222222222222222222222222222222222222222222222222222222222222",
"2222222222222222222222222222222222222222222222222222222222222222",
"3333333333333333333333333333333333333333333333333333333333333333",
"3333333333333333333333333333345553333333333333333333333333333333",
"6666666666666666666666666645555555666666666666666666666666666666",
"7777777777777777777777777455555555477777777777777777777777777777",
"7777777777777777777777745555555555577777777777777777777777777777",
"4444444444444444444444455555555555544444444444444444444444444444",
"4444444444444444444444555555555555444444444444444444444444444444",
"4444444444444444444455555555555555444444444444444444444444444444",
"8888888888888888888555555555555555888888888888888888888888888888",
"8888888888888888885555555555555555888888888888888888888888888888",
"8888888888888888855555555555555555888888888888888888888888888888",
"8888888888888888555555555585555554888888888888888488888888888888",
"8888888888888885555555555885555558888888888888455558888888888888",
"8888888888888855555555548855555558888888888885555555888888888888",
"8888888888888555555555488855555548888888888855555555888888888888",
"8888888888885555555554888855555548888888884555555555488888888888",
"8888888888855555555588888455555588888888845555555555488888888888",
"8888888888455555555888888555555588888888455555555555888888888888",
"88888888849999999999A8888555555488888884555555555555888888888888",
"8888888845999999999988884555555888888845555555555554888888888888",
"888888845A999AAAAAAA88885555555888888455555555555554888888888888",
"888888455A9995588888888855A5A548888845A5A555555555A4A88888888888",
"88888855599995888888888A999999A8888A999999A5555A9999998888888888",
"8888855559999999999888999999999888999999999555999AAA999888888888",
"888845555999999999A88A99955599A88A99955599A55A999558999888888888",
"88845555A999A8A8A8888999555558884999555555555999AA8A999A88888888",
"88855555A99988888888899955555885599955555555A9999999999884844444",
"88555555999988888888A99955558A85A99955558A5559995588888555555555",
"445555559999999999A88999A55999A55999A55999A5A999588AAA5555555555",
"855555589999999999A8899999999A55599999999A55599999999A5555555555",
"5555558A99999999994885A99999A55555A99999885555A99999555555555555",
"5555548888888888888855555555555555588888885555555555555555555555",
"5555588999999999999999999999999999999999999999999999999999999999",
"5555888888888888888855555555555555888888885555555555555555555555",
"4544444444444BBBBBBBBBBBBBBB555BBBBB444BBB55555BBB55555444444444",
"4444444444444BBBBBBBBBBBBBBB555BBBBB44BBBB5555BBBB55554444444444",
"4444444444444BBBB444555BBBBB55BBBBBB44BBB44555BBBB54444444444444",
"4444444444444BBBB444555BBBBBB5BBBBBB44BBBB4455BBBB44444444444444",
"4444444444444BBBBBBB555BBBBBB4BBBBBB44BBBBBBB4BBBB44444444444444",
"4444444444444BBBBBBB55BBBB5BBBBB4BBB444BBBBBBBBBBB44444444444444",
"7777777777777BBBB77775BBBB5BBBBB7BBBB77777BBBBBBBB77777777777777",
"7777777777777BBBB77774BBBB47BBB77BBBB77777BBBBBBBB77777777777777",
"7777777777777BBBBBBB77BBB777BBB77BBBBBBBBBBBB7BBBBBBBB7777777777",
"7777777777777BBBBBBB77BBB777BB7777BBBBBBBBBB77BBBBBBBB7777777777",
"7777777777777777777777777777777777777777777777777777777777777777",
"6666666666666666666666666766666666666666666666666666666666666666",
"6666666666666666666666666667766666666666666666666666666666666666",
"6666666666666666666666666666666666666666666666636636636666666666",
"3663636366363663636363636363636363636363633333336363336333333633",
"3333333333333333693693363333333333333333336363363333633363633633",
"3366663333333363666693336663333336333336333333333333333333333333",
"3333339993393339393999333333333333333333333333333333333333333333",
"3333393339339393393392332333333333333333333333323323333333333333",
"3336292229622932293293223222222222322222222232232232222222223222",
"3323299993323932392392322323223232232232323223223223232232322322",
"2222292222229292292292222222222222222222222222222222222222222222",
"2222229999292229292299222222222222222222222222222222222222222222",
"22D2D2D2D22D2D2D2D2D2D2D2D2D2D2D2D2DDD2D2D2D2D2D2D2D2D2D2D2D2DD2",
"222D2D2D2DD2D2D2D2D2D2D2D2D2D2D2D2D2D2D2D2D2D2D2D2D2D2D2D2D2D2D2",
"GGGD222DDD22222DDDDDDD2222DDG2DDDDDGDGDGDGDGDGDGDGDGDGDGDGDGDGGD",
"1111B111B1B111B1111111111B1111111B11B1B1B1B11B11B11B11B1B11B111B"};
