/* XPM */
static char * gwmain4 [] = {
"64 64 16 1",
"1 c #858585",
"2 c #B3B3B3",
"3 c #C2C2C2",
"4 c #D1D1D1",
"5 c #E1E1E1",
"6 c #F0F0F0",
"7 c #FFFFFF",
"8 c #DD9133",
"9 c #000000",
"A c #282828",
"B c #719500",
"C c #BFBFBF",
"D c #A3A3A3",
"E c #515151",
"F c #3D3D3D",
"G c #949494",
"1111111111111111111111111111111111111111111111111111111111111111",
"2222222222222222222222222222222222222222222222222222222222222222",
"2222222222222222222222222222222222222222222222222222222222222222",
"3333333333333333333333333333333333333333333333333333333333333333",
"3333333333333333333333333333333333333333333333333333333333333333",
"4444444444444444444444444444444444444444444444444444444444444444",
"5555555555555555555555555555555555555555555555555555555555555555",
"5555555555555555555555555555555555555555555555555555555555555555",
"6666666666666666666666666666666666666666666666666666666666666666",
"6666666666666666666666666666666666666666666666666666666666666666",
"6666666666666666666666666666666666666666666666666666666666666666",
"7777777777777777777777777777777777777777777777777777777777777777",
"7777777777777777777777777777777777777777777777777777777777777777",
"7777777777777777777777777777777777777777777777777777777777777777",
"7777777777777777777777777777777777777777777777777777777777777777",
"7777777777777777777777777777777768888867777777777777777777777777",
"7777777777777777777777777777776888888886777777777777777777777777",
"7777777777777777777777777777788888888886777777777777777777777777",
"7777777777777777777777777776888888888886777777777777777777777777",
"7777777777777777777777777768888888888887777777777777777777777777",
"7777777777777777777777777888888888888887777777777777777777777777",
"77777777779999999999A7768888888888888867777777777777777777777777",
"7777777777999999999977688888888888888877777777777777777777777777",
"777777777A999AAAAAAA78888888886888888677777777777668866777777777",
"777777777A9997777777888888A8A668888887A7A777777688A8A88777777777",
"77777777799997777768888A999999A8888A999999A7768A9999998877777777",
"7777777779999999999888999999999888999999999788999AAA999867777777",
"777777777999999999A88A99977799A88A99977799A88A999888999887777777",
"77777777A999A7A8A8888999877775888999777777888999AA8A999A87777777",
"77777777A99978888888899977777788899977777888A9999999999886777777",
"77777777999988888888A99977775A88A99977768A8889997777888888777777",
"666677779999999999A77999A66999A88999A68999A8A999777AAA8888666666",
"777777889999999999A7799999999A88899999999A88899999999A8888777777",
"6666888A99999999996777A99999A88887A99999888887A99999888888666666",
"7788888888888877777777777777888886888888888877777777888888777778",
"6888888999999999999999999999999999999999999999999999999999999999",
"6688888887777777777777777777888888888888877777777777788888888888",
"6688666666666BBBBBBBBBBBBBBB888BBBBB888BBB66666BBB66688888888888",
"6666666666666BBBBBBBBBBBBBBB888BBBBB88BBBB6666BBBB66668888888888",
"6666666666666BBBB666666BBBBB88BBBBBB88BBB66666BBBB66666888888888",
"6666666666666BBBB666666BBBBBB8BBBBBB66BBBB6666BBBB66666688888666",
"6666666666666BBBBBBB666BBBBBB6BBBBBB66BBBBBBB6BBBB66666666666666",
"6666666666666BBBBBBB66BBBB6BBBBB6BBB666BBBBBBBBBBB66666666666666",
"5555555555555BBBB55555BBBB5BBBBB5BBBB55555BBBBBBBB55555555555555",
"5555555555555BBBB55555BBBB55BBB55BBBB55555BBBBBBBB55555555555555",
"5555555555555BBBBBBB55BBB555BBB55BBBBBBBBBBBB5BBBBBBBB5555555555",
"5555555555555BBBBBBB55BBB555BB5555BBBBBBBBBB55BBBBBBBB5555555555",
"5555555555555555555555555555555555555555555555555555555555555555",
"4444444444444444444444444544444444444444444444444444444444444444",
"4444444444444444444444444445544444444444444444444444444444444444",
"4444444444444444444444444444444444444444444444434434434444444444",
"3443434344343443434343434343434343434343433333334343334333333433",
"3333333333333333493493343333333333333333334343343333433343433433",
"3344443333333343444493334443333334333334333333333333333333333333",
"3333339993393339393999333333333333333333333333333333333333333333",
"3333393339339393393392332333333333333333333333323323333333333333",
"3334292229422932293293223222222222322222222232232232222222223222",
"3323299993323932392392322323223232232232323223223223232232322322",
"2222292222229292292292222222222222222222222222222222222222222222",
"2222229999292229292299222222222222222222222222222222222222222222",
"22D2D2D2D22D2D2D2D2D2D2D2D2D2D2D2D2DDD2D2D2D2D2D2D2D2D2D2D2D2DD2",
"222D2D2D2DD2D2D2D2D2D2D2D2D2D2D2D2D2D2D2D2D2D2D2D2D2D2D2D2D2D2D2",
"GGGD222DDD22222DDDDDDD2222DDG2DDDDDGDGDGDGDGDGDGDGDGDGDGDGDGDGGD",
"1111B111B1B111B1111111111B1111111B11B1B1B1B11B11B11B11B1B11B111B"};
