/* XPM */
static char * gwmain7 [] = {
"64 64 16 1",
"1 c #858585",
"2 c #B3B3B3",
"3 c #C2C2C2",
"4 c #D1D1D1",
"5 c #E1E1E1",
"6 c #F0F0F0",
"7 c #FFFFFF",
"8 c #DD9133",
"9 c #000000",
"A c #282828",
"B c #719500",
"C c #BFBFBF",
"D c #A3A3A3",
"E c #515151",
"F c #3D3D3D",
"G c #949494",
"1111111111111111111111111111111111111111111111111111111111111111",
"2222222222222222222222222222222222222222222222222222222222222222",
"2222222222222222222222222222222222222222222222222222222222222222",
"3333333333333333333333333333333333333333333333333333333333333333",
"3333333333333333333333333333333333333333333333333333333333333333",
"4444444444444444444444444444444444444444444444444444444444444444",
"5555555555555555555555555555555555555555555555555555555555555555",
"5555555555555555555555555555555555555555555555555555555555555555",
"6666666666666666666666666666666666666666666666666666666666666666",
"6666666666666666666666666666666666666666666666666666666666666666",
"6666666666666666666666666666666666666666666666666666666666666666",
"7777777777777777777777777777777777777777777777777777777777777777",
"7777777777777777777777777777777777777777777777777777777777777777",
"7777777777777777777777777777777777777777777777777777777777777777",
"7777777777777777777777777777777777777777777666777777777777777777",
"7777777777777777777777777777777777777777688888877777777777777777",
"7777777777777777777777777777777777777768888888887777777777777777",
"7777777777777777777777777777777777777888888888887777777777777777",
"7777777777777777777777777777777777768888888888886777777777777777",
"7777777777777777777777777777777777688888888888887777777777777777",
"7777777777777777777777777777777778888888888888867777777777777777",
"77777777669999999999A7777777777688888888888888867777777777777777",
"7777778888999999999977777777776888888888888888877777777777777777",
"777768888A999AAAAAAA77777777788888888888888888677777777777777777",
"777788888A9998677777777777A7A888888888A6A888886777A7A77777777777",
"77788888899998867777777A999999A8888A999999A8887A9999997777777777",
"7768888889999999999777999999999888999999999886999AAA999777777777",
"778888888999999999A77A99988899A88A99977899A88A999777999888666777",
"76888888A999A8A8A6777999888888888999778888886999AA8A999A88888867",
"78888887A99988888868899988888888799977888888A9999999999888888888",
"78888877999988888888A99988888A87A99976888A8579998888888888888888",
"688887779999999999A88999A88999A77999A88999A6A999888AAA8888888888",
"888877779999999999A8899999999A77799999999A66699999999A8888888888",
"8887777A99999999998888A99999A77777A99999888888A99999877777666888",
"6887777777777888888888888877777776777888888888888888777777777778",
"6666777999999999999999999999999999999999999999999999999999999999",
"6666777777777778888888887777777777777888888888887777777777777777",
"6666666666666BBBBBBBBBBBBBBB666BBBBB688BBB88886BBB66666666666666",
"6666666666666BBBBBBBBBBBBBBB666BBBBB68BBBB8886BBBB66666666666666",
"6666666666666BBBB666666BBBBB66BBBBBB66BBB88666BBBB66666666666666",
"6666666666666BBBB666666BBBBBB6BBBBBB66BBBB6666BBBB66666666666666",
"6666666666666BBBBBBB666BBBBBB6BBBBBB66BBBBBBB6BBBB66666666666666",
"6666666666666BBBBBBB66BBBB6BBBBB6BBB666BBBBBBBBBBB66666666666666",
"5555555555555BBBB55555BBBB5BBBBB5BBBB55555BBBBBBBB55555555555555",
"5555555555555BBBB55555BBBB55BBB55BBBB55555BBBBBBBB55555555555555",
"5555555555555BBBBBBB55BBB555BBB55BBBBBBBBBBBB5BBBBBBBB5555555555",
"5555555555555BBBBBBB55BBB555BB5555BBBBBBBBBB55BBBBBBBB5555555555",
"5555555555555555555555555555555555555555555555555555555555555555",
"4444444444444444444444444544444444444444444444444444444444444444",
"4444444444444444444444444445544444444444444444444444444444444444",
"4444444444444444444444444444444444444444444444434434434444444444",
"3443434344343443434343434343434343434343433333334343334333333433",
"3333333333333333493493343333333333333333334343343333433343433433",
"3344443333333343444493334443333334333334333333333333333333333333",
"3333339993393339393999333333333333333333333333333333333333333333",
"3333393339339393393392332333333333333333333333323323333333333333",
"3334292229422932293293223222222222322222222232232232222222223222",
"3323299993323932392392322323223232232232323223223223232232322322",
"2222292222229292292292222222222222222222222222222222222222222222",
"2222229999292229292299222222222222222222222222222222222222222222",
"22D2D2D2D22D2D2D2D2D2D2D2D2D2D2D2D2DDD2D2D2D2D2D2D2D2D2D2D2D2DD2",
"222D2D2D2DD2D2D2D2D2D2D2D2D2D2D2D2D2D2D2D2D2D2D2D2D2D2D2D2D2D2D2",
"GGGD222DDD22222DDDDDDD2222DDG2DDDDDGDGDGDGDGDGDGDGDGDGDGDGDGDGGD",
"1111B111B1B111B1111111111B1111111B11B1B1B1B11B11B11B11B1B11B111B"};
