/* XPM */
static char * gwmain0 [] = {
"64 64 16 1",
"1 c #858585",
"2 c #F0F0F0",
"3 c #DD9133",
"4 c #B3B3B3",
"5 c #C2C2C2",
"6 c #D1D1D1",
"7 c #E1E1E1",
"8 c #FFFFFF",
"9 c #000000",
"A c #282828",
"B c #719500",
"C c #BFBFBF",
"D c #A3A3A3",
"E c #515151",
"F c #3D3D3D",
"G c #949494",
"1111111111111111111111111111111233331111111111111111111111111111",
"4444444444444444444444444444423333333444444444444444444444444444",
"4444444444444444444444444444333333333444444444444444444444444444",
"5555555555555555555555555523333333333555555555555555555555555555",
"5555555555555555555555555333333333333555555555555555555555555555",
"6666666666666666666666623333333333333666666666666666666666666666",
"7777777777777777777777233333333333332777777777777777777777777777",
"7777777777777777777773333333333333337777777777777777777777777777",
"2222222222222222222233333333333333332222222222222222222222222222",
"2222222222222222222333333333233333322222222222222222222222222222",
"2222222222222222223333333332333333322222222222222322222222222222",
"8888888888888888233333333288333333288888888888833333888888888888",
"8888888888888882333333332882333333888888888888333333388888888888",
"8888888888888823333333388883333333888888888883333333328888888888",
"8888888888888233333333888823333332888888888833333333328888888888",
"8888888888882333333338888833333338888888888333333333328888888888",
"8888888888823333333388888833333328888888883333333333388888888888",
"8888888888833333332888888333333388888888833333333333388888888888",
"8888888888333333328888888333333388888888333333333333288888888888",
"8888888883333333388888882333333888888883333333333333888888888888",
"8888888833333332888888883333333888888833333333333332888888888888",
"88888883339999999999A8823333332888888333333333333338888888888888",
"8888882333999999999988833333338888883333333333333328888888888888",
"888882333A999AAAAAAA88233333338888833333333333333388888888888888",
"888883333A9998888888883333A3A888882333A3A333333332A8A88888888888",
"88883333399998888888883A999999A8823A999999A3333A9999998888888888",
"8882333339999999999882999999999823999999999333999AAA999828888888",
"882333333999999999A88A99933399A23A99933399A33A999888999882228888",
"88333333A999A8A8A8888999333382833999333333333999AA8A999A33333338",
"82333333A99988888882399933338833399933883333A9999999999333333333",
"83333338999988888883A99933387A33A99933823A3339998823333333333333",
"333333389999999999A33999A32999A33999A22999A3A999888AAA3333333333",
"333333889999999999A3399999999A33399999999A33399999999A3333333333",
"3333388A99999999992333A99999A33333A99999333333A99999333333333333",
"3333888888888888882333333883333333388833333333333333333333288823",
"3332888999999999999999999999999999999999999999999999999999999999",
"3322888888888888883333333333333338888333333333333333338888888888",
"3222222222228BBBBBBBBBBBBBBB333BBBBB233BBB33333BBB33228822222222",
"2222222222222BBBBBBBBBBBBBBB333BBBBB23BBBB3333BBBB22222222222222",
"2222222222222BBBB333333BBBBB33BBBBBB22BBB33333BBBB22222222222222",
"2222222222222BBBB333333BBBBBB3BBBBBB22BBBB3333BBBB22222222222222",
"2222222222222BBBBBBB333BBBBBB2BBBBBB22BBBBBBB2BBBB22222222222222",
"2222222222222BBBBBBB33BBBB3BBBBB2BBB222BBBBBBBBBBB22222222222222",
"7777777777777BBBB33333BBBB3BBBBB7BBBB77777BBBBBBBB77777777777777",
"7777777777777BBBB23333BBBB27BBB77BBBB77777BBBBBBBB77777777777777",
"7777777777777BBBBBBB33BBB277BBB77BBBBBBBBBBBB7BBBBBBBB7777777777",
"7777777777777BBBBBBB33BBB777BB7777BBBBBBBBBB77BBBBBBBB7777777777",
"7777777777777777777722327777777777777777777777777777777777777777",
"6666666666666666666666666766666666666666666666666666666666666666",
"6666666666666666666666666667766666666666666666666666666666666666",
"6666666666666666666666666666666666666666666666656656656666666666",
"5665656566565665656565656565656565656565655555556565556555555655",
"5555555555555555695695565555555555555555556565565555655565655655",
"5566665555555565666695556665555556555556555555555555555555555555",
"5555559995595559595999555555555555555555555555555555555555555555",
"5555595559559595595594554555555555555555555555545545555555555555",
"5556494449644954495495445444444444544444444454454454444444445444",
"5545499995545954594594544545445454454454545445445445454454544544",
"4444494444449494494494444444444444444444444444444444444444444444",
"4444449999494449494499444444444444444444444444444444444444444444",
"44D4D4D4D44D4D4D4D4D4D4D4D4D4D4D4D4DDD4D4D4D4D4D4D4D4D4D4D4D4DD4",
"444D4D4D4DD4D4D4D4D4D4D4D4D4D4D4D4D4D4D4D4D4D4D4D4D4D4D4D4D4D4D4",
"GGGD444DDD44444DDDDDDD4444DDG4DDDDDGDGDGDGDGDGDGDGDGDGDGDGDGDGGD",
"1111B111B1B111B1111111111B1111111B11B1B1B1B11B11B11B11B1B11B111B"};
