/* XPM */
static char * gwmain9 [] = {
"64 64 16 1",
"1 c #858585",
"2 c #B3B3B3",
"3 c #C2C2C2",
"4 c #D1D1D1",
"5 c #E1E1E1",
"6 c #F0F0F0",
"7 c #DD9133",
"8 c #FFFFFF",
"9 c #000000",
"A c #282828",
"B c #719500",
"C c #BFBFBF",
"D c #A3A3A3",
"E c #515151",
"F c #3D3D3D",
"G c #949494",
"1111111111111111111111111111111111111111111111111111111111111111",
"2222222222222222222222222222222222222222222222222222222222222222",
"2222222222222222222222222222222222222222222222222222222222222222",
"3333333333333333333333333333333333333333333333333333333333333333",
"3333333333333333333333333333333333333333333333333333333333333333",
"4444444444444444444444444444444444444444444444444444444444444444",
"5555555555555555555555555555555555555555555555555555555555555555",
"5555555555555555555555555555555555555555555555555555555555555555",
"6666666666666666666666666666666666666666666666666666666666666666",
"6666666666666666777776666666666666666666666666666666666666666666",
"6666666666666667777777666666666666666666666666666666666666666666",
"8888888888888677777777688888888888888888888888888888888888888888",
"8888888888887777777777688888888888888888888886776888888888888888",
"8888888888877777777777688888888888888888888777777788888888888888",
"8888888888777777777777788888888888888888887777777768888888888888",
"8888888887777777777777788888888888888888677777777778888888888888",
"8888888867777777777777788888888888888886777777777778888888888888",
"8888888677777777777777788888888888888877777777777768888888888888",
"8888888777777776777777788888888888888777777777777788888888888888",
"8888887777777768777777788888888888887777777777777788888888888888",
"8888877777777688777777788888888888877777777777777688888888888888",
"88886777779999999999A7788888888888677777777777777888888888888888",
"8888777777999999999977788888888886777777777777777888888888888888",
"888677777A999AAAAAAA77788888888867777777777777776888888888888888",
"888777777A9998887777777888A8A888777777A7A777777788A8A88888888888",
"88677777699998887777777A999999A7777A999999A7777A9999998888888888",
"8877777689999999999777999999999777999999999777999AAA999868888888",
"867777788999999999A77A99988899A77A99976899A77A999888999888888888",
"87777788A999A8A8A7777999888877777999778877777999AA8A999A88866888",
"67777888A99988887777799988877777799978887777A9999999999877777777",
"77777888999988887777A99988777A77A99988887A7779998888877777777777",
"777788889999999999A77999A77999A77999A68999A7A999887AAA7777777777",
"777888889999999999A7799999999A77799999999A77799999999A7777777777",
"7776888A99999999997777A99999A77778A99999777776A99999777777777777",
"7788868888888888777777777777777788888877777776777777777788888867",
"7666888999999999999999999999999999999999999999999999999999999999",
"7666888888888888777777777777778888888877777777777777888888888888",
"6666666666666BBBBBBBBBBBBBBB766BBBBB667BBB77777BBB76666666666666",
"6666666666666BBBBBBBBBBBBBBB766BBBBB66BBBB7777BBBB66666666666666",
"6666666666666BBBB777777BBBBB66BBBBBB66BBB77777BBBB66666666666666",
"6666666666666BBBB777777BBBBBB6BBBBBB66BBBB7777BBBB66666666666666",
"6666666666666BBBBBBB777BBBBBB6BBBBBB66BBBBBBB6BBBB66666666666666",
"6666666666666BBBBBBB77BBBB6BBBBB6BBB666BBBBBBBBBBB66666666666666",
"5555555555555BBBB77777BBBB5BBBBB5BBBB55555BBBBBBBB55555555555555",
"5555555555555BBBB67777BBBB55BBB55BBBB55555BBBBBBBB55555555555555",
"5555555555555BBBBBBB65BBB555BBB55BBBBBBBBBBBB5BBBBBBBB5555555555",
"5555555555555BBBBBBB55BBB555BB5555BBBBBBBBBB55BBBBBBBB5555555555",
"5555555555555555555555555555555555555555555555555555555555555555",
"4444444444444444444444444544444444444444444444444444444444444444",
"4444444444444444444444444445544444444444444444444444444444444444",
"4444444444444444444444444444444444444444444444434434434444444444",
"3443434344343443434343434343434343434343433333334343334333333433",
"3333333333333333493493343333333333333333334343343333433343433433",
"3344443333333343444493334443333334333334333333333333333333333333",
"3333339993393339393999333333333333333333333333333333333333333333",
"3333393339339393393392332333333333333333333333323323333333333333",
"3334292229422932293293223222222222322222222232232232222222223222",
"3323299993323932392392322323223232232232323223223223232232322322",
"2222292222229292292292222222222222222222222222222222222222222222",
"2222229999292229292299222222222222222222222222222222222222222222",
"22D2D2D2D22D2D2D2D2D2D2D2D2D2D2D2D2DDD2D2D2D2D2D2D2D2D2D2D2D2DD2",
"222D2D2D2DD2D2D2D2D2D2D2D2D2D2D2D2D2D2D2D2D2D2D2D2D2D2D2D2D2D2D2",
"GGGD222DDD22222DDDDDDD2222DDG2DDDDDGDGDGDGDGDGDGDGDGDGDGDGDGDGGD",
"1111B111B1B111B1111111111B1111111B11B1B1B1B11B11B11B11B1B11B111B"};
