/* XPM */
static char * gwmain6 [] = {
"64 64 16 1",
"1 c #858585",
"2 c #B3B3B3",
"3 c #C2C2C2",
"4 c #D1D1D1",
"5 c #E1E1E1",
"6 c #F0F0F0",
"7 c #FFFFFF",
"8 c #DD9133",
"9 c #000000",
"A c #282828",
"B c #719500",
"C c #BFBFBF",
"D c #A3A3A3",
"E c #515151",
"F c #3D3D3D",
"G c #949494",
"1111111111111111111111111111111111111111111111111111111111111111",
"2222222222222222222222222222222222222222222222222222222222222222",
"2222222222222222222222222222222222222222222222222222222222222222",
"3333333333333333333333333333333333333333333333333333333333333333",
"3333333333333333333333333333333333333333333333333333333333333333",
"4444444444444444444444444444444444444444444444444444444444444444",
"5555555555555555555555555555555555555555555555555555555555555555",
"5555555555555555555555555555555555555555555555555555555555555555",
"6666666666666666666666666666666666666666666666666666666666666666",
"6666666666666666666666666666666666666666666666666666666666666666",
"6666666666666666666666666666666666666666666666666666666666666666",
"7777777777777777777777777777777777777777777777777777777777777777",
"7777777777777777777777777777777777777777777777777777777777777777",
"7777777777777777777777777777777777777777777777777777777777777777",
"7777777777777777777777777777777777777777777777777777777777777777",
"7777777777777777777777777777777777777777766677777777777777777777",
"7777777777777777777777777777777777777778888886777777777777777777",
"7777777777777777777777777777777777777688888888777777777777777777",
"7777777777777777777777777777777777768888888888777777777777777777",
"7777777777777777777777777777777777888888888888777777777777777777",
"7777777777777777777777777777777788888888888888777777777777777777",
"77777777779999999999A7777777778888888888888886777777777777777777",
"7777777777999999999977777777688888888888888887777777777777777777",
"777777777A999AAAAAAA77777668888888888888888887777777777777777777",
"777777777A9997777777777688A8A888888866A8A888777777A7A77777777777",
"77777777799997777777768A999999A8888A999999A8777A9999997777777777",
"7777777779999999999888999999999867999999999677999AAA999777777777",
"777777777999999999A88A99988899A77A99988899A77A999777999888887777",
"77777768A999A8A8A8888999888886777999888888877999AA8A999A88888677",
"77688888A99988888888899988887777799988888887A9999999999888888886",
"78888888999988888888A99977777A77A99988888A7779998888888888888888",
"888888889999999999A77999A66999A67999A88999A6A999888AAA8888888888",
"888888889999999999A7799999999A77799999999A76899999999A8777688888",
"8888888A99999999997777A99999A77777A99999578888A99999777777778888",
"7667777777777777777777777777777777888888888888888877777777777788",
"6666777999999999999999999999999999999999999999999999999999999999",
"6666777777777777777777777777777777888888888888887777777777777777",
"6666666666666BBBBBBBBBBBBBBB666BBBBB888BBB88886BBB77776666666666",
"6666666666666BBBBBBBBBBBBBBB666BBBBB88BBBB8886BBBB66666666666666",
"6666666666666BBBB666666BBBBB66BBBBBB88BBB88666BBBB66666666666666",
"6666666666666BBBB666666BBBBBB6BBBBBB88BBBB6666BBBB66666666666666",
"6666666666666BBBBBBB666BBBBBB6BBBBBB66BBBBBBB6BBBB66666666666666",
"6666666666666BBBBBBB66BBBB6BBBBB6BBB666BBBBBBBBBBB66666666666666",
"5555555555555BBBB55555BBBB5BBBBB5BBBB55555BBBBBBBB55555555555555",
"5555555555555BBBB55555BBBB55BBB55BBBB55555BBBBBBBB55555555555555",
"5555555555555BBBBBBB55BBB555BBB55BBBBBBBBBBBB5BBBBBBBB5555555555",
"5555555555555BBBBBBB55BBB555BB5555BBBBBBBBBB55BBBBBBBB5555555555",
"5555555555555555555555555555555555555555555555555555555555555555",
"4444444444444444444444444544444444444444444444444444444444444444",
"4444444444444444444444444445544444444444444444444444444444444444",
"4444444444444444444444444444444444444444444444434434434444444444",
"3443434344343443434343434343434343434343433333334343334333333433",
"3333333333333333493493343333333333333333334343343333433343433433",
"3344443333333343444493334443333334333334333333333333333333333333",
"3333339993393339393999333333333333333333333333333333333333333333",
"3333393339339393393392332333333333333333333333323323333333333333",
"3334292229422932293293223222222222322222222232232232222222223222",
"3323299993323932392392322323223232232232323223223223232232322322",
"2222292222229292292292222222222222222222222222222222222222222222",
"2222229999292229292299222222222222222222222222222222222222222222",
"22D2D2D2D22D2D2D2D2D2D2D2D2D2D2D2D2DDD2D2D2D2D2D2D2D2D2D2D2D2DD2",
"222D2D2D2DD2D2D2D2D2D2D2D2D2D2D2D2D2D2D2D2D2D2D2D2D2D2D2D2D2D2D2",
"GGGD222DDD22222DDDDDDD2222DDG2DDDDDGDGDGDGDGDGDGDGDGDGDGDGDGDGGD",
"1111B111B1B111B1111111111B1111111B11B1B1B1B11B11B11B11B1B11B111B"};
