/* XPM */
static char * gwpertab [] = {
"64 64 25 1",
"0 c #000000",
"1 c #A3A3A3",
"2 c #666666",
"3 c #637B9C",
"4 c #858585",
"5 c #757575",
"6 c #AD9C84",
"7 c #29AD29",
"8 c #F0F0F0",
"9 c #3D3D3D",
"A c #8C9C94",
"B c #CEBDAD",
"C c #C2C2C2",
"D c #CEAD9C",
"E c #949494",
"F c #4A4A52",
"G c #DD9133",
"I c #666666",
"J c #6B737B",
"L c #FFFFFF",
"K c #EFE7AD",
"M c #9C3931",
"N c #E1E1E1",
"O c #D1D1D1",
"P c #B3B3B3",
"4E4E4E4E4E4E4E4E4E4E4E4E4E4E4E4E4E4E4E4E4E4E4E4E4E4E4E4E4E4E4E4E",
"PPPPPPPPPPPPPPPPPPPPPPPPPPPPPPPPPPPPPPPPPPPPPPPPPPPPPPPPPPPPPPPP",
"PPPPPPPPPPPPPPPPPPPPPPPPPPPPPPPPPPPPPPPPPPPPPPPPPPPPPPPPPPPPPPPP",
"CCCCCCCCCCCCCCCCCCCCCCCCCCCCCPCPCPPPCPPPPPPPCPPPPPCCPCCPCPCPCPPP",
"CCCOCCOCCOCOCOCOCOCCCCCCCCCCCCCCCCCCCCCCCCCCCCCCCCCCCCCCCCCCCCPP",
"OO0000OOOOOOOOOOOOOOOOOOOOOOOOOCCCCCCCCCCCCCCCCCOCOOCOOOOO0000PP",
"OO0J30NNNNNNNNNNNNNNNNNNONONOOOOOOOOOOOOOOOOOOOOOOOOOOOOOO0550CC",
"NN03J0NNNNN8NNNNNNNNNNNNNNNNNNNNNNNNNNNNNONNONONONNNNNNNNN0440CC",
"NN03G0000888888888888888888N8N8NNNNNNNNNN000000000000000000440CC",
"NN0333PP0888888888888888888888888888888880KBGGGGGGGGGGG333I440OO",
"NN0G3GPP0888888888888888888888888888888880KKGAGGGGGGGGG3G3J4E0OO",
"NN03G3PP0LLLLL8L8LL8LL8L8L8888L88888888880KKGGGGGGGGGGGG3GIE40OO",
"NN033GPC0LLLLLLLLLLLLLLLLLLLLLLLLLLLLLLLL0DD6K6KAGGGGGG333JEE0NN",
"NN0G3APC0LLLLLLLLLLLLLLLLLLLLLLLLLLLLLLLL0CBKKKK6GGGGGGAG3J1E0NN",
"NN03G3CC0LLLLLLLLLLLLLLLLLLLLLLLLLLLLLLLL0CCKKKK6GGGGGGG3G5EE0NN",
"NN0A3GPC0000000000000000000000000000000000CCKKKKGGGGGGGA33J1E0NN",
"NN03G3CCPNNNNNNNNNNNNNNNNNNNNNNNNNNNNNCCCCCCKKKKBBPCGGGGAGJE10NN",
"NN03G3CPPNNNNNNNNNNNNNNNNNNNNNNNNNNNNNCCCCCCKKKKKKKGGGGA33J1E0NN",
"NN0G3APCPNNNNNNNNNNNNNNNNNNNNNNNNNNNNNCCCCCCKKKKKKKBGGGGG3JE10NN",
"NN03G3CPCNNNNNNNNNNNNNNNNNNNNNNNNNNNNNCCCCCCKKKKKKK6GGGA3GJ1E0NN",
"NN0A3GPCPNNNNNNNNNNNNNNNNNNNNNNNNNNNNNCCCCCCBBBBBBBKKKGGA3JE10NN",
"NN03G3CCPNNNNNNNNNNNNNNNNNNNNNNNNNNNNNCCCCCCCCCCCCCKKK6G3GJ1E0NN",
"NN03G3CPPNNNNNNNNNNNNNNNNNNNNNNNNNNNNNCCCCCCCCCCCCCKKK6G3AJEE0NN",
"NN03A3CCPNNNNNNNNNNNNNNNNNNNNNNNNNNNNNCCCCCCCCCCCCBBBBOG3GJ1E0NN",
"NN0G3GCCPNNNNNNNNNNNNNNNNNNNNNNNNNNNNNCCCCCCCCCCCCCCCCC3G34EE0NN",
"NN03G3CPPNNNNNNNNNNNNNNNNNNNNNNNNNNNNNCCCCCCCCCCCCCCCCC3A3J1E0NN",
"NN0A3GPCPNNNNNNNNNCCCPCCP0000000000000000000000000000000000000NN",
"NN0G3APCPNNNNNNNNNCLLLLLL0LLLLLLLLLLLLLLLLLLLLLLLLLLLLLLLLLLLLLL",
"NN03G3CPPNNNNNNNNNCLLLLLL0LLLLLLLLLLLLLLLLLLLLLLLLLLLLLLLLLLLLLL",
"NN000000000000000000000000LLLLLLLLLLLLLLLLLLLLLLLLLLLLLLLLLLLLLL",
"LLLLLLLLLLLLLLLLLLLLLLLLLLLLLLLLLLLLLLLLLLLLLLLLLLLLLLLLLLLLLLLL",
"LLLLLLLLLLLLLLLLLLLLLLLLLLLLLLLLLLLLLLLLLLLLLLLLLLLLLLLLLLLLL8LL",
"LLL8LLLLLLLL00000000000000000000000000000000000000000000000LLLLL",
"LLLL8L8LLLLL099999999999999999999999999999999999999999999908L8LL",
"LLL8L8L8L8L809797979797979797979797979797979797979797979790LLLLL",
"LLLL8L8L8L8L0000000000000000000000000000000000000000000000088888",
"LLL8L8L8L8L8L8L888LL88LL88LLLLL8L8LLL8L8L8L8L8L8L8L8L8L8L8LLL888",
"LLLL8L8L8L8L000000000000000000000000000000000000000000000008L888",
"8888888888880999999999999999999999999299299992999929999299088888",
"888888888888092M9292M992M929M9M929M999299M92999M9999M99929088888",
"8888888888880000000000000000000000000000000000000000000000088888",
"88888888888888888888888888888888888888888N8888888888888888888888",
"888888888N88888888888888888888888888888N88N8N8N8N8N8NN8NN8N8N8NN",
"NNNNNNNN8NNN8NN8N8N8N8N8N8N8N8N8N8N8NNN8NN8NNN8N8NNNNNNNNNNN8NNN",
"NNNNNNNNNNNNNNNNNN8NNN8NNNNN8NNN8NNNNNNNNNNNNNNNNNNNNNNNNNNNNNNN",
"NNNNNNNNNNNNNNNNNNN0NNNNNNNNNNN9155NNNNNNNNNNNNNNNNNNNNNNNNNNNNN",
"NNNNNNNNNNNNNNNNNNNNNNNNNNNNNNN9PNNNNNNNNNNNNNNNNNNONONONNNNNNNN",
"NNN2I004NO909PN290E9NO9001NO9090144NE009ONONONOOOOONOOONOOOOONOO",
"OOO99C10O94O49O9FOC0O59O10O59O101IIO01O94OOOOOOOOOOOOOOOOOOOOOOO",
"OOO94OO9109990O91OO0O91OO9191OO91II19OOOOOOOOOOOOOOOOOOOOOOOOOOO",
"COO91OO91011E1O9EOO0O91OO9E91OO91II19OOCCOOOOOOOOOOOOOOOOOOOOOOO",
"CCO09CE0C9IO59O9EOO0OI9CE0C59CE0EIIO0EOFFOCOOOCOCOCCOOOCOOCOOOCC",
"CCO9F001O19001C9ECO0CCF004OC2090EIIC1009PCCCCCOCCCOCCCCOCCOCCCCC",
"CCC9ECCCCCCCOCCCCCCCOCCCCCCCCCCCCCCOCCCCCCCCCCCCCCCCCCCCCCCCCCCC",
"CCC94CICCCCCCCE9CCCCE9CCCCCCCCCCCCCCCCCCCCCCCCCCCCCCCCCCCCCCCCCC",
"CCC1PC0CCCCCCCE0CCCC49CCCCCCCCCCCCCCCCCCCCCCCCCCCCCCCCCCCCCCCCCP",
"PCPCC909C9009C40909P49PP0001PCCCCCCPCCCPCCPCCCPCPCPCCCPCCCPCCCPP",
"PPCPPE0E10PP04404P9I40C95P59PPPPPPPCPPPCPPCPPPCPPPCPPPCPPPCPPPPP",
"PPPPPP0PP1IF0440PP4040P00000PPPPPPPPPPPPPPPPPPPPPPPPPPPPPPPPPPPP",
"PPPPPP0P40FI0440PP4040P04444PPPPPPPPPPPPPPPPPPPPPPPPPPPPPPPPPPPP",
"PPPPPP0P99P40440419I40P99PI0PPPPPPPPPPPPPPPPPPPPPPPPPPPPPPPPPPPP",
"P11P1P00E0000I4000FP50P40004P1P1P1P1P1P1P1P1P1P1P1P1P1P1P1P1P11P",
"1E11E1111111111111E111E11111E1E1E1E1E1E1E1E1E1E1E1E1E1E1E1E1E1E1",
"4444454454454454544544444544444545454544454444444444444444444445"};
