/* XPM */
static char * gwviewer2 [] = {
"64 64 25 1",
"0 s iconGray4 m white c #949494949494",
"1 c #B3B3B3",
"2 c #A3A3A3",
"3 s iconColor1 m black c black",
"4 c #BFBFBF",
"5 c #C2C2C2",
"6 c #858585",
"7 c #CECEAD",
"8 c #E1E1E1",
"9 c #CECEBD",
"A c #9C3931",
"B c #CE0000",
"C c #FF0000",
"D c #D1D1D1",
"E c #E5E5E5",
"F c #F0F0F0",
"G c #3D3D3D",
"H c #4A4A4A",
"I c #636363",
"J c #1E90FF",
"L s iconColor2 m white c white",
"K c #282828",
"M c #666666",
"N c #515151",
"O c #757575",
"1111111111111111211111111111111111111111111112111111111111111121",
"4444444111111111111111111151111111111111111111111111111411111111",
"4445111111101111111111111111111111111111144444444444444444444444",
"5551066666666666666666666666666666666660244444444445454545444444",
"5551444444444445417777155544444444444444245555555555555555555544",
"5550444444444459ABBBBBBA1544444444444444055555555585858885555555",
"555044444444447BCCCCCCBBA254444444444444058888888888888888888888",
"DDD24444444457BCCCCCCCCBBA24445544444444058EE8E8E8E8EEE8E8888F88",
"DDD2444444459BBCCCCCCCCBBBGHHHI1544444440DEFFEFEFEFEFFFEFEEEEEEE",
"888044444444ABBCCCCCCCCCBBGJJJJ3I44444442DFFFFFFFFFFFFFFFFFFFFFF",
"888244444444ABBBBCCCCCCCBBG3JJJJ3I5444442DLFFFFFFFFFFFFFFFFFFFFF",
"888144444441ABBBBBCCCCCBBBG3JJJJJ32544441EFLLLLFLLFLFLFLLFLFLLFL",
"888144444444AGABBBBBCCCBBBG3JJJJJ3H554441ELLLLLLLLLLLLLLLLLLLLLL",
"8881444444456GGGABBBBBBBBAG3JJJJJJ3154441ELLLLLLLLLLLLLLLLLLLLLL",
"8881444445554G3GGGABBBBBBGKJJJJJJJ3254441ELLLLLLLLLLLLLLLLLLLLLL",
"88814445420252333GGGAAAAG33J3JJJJJ3154441ELLLLLLLLLLLLLLLLLLLLLL",
"88814452H333GIM33333GGGGGK3333JJJ33144441ELLLLLLLLLLLLLLLLLLLLLL",
"8881450JJJJ333GGHNOMG333K3KK33JJJ3H444441ELLLLLLLLLLLLLLLLLLLLLL",
"888151HJJJJJJ333M5554HKKKGNOM3JJJ3I544441ELLLLLLLLLLLLLLLLLLLLLL",
"888150JJJJJJJJ333H4555102451AGJJJ3A154441ELLLLLLLLLLLLLLLLLLLLLL",
"88815IJJJJJJJJJ333O54101557BBG3JJGBA15441ELLLLLLLLLLLLLLLLLLLLLL",
"88815IJJJJJJJJJ333G44IHH17BBBA3J3ACB75441ELLLLLLLLLLLLLLLLLLLLLL",
"88815I3JJJJJJJJ33KN54HHG1ABBBBGJ3BCBA5441ELLLLLLLLLLLLLLLLLLLLLL",
"8881523JJJJJ33333K2552O656GBBBA3GCBBA4112DFFFFFFFFFFFFFFFFFFFLLL",
"888144H33333333K36544414556GGBBAABBGM22264DDDDDDDDDDDDDDDDDEFFLL",
"8881451H33333KKGGN542H33H052HGGABBGKKK3333333333333333333333EFFL",
"888144446HHHGGAAGGGGGGG333G016NGGG3LLLLLLLLLLLLLLLLLLLLLLLL3DFFL",
"888144445551ABAAAABBBBBGG3333HI2103LLLLLLLLLLLLLLLLLLLLLLLL3DFFL",
"88814444444ABBBBBBBBBBBBG3JJJJJ32233LLLLLLLLLLLLLLLLLLLLLLL3DFFL",
"88814444451BBBBBBBBBBBBBBGJJJJJ3H23LLLLLLLLLLLLLLLLLLLLLLLL3DFFL",
"88814444457BBBBBBCCCCCCBBGJJJJJ3303LLLLLLLLLLLLLLLLLLLLLLLL3DFFL",
"88814444457BBBBBCCCCCCCBBG3JJJJ33033LLLLLLLLLLLLLLLLLLLLLLL3DFFL",
"88824444457BBBCCCCCCCCBBBG3JJJJ3G03LLLLLLLLLLLLLLLCLLLCLLLL3DFFL",
"88814444457BBBCCCCCCCCBBBG3JJJ33H23LLLLLLLLLLLLLLCLCLCLCLLL35FFL",
"88824444441ABBCCCCCCCBBBBGJJJ33G12333L3L3L3L3L3LCL3LCL3LCL33DFFL",
"888244444457BBBBBBBBBBBBG33333H4423LLLLCLLLLLLLCLLLLLLLLLCL35FFL",
"8882444444447BBBBBBBBBBGNHHHH255123LLLCLCLLLLLCLLLLLLLLLLLC3DFFL",
"88824444444457ABBBBBBAGM455555541233LCLLLCLLLCLLLLLLLLLLLLL35FFL",
"8881444444444517AAAGGA0554444444123LCLLLLLCCCLLLLLLLLLLLLLL35FF8",
"88844444444444554122155444444444123CLLLLLLLLLLLLLLLLLLLLLLL35E88",
"88ED4222222222222222222222222222063LLLLLLLLLLLLLLLLLLLLLLLL35E88",
"88FE8DDDDDDD5DD5DDDDDDDDDDDDDDDD513LLL3LL3LL3LL3LL3LL3LL3LL35E88",
"8FFFFFFFFFFFEEEEFFFFFFFFFFFFFFFFED333333333333333333333333335EE8",
"88F88F8FEE8EF8EFFEE8FEE8FEE88F8F8854451545145145545154515455DE88",
"88888888F88F88F88F888F888F88888888ED8DDD8DD8DD8DD8DDD8DDD8DDE8D8",
"8888888888888888888888888888888F88888888888888888888D88888888888",
"8888888888888888888888888888888F888888888D8D8D8D8DDD8D8888888888",
"88D8DDD8DDDDD8DDD8DD8DD8D8D8DD88D8DDDDDDD8D8D8DDDDDDDD8D88888888",
"DDDDDDDDDDDDDDDDDDDDDDDDD8DDDDDDDDDDDDDDDDDDDDDDDDDDDDDDD8DDDDDD",
"DDDDDDDDDDDDDDDDDDDDDDDDDDD88DDDDDDDDDDDDDDDDDDDDDDDDDDDDDDDDDDD",
"DDDDDDDDDDDDDDDDDDDDDDDDDDDDDDDDDDDDDDDDDDDDDDD5DD5DD5DDDDDDDDDD",
"DDD5D5D5DD5D5DD5D5D5D5D5D5D5D5D5D5D5D5D5D5555555D5D555DDDDDDDDDD",
"5555555555555555D55D555D555555555555555555D5D55D5555D5D555555D55",
"5555555555555455554544555555555545445554555454455555555554544D55",
"555555556G444544455555555555555555555555445555555555555555555555",
"5555555555555555555555555555555555555555555555555555555555555555",
"55O655M60N4O33M5G55ON54N0O33M50N3K555555555555545545555555555555",
"556G55310G2K11K0G64GK4230K11K06322455444444454444444444444445444",
"141K26G46GMKGGKNOG2KGOMNNKGGKN6G11145111111141141141111111114111",
"114NMG616KNG666213OGONK0NG66606G14114141414114114114141141411411",
"1110KK116K6K02K61GKO2KK16K02K66K11111111111111111111111111111111",
"1111KN116K1N33N11O321KN11N33N16K11111111111111111111111111111111",
"1111111111121211212121212121212121211212121212121212121212121212",
"0101010101010100101010101010101010100101010101010101010101010101"};
