/* XPM */
static char * gwwindows [] = {
"64 16 13 1",
"0 c #000000",
"1 c #A3A3A3",
"2 c #666666",
"3 c #858585",
"4 c #757575",
"5 c #282828",
"6 c #515151",
"7 c #3D3D3D",
"8 c #C2C2C2",
"9 c #949494",
"A c #B3B3B3",
"B c #D1D1D1",
"C c #BFBFBF",
"0000000000000000000000000000000000000000000000000000000000000000",
"0BCCBCCCCBCCCCCBCCCCBCCBCBCCBCCBCCCCBCCBCBCCBCBCCCBCCCCBCBCBCB10",
"0CCBCCBCCCCBCCBCCBCCBCBCCCCBCCBCBCCBCCBCCCCBCCCCBCCCBCCCCBCCBC10",
"01CCCBCCBCCC95CCBCCBCCCCB0CCCBCCCCBCCBCCBCC1C1C1C1C1C1B1C1C1CC10",
"011C11C11C11881C1C1C111C101C11111C11C111111C1C1C1C1C1C1C1C1C1110",
"01C15915614635C57554C95560CA755962165115C65761111111777777211C10",
"01116210517435856A10A7314087219047150A46151171111111200000311110",
"01113737010135A53110A01110A0111590A57373107311111111160002111110",
"01111024745135A53110A01110A011153527460A112501111111115071111110",
"01131551202135A53110A53130A541101254105A123151111131112031111130",
"0111325310333535331033065033070213091021357751131111311411311110",
"0131131131311311311311311311313113113113113111311311131131131310",
"0113113113113113113113113113111311131131131131113113113111311140",
"0414134134114134114134114141431413411411411414141411414134134140",
"0444444444444444444444444444444444444444444444444444444444444440",
"0000000000000000000000000000000000000000000000000000000000000000"};
