/* XPM */
static char * gwwindows [] = {
"64 13 13 1",
"0 c #000000",
"1 c #A3A3A3",
"2 c #666666",
"3 c #858585",
"4 c #757575",
"5 c #282828",
"6 c #515151",
"7 c #3D3D3D",
"8 c #C2C2C2",
"9 c #949494",
"A c #B3B3B3",
"B c #D1D1D1",
"C c #BFBFBF",
"CCCBCCBCCCCBCCBCCBCCBCBCCCCBCCBCBCCBCCBCCCCBCCCCBCCCBCCCCBCCBC11",
"11CCCBCCBCCC95CCBCCBCCCCB0CCCBCCCCBCCBCCBCC1C1C1C1C1C1B1C1C1CC11",
"111C11C11C11881C1C1C111C101C11111C11C111111C1C1C1C1C1C1C1C1C1111",
"11C15915614635C57554C95560CA755962165115C65761111111777777211C11",
"11116210517435856A10A7314087219047150A46151171111111200000311111",
"11113737010135A53110A01110A0111590A57373107311111111160002111111",
"11111024745135A53110A01110A011153527460A112501111111115071111111",
"11131551202135A53110A53130A541101254105A123151111131112031111131",
"1111325310333535331033065033070213091021357751131111311411311111",
"1131131131311311311311311311313113113113113111311311131131131311",
"1113113113113113113113113113111311131131131131113113113111311144",
"1414134134114134114134114141431413411411411414141411414134134144",
"4444444444444444444444444444444444444444444444444444444444444444"};
