/* XPM */
static char * htree16_xpm[] = {
"16 16 75 1",
" 	c None",
".	c #AC0900",
"+	c #C53F2F",
"@	c #CA4A39",
"#	c #CA4736",
"$	c #CA4434",
"%	c #CA4132",
"&	c #B4180D",
"*	c #F0987A",
"=	c #FF8754",
"-	c #FF7B4A",
";	c #FF6D3F",
">	c #FF6135",
",	c #C3200E",
"'	c #000000",
")	c #6B0600",
"!	c #F09475",
"~	c #FF571E",
"{	c #FF4912",
"]	c #FF3A06",
"^	c #FF3301",
"/	c #C31400",
"(	c #347D2D",
"_	c #5FA555",
":	c #5BA252",
"<	c #58A051",
"[	c #569E4F",
"}	c #4B9445",
"|	c #236D1D",
"1	c #D45740",
"2	c #DC2F0B",
"3	c #DC2604",
"4	c #DC2100",
"5	c #B91000",
"6	c #488F40",
"7	c #80DB6D",
"8	c #54C840",
"9	c #48C039",
"0	c #3FBA34",
"a	c #35A82C",
"b	c #6CD359",
"c	c #2FB91C",
"d	c #24B014",
"e	c #1BAA0F",
"f	c #199D0F",
"g	c #164412",
"h	c #439B38",
"i	c #278E1B",
"j	c #218A18",
"k	c #1E8816",
"l	c #1E8317",
"m	c #D15A46",
"n	c #D96B55",
"o	c #D96652",
"p	c #D9624E",
"q	c #D95E4B",
"r	c #B82014",
"s	c #A00800",
"t	c #F09778",
"u	c #FF763F",
"v	c #FF6934",
"w	c #FF5A28",
"x	c #FF4D1D",
"y	c #C31A07",
"z	c #700600",
"A	c #FF531A",
"B	c #FF440E",
"C	c #FF3704",
"D	c #FF3200",
"E	c #C83F2C",
"F	c #CF2508",
"G	c #CF1E03",
"H	c #CF1B00",
"I	c #CF1A00",
"J	c #B50E00",
"                ",
"                ",
"                ",
"         .+@#$%&",
"         .*=-;>,",
"        ')!~{]^/",
"(_:<[}| '.123445",
"67890a| '       ",
"6bcdefg''       ",
"(hijkl| '.mnopqr",
"        'stuvwxy",
"        'z!ABCD/",
"         .EFGHIJ",
"                ",
"                ",
"                "};
