#define imported.xbm_width 16
#define imported.xbm_height 16
static unsigned char imported.xbm_bits[] = {
   0x00, 0x00, 0x00, 0x00, 0xfc, 0x3f, 0x04, 0x20, 0x04, 0x20, 0x04, 0x20,
   0x04, 0x20, 0x04, 0x20, 0x04, 0x20, 0x04, 0x20, 0x04, 0x20, 0x04, 0x20,
   0x04, 0x20, 0xfc, 0x3f, 0x00, 0x00, 0x00, 0x00};
