#define incomplete.xbm_width 16
#define incomplete.xbm_height 16
static unsigned char incomplete.xbm_bits[] = {
   (char)0x00, (char)0x00, (char)0x80, (char)0x01, (char)0xc0, (char)0x03, (char)0xc0, (char)0x03, (char)0xe0, (char)0x07, (char)0xf0, (char)0x0f,
   (char)0xf0, (char)0x0f, (char)0xf8, (char)0x1f, (char)0xf0, (char)0x0f, (char)0xf0, (char)0x0f, (char)0xe0, (char)0x07, (char)0xe0, (char)0x07,
   (char)0xc0, (char)0x03, (char)0xc0, (char)0x03, (char)0x80, (char)0x01, (char)0x00, (char)0x00};
