/* XPM */
static char * info_xpm[] = {
"22 22 177 2",
"  	c None",
". 	c #235AB8",
"+ 	c #2157B5",
"@ 	c #2053B2",
"# 	c #1E4FAF",
"$ 	c #1D4BAC",
"% 	c #1B47A9",
"& 	c #1A43A6",
"* 	c #183FA2",
"= 	c #245FBB",
"- 	c #235CB9",
"; 	c #1B61C4",
"> 	c #106DD9",
", 	c #4696EB",
"' 	c #4695EB",
") 	c #4594EA",
"! 	c #4593E9",
"~ 	c #1C6AD1",
"{ 	c #134AB2",
"] 	c #15379D",
"^ 	c #14339A",
"/ 	c #2560BC",
"( 	c #1D64C7",
"_ 	c #4396ED",
": 	c #A2D3FF",
"< 	c #EEF7FF",
"[ 	c #B1DAFF",
"} 	c #4E94E6",
"| 	c #0F40AB",
"1 	c #112C94",
"2 	c #2561BD",
"3 	c #166DD4",
"4 	c #7BBCFB",
"5 	c #DAEDFF",
"6 	c #DDEFFF",
"7 	c #F7FBFF",
"8 	c #FFFFFF",
"9 	c #E4ECF7",
"0 	c #CEE2F7",
"a 	c #A3CDF8",
"b 	c #1752BA",
"c 	c #0E258E",
"d 	c #176DD4",
"e 	c #7ABFFF",
"f 	c #C6E3FF",
"g 	c #E2F1FF",
"h 	c #6D84B6",
"i 	c #A0D1FF",
"j 	c #144CB7",
"k 	c #0B1D88",
"l 	c #1D66C7",
"m 	c #64B1FB",
"n 	c #B0D9FF",
"o 	c #D2E9FF",
"p 	c #3A5495",
"q 	c #8FC2F8",
"r 	c #082E9C",
"s 	c #081683",
"t 	c #245EBB",
"u 	c #2E8DEE",
"v 	c #9ACEFF",
"w 	c #CAE5FF",
"x 	c #C3CBDF",
"y 	c #596FA6",
"z 	c #527CBE",
"A 	c #3B84E0",
"B 	c #071280",
"C 	c #245EBA",
"D 	c #1C63C6",
"E 	c #59AFFF",
"F 	c #83C2FF",
"G 	c #64B4FF",
"H 	c #339EFF",
"I 	c #052595",
"J 	c #040B7B",
"K 	c #235BB8",
"L 	c #116FDB",
"M 	c #6BB7FF",
"N 	c #C0E0FF",
"O 	c #DCEEFF",
"P 	c #6F96CE",
"Q 	c #2B9AFF",
"R 	c #0789FF",
"S 	c #0086FF",
"T 	c #0248BC",
"U 	c #030778",
"V 	c #2258B6",
"W 	c #1D83EC",
"X 	c #53ACFF",
"Y 	c #72BAFF",
"Z 	c #BFD4EF",
"` 	c #49619C",
" .	c #45A5FF",
"..	c #1790FF",
"+.	c #0166DD",
"@.	c #010475",
"#.	c #2054B3",
"$.	c #167FEC",
"%.	c #3BA0FF",
"&.	c #485C8F",
"*.	c #0065DC",
"=.	c #000173",
"-.	c #1F51B0",
";.	c #107CEB",
">.	c #2294FF",
",.	c #475780",
"'.	c #000072",
").	c #1E4DAE",
"!.	c #0977EA",
"~.	c #0988FF",
"{.	c #455171",
"].	c #0084FF",
"^.	c #0063DC",
"/.	c #1C4AAB",
"(.	c #0E64D4",
"_.	c #0183FF",
":.	c #0082FF",
"<.	c #434C63",
"[.	c #0041B9",
"}.	c #1B46A8",
"|.	c #154EB6",
"1.	c #007FFF",
"2.	c #424754",
"3.	c #00188C",
"4.	c #183FA3",
"5.	c #0D71E7",
"6.	c #0B83FF",
"7.	c #414349",
"8.	c #0762DC",
"9.	c #173BA0",
"0.	c #1547AF",
"a.	c #1985F9",
"b.	c #1A8BFF",
"c.	c #52A8FF",
"d.	c #B6DAFF",
"e.	c #D0D0D2",
"f.	c #6EB6FF",
"g.	c #1882F6",
"h.	c #041A8C",
"i.	c #14349A",
"j.	c #1A55BE",
"k.	c #2993FF",
"l.	c #60AFFF",
"m.	c #889DBD",
"n.	c #838BA0",
"o.	c #828999",
"p.	c #828794",
"q.	c #636A7D",
"r.	c #2073CC",
"s.	c #0E37A7",
"t.	c #112D94",
"u.	c #1E53BA",
"v.	c #3693F8",
"w.	c #399BFF",
"x.	c #3591F6",
"y.	c #1439A7",
"z.	c #0E258F",
"A.	c #1739A1",
"B.	c #3880E1",
"C.	c #48A2FF",
"D.	c #3579DC",
"E.	c #0D1E8C",
"F.	c #0B1E89",
"G.	c #0A1A86",
"H.	c #16319A",
"I.	c #2D5CBF",
"J.	c #4182DE",
"K.	c #4181DD",
"L.	c #4080DD",
"M.	c #407FDC",
"N.	c #2A54B9",
"O.	c #0F1F8C",
"P.	c #071380",
"Q.	c #050E7D",
"R.	c #040A7A",
"S.	c #020677",
"T.	c #010274",
"              . + @ # $ % & *               ",
"          = - ; > , ' ) ! ~ { ] ^           ",
"        / ( _ : < < < < < < [ } | 1         ",
"      2 3 4 5 5 6 7 8 9 0 5 5 5 a b c       ",
"    2 d e f f f g 8 8 8 h f f f f i j k     ",
"  2 l m n n n n o 8 8 8 p n n n n n q r s   ",
"  t u v v v v v v w x y z v v v v v v A B   ",
"C D E F F F F F F F F F F F F F F F G H I J ",
"K L M M M M M N O O < 8 P M M E Q R S S T U ",
"V W X X X X X Y Z 8 8 8 `  ...S S S S S +.@.",
"#.$.%.%.%.%.%.%.%.8 8 8 &.S S S S S S S *.=.",
"-.;.>.>.>.>.>.>.>.8 8 8 ,.S S S S S S S *.'.",
").!.~.~.~.~.~.~.~.8 8 8 {.].].].].].].].^.'.",
"/.(._._._._._.:.:.8 8 8 <.:.:.:.:.:.:.:.[.'.",
"}.|.1.1.1.1.1.1.1.8 8 8 2.1.1.1.1.1.1.1.3.'.",
"  4.5.6.6.6.6.6.6.8 8 8 7.6.6.6.6.6.6.8.'.  ",
"  9.0.a.b.b.b.c.d.8 8 8 e.f.b.b.b.b.g.h.'.  ",
"    i.j.k.k.k.l.m.n.o.p.p.q.r.k.k.k.s.'.    ",
"      t.u.v.w.w.w.w.w.w.w.w.w.w.x.y.'.      ",
"        z.A.B.C.C.C.C.C.C.C.C.D.E.'.        ",
"          F.G.H.I.J.K.L.M.N.O.'.'.          ",
"              P.Q.R.S.T.'.'.'.              "};
