/* XPM */
static char * jback_xpm[] = {
/* width height ncolors cpp [x_hot y_hot] */
"24 24 12 1 0 0",
/* colors */
" 	c #BFBFBF",
".	s iconColor1	m black	c black",
"X	c #D1D1D1",
"o	c #B3B3B3",
"O	c #858585",
"+	c #282828",
"@	s iconColor2	m white	c white",
"#	s iconGray4	m white	c #949494",
"$	c #C2C2C2",
"%	c #A3A3A3",
"&	c #E1E1E1",
"*	c #E5E5E5",
/* pixels */
"                        ",
"                        ",
"              .         ",
"             .X.        ",
"            .X o.       ",
"           .X oOo+      ",
"          .X oOo+@@     ",
"         .X oOo+@@      ",
"        .X oOo+@@       ",
"       .X oOo+@@        ",
"      .X oOo+@@         ",
"     .X oOo+@@          ",
"      .oO # .           ",
"       . #$#$.          ",
"        .$#X#X.         ",
"         .X#X%X.        ",
"          .X%X%&.       ",
"           .&%&o*+      ",
"            .&o*+@@     ",
"             .*+@@      ",
"              +@@       ",
"               @        ",
"                        ",
"                        "};
