/* XPM */
static char * jproperties_xpm[] = {
/* width height ncolors cpp [x_hot y_hot] */
"24 24 11 1 0 0",
/* colors */
" 	c #BFBFBF",
".	c #000000",
"X	s iconColor1	m black	c black",
"o	s iconColor2	m white	c white",
"O	c #F0F0F0",
"+	c #A3A3A3",
"@	s iconGray4	m white	c #949494",
"#	c #B3B3B3",
"$	c #C2C2C2",
"%	c #D1D1D1",
"&	c #E1E1E1",
/* pixels */
"                        ",
"                        ",
"     .X.X.X.X.X.X       ",
"     XoOoOoOoOoX.O      ",
"     .O+@++#+#XoO.      ",
"     Xo@++#+##.$oXo     ",
"     .O++#+## #.$oX     ",
"     Xo+#+## #$ .$.O    ",
"     .O#+ # #$ %$.$.    ",
"     Xo+ # #$ %$%%.Xo   ",
"     .O #$#$ %$%%&%.O   ",
"     Xo#$#%$%$%%&%%Xo   ",
"     .O$ %$%$%%&%%$.O   ",
"     Xo %$%$%%&%%$%Xo   ",
"     .O%$%%&%&%%$% .O   ",
"     Xo$%%&%&%%$%#$Xo   ",
"     .O%%&%%$%$$# #.  X ",
"     Xo%&%%$% $      X.O",
"     .O&%%$% $# X.  X.O ",
"     Xo%%$% $#  .XoX.O  ",
"     .#.X.X.X.X X.X.O   ",
"      oOoOoOoOo .X.O    ",
"                X.O     ",
"                 O      "};
