/* XPM */
static char * jstopi_xpm[] = {
/* width height ncolors cpp [x_hot y_hot] */
"24 24 9 1 0 0",
/* colors */
" 	c #BFBFBF",
".	c #000000",
"X	s iconColor1	m black	c black",
"o	c #F0F0F0",
"O	c #CE9C94",
"+	c #CEBDAD",
"@	c #AD9C84",
"#	c #CE0000",
"$	s iconColor2	m white	c white",
/* pixels */
"                        ",
"       .X.X.X.X.o       ",
"      .OOOOOOOOO.o      ",
"     .O+@@@@@@@@#.o     ",
"    .O+@ # # # @@#.o    ",
"   .O+@ # # # # @@#.o   ",
"  .O+@ # # # # # @@#.o  ",
" .O+@ # # # # # # @@#.o ",
" XO@ # # # # # # # @ X$ ",
" .O@# # # # # # # #@#.o ",
" XO@ # # # # # # # @ X$ ",
" .O@# # # # # # # #@#.o ",
" XO@ # # # # # # # @ X$ ",
" .O@# # # # # # # #@#.o ",
" XO@ # # # # # # # @ X$ ",
" .O@@ # # # # # # @@#.o ",
" o.#@@ # # # # # @@#.o  ",
"  o.#@@ # # # # @@#.o   ",
"   o.#@@ # # # @@#.o    ",
"    o.#@@@@@@@@@#.o     ",
"     o.# # # # #.o      ",
"      o.X.X.X.X.o       ",
"       o$o$o$o$o        ",
"                        "};
