/* XPM */
static char *noname[] = {
/* width height ncolors chars_per_pixel */
"48 48 34 2",
/* colors */
"`` c #000000",
"`a c #A3A3A3",
"`b c #666666",
"`c c #858585",
"`d c #757575",
"`e c #282828",
"`f c #AD9C84",
"`g c #CE9C94",
"`h c #29AD29",
"`i c #515151",
"`j c #F0F0F0",
"`k c #3D3D3D",
"`l c #CEBDAD",
"`m c #294239",
"`n c #D67B73",
"`o c #C2C2C2",
"`p c #CEAD9C",
"`q c #949494",
"`r c #4A4A52",
"`s c #5ABD8C",
"`t c #CE6363",
"`u c #29D629",
"`v c #666666",
"`w c #6B737B",
"`x c #FFFFFF",
"`y c #523131",
"`z c #EFE7AD",
"a` c #636373",
"aa c #9C3931",
"ab c #E1E1E1",
"ac c #282828",
"ad c #D1D1D1",
"ae c #000000",
"af c #B3B3B3",
/* pixels */
"````````````````````````````````````````````````````````````````````````````````````````````````",
"```x`x`x`x`x`x`x`x`x`x`x`x`x`x`x`x`x`x`x`x`x`x`x`x`x`x`x`x`x`x`x`x`x`x`x`x`x`x`x`x`x`x`x`x`x`x``",
"```x`x`x`x`x`x`x`x`x`x`x`x`x`x`x`x`x`x`x`x`x`x`x`x`x`x`x`x`x`x`x`x`x`x`x`x`x`x`x`x`x`x`x`x`x`x``",
"```x`x`x`x`x`x`x`x`x`x`x`x`x`x`x`x`x`x`x`x`x`x`x`x`x`x`x`x`x`x`x`x`x`x`x`x`x`x`x`x`x`x`x`x`x`x``",
"```x`x`x`x`x`x`x`x`x`x`x`x`x`x`x`x`x`x`x`x`x`x`x`x`x`x`x`x`x`x`x`x`x`x`x`x`x`x`x`x`x`x`x`x`x`x``",
"```x`x`x`x`x`x`x`x`x`x`x`x`x`x`x`x`x`x`x`x`x`x`x`x`x`x`x`x`x`x`x`x`x`x`x`x`x`x`x`x`x`x`x`x`x`x``",
"```x`x`x`x`x`x`x`x`x`x`x`x`x`x`x`x`x`x`x`x`x`x`x`x`x`x`x`x`x`x`x`x`x`x`x`x`x`x`x`x`x`x`x`x`x`x``",
"```x`x`x`x`x`x`x`x`x`x`x`xab`o`o`o`oad`j`x`x`x`x`x`x`x`x`x`x`x`x`x`x`x`x`x`x`x`x`x`x`x`x`x`x`x``",
"```x`x`x`x`x`x`x`x`x`x`xaf`a`a`aaf`o`o`oad`x`x`x`x`x`x`x`x`x`x`x`x`x`x`x`x`x`x`x`x`x`x`x`x`x`x``",
"```x`x`x`x`x`x`x`x`x`xaf`q`aafafafafafaf`o`o`j`xaf`q`a`c`v`d`v`d`d`d`v`o`x`x`x`x`x`x`x`x`x`x`x``",
"```x`x`x`x`x`x`x`x`xad`c`q`a`a`aafababadafafad`x`a``````````aeae``````ad`x`x`x`x`x`x`x`x`x`x`x``",
"```x`x`x`x`x`x`x`x`j`c`d`c`q`q`a`j`x`x`x`x`x`x`x`x`oae`````m`h`u`h```d`x`x`x`x`x`x`x`x`x`x`x`x``",
"```x`x`x`x`x`x`x`x`o`v`d`c`c`dad`x`x`x`x`x`x`x`x`x`x`q`````h`u`s`hae`c`x`x`x`x`x`x`x`x`x`x`x`x``",
"```x`x`x`x`x`x`x`x`a`b`d`d`c`v`o`x`x`x`x`x`x`x`x`x`x`x`c```m`u`s`h`eac`i`o`x`x`x`x`x`x`x`x`x`x``",
"```x`x`x`x`x`x`x`j`d`b`v`v`v`c`j`x`x`x`x`x`x`x`x`x`x`x`x`dae`m`haeac`k`k`k`c`j`x`x`x`x`x`x`x`x``",
"```x`x`x`x`x`x`x`j`v`r`b`b`dab`x`x`x`x`x`x`x`x`x`x`x`x`x`x`i`````e`w`k`i`i`i`d`j`x`x`x`x`x`x`x``",
"```x`x`x`x`x`x`x`j`i`k`i`r`o`x`x`x`x`x`x`x`x`x`x`x`x`x`x`x`j`r``afab`i`b`b`v`v`c`x`x`x`x`x`x`x``",
"```x`x`x`x`x`x`x`j`k`k`k`c`x`x`x`x`x`x`x`x`x`x`x`x`x`x`x`x`xab`iab`x`q`b`v`w`d`vaf`x`x`x`x`x`x``",
"```x`x`x`x`x`x`x`j`iac`k`caf`cab`x`x`x`x`x`x`x`x`x`x`x`x`x`x`x`x`x`xab`v`d`d`c`c`c`j`x`x`x`x`x``",
"```x`x`x`x`x`v`kacac`y`yae``acab`x`x`x`x`x`x`x`x`x`x`x`x`x`x`x`x`x`x`x`c`d`c`c`q`c`o`x`x`x`x`x``",
"```x`x`x`x`x`v``aeaa`n`t`r```v`x`x`x`x`x`x`x`x`x`x`x`x`x`x`x`x`x`x`x`x`o`c`c`a`a`qaf`x`x`x`x`x``",
"```x`x`x`x`xabaeae`t`g`na`aeaf`x`x`x`x`x`x`x`x`x`x`x`x`x`x`x`x`x`x`x`x`xab`a`a`a`aaf`x`x`x`x`x``",
"```x`x`x`x`x`x`q``a``t`t`y`e`j`x`x`x`x`x`x`x`x`x`x`x`x`x`x`x`x`x`x`x`x`x`xad`aaf`a`o`x`x`x`x`x``",
"```x`x`x`x`x`x`x`eae`y`eaea``x`x`x`x`x`x`x`x`x`x`x`x`x`x`x`x`x`x`x`x`x`x`x`j`q`oafad`x`x`x`x`x``",
"```x`x`x`x`x`x`x`o````ae``af`x`x`x`x`x`x`x`x`x`x`x`x`x`x`x`x`x`x`x`x`x`x`xadaf`oaf`j`x`x`x`x`x``",
"```x`x`x`x`x`x`x`x`v````acab`x`x`x`x`x`x`x`x`x`x`x`x`x`x`x`x`x`x`x`x`x`xabafadafab`x`x`x`x`x`x``",
"```x`x`x`x`x`x`x`xadae```v`x`x`x`x`x`x`x`x`x`x`x`x`x`x`x`x`x`x`x`x`x`xad`o`o`oab`x`x`x`x`x`x`x``",
"```x`x`x`x`x`x`x`x`x`c```a`x`x`x`x`x`x`x`x`x`x`x`x`x`x`x`x`x`x`x`x`x`x`a`o`o`j`x`x`x`x`x`x`x`x``",
"```x`x`x`x`x`x`x`x`x`j`iab`x`x`x`x`x`x`x`x`x`x`x`x`x`x`x`x`x`x`x`x`x`x`o`j`x`x`x`x`x`x`x`x`x`x``",
"```x`x`x`x`x`x`x`x`x`x`j`x`j`x`x`x`x`x`x`x`x`x`x`x`x`x`x`x`x`x`x`x`x`j`x`x`x`x`x`x`x`x`x`x`x`x``",
"```x`x`x`x`x`x`x`x`x`x`x`x`aab`x`x`x`x`x`x`x`x`x`x`x`x`x`x`jab`o`c`i`rab`x`x`x`x`x`x`x`x`x`x`x``",
"```x`x`x`x`x`x`x`x`x`x`xab`o`o`j`x`x`x`x`x`x`x`x`x`j`o`c`v`kae```````c`x`x`x`x`x`x`x`x`x`x`x`x``",
"```x`x`x`x`x`x`x`x`x`x`xab`o`o`j`x`x`x`x`x`x`x`x`daeae```k`kae`````k`j`x`x`x`x`x`x`x`x`x`x`x`x``",
"```x`x`x`x`x`x`x`x`x`x`xabad`oab`x`x`x`x`x`x`x`xadae```b`l`l`bae```a`x`x`x`x`x`x`x`x`x`x`x`x`x``",
"```x`x`x`x`x`x`x`x`x`x`x`j`o`oaf`j`x`xadafad`j`x`x`c```f`z`z`fae`r`x`x`x`x`x`x`x`x`x`x`x`x`x`x``",
"```x`x`x`x`x`x`x`x`x`x`x`xaf`oaf`aaf`a`c`d`d`b`i`r`kac`b`p`p`bae`o`x`x`x`x`x`x`x`x`x`x`x`x`x`x``",
"```x`x`x`x`x`x`x`x`x`x`x`xadaf`oaf`a`q`c`c`d`v`i`r`kacae`k`bae`b`x`x`x`x`x`x`x`x`x`x`x`x`x`x`x``",
"```x`x`x`x`x`x`x`x`x`x`x`x`jafafaf`a`q`c`d`d`v`b`r`e`r`dae``aead`x`x`x`x`x`x`x`x`x`x`x`x`x`x`x``",
"```x`x`x`x`x`x`x`x`x`x`x`x`xabaf`a`a`a`c`c`d`v`k`r`dab`x`d```c`x`x`x`x`x`x`x`x`x`x`x`x`x`x`x`x``",
"```x`x`x`x`x`x`x`x`x`x`x`x`x`x`j`o`q`d`d`v`v`d`aad`x`x`x`j`v`j`x`x`x`x`x`x`x`x`x`x`x`x`x`x`x`x``",
"```x`x`x`x`x`x`x`x`x`x`x`x`x`x`x`x`j`jabab`j`j`x`x`x`x`x`x`x`x`x`x`x`x`x`x`x`x`x`x`x`x`x`x`x`x``",
"```x`x`x`x`x`x`x`x`x`x`x`x`x`x`x`x`x`x`x`x`x`x`x`x`x`x`x`x`x`x`x`x`x`x`x`x`x`x`x`x`x`x`x`x`x`x``",
"```x`x`x`x`x`x`x`x`x`x`x`x`x`x`x`x`x`x`x`x`x`x`x`x`x`x`x`x`x`x`x`x`x`x`x`x`x`x`x`x`x`x`x`x`x`x``",
"```x`x`x`x`x`x`x`x`x`x`x`x`x`x`x`x`x`x`x`x`x`x`x`x`x`x`x`x`x`x`x`x`x`x`x`x`x`x`x`x`x`x`x`x`x`x``",
"```x`x`x`x`x`x`x`x`x`x`x`x`x`x`x`x`x`x`x`x`x`x`x`x`x`x`x`x`x`x`x`x`x`x`x`x`x`x`x`x`x`x`x`x`x`x``",
"```x`x`x`x`x`x`x`x`x`x`x`x`x`x`x`x`x`x`x`x`x`x`x`x`x`x`x`x`x`x`x`x`x`x`x`x`x`x`x`x`x`x`x`x`j`x``",
"```x`x`x`x`x`x`x`x`x`x`x`x`x`x`x`x`x`x`x`x`x`x`x`x`x`x`x`x`x`x`x`x`x`x`x`x`x`x`x`x`x`x`x`x`x`x``",
"````````````````````````````````````````````````````````````````````````````````````````````````"
};
