/* XPM */
static char *noname[] = {
/* width height ncolors chars_per_pixel */
"64 64 36 2",
/* colors */
"`` c #000000",
"`a c #4A5A84",
"`b c #A3A3A3",
"`c c #395273",
"`d c #666666",
"`e c #858585",
"`f c #757575",
"`g c #282828",
"`h c #AD9C84",
"`i c #CE9C94",
"`j c #29AD29",
"`k c #515151",
"`l c #F0F0F0",
"`m c #3D3D3D",
"`n c #CEBDAD",
"`o c #294239",
"`p c #D67B73",
"`q c #C2C2C2",
"`r c #CEAD9C",
"`s c #949494",
"`t c #4A4A52",
"`u c #5ABD8C",
"`v c #CE6363",
"`w c #29D629",
"`x c #666666",
"`y c #FFFFFF",
"`z c #523131",
"a` c #EFE7AD",
"aa c #636373",
"ab c #9C3931",
"ac c #E1E1E1",
"ad c #282828",
"ae c #D1D1D1",
"af c #000000",
"ag c #B3B3B3",
"ah c #B59C94",
/* pixels */
"````````````````````````````````````````````````````````````````````````````````````````````````````````````````````````````````",
"```y`y`y`y`y`y`y`y`y`y`y`y`y`y`y`y`y`y`y`y`y`y`y`y`y`y`y`y`y`y`y`y`y`y`y`y`y`y`y`y`y`y`y`y`y`y`y`y`y`y`y`y`y`y`y`y`y`y`y`y`y`y``",
"```y`y`y`y`y`y`y`y`y`y`y`y`y`y`y`y`y`y`y`y`y`y`y`y`y`y`y`y`y`y`y`y`y`y`y`y`y`y`y`y`y`y`y`y`y`y`y`y`y`y`y`y`y`y`y`y`y`y`y`y`y`y``",
"```y`y`y`y`y`y`y`y`y`y`y`y`y`y`y`y`y`y`y`y`y`y`y`y`y`y`y`y`y`y`y`y`y`y`y`y`y`y`y`y`y`y`y`y`y`y`y`y`y`y`y`y`y`y`y`y`y`y`y`y`y`y``",
"```y`y`y`y`y`y`y`y`y`y`y`y`y`y`y`y`y`y`y`y`y`y`y`y`y`y`y`y`y`y`y`y`y`y`y`y`y`y`y`y`y`y`y`y`y`y`y`y`y`y`y`y`y`y`y`y`y`y`y`y`y`y``",
"```y`y`y`y`y`y`y`y`y`y`y`y`y`y`y`y`y`y`y`y`y`y`y`y`y`y`y`y`y`y`y`y`y`y`y`y`y`y`y`y`y`y`y`y`y`y`y`y`y`y`y`y`y`y`y`y`y`y`y`y`y`y``",
"```y`y`y`y`y`y`y`y`y`y`y`y`y`y`y`y`y`y`y`y`y`y`y`y`y`y`y`y`y`y`y`y`y`y`y`y`y`y`y`y`y`y`y`y`y`y`y`y`y`y`y`y`y`y`y`y`y`y`y`y`y`y``",
"```y`y`y`y`y`y`y`y`y`y`y`y`y`y`y`y`y`y`y`y`y`y`y`y`y`y`y`y`y`y`y`y`y`y`y`y`y`y`y`y`y`y`y`y`y`y`y`y`y`y`y`y`y`y`y`y`y`y`y`y`y`y``",
"```y`y`y`y`y`y`y`y`y`y`y`y`y`y`y`y`y`y`y`y`y`y`y`y`y`y`y`y`y`y`y`y`y`y`y`y`y`y`y`y`y`y`y`y`y`y`y`y`y`y`y`y`y`y`y`y`y`y`y`y`y`y``",
"```y`y`y`y`y`y`y`y`y`y`y`y`y`y`y`yag`b`e`s`s`bagag`l`y`y`y`y`y`y`y`y`y`y`y`y`y`y`y`y`y`y`y`y`y`y`y`y`y`y`y`y`y`y`y`y`y`y`y`y`y``",
"```y`y`y`y`y`y`y`y`y`y`y`y`y`yac`eagag`q`q`q`q`qaeagag`y`y`y`y`y`y`y`y`y`y`y`y`y`y`y`y`y`y`y`y`y`y`y`y`y`y`y`y`y`y`y`y`y`y`y`y``",
"```y`y`y`y`y`y`y`y`y`y`y`y`yac`e`bag`bagagag`q`q`qaeae`bac`y`y`y`y`y`y`yac`q`q`q`q`q`q`q`q`q`qae`y`y`y`y`y`y`y`y`y`y`y`y`y`y`y``",
"```y`y`y`y`y`y`y`y`y`y`y`y`l`e`b`b`b`bagag`b`eagag`e`qaeag`q`y`y`k`````````````````````````````b`y`y`y`y`y`y`y`y`y`y`y`y`y`y`y``",
"```y`y`y`y`y`y`y`y`y`y`y`y`b`e`e`s`b`b`b`b`q`y`y`y`yag`bagae`y`y`l`m````````````ad`o`oaf````af`l`y`y`y`y`y`y`y`y`y`y`y`y`y`y`y``",
"```y`y`y`y`y`y`y`y`y`y`yac`x`e`e`e`s`s`bag`y`y`y`y`y`y`y`y`y`y`y`y`lad`````````o`j`w`j`jaf```e`y`y`y`y`y`y`y`y`y`y`y`y`y`y`y`y``",
"```y`y`y`y`y`y`y`y`y`y`y`e`f`f`e`e`e`e`f`l`y`y`y`y`y`y`y`y`y`y`y`y`yacaf````af`j`j`u`w`j`o```l`y`y`y`y`y`y`y`y`y`y`y`y`y`y`y`y``",
"```y`y`y`y`y`y`y`y`y`y`y`d`f`f`f`e`e`e`e`y`y`y`y`y`y`y`y`y`y`y`y`y`y`yaeaf``af`j`w`u`w`u`oaf`fac`y`y`y`y`y`y`y`y`y`y`y`y`y`y`y``",
"```y`y`y`y`y`y`y`y`y`yae`d`x`x`f`f`f`e`x`y`y`y`y`y`y`y`y`y`y`y`y`y`y`y`y`q`````o`w`u`w`jadad`g`g`e`l`y`y`y`y`y`y`y`y`y`y`y`y`y``",
"```y`y`y`y`y`y`y`y`y`y`b`d`d`x`x`f`f`fag`y`y`y`y`y`y`y`y`y`y`y`y`y`y`y`y`y`b``ad`j`j`c`oaf`o`m`m`m`m`q`y`y`y`y`y`y`y`y`y`y`y`y``",
"```y`y`y`y`y`y`y`y`y`y`s`k`d`d`x`x`x`b`y`y`y`y`y`y`y`y`y`y`y`y`y`y`y`y`y`y`y`b````afafaf`o`m`m`t`t`k`t`s`y`y`y`y`y`y`y`y`y`y`y``",
"```y`y`y`y`y`y`y`y`y`y`f`t`t`k`d`d`f`y`y`y`y`y`y`y`y`y`y`y`y`y`y`y`y`y`y`y`y`y`x```````m`q`m`t`k`k`d`d`x`e`y`y`y`y`y`y`y`y`y`y``",
"```y`y`y`y`y`y`y`y`y`y`x`m`t`t`k`k`l`y`y`y`y`y`y`y`y`y`y`y`y`y`y`y`y`y`y`y`y`y`y`x````ag`y`e`k`d`d`d`x`x`x`b`y`y`y`y`y`y`y`y`y``",
"```y`y`y`y`y`y`y`y`y`y`d`m`m`m`t`b`y`y`y`y`y`y`y`y`y`y`y`y`y`y`y`y`y`y`y`y`y`y`y`y`maf`y`y`l`k`d`x`x`x`f`f`xac`y`y`y`y`y`y`y`y``",
"```y`y`y`y`y`y`y`y`y`y`k`m`m`m`t`y`y`y`y`y`y`y`y`y`y`y`y`y`y`y`y`y`y`y`y`y`y`y`y`y`l`q`y`y`y`b`x`x`f`f`f`f`e`e`y`y`y`y`y`y`y`y``",
"```y`y`y`y`y`y`y`y`y`y`eadad`g`x`e`f`x`f`y`y`y`y`y`y`y`y`y`y`y`y`y`y`y`y`y`y`y`y`y`y`y`y`y`yac`x`f`f`f`e`e`e`eae`y`y`y`y`y`y`y``",
"```y`y`y`y`y`y`f`m`madafad`z`zaf```````b`y`y`y`y`y`y`y`y`y`y`y`y`y`y`y`y`y`y`y`y`y`y`y`y`y`y`y`e`f`e`e`e`e`s`s`s`y`y`y`y`y`y`y``",
"```y`y`y`y`y`y`k```````zab`p`v`taf`````l`y`y`y`y`y`y`y`y`y`y`y`y`y`y`y`y`y`y`y`y`y`y`y`y`y`y`yag`e`e`e`s`s`b`b`e`y`y`y`y`y`y`y``",
"```y`y`y`y`y`yacaf``afabah`v`p`v`gaf`k`y`y`y`y`y`y`y`y`y`y`y`y`y`y`y`y`y`y`y`y`y`y`y`y`y`y`y`y`lag`e`s`b`b`b`b`f`y`y`y`y`y`y`y``",
"```y`y`y`y`y`y`y`f``afaa`v`i`v`v`zaf`b`y`y`y`y`y`y`y`y`y`y`y`y`y`y`y`y`y`y`y`y`y`y`y`y`y`y`y`y`y`yac`e`b`b`bag`e`y`y`y`y`y`y`y``",
"```y`y`y`y`y`y`y`yadafab`v`v`i`a`z```l`y`y`y`y`y`y`y`y`y`y`y`y`y`y`y`y`y`y`y`y`y`y`y`y`y`y`y`y`y`y`yag`bagagag`e`y`y`y`y`y`y`y``",
"```y`y`y`y`y`y`y`yag``af`aaaab`zaf`t`y`y`y`y`y`y`y`y`y`y`y`y`y`y`y`y`y`y`y`y`y`y`y`y`y`y`y`y`y`y`y`y`l`eagag`q`s`y`y`y`y`y`y`y``",
"```y`y`y`y`y`y`y`y`y`m``afad`gaf```b`y`y`y`y`y`y`y`y`y`y`y`y`y`y`y`y`y`y`y`y`y`y`y`y`y`y`y`y`y`y`y`y`y`e`q`q`qag`y`y`y`y`y`y`y``",
"```y`y`y`y`y`y`y`y`yac````````````ac`y`y`y`y`y`y`y`y`y`y`y`y`y`y`y`y`y`y`y`y`y`y`y`y`y`y`y`y`y`y`y`y`q`q`q`q`b`l`y`y`y`y`y`y`y``",
"```y`y`y`y`y`y`y`y`y`y`f`````````m`y`y`y`y`y`y`y`y`y`y`y`y`y`y`y`y`y`y`y`y`y`y`y`y`y`y`y`y`y`y`y`y`l`b`q`qagac`y`y`y`y`y`y`y`y``",
"```y`y`y`y`y`y`y`y`y`y`laf```````e`y`y`y`y`y`y`y`y`y`y`y`y`y`y`y`y`y`y`y`y`y`y`y`y`y`y`y`y`y`y`yaeag`qaeag`q`y`y`y`y`y`y`y`y`y``",
"```y`y`y`y`y`y`y`y`y`y`y`b``````ac`y`y`y`y`y`y`y`y`y`y`y`y`y`y`y`y`y`y`y`y`y`y`y`y`y`y`y`y`y`y`qagaeaeagac`y`y`y`y`y`y`y`y`y`y``",
"```y`y`y`y`y`y`y`y`y`y`y`y`m```m`y`y`y`y`y`y`y`y`y`y`y`y`y`y`y`y`y`y`y`y`y`y`y`y`y`y`y`y`y`y`y`baeagag`l`y`y`y`y`y`y`y`y`y`y`y``",
"```y`y`y`y`y`y`y`y`y`y`y`yae```e`y`y`y`y`y`y`y`y`y`y`y`y`y`y`y`y`y`y`y`y`y`y`y`y`y`y`y`y`y`y`y`fag`l`y`y`y`y`y`y`y`y`y`y`y`y`y``",
"```y`y`y`y`y`y`y`y`y`y`y`y`y`fac`y`y`y`y`y`y`y`y`y`y`y`y`y`y`y`y`y`y`y`y`y`y`y`y`y`y`y`y`y`y`y`y`y`y`y`y`y`y`y`y`y`y`y`y`y`y`y``",
"```y`y`y`y`y`y`y`y`y`y`y`y`y`y`y`y`y`y`y`y`y`y`y`y`y`y`y`y`y`y`y`y`y`y`y`y`y`y`y`y`y`y`y`y`y`y`y`y`y`y`y`y`y`y`y`y`y`y`y`y`y`y``",
"```y`y`y`y`y`y`y`y`y`y`y`y`y`y`y`y`f`y`y`y`y`y`y`y`y`y`y`y`y`y`y`y`y`y`y`y`y`y`y`y`y`y`q`e`x`mac`y`y`y`y`y`y`y`y`y`y`y`y`y`y`y``",
"```y`y`y`y`y`y`y`y`y`y`y`y`y`y`yacagag`y`y`y`y`y`y`y`y`y`y`y`y`y`y`y`y`y`y`yae`b`x`m`````````f`y`y`y`y`y`y`y`y`y`y`y`y`y`y`y`y``",
"```y`y`y`y`y`y`y`y`y`y`y`y`y`y`y`qae`q`q`y`y`y`y`y`y`y`y`y`y`y`y`yacag`f`maf``````````````af`l`y`y`y`y`y`y`y`y`y`y`y`y`y`y`y`y``",
"```y`y`y`y`y`y`y`y`y`y`y`y`y`y`y`qaeagac`y`y`y`y`y`y`y`y`y`y`y`y`m``````afad`k`mad`````````b`y`y`y`y`y`y`y`y`y`y`y`y`y`y`y`y`y``",
"```y`y`y`y`y`y`y`y`y`y`y`y`y`y`y`qae`q`q`y`y`y`y`y`y`y`y`y`y`y`yae````af`m`h`r`h`dad`````m`y`y`y`y`y`y`y`y`y`y`y`y`y`y`y`y`y`y``",
"```y`y`y`y`y`y`y`y`y`y`y`y`y`y`y`qaeae`b`y`y`y`y`y`y`y`y`y`y`y`y`y`f``af`e`ra`a``h`maf```q`y`y`y`y`y`y`y`y`y`y`y`y`y`y`y`y`y`y``",
"```y`y`y`y`y`y`y`y`y`y`y`y`y`y`y`l`b`qagag`y`y`y`yae`e`b`q`l`y`y`y`yadaf`h`r`na``h`kaf`k`y`y`y`y`y`y`y`y`y`y`y`y`y`y`y`y`y`y`y``",
"```y`y`y`y`y`y`y`y`y`y`y`y`y`y`y`y`b`q`qag`eag`b`e`e`e`f`f`t`t`m`m`madaf`d`ha``h`h`o``ac`y`y`y`y`y`y`y`y`y`y`y`y`y`y`y`y`y`y`y``",
"```y`y`y`y`y`y`y`y`y`y`y`y`y`y`y`yag`q`qagag`b`b`s`e`e`f`f`x`d`k`t`m`madad`d`h`e`oaf`f`y`y`y`y`y`y`y`y`y`y`y`y`y`y`y`y`y`y`y`y``",
"```y`y`y`y`y`y`y`y`y`y`y`y`y`y`y`yacag`qagag`b`b`s`e`e`f`f`x`d`k`t`m`madafafafafafaf`l`y`y`y`y`y`y`y`y`y`y`y`y`y`y`y`y`y`y`y`y``",
"```y`y`y`y`y`y`y`y`y`y`y`y`y`y`y`y`yag`qagag`b`b`s`e`e`f`f`x`d`k`t`m`m`magaf```````s`y`y`y`y`y`y`y`y`y`y`y`y`y`y`y`y`y`y`y`y`y``",
"```y`y`y`y`y`y`y`y`y`y`y`y`y`y`y`y`y`l`bagag`b`b`e`e`e`f`x`x`d`k`t`m`e`l`y`q````ad`y`y`y`y`y`y`y`y`y`y`y`y`y`y`y`y`y`y`y`y`y`y``",
"```y`y`y`y`y`y`y`y`y`y`y`y`y`y`y`y`y`y`lag`s`b`b`s`e`e`f`f`x`d`m`fac`y`y`y`y`f``ag`y`y`y`y`y`y`y`y`y`y`y`y`y`y`y`y`y`y`y`y`y`y``",
"```y`y`y`y`y`y`y`y`y`y`y`y`y`y`y`y`y`y`y`yac`b`e`x`x`x`d`x`fag`l`y`y`y`y`y`y`y`f`y`y`y`y`y`y`y`y`y`y`y`y`y`y`y`y`y`y`y`y`y`y`y``",
"```y`y`y`y`y`y`y`y`y`y`y`y`y`y`y`y`y`y`y`y`y`y`y`y`y`y`y`y`y`y`y`y`y`y`y`y`y`y`y`y`y`y`y`y`y`y`y`y`y`y`y`y`y`y`y`y`y`y`y`y`y`y``",
"```y`y`y`y`y`y`y`y`y`y`y`y`y`y`y`y`y`y`y`y`y`y`y`y`y`y`y`y`y`y`y`y`y`y`y`y`y`y`y`y`y`y`y`y`y`y`y`y`y`y`y`y`y`y`y`y`y`y`y`y`y`y``",
"```y`y`y`y`y`y`y`y`y`y`y`y`y`y`y`y`y`y`y`y`y`y`y`y`y`y`y`y`y`y`y`y`y`y`y`y`y`y`y`y`y`y`y`y`y`y`y`y`y`y`y`y`y`y`y`y`y`y`y`y`y`y``",
"```y`y`y`y`y`y`y`y`y`y`y`y`y`y`y`y`y`y`y`y`y`y`y`y`y`y`y`y`y`y`y`y`y`y`y`y`y`y`y`y`y`y`y`y`y`y`y`y`y`y`y`y`y`y`y`y`y`y`y`y`y`y``",
"```y`y`y`y`y`y`y`y`y`y`y`y`y`y`y`y`y`y`y`y`y`y`y`y`y`y`y`y`y`y`y`y`y`y`y`y`y`y`y`y`y`y`y`y`y`y`y`y`y`y`y`y`y`y`y`y`y`y`y`y`y`y``",
"```y`y`y`y`y`y`y`y`y`y`y`y`y`y`y`y`y`y`y`y`y`y`y`y`y`y`y`y`y`y`y`y`y`y`y`y`y`y`y`y`y`y`y`y`y`y`y`y`y`y`y`y`y`y`y`y`y`y`y`y`y`y``",
"```y`y`y`y`y`y`y`y`y`y`y`y`y`y`y`y`y`y`y`y`y`y`y`y`y`y`y`y`y`y`y`y`y`y`y`y`y`y`y`y`y`y`y`y`y`y`y`y`y`y`y`y`y`y`y`y`y`y`y`y`y`y``",
"```y`y`y`y`y`y`y`y`y`y`y`y`y`y`y`y`y`y`y`y`y`y`y`y`y`y`y`y`y`y`y`y`y`y`y`y`y`y`y`y`y`y`y`y`y`y`y`y`y`y`y`y`y`y`y`y`y`y`y`y`y`y``",
"```y`y`y`y`y`y`y`y`y`y`y`y`y`y`y`y`y`y`y`y`y`y`y`y`y`y`y`y`y`y`y`y`y`y`y`y`y`y`y`y`y`y`y`y`y`y`y`y`y`y`y`y`y`y`y`y`y`y`y`y`y`y``",
"````````````````````````````````````````````````````````````````````````````````````````````````````````````````````````````````"
};
