/* XPM */
static char *noname[] = {
/* width height ncolors chars_per_pixel */
"24 24 14 1",
/* colors */
"` c #000000",
"a c #A3A3A3",
"b c #666666",
"c c #858585",
"d c #515151",
"e c #3D3D3D",
"f c #949494",
"g c #4A4A52",
"h c #666666",
"i c #6B737B",
"j c #282828",
"k c #D1D1D1",
"l c #000000",
"m c #B3B3B3",
/* pixels */
"kkkkkkkkkkkkkkkkkkkkkkkk",
"kkkkkkkkkkkkkkkkkkkkkkkk",
"kkkkkkkkkkkkkkkkkkkkkkkk",
"kkkkkkkkkkkkkkkkkkkkkkkk",
"kkkkkkkkkkkkkkkkkkkkkkkk",
"kkkkkkkkkkkkkkkkkkkkkkkk",
"kkkkkkkkkkkkkkkkkkkkkkkk",
"kkbkkkkkkkkkkkkkkkkkkbkk",
"kkbkkkfakkkkkkkkcakkkbkk",
"kkbkkh`ckkkkkkkkd`ckkbkk",
"kkbke``fkkkkkkkkh``gkbkk",
"kkbl```ljjjjjjjj````jbkk",
"kkbj````lll`ll`l````ebkk",
"kkbkd``ikkkkkkkkd``hkbkk",
"kkbkkc`ckkkkkkkkdlfkkbkk",
"kkbkkkaakkkkkkkkfmkkkbkk",
"kkbkkkkkkkkkkkkkkkkkkbkk",
"kkkkkkkkkkkkkkkkkkkkkkkk",
"kkkkkkkkkkkkkkkkkkkkkkkk",
"kkkkkkkkkkkkkkkkkkkkkkkk",
"kkkkkkkkkkkkkkkkkkkkkkkk",
"kkkkkkkkkkkkkkkkkkkkkkkk",
"kkkkkkkkkkkkkkkkkkkkkkkk",
"kkkkkkkkkkkkkkkkkkkkkkkk"
};
