/* XPM */
static char *xpmdata[] =
{
/* width height ncolors chars_per_pixel */
"30 30 2 1",
/* colors */
"A c #D1D1D1",
"B c #000000",
/* pixels */
"AAAAAAAAAAAAAAAAAAAAAAAAAAAAAA",
"AAAAAAAAAAAAAAAAAAAAAAAAAAAAAA",
"AAAAAAAAAAAAAAAAAAAAAAAAAAAAAA",
"AAAAAAAAAAAAAAAAAAAAAAAAAAAAAA",
"AAAAAAAAAAAAAAAAAAAAAAAAAAAAAA",
"AAAAAAAAAAAAAAAAAAAAAAAAAAAAAA",
"AAAAAAAAAAAAAAAAAAAAAAAAAAAAAA",
"AAAAAAAAAAAAAAAAAAAAAAAAAAAAAA",
"AAAAAAAAAAAAAAAAAAAAAAAAAAAAAA",
"AAAAAAAAAAAAAAAAAAAAAAAAAAAAAA",
"AAAAAAAAAAAABBBBBAAAAAAAAAAAAA",
"AAAAAAAAAABBABABBBBAAAAAAAAAAA",
"AAAAAAAAABBAAAABABBBAAAAAAAAAA",
"AAAAAAAAABAAABABABABAAAAAAAAAA",
"AABBBBBBBAAABAABABBBBBBBBBBAAA",
"AABBBBBBBBABAABABABBBBBBBBBAAA",
"AABBBBBBBBABABABABBABBBBBBBAAA",
"AAAAAAAABABABABABBBBBAAAAAAAAA",
"AAAAAAAAABBBABBBBBBBAAAAAAAAAA",
"AAAAAAAAABBBBBABABBBAAAAAAAAAA",
"AAAAAAAAAABBBABBBBBAAAAAAAAAAA",
"AAAAAAAAAAAABBBBBAAAAAAAAAAAAA",
"AAAAAAAAAAAAAAAAAAAAAAAAAAAAAA",
"AAAAAAAAAAAAAAAAAAAAAAAAAAAAAA",
"AAAAAAAAAAAAAAAAAAAAAAAAAAAAAA",
"AAAAAAAAAAAAAAAAAAAAAAAAAAAAAA",
"AAAAAAAAAAAAAAAAAAAAAAAAAAAAAA",
"AAAAAAAAAAAAAAAAAAAAAAAAAAAAAA",
"AAAAAAAAAAAAAAAAAAAAAAAAAAAAAA",
"AAAAAAAAAAAAAAAAAAAAAAAAAAAAAA",
};
