/* XPM */
static char * lineclear_xpm[] = {
/* width height ncolors cpp [x_hot y_hot] */
"24 24 3 1",
/* colors */
". c #D1D1D1",
"X c #29AD29",
"  c #FF0000",
/* pixels */
" ...................... ",
"  ....................  ",
".  ..................  .",
"..  ................  ..",
"...  ..............  ...",
"....  ............  ....",
".....  ..........  .....",
"......  ........  ......",
".......  ......  .......",
"........  ....  ........",
".........  ..  .........",
"XXX..XXX..    .XXX..XXXX",
"XXX..XXX..X  ..XXX..XXXX",
"..........    ..........",
".........  ..  .........",
"........  ....  ........",
".......  ......  .......",
"......  ........  ......",
".....  ..........  .....",
"....  ............  ....",
"...  ..............  ...",
"..  ................  ..",
".  ..................  .",
"  ....................  "};
