/* XPM */
static char * linear24_xpm[] = {
"24 24 90 1",
" 	c None",
".	c #595959",
"+	c #606060",
"@	c #5D5D5D",
"#	c #525252",
"$	c #616161",
"%	c #7B7B7B",
"&	c #858585",
"*	c #828282",
"=	c #737373",
"-	c #565656",
";	c #975400",
">	c #9B5600",
",	c #9C5700",
"'	c #796751",
")	c #6E6E6E",
"!	c #6F6F6F",
"~	c #797979",
"{	c #8E8E8E",
"]	c #989898",
"^	c #949494",
"/	c #878787",
"(	c #6C6C6C",
"_	c #6D6D6D",
":	c #6B6B6B",
"<	c #77654F",
"[	c #985500",
"}	c #8E4F00",
"|	c #884C00",
"1	c #CC7303",
"2	c #D87C07",
"3	c #DA800A",
"4	c #B29C7D",
"5	c #A8A8A8",
"6	c #AAAAAA",
"7	c #ACACAC",
"8	c #838383",
"9	c #969696",
"0	c #C6C6C6",
"a	c #AFAFAF",
"b	c #757575",
"c	c #9E9E9E",
"d	c #999999",
"e	c #A38B6D",
"f	c #CE7301",
"g	c #CB7201",
"h	c #B66500",
"i	c #7A4400",
"j	c #824900",
"k	c #C36E02",
"l	c #CF7706",
"m	c #D17B09",
"n	c #AB9578",
"o	c #A0A0A0",
"p	c #A2A2A2",
"q	c #A4A4A4",
"r	c #7E7E7E",
"s	c #808080",
"t	c #939393",
"u	c #B2B2B2",
"v	c #A3A3A3",
"w	c #8B8B8B",
"x	c #717171",
"y	c #909090",
"z	c #9D8669",
"A	c #C66F01",
"B	c #C46D01",
"C	c #AF6200",
"D	c #754100",
"E	c #854A00",
"F	c #8A4D00",
"G	c #6C5C48",
"H	c #626262",
"I	c #575757",
"J	c #8F8F8F",
"K	c #8C8C8C",
"L	c #7F7F7F",
"M	c #656565",
"N	c #4E4E4E",
"O	c #6A5A47",
"P	c #874B00",
"Q	c #7F4700",
"R	c #787878",
"S	c #767676",
"T	c #676767",
"U	c #4C4C4C",
"V	c #4B4B4B",
"W	c #515151",
"X	c #4F4F4F",
"Y	c #464646",
"                        ",
"                        ",
"                        ",
"                        ",
"                        ",
"                        ",
"                        ",
"                        ",
"          .+@#          ",
"         $%&*=-         ",
" ;>,'))!+~{]^/(-_(:<[;} ",
"|12345678*90a{bbcd9efghi",
"jklmnopqrstuvw=x]tyzABCD",
" EFFGHHHIx/JKLMN$++OPPQ ",
"         -)RSTU         ",
"          VWXY          ",
"                        ",
"                        ",
"                        ",
"                        ",
"                        ",
"                        ",
"                        ",
"                        "};
