/* XPM */
static char * linear18_xpm[] = {
"18 18 53 1",
" 	c None",
".	c #616161",
"+	c #696969",
"@	c #656565",
"#	c #595959",
"$	c #646464",
"%	c #797979",
"&	c #8C8C8C",
"*	c #888888",
"=	c #707070",
"-	c #9A5601",
";	c #C97204",
">	c #CF7808",
",	c #A69680",
"'	c #9F9F9F",
")	c #A1A1A1",
"!	c #7D7D7D",
"~	c #8A8A8A",
"{	c #B1B1B1",
"]	c #808080",
"^	c #959595",
"/	c #909090",
"(	c #988772",
"_	c #C46E01",
":	c #B96700",
"<	c #8A4D00",
"[	c #935201",
"}	c #BF6C03",
"|	c #C57307",
"1	c #9E8E79",
"2	c #969696",
"3	c #999999",
"4	c #787878",
"5	c #868686",
"6	c #A3A3A3",
"7	c #989898",
"8	c #7C7C7C",
"9	c #6B6B6B",
"0	c #8E8E8E",
"a	c #898989",
"b	c #91816D",
"c	c #BB6901",
"d	c #B16300",
"e	c #844A00",
"f	c #5B5B5B",
"g	c #818181",
"h	c #7E7E7E",
"i	c #676767",
"j	c #515151",
"k	c #545454",
"l	c #5A5A5A",
"m	c #585858",
"n	c #4E4E4E",
"                  ",
"                  ",
"                  ",
"                  ",
"                  ",
"                  ",
"       .+@#       ",
"      $%&*=#      ",
"-;>,')!~{)]=^/(_:<",
"[}|1234567890abcde",
"      f=ghij      ",
"       klmn       ",
"                  ",
"                  ",
"                  ",
"                  ",
"                  ",
"                  "};
