/* XPM */
static char * linear48_xpm[] = {
"48 48 200 2",
"  	c None",
". 	c #4B4B4B",
"+ 	c #515151",
"@ 	c #505050",
"# 	c #4E4E4E",
"$ 	c #464646",
"% 	c #4A4A4A",
"& 	c #595959",
"* 	c #666666",
"= 	c #6D6D6D",
"- 	c #707070",
"; 	c #6E6E6E",
"> 	c #696969",
", 	c #606060",
"' 	c #414141",
") 	c #4D4D4D",
"! 	c #636363",
"~ 	c #727272",
"{ 	c #7B7B7B",
"] 	c #808080",
"^ 	c #828282",
"/ 	c #7C7C7C",
"( 	c #747474",
"_ 	c #585858",
": 	c #424242",
"< 	c #626262",
"[ 	c #757575",
"} 	c #818181",
"| 	c #888888",
"1 	c #8D8D8D",
"2 	c #8E8E8E",
"3 	c #898989",
"4 	c #787878",
"5 	c #555555",
"6 	c #3E3E3E",
"7 	c #784300",
"8 	c #674B29",
"9 	c #545454",
"0 	c #525252",
"a 	c #575757",
"b 	c #8A8A8A",
"c 	c #919191",
"d 	c #969696",
"e 	c #979797",
"f 	c #959595",
"g 	c #8B8B8B",
"h 	c #484848",
"i 	c #4F4F4F",
"j 	c #535353",
"k 	c #654A28",
"l 	c #764200",
"m 	c #764100",
"n 	c #754100",
"o 	c #7B4400",
"p 	c #9C5700",
"q 	c #B66500",
"r 	c #B76600",
"s 	c #B86600",
"t 	c #B86700",
"u 	c #9E743F",
"v 	c #838383",
"w 	c #878787",
"x 	c #9C9C9C",
"y 	c #9F9F9F",
"z 	c #909090",
"A 	c #6A6A6A",
"B 	c #777777",
"C 	c #7F7F7F",
"D 	c #7E7E7E",
"E 	c #9A713D",
"F 	c #B36400",
"G 	c #B36300",
"H 	c #B26300",
"I 	c #B16300",
"J 	c #B06200",
"K 	c #8A4D00",
"L 	c #6F3E00",
"M 	c #663900",
"N 	c #A25A00",
"O 	c #C97000",
"P 	c #D67701",
"Q 	c #D77801",
"R 	c #D87901",
"S 	c #D97A01",
"T 	c #DA7A02",
"U 	c #BB8A4C",
"V 	c #9B9B9B",
"W 	c #9D9D9D",
"X 	c #9E9E9E",
"Y 	c #949494",
"Z 	c #686868",
"` 	c #9A9A9A",
" .	c #AFAFAF",
"..	c #E7E7E7",
"+.	c #C6C6C6",
"@.	c #939393",
"#.	c #999999",
"$.	c #989898",
"%.	c #B48447",
"&.	c #D27500",
"*.	c #D17400",
"=.	c #D07400",
"-.	c #CE7300",
";.	c #CD7200",
">.	c #A65D00",
",.	c #925100",
"'.	c #593200",
").	c #6A3B00",
"!.	c #AA5F00",
"~.	c #D27602",
"{.	c #EB8A10",
"].	c #EF8F15",
"^.	c #F3951A",
"/.	c #F49B20",
"(.	c #F6A327",
"_.	c #E3BB7A",
":.	c #D3D3D3",
"<.	c #D9D9D9",
"[.	c #DEDEDE",
"}.	c #E0E0E0",
"|.	c #E2E2E2",
"1.	c #E3E3E3",
"2.	c #E5E5E5",
"3.	c #CFCFCF",
"4.	c #7D7D7D",
"5.	c #BBBBBB",
"6.	c #FCFCFC",
"7.	c #DADADA",
"8.	c #B5B5B5",
"9.	c #C2C2C2",
"0.	c #B4B4B4",
"a.	c #AEAEAE",
"b.	c #A9A9A9",
"c.	c #A5A5A5",
"d.	c #A1A1A1",
"e.	c #C08F50",
"f.	c #DC7D05",
"g.	c #DA7B04",
"h.	c #D87A03",
"i.	c #D67802",
"j.	c #D47701",
"k.	c #AC6000",
"l.	c #9A5600",
"m.	c #5C3300",
"n.	c #603600",
"o.	c #995500",
"p.	c #C06B00",
"q.	c #CF7300",
"r.	c #CF7400",
"s.	c #B28247",
"t.	c #929292",
"u.	c #656565",
"v.	c #797979",
"w.	c #B0B0B0",
"x.	c #A3A3A3",
"y.	c #6C6C6C",
"z.	c #565656",
"A.	c #858585",
"B.	c #8F8F8F",
"C.	c #AD7F44",
"D.	c #C87000",
"E.	c #C76F00",
"F.	c #C66F00",
"G.	c #C56E00",
"H.	c #A05900",
"I.	c #552F00",
"J.	c #6D3C00",
"K.	c #864B00",
"L.	c #A65C00",
"M.	c #A75D00",
"N.	c #A85D00",
"O.	c #906939",
"P.	c #767676",
"Q.	c #5D5D5D",
"R.	c #737373",
"S.	c #8C6637",
"T.	c #A35B00",
"U.	c #A15A00",
"V.	c #7C4500",
"W.	c #633700",
"X.	c #584023",
"Y.	c #5B5B5B",
"Z.	c #454545",
"`.	c #474747",
" +	c #573F22",
".+	c #653800",
"++	c #643800",
"@+	c #383838",
"#+	c #6F6F6F",
"$+	c #676767",
"%+	c #5C5C5C",
"&+	c #4C4C4C",
"*+	c #3A3A3A",
"=+	c #3F3F3F",
"-+	c #5E5E5E",
";+	c #5F5F5F",
">+	c #444444",
",+	c #393939",
"'+	c #3D3D3D",
")+	c #434343",
"                                                                                                ",
"                                                                                                ",
"                                                                                                ",
"                                                                                                ",
"                                                                                                ",
"                                                                                                ",
"                                                                                                ",
"                                                                                                ",
"                                                                                                ",
"                                                                                                ",
"                                                                                                ",
"                                                                                                ",
"                                                                                                ",
"                                                                                                ",
"                                                                                                ",
"                                                                                                ",
"                                          . + + @ # $                                           ",
"                                      % & * = - ; > , + '                                       ",
"                                    ) ! ~ { ] ^ ] / ( > _ :                                     ",
"                                  % < [ } | 1 2 1 3 ^ 4 > 5 6                                   ",
"      7 7 7 7 7 8 9 5 5 5 5 5 5 0 a - ] b c d e f c g } ( ! h i 9 9 9 j j j j k l l m n n       ",
"  o p q r r s t u } ^ ^ ^ ^ v v { < 4 w c e x y x e z w { A j B } ] ] ] C C D E F G H I J K L   ",
"M N O P Q R S T U V x x W X y y Y Z / b Y `  ...+.V @.b D ; _ 1 #.$.e d d f Y %.&.*.=.-.;.>.,.'.",
").!.~.{.].^./.(._.:.<.[.}.|.1.2.3.> 4.b @.` 5.6.7.V @.b D ; & 8.9.5.0.a.b.c.d.e.f.g.h.i.j.k.l.m.",
"n.o.p.;.;.-.q.r.s.t.t.@.@.@.Y Y b u.v.w c e X w.x.e z w { y.z.A.c c z z B.B.2 C.O D.E.F.G.H.K I.",
"  J.K.L.>.M.M.N.O.P.P.P.P.P.B B - Q.R.} g c f d f c g ^ [ u.# y.[ [ [ ( ( R.R.S.T.T.N N U.V.W.  ",
"      M M M M M X.h h h h h h h $ @ Z 4 ^ 3 1 2 1 3 ^ v.y.Y.: Z.h h h `.`.`.`. +.+.+.+.+++      ",
"                                  : _ A P.4.^ v ^ D B = , . @+                                  ",
"                                    : z.u.; ~ ( R.#+$+%+&+*+                                    ",
"                                      =+. _ -+, ;+Y.0 >+,+                                      ",
"                                          '+: )+: =+*+                                          ",
"                                                                                                ",
"                                                                                                ",
"                                                                                                ",
"                                                                                                ",
"                                                                                                ",
"                                                                                                ",
"                                                                                                ",
"                                                                                                ",
"                                                                                                ",
"                                                                                                ",
"                                                                                                ",
"                                                                                                ",
"                                                                                                ",
"                                                                                                ",
"                                                                                                ",
"                                                                                                ",
"                                                                                                "};
