/* XPM */
static char *lock_x[] = {
"13 14 3 1",
"0 c #000000",
"1 c #E5E5E5",
"2 c #BBC4D1",
"1111000001111",
"1110000000111",
"1100011100011",
"1100111110011",
"1100111110011",
"1100111110011",
"1000000000001",
"1022222222201",
"1022222222201",
"1022222222201",
"1022222222201",
"1022222222201",
"1022222222201",
"1000000000001"};
