/* XPM */
static char *lock[] = {
/* columns rows colors chars-per-pixel */
"16 16 189 2",
"   c #643216",
".  c #64361A",
"X  c #793B12",
"o  c #7B3E12",
"O  c #7B3F13",
"+  c #443D56",
"@  c #453E57",
"#  c #7B4013",
"$  c #7B471A",
"%  c #79481E",
"&  c #7B481C",
"*  c #7B4B1D",
"=  c #5F5158",
"-  c #404269",
";  c #41436A",
":  c #494B70",
">  c #4B4E76",
",  c #535375",
"<  c #545375",
"1  c #545475",
"2  c #555776",
"3  c #575879",
"4  c #595A7A",
"5  c #5B5B7B",
"6  c #5B5C7B",
"7  c #5B5C7C",
"8  c #605F7C",
"9  c #7D604D",
"0  c #505681",
"q  c #616181",
"w  c #626282",
"e  c #646483",
"r  c #656585",
"t  c #666685",
"y  c #676785",
"u  c #676787",
"i  c #6A6B89",
"p  c #6F6F8F",
"a  c #6F7498",
"s  c #7A7A97",
"d  c #7A7A98",
"f  c #7B7B98",
"g  c #843F10",
"h  c #874310",
"j  c #874411",
"k  c #874612",
"l  c #874712",
"z  c #874813",
"x  c #874913",
"c  c #874B13",
"v  c #874B14",
"b  c #844F1D",
"n  c #884210",
"m  c #8B4B15",
"M  c #884D13",
"N  c #8B571E",
"B  c #8B5A29",
"V  c #8C5B29",
"C  c #986938",
"Z  c #A25E15",
"A  c #A26C21",
"S  c #A0733F",
"D  c #BC7A22",
"F  c #816451",
"G  c #A47C4F",
"H  c #C97B1B",
"J  c #FE7A00",
"K  c #FE7D00",
"L  c #BC802A",
"P  c #D78114",
"I  c #D78117",
"U  c #D38019",
"Y  c #DD8413",
"T  c #CE8121",
"R  c #C8892F",
"E  c #C88C2E",
"W  c #C6923A",
"Q  c #C89339",
"!  c #DA992F",
"~  c #DC9A2E",
"^  c #E48510",
"/  c #FE8302",
"(  c #FE8104",
")  c #FE8400",
"_  c #FE8703",
"`  c #FE8605",
"'  c #FE8906",
"]  c #FE8B06",
"[  c #FE8C03",
"{  c #FE8D04",
"}  c #FE8D07",
"|  c #FE8E08",
" . c #FE8F08",
".. c #FE9205",
"X. c #FE9206",
"o. c #FE9707",
"O. c #FE9108",
"+. c #FE9309",
"@. c #FE9709",
"#. c #FE9808",
"$. c #FE990B",
"%. c #FE9A0B",
"&. c #FE9C09",
"*. c #FE9E0C",
"=. c #FEA30A",
"-. c #FEA10D",
";. c #FEA20D",
":. c #FEA30E",
">. c #FEA60E",
",. c #FEA80D",
"<. c #FEAE0C",
"1. c #FEA910",
"2. c #FEAC10",
"3. c #FEAC11",
"4. c #FEAE12",
"5. c #FEB30D",
"6. c #FEB010",
"7. c #FEB013",
"8. c #FEB915",
"9. c #FEBC16",
"0. c #FEBD16",
"q. c #FEBD17",
"w. c #FEBB1C",
"e. c #FEBE1E",
"r. c #CFA04A",
"t. c #D2A24A",
"y. c #D0A14C",
"u. c #D5A64D",
"i. c #FEC91B",
"p. c #FED11C",
"a. c #FED11D",
"s. c #FED11E",
"d. c #FED21D",
"f. c #FED21E",
"g. c #FEC024",
"h. c #FED025",
"j. c #FEDE21",
"k. c #FEE421",
"l. c #FEE423",
"z. c #FEE623",
"x. c #FEE724",
"c. c #FEE22C",
"v. c #FDF035",
"b. c #FEF036",
"n. c #FEF535",
"m. c #FEF536",
"M. c #FDF139",
"N. c #FDF23B",
"B. c #FEF539",
"V. c #FEF040",
"C. c #FEFD65",
"Z. c #8B8B9B",
"A. c #8C8CA2",
"S. c #8D8DA2",
"D. c #9393A9",
"F. c #9898AE",
"G. c #9E9BAB",
"H. c #9B9BB1",
"J. c #9F9FB5",
"K. c #A3A2B1",
"L. c #A7A7B3",
"P. c #ABABB8",
"I. c #B2AEAE",
"U. c #B0B2C4",
"Y. c #B3B3C4",
"T. c #B3B3C5",
"R. c #B8B8C4",
"E. c #B9B9C5",
"W. c #B9BCC0",
"Q. c #B9BCCE",
"!. c #C3BFBF",
"~. c #C0C0CB",
"^. c #C8C8C8",
"/. c #D0D0DB",
"(. c #D1D1DC",
"). c #D3D6DB",
"_. c #D8D8E1",
"`. c #DCDCE3",
"'. c #E7E7E7",
"]. c #EEEEED",
"[. c #F2F2F0",
"{. c #FBFBF9",
"}. c #FCFCF9",
"|. c #FDFDF9",
" X c gray99",
".X c #FDFDFE",
"XX c #FEFEFC",
"oX c gray100",
"OX c None",
/* pixels */
"OXOXOXOXp d H.U.Y.J.s p OXOXOXOX",
"OXOXOXu d (.oXoX}.}./.d u OXOXOX",
"OXOXOXy `. XE.A.S.L.[._.w OXOXOX",
"OXOX< F.{.P.5 7 a < Z.].D.1 OXOX",
"OXOX- ~.'.i : OXOXOX6 ^.E.- OXOX",
"OXOX+ Q.).3 OXOXOXOX1 W.Y.+ OXOX",
"OXOXB K.!.F OXP U OX9 I.G.B OXOX",
"OXH R y.u.Q ~ ! ! ~ W t.r.E H OX",
"OXL C.b.b.N.N.N.N.N.N.b.m.N.D OX",
"OXA n.z.z.k.z.z.z.z.z.x.k.5.Z OX",
"OXN c.p.s.s.s.s.s.s.s.i.-.o.m OX",
"OX* h.8.q.q.q.q.q.8.4.#.| ..O OX",
"OX* e.<.7.4.,.1.-.%.O.} ` [ O OX",
"OX$ w.4.1.:.%.%.+.O.` ` ( ) O OX",
"OX% g.<.,.=.&.#.o.} ) ` K J X OX",
"OX. b c c c x x j j h h n g   OX"
};
