/* XPM */
static char * G0 [] = {
"30 30 2 1",
"0 c #D1D1D1",
"1 c #000000",
"000000000000000000000000000000",
"000000000000000000000000000000",
"000000000000000000000000000000",
"000000000000000000000000000000",
"000000000000000000000000000000",
"000000000000000000000000000000",
"000000000000000000000000000000",
"000000000000000000000000000000",
"000000000001111100000000000000",
"000000000110010111000000000000",
"000000001100101011100000000000",
"000000001000000111100000000000",
"000000010001011010110000000000",
"000000011010010101110000000000",
"000000011010100101110000000000",
"000000010101011111110000000000",
"000000001110110101100000000000",
"000000001101101111100000000000",
"000000000111111111000000000000",
"000000000001111100000000000000",
"000000000000000000000000000000",
"000000000000000000000000000000",
"000000000000000000000000000000",
"000000000000000000000000000000",
"000000000000000000000000000000",
"000000000000000000000000000000",
"000000000000000000000000000000",
"000000000000000000000000000000",
"000000000000000000000000000000",
"000000000000000000000000000000"};
