/* XPM */
static char * lone24_xpm[] = {
"24 24 46 1",
" 	c None",
".	c #686868",
"+	c #6D6D6D",
"@	c #6B6B6B",
"#	c #646464",
"$	c #636363",
"%	c #777777",
"&	c #848484",
"*	c #888888",
"=	c #878787",
"-	c #808080",
";	c #707070",
">	c #595959",
",	c #8A8A8A",
"'	c #929292",
")	c #969696",
"!	c #949494",
"~	c #8E8E8E",
"{	c #828282",
"]	c #696969",
"^	c #9A9A9A",
"/	c #A0A0A0",
"(	c #9C9C9C",
"_	c #959595",
":	c #8B8B8B",
"<	c #7A7A7A",
"[	c #5C5C5C",
"}	c #E8E8E8",
"|	c #C8C8C8",
"1	c #989898",
"2	c #7E7E7E",
"3	c #606060",
"4	c #B2B2B2",
"5	c #8D8D8D",
"6	c #7D7D7D",
"7	c #5E5E5E",
"8	c #919191",
"9	c #868686",
"0	c #757575",
"a	c #585858",
"b	c #8C8C8C",
"c	c #7B7B7B",
"d	c #666666",
"e	c #7C7C7C",
"f	c #4F4F4F",
"g	c #575757",
"                        ",
"                        ",
"                        ",
"                        ",
"                        ",
"                        ",
"                        ",
"          .+@#          ",
"        $%&*=-;>        ",
"        %,')!~{+        ",
"       ]&'^/(_:<[       ",
"       +*)/}|1~23       ",
"       @=!(|4)567       ",
"       #-~_1)890a       ",
"        ;{:~b9cd        ",
"        >+<2e0df        ",
"          [37g          ",
"                        ",
"                        ",
"                        ",
"                        ",
"                        ",
"                        ",
"                        "};
