/* XPM */
static char *noname[] = {
/* width height ncolors chars_per_pixel */
"48 48 35 2",
/* colors */
"`` c #000000",
"`a c #4A5A84",
"`b c #DEC6C6",
"`c c #A3A3A3",
"`d c #395273",
"`e c #666666",
"`f c #637B9C",
"`g c #858585",
"`h c #757575",
"`i c #282828",
"`j c #AD9C84",
"`k c #515151",
"`l c #F0F0F0",
"`m c #3D3D3D",
"`n c #8C9C94",
"`o c #CEBDAD",
"`p c #294239",
"`q c #C2C2C2",
"`r c #CEAD9C",
"`s c #949494",
"`t c #4A4A52",
"`u c #666666",
"`v c #6B737B",
"`w c #FFFFFF",
"`x c #00296B",
"`y c #EFE7AD",
"`z c #636373",
"a` c #E1E1E1",
"aa c #282828",
"ab c #FFFFC6",
"ac c #D1D1D1",
"ad c #C6D6E7",
"ae c #000000",
"af c #B3B3B3",
"ag c #B59C94",
/* pixels */
"````````````````````````````````````````````````````````````````````````````````````````````````",
"``adadadadadadadadadadadadadadadadadadadada`ad`ladad`ladada`ad`lada`ad`ladad`ladad`lad`ladada```",
"``adadadadadadadadadadadadadadadadadadad`s`m`t`t`t`t`t`t`t`t`t`t`t`t`t`t`t`t`t`t`t`t`t`m`gad`l``",
"``adadadadadadadadadadadadadadadadadada``z`h`y`r`r`r`r`o`r`j`rafag`raf`r`o`o`r`r`r`r`o`h`uadad``",
"``adadadadadadadadadadadadadadadadadadad`s`r`y`y`y`y`y`o`n`g`u`t`t`k`e`g`n`j`y`y`y`y`y`o`nad`l``",
"``adadadadadadadadadadadadadadadadadacada``y`y`y`y`y`o`e`f`p``````````aa`f`h`y`y`y`y`y`y`yadad``",
"``adadadada`ada`ada`ada`adadadadadadadad`b`y`y`o`y`y`o`v`dae`````````p`a`v`f`o`y`y`o`y`y`qad`l``",
"``adad`c`g`g`f`h`v`g`v`v`g`g`cafadadadadac`y`y`y`o`y`o`n`pae`````````p`f`f`f`y`y`y`y`y`yacada```",
"```laf`z`z`u`k`v`v`v`z`k`k`k`k`v`q`l`l`la`ab`yababab`y`f`dae`````````p`n`f`f`yab`yab`yaba``l`l``",
"```w`c`haf`c`cafafafafaf`c`q`h`k`s`w`w`wabababababab`y`f`tae`````````p`f`f`f`yabababababab`w`w``",
"```w`c`h`qacacacaca`acac`qaf`h`m`u`w`w`w`lababababab`y`f`dae`````````p`f`f`f`yababababab`l`w`w``",
"```waf`h`qacacaca`a`a`ac`q`q`h`m`u`w`w`wabababababab`y`f`tae`````````p`f`f`f`yabababababab`w`w``",
"```w`c`h`qaca`a`a``la`ac`qaf`h`m`t`w`w`w`lababababab`o`f`dae`````````m`f`f`f`yababababab`l`w`w``",
"```w`c`h`qa`a``la``l`la`af`q`h`m`k`w`w`wabababab`yaf`f`f`tae`````````p`f`f`f`n`yababababab`w`w``",
"```w`c`uaca`a`a`a``la`a``qaf`haa`t`w`w`w`labab`y`n`n`f`f`dae`````````p`f`f`f`f`nafabababab`w`w``",
"```w`c`hacacacacaca`a`a``q`q`h`m`h`w`w`wabab`y`g`faf`f`f`tae`````````m`n`f`f`f`c`f`cababab`w`w``",
"```w`c`u`g`g`c`g`s`g`c`c`caf`h`e`uaf`w`w`lab`y`f`c`f`f`f`dae````ae```p`f`f`f`f`faf`f`yab`l`w`w``",
"```w`c`u`h`h`h`g`g`g`cafac`l`h`k`kaf`w`wabab`q`f`c`f`c`f`dae`u`caf`h`p`f`f`f`f`n`f`f`qabab`w`w``",
"```wa``h`e`u`k`k`e`u`u`h`h`h`k`t`h`l`w`w`lab`o`aad`fad`daeaa`oababag`p`f`f`fafadad`a`qabab`w`w``",
"```w`q`e`t`m`maaaa`m`maa`i`i`m`taf`w`w`wababac`f`f`a`xae`iaa`rababaf`i`fad`f`f`f`f`f`qab`l`w`w``",
"```l`g`v`g`s`g`v`z`v`z`e`e`v`v`uada`adada`ab`r`f`aaeaaaaae`m`y`yab`jaa`d`naf`f`f`f`f`oaba`ad`l``",
"``ad`c`v`f`v`z`v`g`v`v`g`n`c`v`sadadadadac`y`r`f`aaaae`i`h`o`y`y`y`o`mae`a`f`f`faf`f`o`y`qada```",
"``adad`q`qafaf`c`c`n`s`s`g`v`gadadadadadac`y`y`n`dae`kaf`y`y`y`y`o`y`nae`d`f`n`f`f`n`y`yacad`l``",
"``adadadadadadadadadadadadadadadadadacadac`y`y`o`h`j`y`y`y`y`o`y`y`y`y`t`daf`f`f`c`o`y`yacada```",
"``adadadadadadadadadadadadadadadadadadad`q`y`o`y`y`y`y`o`y`o`y`o`y`o`y`j`t`f`g`r`y`y`o`yafad`l``",
"``adadadadadadadadadadadadadadadadadada``k`jab`y`y`y`y`y`yab`y`y`yab`yab`o`o`yab`y`yab`j`ea`ad``",
"``adadadadadadadadadadadadadadadadadadad`vaa`k`m`k`m`k`k`m`m`k`k`m`m`k`m`k`m`k`m`m`k`kaa`uad`l``",
"``adadadadadadadadadadadadadadadadadadadadafaf`qaf`qafaf`qafafaf`q`qafafaf`qaf`qafafafafadadad``",
"``adadadadadadadadadadadadadadadadadadadadadadadadadadadadadadadaf`qadadadadadadadadadadadad`l``",
"``adadadadadadadadadadadadadadadadadadadadadadadadadadadadadadadaa`kadadadadadadadadadadadadad``",
"``adadadadadadadadadadadadadadadadadadadadadadadadadadadadadad`s``ae`qadadadadadadadadadadad`l``",
"``adadadadadadadadadadadadadadadadadadadadadadadadadadadadacadaa`````eadadadadadadadadadadadad``",
"``adadadadadadadadadadadadadadadadadadadadadadadadadadadadad`z`````````cadadadadadadadadadad`l``",
"``adadadadadadadadadadadadadadadadadadadadadadadadacadadad`g``````````ae`cadadadadadadadadadad``",
"``adadadadadadadadadadadadadadadadadadadadadadadadadadadad`c`s`c`s`n`c`nafadadadadadadadadad`l``",
"``adadadadadadadadadadadadadadadadadadadadadadadadadadadadada`adadadadadadadadadadadadadadadad``",
"``adadadadadadadadadadadadadadadadadadadadadadadadadadadadadadadadadadadadadadadadadadadadad`l``",
"``adadadadadadadadadadadadadadadadadadadadadadadadadadadadadadadadadadadadadadadadadadadadadad``",
"``adadadadadadadadadadadadadadadadadadadadadadadadadadadadadadadadadadadadadadadadadadadadad`l``",
"``adadadadadadadadadadadadadadadadadadadadadadadadadadadadadadadadadadadadadadadadadadadadadad``",
"``adadadadadadadadadadadadadadadadadadadadadadadadadadadadadadadadadadadadadadadadadadadadad`l``",
"``adadadadadadadadadadadadadadadadadadadadadadadadadadadadadadadadadadadadadadadadadadadadadad``",
"``adadadadadadadadadadadadadadadadadadadadadadadadadadadadadadadadadadadadadadadadadadadadad`l``",
"``adadadadadadadadadadadadadadadadadadadadadadadadadadadadadadadadadadadadadadadadadadadadadad``",
"``adadadadadadadadadadadadadadadadadadadadadadadadadadadadadadadadadadadadadadadadadadadadad`l``",
"``adadadadadadadadadadadadadadadadadadadadadadadadadadadadadadadadadadadadadadadadadadad`qadad``",
"``a``lad`lad`lad`lad`lad`lad`lad`lad`lad`lad`lad`lad`lad`lad`lad`lad`lad`lad`lad`lad`lad`lad`w``",
"````````````````````````````````````````````````````````````````````````````````````````````````"
};
