/* XPM */
static char *min[]={
"13 13 2 1",
"# c #000000",
". c #E5E5E5",
".............",
".............",
"..#########..",
"..#.......#..",
"..#.......#..",
"..#.......#..",
"..#.......#..",
"..#.......#..",
"..#.......#..",
"..#.......#..",
"..#########..",
".............",
"............."};
