/* XPM */
static char * measure_angle_xpm[] = {
"22 22 13 1",
" 	c None",
".	c #757575",
"+	c #282828",
"@	c #A3A3A3",
"#	c #6B737B",
"$	c #000000",
"%	c #858585",
"&	c #C2C2C2",
"*	c #666666",
"=	c #515151",
"-	c #949494",
";	c #B3B3B3",
">	c #3D3D3D",
"                      ",
"                      ",
"                      ",
"                      ",
"              .+@     ",
"             #$$%     ",
"            .$$.      ",
"          &*$$*       ",
"         &*$$*+.      ",
"         =$$-&+$=&    ",
"       ;>$$@  >$$@    ",
"      ;>$$@   =+*&    ",
"     ;+$$@     &>     ",
"    ;+$$;       *@    ",
"   @$$$&        -%    ",
"  @$$$@          *&   ",
" @$$$$$$$$$$$$$$$$$$$ ",
" $$$$$$$$$$$$$$$$$$$$ ",
"                      ",
"                      ",
"                      ",
"                      "};
