/* XPM */
static char * measure_torsion_xpm[] = {
"22 22 14 1",
" 	c None",
".	c #000000",
"+	c #4A4A52",
"@	c #757575",
"#	c #858585",
"$	c #515151",
"%	c #282828",
"&	c #6B737B",
"*	c #666666",
"=	c #A3A3A3",
"-	c #E1E1E1",
";	c #C2C2C2",
">	c #3D3D3D",
",	c #949494",
"                      ",
"   ................   ",
"   ...+@#$..%#&*...   ",
"   ..=-- =..* --;>.   ",
"   .*-   ,..$   -=.   ",
"   .,-   ,..$    ;.   ",
"         ,..$         ",
"         ,..$         ",
"         ,..*         ",
"         ,..$         ",
"         ,..$         ",
"         ,..$         ",
"         ,..*         ",
"         ,..$         ",
"         ,..$         ",
"         ,..$         ",
"         ,..*         ",
"         #..>         ",
"       ........       ",
"       ,@####@#       ",
"                      ",
"                      "};
