/* XPM */
static char * measure_clear_xpm[] = {
"22 22 16 1",
" 	c None",
".	c #FF0000",
"+	c #666666",
"@	c #000000",
"#	c #D1D1D1",
"$	c #757575",
"%	c #B3B3B3",
"&	c #3D3D3D",
"*	c #C2C2C2",
"=	c #949494",
"-	c #E1E1E1",
";	c #282828",
">	c #4A4A52",
",	c #858585",
"'	c #6B737B",
")	c #A3A3A3",
".                    .",
"..  +  @      @  +  ..",
" .. + @@      @@ + .. ",
"  ..+@@@@@@@@@@@@+..  ",
"   ..#@@      @@#..   ",
"    ..#@      @#..    ",
"     ..        ..     ",
"      ..      ..      ",
"       ..    ..  $%   ",
" %%%%%%%..  ..  &@*   ",
" @@@@@@@@....  &@=-   ",
" @* %@%  @..  ;@$@=   ",
"    %@%  ....;@*%@>   ",
"    %@% ..  ..   ,'-  ",
"    %@%..  @@..   ,-  ",
"    %@..  @@%%..%%%$= ",
"    %..  @@@@@@..@@@+ ",
"    ..%         ..    ",
"   ..@%          ..   ",
"  ..@@@%          ..  ",
" ..))))))          .. ",
"..                  .."};
