/* XPM */
static char * measure_length_xpm[] = {
"22 22 12 1",
" 	c None",
".	c #666666",
"+	c #949494",
"@	c #A3A3A3",
"#	c #858585",
"$	c #000000",
"%	c #515151",
"&	c #3D3D3D",
"*	c #4A4A52",
"=	c #282828",
"-	c #6B737B",
";	c #B3B3B3",
"                      ",
"                      ",
"                      ",
"                      ",
"                      ",
"                      ",
" .                  . ",
" .   +@        #@   . ",
" .  .$#        %$#  . ",
" . &$$+        .$$* . ",
" .$$$$$========$$$$=. ",
" .=$$$$$$$$$$$$$$$$&. ",
" . %$$-        %$$. . ",
" .  #$#        %$+  . ",
" .   @@        +;   . ",
" .                  . ",
"                      ",
"                      ",
"                      ",
"                      ",
"                      ",
"                      "};
