/* XPM */
static char * mode_rotate_xpm[] = {
"18 18 48 1",
" 	c None",
".	c #350035",
"+	c #2C002C",
"@	c #250025",
"#	c #200020",
"$	c #210021",
"%	c #2E002E",
"&	c #450045",
"*	c #550055",
"=	c #700070",
"-	c #630063",
";	c #410041",
">	c #470047",
",	c #3D003D",
"'	c #330033",
")	c #400040",
"!	c #510051",
"~	c #6F006F",
"{	c #710071",
"]	c #320032",
"^	c #160016",
"/	c #2A002A",
"(	c #650065",
"_	c #7D007D",
":	c #520052",
"<	c #080008",
"[	c #000000",
"}	c #020002",
"|	c #040004",
"1	c #480048",
"2	c #780078",
"3	c #280028",
"4	c #4C004C",
"5	c #760076",
"6	c #7A007A",
"7	c #3B003B",
"8	c #6D006D",
"9	c #7F007F",
"0	c #680068",
"a	c #300030",
"b	c #670067",
"c	c #800080",
"d	c #2B002B",
"e	c #514E51",
"f	c #610061",
"g	c #5B005B",
"h	c #190019",
"i	c #240024",
"                  ",
"      .+@#$%      ",
"    &*=-; >,')    ",
"   !~{&]    ^#/   ",
"   (_:<  [   }|[  ",
"  1{23   [    [[  ",
"  456'   [    [[  ",
" 78990a  [     [[ ",
"  bc9-de [[[[[ [[ ",
"   fgh  [      [[ ",
"    i  [      [[  ",
"              [[  ",
"             [[[  ",
"           [[[[   ",
"          [[[     ",
"         [[       ",
"                  ",
"                  "};
