/* XPM */
static char * mode_zoom_xpm[] = {
"18 18 148 2",
"  	c None",
". 	c #9CA9C3",
"+ 	c #94ADCF",
"@ 	c #8BB0D9",
"# 	c #8FB2D8",
"$ 	c #9CB2CD",
"% 	c #9FAEC6",
"& 	c #85A4CD",
"* 	c #81B6E5",
"= 	c #87CAF6",
"- 	c #92D5F8",
"; 	c #93D5F8",
"> 	c #91D5F8",
", 	c #94CAEB",
"' 	c #99B4CD",
") 	c #7E9DC7",
"! 	c #80BCEC",
"~ 	c #94D7F8",
"{ 	c #A4E5FA",
"] 	c #A8E8FB",
"^ 	c #A0E2FA",
"/ 	c #9ADCF8",
"( 	c #A1E2FB",
"_ 	c #A1DBF1",
": 	c #97B3CA",
"< 	c #7D8BAC",
"[ 	c #7BAFDF",
"} 	c #AFEEFC",
"| 	c #C4FAFD",
"1 	c #C1F6FD",
"2 	c #B0EEFC",
"3 	c #AAE9FB",
"4 	c #A7E9FB",
"5 	c #B0EFFB",
"6 	c #A6D4E3",
"7 	c #8EA0B7",
"8 	c #7289AF",
"9 	c #84C8F5",
"0 	c #A1E2FA",
"a 	c #C2F9FD",
"b 	c #DFFEFE",
"c 	c #D4F8FD",
"d 	c #B7F0FC",
"e 	c #BEF7FD",
"f 	c #BBF9FE",
"g 	c #BFFBFE",
"h 	c #BBF1F5",
"i 	c #97B4C4",
"j 	c #698AB9",
"k 	c #8ED1F8",
"l 	c #A2E4FA",
"m 	c #BBF3FC",
"n 	c #C5F5FD",
"o 	c #C7F9FE",
"p 	c #CDFEFE",
"q 	c #CBFEFE",
"r 	c #CEFEFE",
"s 	c #CCFEFE",
"t 	c #9CB7C5",
"u 	c #658ABA",
"v 	c #91D4F8",
"w 	c #9DDFF9",
"x 	c #A5E5FA",
"y 	c #B0ECFB",
"z 	c #C2F8FD",
"A 	c #D4FDFE",
"B 	c #D5FEFE",
"C 	c #D7FEFE",
"D 	c #DBFEFE",
"E 	c #D8FEFE",
"F 	c #9DB2C0",
"G 	c #5F79A3",
"H 	c #90D4F8",
"I 	c #99DBF9",
"J 	c #A5E5FB",
"K 	c #B6F1FD",
"L 	c #C8FDFE",
"M 	c #D2FEFE",
"N 	c #DAFEFE",
"O 	c #E3FEFE",
"P 	c #E8FEFE",
"Q 	c #DCF6F8",
"R 	c #98A8B8",
"S 	c #546489",
"T 	c #83BDE3",
"U 	c #9EE0FA",
"V 	c #B3F2FD",
"W 	c #C6FDFE",
"X 	c #D3FEFE",
"Y 	c #E0FEFE",
"Z 	c #ECFEFE",
"` 	c #F4FEFE",
" .	c #CCD8DF",
"..	c #7C839A",
"+.	c #6382A7",
"@.	c #98D6F1",
"#.	c #A6E8FB",
"$.	c #C5FDFE",
"%.	c #E5EDF1",
"&.	c #969BAF",
"*.	c #5D5D7B",
"=.	c #7094B6",
"-.	c #99D0E5",
";.	c #B3F1FC",
">.	c #C2FDFE",
",.	c #CEE4E9",
"'.	c #979EB1",
").	c #777891",
"!.	c #8E8B9B",
"~.	c #657E9E",
"{.	c #7FA1B7",
"].	c #8AACBD",
"^.	c #90AEBD",
"/.	c #91A8B8",
"(.	c #808DA2",
"_.	c #656582",
":.	c #8A8798",
"<.	c #9D8372",
"[.	c #C58737",
"}.	c #C67816",
"|.	c #BB8E4F",
"1.	c #EAC16F",
"2.	c #E29C32",
"3.	c #BB6E13",
"4.	c #000000",
"5.	c #AC742D",
"6.	c #E4C478",
"7.	c #F5D07E",
"8.	c #E09A31",
"9.	c #B26915",
"0.	c #9D6828",
"a.	c #E0C27A",
"b.	c #F5D07C",
"c.	c #DE9A35",
"d.	c #A96316",
"e.	c #010101",
"f.	c #986831",
"g.	c #DBBB76",
"h.	c #F5CE78",
"i.	c #D89634",
"j.	c #7F491C",
"k.	c #986C39",
"l.	c #D5B571",
"m.	c #C09554",
"n.	c #795D51",
"o.	c #784C27",
"p.	c #765D53",
"q.	c #5B566D",
"      . + @ # $ %                   ",
"    & * = - ; > , '                 ",
"  ) ! ~ { ] ^ / ( _ :               ",
"< [ - } | 1 2 3 4 5 6 7             ",
"8 9 0 a b c d e f g h i             ",
"j k l m c n o p q r s t             ",
"u v w x y z A B C D E F             ",
"G H I J K L M N O P Q R             ",
"S T I U V W X Y Z `  ...            ",
"  +.@.#.V $.X Y Z %.&.*.            ",
"    =.-.;.>.r N ,.'.).!.            ",
"      ~.{.].^./.(._.:.<.[.}.        ",
"                      |.1.2.3.      ",
"  4.                  5.6.7.8.9.    ",
"4.4.4.    4.            0.a.b.c.d.  ",
"  4.    e.                f.g.h.i.j.",
"      4.  4.4.4.            k.l.m.n.",
"    4.                        o.p.q."};
