/* XPM */
static char *xpmdata[] =
{
/* width height ncolors chars_per_pixel */
"30 30 2 1",
/* colors */
"A c #D1D1D1",
"B c #000000",
/* pixels */
"AAAAAAAAAAAAAAAAAAAAAAAAAAAAAA",
"AAAAAAAAAAAAAAAAAAAAAAAAAAAAAA",
"AAAAAAAAAAAAAAAAAAAAAAAAAAAAAA",
"AAAAAAAAAAAAABBBAAAAAAAAAAAAAA",
"AAAAAAAAAAAAABBBAAAAAAAAAAAAAA",
"AAAAAAAAAAAAABBBAAAAAAAAAAAAAA",
"AAAAAAAAAAAAABBBAAAAAAAAAAAAAA",
"AAAABAAAAAAAABBBAAAAAAAABAAAAA",
"AAAABAAAAAAAABBBAAAAAAAABAAAAA",
"AAAABABAAAAABBBBBAAAAABABAAAAA",
"AAAABABAAABBAABBABBAAABABAAAAA",
"AAAABABAABBAABAABBBBAABABAAAAA",
"AAAABABAABAAAAABABABAABABAAAAA",
"AAAAAABABAAABABABABBBABAAAAAAA",
"AAAAAAAABBABAABABBBBBAAAAAAAAA",
"AAAAAAAABABABABABABABAAAAAAAAA",
"AAAAAAAABBBABABABBBBBAAAAAAAAA",
"AAAAAAABBBBABBABBBABBBAAAAAAAA",
"AAAABBBBBBBBBABBBABBBBBBBAAAAA",
"AAAABBBBBBBBBBBBBBBBBBBBBAAAAA",
"AAAABBBBBAAABBBBBAAABBBBBAAAAA",
"AAAABBBBAAAAABBBAAAAABBBBAAAAA",
"AAAABBBAAAAAABBBAAAAAABBBAAAAA",
"AAAABBAAAAAAABBBAAAAAAABBAAAAA",
"AAAAAAAAAAAAABBBAAAAAAAAAAAAAA",
"AAAAAAAAAAAAABBBAAAAAAAAAAAAAA",
"AAAAAAAAAAAAABBBAAAAAAAAAAAAAA",
"AAAAAAAAAAAAABBBAAAAAAAAAAAAAA",
"AAAAAAAAAAAAAAAAAAAAAAAAAAAAAA",
"AAAAAAAAAAAAAAAAAAAAAAAAAAAAAA",
};
