/* XPM */
static char * octahedral_48_xpm[] = {
"48 48 344 2",
"  	c None",
". 	c #4D2B00",
"+ 	c #583100",
"@ 	c #653800",
"# 	c #6A3B00",
"$ 	c #874B00",
"% 	c #9D5700",
"& 	c #A15A00",
"* 	c #925100",
"= 	c #864B00",
"- 	c #A95E00",
"; 	c #BF6B00",
"> 	c #C66E00",
", 	c #B86600",
"' 	c #4E2C00",
") 	c #673900",
"! 	c #9B5600",
"~ 	c #BE6A00",
"{ 	c #E9AC3F",
"] 	c #E2880F",
"^ 	c #CC7200",
"/ 	c #8A4C00",
"( 	c #4C2A00",
"_ 	c #6D3D00",
": 	c #9F5800",
"< 	c #BD6900",
"[ 	c #DD8410",
"} 	c #DC7C03",
"| 	c #BC6800",
"1 	c #A35A00",
"2 	c #4B2A00",
"3 	c #734000",
"4 	c #A35B00",
"5 	c #BE6900",
"6 	c #D27500",
"7 	c #E17D00",
"8 	c #D67700",
"9 	c #A55C00",
"0 	c #C46D00",
"a 	c #D97900",
"b 	c #E07D00",
"c 	c #D57700",
"d 	c #C36D00",
"e 	c #DF7D00",
"f 	c #D57600",
"g 	c #492B04",
"h 	c #724000",
"i 	c #A25A00",
"j 	c #C36C00",
"k 	c #D87800",
"l 	c #DF7C00",
"m 	c #D47600",
"n 	c #A15D07",
"o 	c #3B3226",
"p 	c #714003",
"q 	c #C26C00",
"r 	c #D77800",
"s 	c #DE7C00",
"t 	c #D17706",
"u 	c #826B4E",
"v 	c #353535",
"w 	c #534E49",
"x 	c #81694B",
"y 	c #AB7634",
"z 	c #BD833B",
"A 	c #B19066",
"B 	c #989188",
"C 	c #727272",
"D 	c #7A4400",
"E 	c #6F3E00",
"F 	c #4F4F4F",
"G 	c #707070",
"H 	c #878787",
"I 	c #959595",
"J 	c #9A9A9A",
"K 	c #929292",
"L 	c #4E2B00",
"M 	c #603500",
"N 	c #834900",
"O 	c #844A00",
"P 	c #7F4700",
"Q 	c #784300",
"R 	c #868686",
"S 	c #999999",
"T 	c #717171",
"U 	c #824800",
"V 	c #965300",
"W 	c #945300",
"X 	c #4F2C00",
"Y 	c #7D4600",
"Z 	c #884C00",
"` 	c #894C00",
" .	c #864A00",
"..	c #804700",
"+.	c #713F00",
"@.	c #949494",
"#.	c #919191",
"$.	c #985400",
"%.	c #A75D00",
"&.	c #B26300",
"*.	c #B36400",
"=.	c #5D3400",
"-.	c #844900",
";.	c #8A4D00",
">.	c #8B4D00",
",.	c #805118",
"'.	c #675A4B",
").	c #555452",
"!.	c #3D3D3D",
"~.	c #6F6F6F",
"{.	c #858585",
"].	c #939393",
"^.	c #989898",
"/.	c #909090",
"(.	c #4B4B4B",
"_.	c #63584B",
":.	c #8D5B1B",
"<.	c #B46400",
"[.	c #BC6900",
"}.	c #C56E00",
"|.	c #945200",
"1.	c #5E3400",
"2.	c #754100",
"3.	c #7C4500",
"4.	c #884E04",
"5.	c #64615D",
"6.	c #626262",
"7.	c #616161",
"8.	c #5D5D5D",
"9.	c #3F3F3F",
"0.	c #848484",
"a.	c #979797",
"b.	c #6E6E6E",
"c.	c #5B5B5B",
"d.	c #6B6B6B",
"e.	c #777777",
"f.	c #817D79",
"g.	c #B1701F",
"h.	c #C76F00",
"i.	c #C86F00",
"j.	c #995500",
"k.	c #573000",
"l.	c #7F4600",
"m.	c #6B563C",
"n.	c #606060",
"o.	c #636363",
"p.	c #646464",
"q.	c #424242",
"r.	c #969696",
"s.	c #8F8F8F",
"t.	c #696969",
"u.	c #565656",
"v.	c #494949",
"w.	c #808080",
"x.	c #8B8B8B",
"y.	c #978976",
"z.	c #C87206",
"A.	c #C97000",
"B.	c #502C00",
"C.	c #5A3200",
"D.	c #673A00",
"E.	c #6F4006",
"F.	c #59544D",
"G.	c #5A5A5A",
"H.	c #5F5F5F",
"I.	c #464646",
"J.	c #373737",
"K.	c #454545",
"L.	c #838383",
"M.	c #8E8E8E",
"N.	c #595959",
"O.	c #6D6D6D",
"P.	c #797979",
"Q.	c #818181",
"R.	c #888888",
"S.	c #8D8D8D",
"T.	c #BC751D",
"U.	c #C16C00",
"V.	c #B66600",
"W.	c #A65D00",
"X.	c #522E00",
"Y.	c #5A3507",
"Z.	c #4A4A4A",
"`.	c #515151",
" +	c #525252",
".+	c #414141",
"++	c #363636",
"@+	c #5E5E5E",
"#+	c #828282",
"$+	c #7E7E7E",
"%+	c #767676",
"&+	c #676767",
"*+	c #7A7A7A",
"=+	c #898989",
"-+	c #9E743F",
";+	c #955300",
">+	c #4C2B02",
",+	c #3F382F",
"'+	c #3B3B3B",
")+	c #383838",
"!+	c #3A3A3A",
"~+	c #4C4C4C",
"{+	c #7B7B7B",
"]+	c #8A8A8A",
"^+	c #865D28",
"/+	c #434343",
"(+	c #545454",
"_+	c #737373",
":+	c #7D7D7D",
"<+	c #8C8C8C",
"[+	c #7C7C7C",
"}+	c #6C6C6C",
"|+	c #5C5C5C",
"1+	c #6A6A6A",
"2+	c #9C9C9C",
"3+	c #B8B8B8",
"4+	c #B1B1B1",
"5+	c #9F9F9F",
"6+	c #4E4E4E",
"7+	c #FBFBFB",
"8+	c #EEEEEE",
"9+	c #A8A8A8",
"0+	c #9D9D9D",
"a+	c #575757",
"b+	c #B2B2B2",
"c+	c #F3F3F3",
"d+	c #E6E6E6",
"e+	c #A6A6A6",
"f+	c #9B9B9B",
"g+	c #656565",
"h+	c #585858",
"i+	c #7F7F7F",
"j+	c #757575",
"k+	c #AAAAAA",
"l+	c #787878",
"m+	c #747474",
"n+	c #613600",
"o+	c #6B491E",
"p+	c #716759",
"q+	c #9E9E9E",
"r+	c #74695B",
"s+	c #7F5929",
"t+	c #965400",
"u+	c #AE6100",
"v+	c #BA6D0C",
"w+	c #9B8973",
"x+	c #95744B",
"y+	c #AD650B",
"z+	c #AA5F00",
"A+	c #8C4E00",
"B+	c #774200",
"C+	c #AC6000",
"D+	c #CD8327",
"E+	c #666666",
"F+	c #474747",
"G+	c #686868",
"H+	c #84786A",
"I+	c #B46604",
"J+	c #B96700",
"K+	c #B56500",
"L+	c #AB5F00",
"M+	c #9E5800",
"N+	c #744100",
"O+	c #AD6000",
"P+	c #CB7100",
"Q+	c #DD7B00",
"R+	c #E27F02",
"S+	c #AD9679",
"T+	c #3C3C3C",
"U+	c #916630",
"V+	c #AF6100",
"W+	c #B66500",
"X+	c #BB6800",
"Y+	c #B86700",
"Z+	c #A05900",
"`+	c #623700",
" @	c #935200",
".@	c #CA7000",
"+@	c #E17E00",
"@@	c #E37E00",
"#@	c #DC7B00",
"$@	c #A98A65",
"%@	c #484848",
"&@	c #555555",
"*@	c #3E3E3E",
"=@	c #4D4D4D",
"-@	c #5D5955",
";@	c #915101",
">@	c #9F5900",
",@	c #CE7300",
"'@	c #975400",
")@	c #BD6A01",
"!@	c #F1B24B",
"~@	c #CD7403",
"{@	c #8E7453",
"]@	c #44413E",
"^@	c #734103",
"/@	c #B16200",
"(@	c #BF6A00",
"_@	c #DC7E06",
":@	c #EFA62D",
"<@	c #8F5000",
"[@	c #D98613",
"}@	c #D97901",
"|@	c #9C5702",
"1@	c #4D310F",
"2@	c #794400",
"3@	c #8D4E00",
"4@	c #D67A05",
"5@	c #EA9927",
"6@	c #D37600",
"7@	c #B36300",
"8@	c #532E00",
"9@	c #7B4500",
"0@	c #B46500",
"a@	c #9C5700",
"b@	c #542F00",
"c@	c #BA6800",
"d@	c #5B3200",
"e@	c #8D4F00",
"f@	c #905000",
"g@	c #6B3B00",
"h@	c #693A00",
"i@	c #5C3300",
"j@	c #643700",
"k@	c #3B3227",
"l@	c #6D5E4B",
"m@	c #492B06",
"n@	c #534433",
"o@	c #626160",
"p@	c #737270",
"q@	c #7D7C7B",
"r@	c #81807E",
"s@	c #8B7253",
"t@	c #87510D",
"u@	c #683A00",
"v@	c #B16300",
"w@	c #683900",
"x@	c #B06200",
"y@	c #AC5F00",
"z@	c #AA5E00",
"A@	c #553000",
"B@	c #563000",
"C@	c #723F00",
"                                            . + @ #                                             ",
"                                          . @ $ % & *                                           ",
"                                          + = - ; > ,                                           ",
"                                        ' ) ! ~ { ] ^ /                                         ",
"                                        ( _ : < [ } | 1                                         ",
"                                        2 3 4 5 6 7 8 9                                         ",
"                                        2 3 4 0 a b c 9                                         ",
"                                        2 3 1 d a e f 9                                         ",
"                                        g h i j k l m n                                         ",
"                                        o p i q r s t u                                         ",
"                                        v w x y z A B C                                         ",
"            + D E                       v F G H I J K C                                         ",
"        L M N O P Q                     v F G R I S K T                       _ U V W Q         ",
"        X Y Z ` Z  ...+.                v F G R @.S #.T                   # N $.%.&.*.- /       ",
"        =.P -.Z ;.>.,.'.).!.            v F ~.{.].^./.G               (._.:.- <.[.q }.q |.      ",
"        1.2.3.U = 4.5.6.7.8.9.v         v F ~.0.K a./.b.          (.c.d.e.f.g.0 h.i.> q j.      ",
"        k.@ E Q l.m.n.6.o.p.q.v v v   v v F b.0.K r.s.t.u.    v.c.d.e.w.R x.y.z.A.}.~ <.        ",
"          B.C.D.E.F.G.H.7.I.v v v v J.q.K.F b.L.#.r.M.e.~.7.N.O.P.Q.R.S.s./.s.T.U.V.W.*         ",
"              X.Y.Z.`. +.+v v v v ++.+`.@+p.T #+M.s.R.L.$+%+&+*+=+M.#.K #.M.=+-+- ;+            ",
"                >+,+'+)+v v v v v !+~+G.&+C {+#+H x.S.S.]+0.P.b./.@.]./.x.0.P.^+                ",
"                    v v v v v v v /+(+6.b.P.Q.R.M.K @.I K S.0.C w.K S.R {+t.G.                  ",
"                        v v v v J.v.N.&+_+:+R S.].^.J J ^.@.<+:+_+R.[+}+8.                      ",
"                            v v !+~+|+1+%+w.=+/.2+3+4+5+2+a./.L.~.~.@+                          ",
"                              v !+6+@+d.e.#+]+K 3+7+8+9+0+S K R T                               ",
"                              q.a+O._+O.e.Q.]+#.b+c+d+e+f+#+}+p.g+                              ",
"                          K.h+d.{+H s.i+j+i+R.s.S k+9+0+i+%+%+_+}+p.                            ",
"                      K.u.1+*+R s.r.f+f+l+[+{.<+K r.^.S.C j+l+P.l+m+d.7.                        ",
"                  n+o+p+*+R /.r.f+0+q+2+[+e.i+R <+/.K C t.~.j+P.{+[+*+%+r+s+                    ",
"                D t+u+v+w+r.f+q+q+0+S K _+~.l+i+{.R.]+p.c.p.}+_+l+[+$+x+y+z+! A+                ",
"            B+;+C+~ ^ 8 D+q+5+0+J ].=+P.n.E+~.%+{+i+w.8.F+(+H.G+G %+H+I+J+J+K+L+M+              ",
"        X.N+: O+P+c Q+7 R+S+J @.x.{+@+F+6+N.o.1+~.C _+@+++T+Z.h+6.}+U+V+W+X+~ < Y+O+Z+          ",
"        `+ @Y+.@8 +@@@7 #@$@]+{+t.    v T+%@ +N.@+7.n.&@++  J.*@=@-@;@>@L+<.[.U.,@8 A.9         ",
"      2 D.'@)@!@~@7 #@m h.{@}+          v J.'+.+K.F+F+!+        )+]@^@$ '@9 /@(@_@:@a W+        ",
"      2 n+<@K+[@}@f i.<.|@              v T+%@F T e.o.v             1@`+2@3@% J+4@5@6@7@        ",
"      2 8@9@& J+& 0@a@                  v Z.g+%+#+{.[+v                 b@) P & X+0 c@$.        ",
"        2 d@3.e@;.                      v Z.p.%+Q.{.$+F                     @ B+f@j.;.g@        ",
"                                        v Z.p.j+w.0.$+G.                      h@i@j@            ",
"                                        v v.o.m+i+L.:+p.                                        ",
"                                        v v.o._+$+#+[+o.                                        ",
"                                        k@v.6._+:+Q.{+l@                                        ",
"                                        m@n@o@p@q@r@s@t@                                        ",
"                                        2 u@>.i v@W+u+A+                                        ",
"                                        2 w@;.& x@K+O+>.                                        ",
"                                        2 ) ` Z+u+*.y@;.                                        ",
"                                        2 ) ` >@u+&.z+`                                         ",
"                                          ) Z M+C+v@z@                                          ",
"                                          A@_ Z * 4 *                                           ",
"                                            B@u@2.C@                                            "};
