/* XPM */
static char * octahedral_24_xpm[] = {
"24 24 154 2",
"  	c None",
". 	c #563000",
"+ 	c #784300",
"@ 	c #8A4D00",
"# 	c #C47810",
"$ 	c #CB7404",
"% 	c #884C00",
"& 	c #CA7304",
"* 	c #D47601",
"= 	c #8B4D00",
"- 	c #CE7300",
"; 	c #DA7A00",
"> 	c #8A4D01",
", 	c #CD7200",
"' 	c #D87902",
") 	c #655E55",
"! 	c #A18563",
"~ 	c #9D9386",
"{ 	c #7A4400",
"] 	c #854A00",
"^ 	c #7E4600",
"/ 	c #606060",
"( 	c #8D8D8D",
"_ 	c #959595",
": 	c #744000",
"< 	c #8D4E00",
"[ 	c #A45B00",
"} 	c #8F4F00",
"| 	c #5A3200",
"1 	c #7D4600",
"2 	c #864B00",
"3 	c #7E531E",
"4 	c #605C58",
"5 	c #484848",
"6 	c #5F5F5F",
"7 	c #8C8C8C",
"8 	c #949494",
"9 	c #505050",
"0 	c #65625F",
"a 	c #9A6A2D",
"b 	c #BF6A00",
"c 	c #C56E00",
"d 	c #AD6000",
"e 	c #603500",
"f 	c #734102",
"g 	c #605951",
"h 	c #616161",
"i 	c #353535",
"j 	c #363636",
"k 	c #3D3D3D",
"l 	c #5E5E5E",
"m 	c #8A8A8A",
"n 	c #929292",
"o 	c #6A6A6A",
"p 	c #585858",
"q 	c #646464",
"r 	c #7B7B7B",
"s 	c #888888",
"t 	c #908D88",
"u 	c #C47109",
"v 	c #B86700",
"w 	c #A15900",
"x 	c #543003",
"y 	c #454441",
"z 	c #404040",
"A 	c #3F3F3F",
"B 	c #5C5C5C",
"C 	c #707070",
"D 	c #868686",
"E 	c #767676",
"F 	c #808080",
"G 	c #909090",
"H 	c #858585",
"I 	c #98621E",
"J 	c #4E4E4E",
"K 	c #7F7F7F",
"L 	c #8E8E8E",
"M 	c #969696",
"N 	c #787878",
"O 	c #898989",
"P 	c #757575",
"Q 	c #383838",
"R 	c #555555",
"S 	c #9E9E9E",
"T 	c #D4D4D4",
"U 	c #A0A0A0",
"V 	c #7E7E7E",
"W 	c #848484",
"X 	c #9B9B9B",
"Y 	c #CBCBCB",
"Z 	c #979797",
"` 	c #65625E",
" .	c #8B8B8B",
"..	c #747474",
"+.	c #797979",
"@.	c #6D6A65",
"#.	c #8F5000",
"$.	c #B46400",
"%.	c #BE7C2A",
"&.	c #9C9C9C",
"*.	c #9D9D9D",
"=.	c #6F6F6F",
"-.	c #7D7D7D",
";.	c #595959",
">.	c #717171",
",.	c #7D7A76",
"'.	c #AC6A16",
").	c #9F5800",
"!.	c #573100",
"~.	c #985400",
"{.	c #C66E00",
"].	c #DE7C00",
"^.	c #E07D00",
"/.	c #9E9180",
"(.	c #828282",
"_.	c #666666",
":.	c #424242",
"<.	c #565656",
"[.	c #494949",
"}.	c #515151",
"|.	c #7B5F3C",
"1.	c #AC6000",
"2.	c #BA6800",
"3.	c #C16C00",
"4.	c #BC6900",
"5.	c #583100",
"6.	c #A65D00",
"7.	c #DC8918",
"8.	c #D67700",
"9.	c #7B6D5A",
"0.	c #3E3E3E",
"a.	c #525252",
"b.	c #5A5A5A",
"c.	c #553C1D",
"d.	c #A05900",
"e.	c #CA7203",
"f.	c #E18C15",
"g.	c #4E2C00",
"h.	c #9D5800",
"i.	c #A55C00",
"j.	c #575757",
"k.	c #7C7C7C",
"l.	c #818181",
"m.	c #6B3C00",
"n.	c #995500",
"o.	c #A85E00",
"p.	c #7A7A7A",
"q.	c #6A4B25",
"r.	c #916B3B",
"s.	c #9C6E34",
"t.	c #B06200",
"u.	c #A65C00",
"v.	c #AE6100",
"w.	c #5E3500",
"                      . + @                     ",
"                      + # $                     ",
"                      % & *                     ",
"                      = - ;                     ",
"                      > , '                     ",
"                      ) ! ~                     ",
"      { ] ^           / ( _           : < [ }   ",
"    | 1 2 3 4 5       6 7 8       9 0 a b c d   ",
"      e f g h 5 i j k l m n o p q r s t u v w   ",
"        x y z i i A B C D 7 D E F n G H I       ",
"            i i j J o K L M M 7 N O P           ",
"                Q R C H S T U 8 r               ",
"                h V E W X Y Z E o               ",
"            ` V n X  .V 7 8 E ..+.P @.          ",
"        #.$.%.&.*.8 N =.-.W ;.h >.,.'.d ).      ",
"    !.~.{.].^./.(._.:.<.q o [.A }.|.1.2.3.4.    ",
"    5.6.7.8.4.9.      0.a.b.      c.^ d.e.f.d   ",
"    g.1 h.i.          j.k.l.          m.n.o.    ",
"                      <.p.F                     ",
"                      <.N V                     ",
"                      q.r.s.                    ",
"                      + o.t.                    ",
"                      + u.v.                    ",
"                      w.^ <                     "};
