/* XPM */
static char * opened [] = {
"7 7 2 1",
"1 c #000000",
"2 c #E5E5E5",
"1111111",
"2111112",
"2111112",
"2211122",
"2211122",
"2221222",
"2221222"};
