/* XPM */
static char * pin_in_xpm[] = {
"13 13 3 1",
" 	c None",
".	c #000000",
"+	c #8CB9BE",
"             ",
"        ..   ",
"       .++.  ",
"       .+++. ",
"   .  .+.++. ",
"  .+..+++..  ",
"  .+++++.    ",
"  .++++.     ",
"   .+++.     ",
"    .+++.    ",
"  .  ...     ",
" .           ",
"             "};
