/* XPM */
static char * pyramidal48_xpm[] = {
"48 48 220 2",
"  	c None",
". 	c #6A6A6A",
"+ 	c #727272",
"@ 	c #797979",
"# 	c #7B7B7B",
"$ 	c #737373",
"% 	c #6C6C6C",
"& 	c #606060",
"* 	c #707070",
"= 	c #7E7E7E",
"- 	c #888888",
"; 	c #8E8E8E",
"> 	c #909090",
", 	c #8F8F8F",
"' 	c #8A8A8A",
") 	c #818181",
"! 	c #575757",
"~ 	c #6F6F6F",
"{ 	c #7F7F7F",
"] 	c #8B8B8B",
"^ 	c #939393",
"/ 	c #989898",
"( 	c #999999",
"_ 	c #959595",
": 	c #838383",
"< 	c #515151",
"[ 	c #666666",
"} 	c #878787",
"| 	c #9C9C9C",
"1 	c #9E9E9E",
"2 	c #9A9A9A",
"3 	c #949494",
"4 	c #565656",
"5 	c #6D6D6D",
"6 	c #7D7D7D",
"7 	c #898989",
"8 	c #929292",
"9 	c #A0A0A0",
"0 	c #ACACAC",
"a 	c #A4A4A4",
"b 	c #9B9B9B",
"c 	c #969696",
"d 	c #828282",
"e 	c #5A5A5A",
"f 	c #444444",
"g 	c #5B5B5B",
"h 	c #6E6E6E",
"i 	c #979797",
"j 	c #C0C0C0",
"k 	c #F9F9F9",
"l 	c #D4D4D4",
"m 	c #8D8D8D",
"n 	c #747474",
"o 	c #5F5F5F",
"p 	c #424242",
"q 	c #7A7A7A",
"r 	c #848484",
"s 	c #8C8C8C",
"t 	c #B8B8B8",
"u 	c #F1F1F1",
"v 	c #CDCDCD",
"w 	c #808080",
"x 	c #484848",
"y 	c #404040",
"z 	c #676767",
"A 	c #868686",
"B 	c #767676",
"C 	c #9D9D9D",
"D 	c #919191",
"E 	c #9F9F9F",
"F 	c #7C7C7C",
"G 	c #787878",
"H 	c #626262",
"I 	c #696969",
"J 	c #717171",
"K 	c #9F9A94",
"L 	c #CA8024",
"M 	c #CF7300",
"N 	c #C66E00",
"O 	c #BD6900",
"P 	c #9C6E35",
"Q 	c #898785",
"R 	c #A1A1A1",
"S 	c #5C5C5C",
"T 	c #656565",
"U 	c #646464",
"V 	c #636363",
"W 	c #777777",
"X 	c #D19447",
"Y 	c #E98609",
"Z 	c #E27F03",
"` 	c #DD7B00",
" .	c #D87800",
"..	c #C46D00",
"+.	c #955300",
"@.	c #B86600",
"#.	c #C36D00",
"$.	c #D37600",
"%.	c #D47E13",
"&.	c #A2A09D",
"*.	c #A8A8A8",
"=.	c #A5A5A5",
"-.	c #4D4D4D",
";.	c #4E4E4E",
">.	c #535353",
",.	c #585858",
"'.	c #525252",
").	c #4B4B4B",
"!.	c #434343",
"~.	c #4C4C4C",
"{.	c #757575",
"].	c #8D8881",
"^.	c #C9770F",
"/.	c #E0830D",
"(.	c #F2981F",
"_.	c #F7A42A",
":.	c #F09E23",
"<.	c #E3880F",
"[.	c #BD6A02",
"}.	c #915100",
"|.	c #B76500",
"1.	c #D27500",
"2.	c #DB7B02",
"3.	c #E88B10",
"4.	c #F59D22",
"5.	c #D3A05D",
"6.	c #616161",
"7.	c #3A3A3A",
"8.	c #3F3F3F",
"9.	c #494949",
"0.	c #464646",
"a.	c #3B3B3B",
"b.	c #363636",
"c.	c #353535",
"d.	c #393939",
"e.	c #555555",
"f.	c #7A6E60",
"g.	c #AE6100",
"h.	c #C16C00",
"i.	c #CE7606",
"j.	c #E1921F",
"k.	c #DBA940",
"l.	c #D99733",
"m.	c #AF6100",
"n.	c #894C00",
"o.	c #593100",
"p.	c #7C4500",
"q.	c #AA5F00",
"r.	c #AB6000",
"s.	c #DB7C04",
"t.	c #EC9F26",
"u.	c #FAC148",
"v.	c #F1A731",
"w.	c #D87F0C",
"x.	c #C27009",
"y.	c #877F75",
"z.	c #5E5E5E",
"A.	c #3D3D3D",
"B.	c #373737",
"C.	c #383838",
"D.	c #584F45",
"E.	c #854A00",
"F.	c #935200",
"G.	c #9F5900",
"H.	c #B36400",
"I.	c #AD6101",
"J.	c #AE6201",
"K.	c #703E00",
"L.	c #4E2C00",
"M.	c #532E00",
"N.	c #7F4700",
"O.	c #A95E00",
"P.	c #CB7D17",
"Q.	c #DABA5F",
"R.	c #EEB746",
"S.	c #D27C0C",
"T.	c #BF6B00",
"U.	c #A55C00",
"V.	c #74624B",
"W.	c #595959",
"X.	c #39352F",
"Y.	c #522F02",
"Z.	c #5F3500",
"`.	c #6F3E00",
" +	c #8D4E00",
".+	c #6C3C00",
"++	c #522E00",
"@+	c #4B2A00",
"#+	c #4C2B00",
"$+	c #693A00",
"%+	c #8F4F00",
"&+	c #AF6404",
"*+	c #B76E0D",
"=+	c #B96700",
"-+	c #A05900",
";+	c #794400",
">+	c #523F27",
",+	c #3C3124",
"'+	c #3E3120",
")+	c #512D00",
"!+	c #5C3300",
"~+	c #5A3200",
"{+	c #583100",
"]+	c #4D2B00",
"^+	c #502D00",
"/+	c #884C00",
"(+	c #945200",
"_+	c #744100",
":+	c #5D3400",
"<+	c #4E2D03",
"[+	c #482B07",
"}+	c #39332B",
"|+	c #3C3225",
"1+	c #4A2B03",
"2+	c #633700",
"3+	c #653800",
"4+	c #462D0D",
"5+	c #442D10",
"6+	c #472C09",
"7+	c #4C2A00",
"                                                                                                ",
"                                                                                                ",
"                                                                                                ",
"                                                                                                ",
"                                                                                                ",
"                                                                                                ",
"                                                                                                ",
"                                                                                                ",
"                                                                                                ",
"                                                                                                ",
"                                                                                                ",
"                                                                                                ",
"                                                                                                ",
"                                        . + @ # @ $ %                                           ",
"                                    & * = - ; > , ' ) +                                         ",
"                                  ! ~ { ] ^ / ( ( _ ; : +                                       ",
"                                < [ @ } > / | 1 1 2 3 ] = .                                     ",
"                                4 5 6 7 8 ( 9 0 a b c ; d + e                                   ",
"                              f g h 6 - > i j k l | 3 m d n o                                   ",
"                              p g % q r s ^ t u v / > 7 w $ & x                                 ",
"                              y ! z n = A ] 8 | c ; ' : q @ ) h                                 ",
"                              h } B 5 B = : A - - A d # B _ C b c , 7                           ",
"                          : D 2 1 E n 5 n @ F = = F G + G i b C 1 1 | / > '                     ",
"                      r 8 2 1 E C ( } H I h J $ + * 5 [ B } m ^ i | E E 1 K L M N O             ",
"                P Q ^ 2 1 R E / D ' { e S H T [ [ U & e V ~ W { A s 8 ( R X Y Z `  .M ..+.      ",
"            @.#.$.%.&.*.=.( , } 6 + U -.;.>.! ,.,.4 '.).!.~.,.H % {.6 : ].^./.(._.:.<.[.O }.    ",
"        |...1.2.3.4.5.2 m r # ~ 6.< y 7.8.f x 9.x 0.p a.b.c.d.8.9.e.& . f.g.@.h.i.j.k.l.m.n.o.  ",
"    p.q.r.s.t.u.v.w.x.y.W % z.-.A.b.c.c.c.B.C.d.d.B.b.c.c.      c.B.A.0.D.E.F.G.q.H.I.J.F.K.L.  ",
"  M.N.O.P.Q.R.S.T.H.U.V.W.x a.c.      c.c.c.c.c.c.c.c.c.              c.X.Y.Z.`.N. +p.E..+++@+  ",
"  #+$+%+&+*+=+g.-+%+;+>+d.              ,+c.c.c.c.c.'+                        #+)+!+~+{+]+@+    ",
"  @+^+.+/+/+(+n._+:+<+                  [+}+c.c.c.|+1+                              @+@+@+      ",
"    @+]+!+2+3+{+]+                      @+@+4+5+6+@+@+                                          ",
"    @+@+@+@+7+                            @+@+@+@+@+                                            ",
"                                            @+@+@+                                              ",
"                                                                                                ",
"                                                                                                ",
"                                                                                                ",
"                                                                                                ",
"                                                                                                ",
"                                                                                                ",
"                                                                                                ",
"                                                                                                ",
"                                                                                                ",
"                                                                                                ",
"                                                                                                ",
"                                                                                                ",
"                                                                                                ",
"                                                                                                "};
