/* XPM */
static char * pyramidal24_xpm[] = {
"24 24 98 2",
"  	c None",
". 	c #737373",
"+ 	c #808080",
"@ 	c #848484",
"# 	c #7C7C7C",
"$ 	c #6A6A6A",
"% 	c #878787",
"& 	c #979797",
"* 	c #9B9B9B",
"= 	c #939393",
"- 	c #7F7F7F",
"; 	c #525252",
"> 	c #757575",
", 	c #8D8D8D",
"' 	c #A2A2A2",
") 	c #BFBFBF",
"! 	c #989898",
"~ 	c #686868",
"{ 	c #4F4F4F",
"] 	c #727272",
"^ 	c #9F9F9F",
"/ 	c #C9C9C9",
"( 	c #929292",
"_ 	c #838383",
": 	c #707070",
"< 	c #7B7B7B",
"[ 	c #787878",
"} 	c #797979",
"| 	c #888888",
"1 	c #949494",
"2 	c #959595",
"3 	c #8F8F8F",
"4 	c #999999",
"5 	c #8C8C8C",
"6 	c #666666",
"7 	c #6F6F6F",
"8 	c #6E6E6E",
"9 	c #6C6C6C",
"0 	c #9A9A9A",
"a 	c #9C9C9C",
"b 	c #B98C54",
"c 	c #D07402",
"d 	c #CB7507",
"e 	c #B79262",
"f 	c #A0A0A0",
"g 	c #828282",
"h 	c #4E4E4E",
"i 	c #565656",
"j 	c #595959",
"k 	c #555555",
"l 	c #4B4B4B",
"m 	c #575757",
"n 	c #8A8784",
"o 	c #D17D13",
"p 	c #E68C14",
"q 	c #E18D16",
"r 	c #BC6C06",
"s 	c #804700",
"t 	c #AC6102",
"u 	c #DB8A17",
"v 	c #E89A24",
"w 	c #D0811B",
"x 	c #827F7B",
"y 	c #696969",
"z 	c #515151",
"A 	c #3D3D3D",
"B 	c #383838",
"C 	c #3C3C3C",
"D 	c #3E3E3E",
"E 	c #3B3B3B",
"F 	c #363636",
"G 	c #474747",
"H 	c #59544E",
"I 	c #925100",
"J 	c #AA5F01",
"K 	c #B97310",
"L 	c #A76209",
"M 	c #633700",
"N 	c #613600",
"O 	c #A65F05",
"P 	c #C58623",
"Q 	c #B06302",
"R 	c #905000",
"S 	c #544A3E",
"T 	c #39332C",
"U 	c #353535",
"V 	c #38342E",
"W 	c #542F01",
"X 	c #6B3B00",
"Y 	c #4D2B00",
"Z 	c #4C2B00",
"` 	c #643800",
" .	c #754100",
"..	c #683A00",
"+.	c #412F18",
"@.	c #3F301D",
"#.	c #472C0A",
"$.	c #4B2A00",
"                                                ",
"                                                ",
"                                                ",
"                                                ",
"                                                ",
"                                                ",
"                                                ",
"                    . + @ #                     ",
"                  $ % & * = -                   ",
"                ; > , ' ) ! % ~                 ",
"                { ] % ^ / ( _ :                 ",
"                < [ } @ | _ } 1 2 =             ",
"            3 4 * 5 6 7 ] 8 9 | = 0 a b c       ",
"        d e f 1 g 9 h i j k l m ~ } n o p q r s ",
"    t u v w x y z A B C D E F   D G H I J K L M ",
"  N O P Q R S D     T U U V           W N X N Y ",
"  Z `  ...            +.@.#.                    ",
"    $.                $.$.                      ",
"                                                ",
"                                                ",
"                                                ",
"                                                ",
"                                                ",
"                                                "};
