/* XPM */
static char * reload_xpm[] = {
"22 22 127 2",
"  	c None",
". 	c #006100",
"+ 	c #005E00",
"@ 	c #005C00",
"# 	c #005B00",
"$ 	c #006300",
"% 	c #006600",
"& 	c #008200",
"* 	c #009900",
"= 	c #3FB53F",
"- 	c #109C10",
"; 	c #008000",
"> 	c #006400",
", 	c #006200",
"' 	c #008F00",
") 	c #58CE58",
"! 	c #C2F0C2",
"~ 	c #F0FCF0",
"{ 	c #D1F4D1",
"] 	c #76D676",
"^ 	c #0F900F",
"/ 	c #28B028",
"( 	c #B0ECB0",
"_ 	c #DAF7DA",
": 	c #CCF3CC",
"< 	c #42B642",
"[ 	c #005F00",
"} 	c #23AF23",
"| 	c #B6EEB6",
"1 	c #C3F1C3",
"2 	c #98D098",
"3 	c #A4D1A4",
"4 	c #C4E4C4",
"5 	c #A4D0A4",
"6 	c #BCE9BC",
"7 	c #47B847",
"8 	c #005D00",
"9 	c #0A8F0A",
"0 	c #94E694",
"a 	c #ABECAB",
"b 	c #8CD38C",
"c 	c #B1D5B1",
"d 	c #FFFFFF",
"e 	c #FAFEFA",
"f 	c #B6EFB6",
"g 	c #9FE99F",
"h 	c #159215",
"i 	c #47CB47",
"j 	c #91E691",
"k 	c #89DE89",
"l 	c #C9E1C9",
"m 	c #ADECAD",
"n 	c #63D363",
"o 	c #67DB67",
"p 	c #77E077",
"q 	c #8DCC8D",
"r 	c #C0F1C0",
"s 	c #B8EFB8",
"t 	c #AFEDAF",
"u 	c #4DD44D",
"v 	c #28C928",
"w 	c #08BF08",
"x 	c #119E11",
"y 	c #5CDA5C",
"z 	c #D6E8D6",
"A 	c #84E384",
"B 	c #52CA52",
"C 	c #61C661",
"D 	c #40C740",
"E 	c #00BD00",
"F 	c #009800",
"G 	c #10AA10",
"H 	c #41D441",
"I 	c #DBF7DB",
"J 	c #46C846",
"K 	c #8BD18B",
"L 	c #B9DBB9",
"M 	c #EFF5EF",
"N 	c #00A500",
"O 	c #09A909",
"P 	c #25CE25",
"Q 	c #C9F3C9",
"R 	c #8CD18C",
"S 	c #029C02",
"T 	c #0AC70A",
"U 	c #E0F8E0",
"V 	c #39D239",
"W 	c #07C607",
"X 	c #71D771",
"Y 	c #00C200",
"Z 	c #009B00",
"` 	c #008400",
" .	c #01C701",
"..	c #80E380",
"+.	c #60C760",
"@.	c #40BA40",
"#.	c #DFF1DF",
"$.	c #BFF1BF",
"%.	c #00C800",
"&.	c #03C603",
"*.	c #03CD03",
"=.	c #13D113",
"-.	c #D0F6D0",
";.	c #C0F3C0",
">.	c #099609",
",.	c #22D422",
"'.	c #C5F4C5",
").	c #D4F7D4",
"!.	c #89E889",
"~.	c #1AB61A",
"{.	c #24D424",
"].	c #4EDC4E",
"^.	c #94EA94",
"/.	c #86E786",
"(.	c #40DA40",
"_.	c #78E478",
":.	c #32D732",
"<.	c #036303",
"[.	c #27B827",
"}.	c #35D835",
"|.	c #219B21",
"1.	c #42D342",
"2.	c #47DB47",
"3.	c #056305",
"4.	c #1F8C1F",
"5.	c #35AD35",
"6.	c #40BD40",
"                                            ",
"                . + @ # # #                 ",
"            $ % & * = = - ; . #             ",
"        > , ' ) ! ~ ~ ~ ~ { ] ^ # #         ",
"      $ % / ( _ _ _ _ _ _ _ _ : < . #       ",
"      [ } | 1 1 2 3 4 5 6 1 1 1 1 7 #       ",
"    8 9 0 a b c d d d d e f a a a g h #     ",
"    . i j k l d d d d d d m j j j j n .     ",
"  # ; o p q d d d r g s t p p p u v w ; #   ",
"  # x y y z d d A y y y y B C ] D E E F #   ",
"  # G H H d d I H H J K L M d d d E E N #   ",
"  # O P P d d Q P P R d d d d d d E E N #   ",
"  # S T T U d d V W X d d d d d d Y Y Z #   ",
"  # `  . ...d d M +.@.#.d d d d $.%.%.` #   ",
"    , &.*.=.-.d d d d d d d d d ;.*.&.,     ",
"    # >.=.=.,.'.d d d d d ).d d !.=.>.#     ",
"      # ~.{.{.{.].^.^./.(.{._.^.:.~.#       ",
"      # <.[.}.}.}.}.}.}.}.}.}.}.[.<.#       ",
"        # # |.1.2.2.2.2.2.2.1.|.# #         ",
"            # 3.4.5.6.6.5.4.3.#             ",
"                # # # # # #                 ",
"                                            "};
