/* XPM */
static char * rename32_xpm[] = {
"32 32 275 2",
"  	c None",
". 	c #BAC6DB",
"+ 	c #93A0B7",
"@ 	c #F1F6FF",
"# 	c #FFFFFF",
"$ 	c #FEFFFF",
"% 	c #F9FDFF",
"& 	c #F4F7FE",
"* 	c #EBF0F9",
"= 	c #E3E9F4",
"- 	c #DAE1EF",
"; 	c #CED7E8",
"> 	c #B8C6DF",
", 	c #A2ADC0",
"' 	c #F2F7FF",
") 	c #F5F9FF",
"! 	c #EEF3FC",
"~ 	c #E8EDF7",
"{ 	c #E0E7F3",
"] 	c #D7DFED",
"^ 	c #CBD5E6",
"/ 	c #B5C2D9",
"( 	c #E1EAF9",
"_ 	c #9CA8BC",
": 	c #FBFEFF",
"< 	c #F6FAFF",
"[ 	c #F1F5FE",
"} 	c #E3EAF4",
"| 	c #DCE3F0",
"1 	c #CFD8E8",
"2 	c #B8C4DB",
"3 	c #E6ECF7",
"4 	c #D2DDEF",
"5 	c #9CA8BE",
"6 	c #FCFFFF",
"7 	c #F8FBFF",
"8 	c #F4F8FE",
"9 	c #EEF2FB",
"0 	c #E7EDF7",
"a 	c #DFE5F2",
"b 	c #D2DBEA",
"c 	c #BAC6DC",
"d 	c #F5F8FF",
"e 	c #DEE4F1",
"f 	c #D1DBEF",
"g 	c #9DA9BF",
"h 	c #FDFFFF",
"i 	c #F9FCFF",
"j 	c #F0F4FD",
"k 	c #E9EFF8",
"l 	c #E1E7F3",
"m 	c #D5DDEC",
"n 	c #BCC7DB",
"o 	c #F3F7FE",
"p 	c #E2E8F3",
"q 	c #D4DFF1",
"r 	c #9FABC0",
"s 	c #FAFDFF",
"t 	c #F7FAFF",
"u 	c #F2F5FD",
"v 	c #EBEFF9",
"w 	c #D9E1EF",
"x 	c #B4C1D7",
"y 	c #E9EBF1",
"z 	c #E2E8EF",
"A 	c #DAE1ED",
"B 	c #CED7E6",
"C 	c #C6D2E7",
"D 	c #97A4BB",
"E 	c #F7FBFF",
"F 	c #F2F6FD",
"G 	c #EDF1FB",
"H 	c #E6ECF6",
"I 	c #DEE5F2",
"J 	c #BECADD",
"K 	c #8E9FBB",
"L 	c #BFBFBF",
"M 	c #808080",
"N 	c #9F9F9F",
"O 	c #000000",
"P 	c #3D3E40",
"Q 	c #E7ECF7",
"R 	c #E1E7F4",
"S 	c #DBE3F0",
"T 	c #CDD6E7",
"U 	c #7F8B9D",
"V 	c #A4B4D1",
"W 	c #7A8BA7",
"X 	c #202020",
"Y 	c #404040",
"Z 	c #606060",
"` 	c #BBBEBF",
" .	c #E2E9F4",
"..	c #C2CCE0",
"+.	c #B4C0D8",
"@.	c #2C3036",
"#.	c #838DA0",
"$.	c #ABBBD6",
"%.	c #101010",
"&.	c #DFDFDF",
"*.	c #CFCFCF",
"=.	c #BBBDBF",
"-.	c #F0F5FD",
";.	c #E9EFF9",
">.	c #E5EBF6",
",.	c #CFD6E2",
"'.	c #404348",
").	c #232529",
"!.	c #17191B",
"~.	c #8992A3",
"{.	c #B3C1DB",
"].	c #888B8F",
"^.	c #7F8080",
"/.	c #5E5F60",
"(.	c #1F1F20",
"_.	c #7A7C7F",
":.	c #76787D",
"<.	c #707379",
"[.	c #27292C",
"}.	c #191A1C",
"|.	c #616770",
"1.	c #303338",
"2.	c #474B53",
"3.	c #A2ADC2",
"4.	c #B5B9BF",
"5.	c #303030",
"6.	c #707070",
"7.	c #8F8F8F",
"8.	c #E0E6F3",
"9.	c #D2DBEB",
"0.	c #C9D3E4",
"a.	c #C6D1E3",
"b.	c #C4CFE2",
"c.	c #313338",
"d.	c #919AA8",
"e.	c #BECBE2",
"f.	c #EFEFEF",
"g.	c #DDDFDF",
"h.	c #FAFCFF",
"i.	c #B5B8BE",
"j.	c #3A3C3E",
"k.	c #D5DEEC",
"l.	c #D1DAE9",
"m.	c #9AA0AD",
"n.	c #BBC5D7",
"o.	c #0C0D0E",
"p.	c #949DAA",
"q.	c #C4D0E6",
"r.	c #9E9F9F",
"s.	c #6C7077",
"t.	c #ABB2BE",
"u.	c #0D0E0F",
"v.	c #34363A",
"w.	c #0D0D0F",
"x.	c #0D0D0E",
"y.	c #C8D4E8",
"z.	c #EEEFEF",
"A.	c #F3F7FD",
"B.	c #D8E0EE",
"C.	c #D4DCEB",
"D.	c #9EA4AF",
"E.	c #B7BFCC",
"F.	c #CED7E7",
"G.	c #CBD6EA",
"H.	c #E8EDF8",
"I.	c #E3EAF5",
"J.	c #E2E8F4",
"K.	c #E0E7F2",
"L.	c #DDE4F1",
"M.	c #DAE2EF",
"N.	c #D7DFEE",
"O.	c #D3DCEA",
"P.	c #D0DAE9",
"Q.	c #CFD9EC",
"R.	c #F5F9FE",
"S.	c #ECF1FA",
"T.	c #EAEFF9",
"U.	c #E4EAF5",
"V.	c #DFE6F2",
"W.	c #DAE1EE",
"X.	c #D5DDED",
"Y.	c #D1DBED",
"Z.	c #FBFDFF",
"`.	c #EFF4FB",
" +	c #EEF3FB",
".+	c #EBF0FA",
"++	c #E9EEF8",
"@+	c #DBE2EF",
"#+	c #D6DDEC",
"$+	c #D2DCEE",
"%+	c #BFC2FF",
"&+	c #EFF0FF",
"*+	c #E6EAFE",
"=+	c #B3B9FD",
"-+	c #B2B9FC",
";+	c #C0C6FA",
">+	c #E1E9F4",
",+	c #E0E6F2",
"'+	c #DEE5F1",
")+	c #DCE3F1",
"!+	c #D8DFED",
"~+	c #D6DEED",
"{+	c #D6DEEC",
"]+	c #D4DEF0",
"^+	c #000CFF",
"/+	c #4E57FF",
"(+	c #B5BBFE",
"_+	c #3A45FE",
":+	c #E8EEF8",
"<+	c #D5DFF0",
"[+	c #B3BAFD",
"}+	c #9199FB",
"|+	c #3944FD",
"1+	c #3943FD",
"2+	c #717AFA",
"3+	c #E1E8F3",
"4+	c #3742FC",
"5+	c #3741FB",
"6+	c #8992F6",
"7+	c #D9E1EE",
"8+	c #8790F4",
"9+	c #3540FB",
"0+	c #0E1AFF",
"a+	c #1D28FF",
"b+	c #EDF2FA",
"c+	c #757DFC",
"d+	c #2B36FE",
"e+	c #7F87F9",
"f+	c #1B27FD",
"g+	c #6E77F8",
"h+	c #6B75F6",
"i+	c #0D18FE",
"j+	c #1A26FD",
"k+	c #989FFE",
"l+	c #3B45FE",
"m+	c #3A44FE",
"n+	c #0D19FE",
"o+	c #3842FC",
"p+	c #B5BDF4",
"q+	c #525CF9",
"r+	c #505BF8",
"s+	c #AEB7F4",
"t+	c #B7BDFE",
"u+	c #7880FE",
"v+	c #1C27FE",
"w+	c #737CFB",
"x+	c #4751FC",
"y+	c #626CFA",
"z+	c #1B26FD",
"A+	c #B4BAFD",
"B+	c #2C37FE",
"C+	c #A1A8FB",
"D+	c #2B35FE",
"E+	c #4650FB",
"F+	c #606AF8",
"G+	c #A3ACF2",
"H+	c #D6DFF1",
"I+	c #7F85FF",
"J+	c #7C83FF",
"K+	c #7780FE",
"L+	c #D1D7FC",
"M+	c #C1C8FC",
"N+	c #767FFD",
"O+	c #BCC3F9",
"P+	c #818AFA",
"Q+	c #C7CDF5",
"R+	c #C0C8F2",
"S+	c #7A84F6",
"T+	c #AFB6F0",
"U+	c #D6E0F2",
"V+	c #F8FAFE",
"W+	c #EFF4FC",
"X+	c #EDF2FB",
"Y+	c #D7DEED",
"Z+	c #EAF3FF",
"              . . . . . . . . . . . . . . . +                   ",
"              . @ # # # # # # $ % & * = - ; > ,                 ",
"              . ' # # # # # $ % ) ! ~ { ] ^ / ( _               ",
"              . ' # # # # # $ : < [ * } | 1 2 3 4 5             ",
"              . ' # # # # # # 6 7 8 9 0 a b c d e f g           ",
"              . ' # # # # # # h i d j k l m n # o p q r         ",
"              . ' # # # # # # h s t u v = w x y z A B C D       ",
"              . ' # # # # # # $ 6 E F G H I J K K K K K K K     ",
"              . ' # L M N # # $ O O P 9 Q R S ] T O O U V W     ",
"              . ' N X M Y Z # # 6 ` P ! k  .S m ..+.@.#.$.W     ",
"              . ' %.&.# # X *.# 6 =.P -.;.>.,.'.O ).!.~.{.W     ",
"              . ].X M M M Y Y M ^./.(._.:.<.[.}.|.1.O 2.3.W     ",
"              . 4.5.# # # 6.7.# h ` P * 8.9.O 0.a.b.c.d.e.W     ",
"              . ' %.L # f.%.g.h.< i.j.a k.l.[.m.^ n.o.p.q.W     ",
"              . ' L %.Y %.r.: i O O O O s.m t.u.v.w.x.O y.W     ",
"              . ' # # L z.h 6 A.H l I | S B.] C.D.E.; F.G.W     ",
"              . ' # # # # $ u H.3 I.J.K.L.M.B.N.C.O.b P.Q.W     ",
"              . ' # # # # R.S.T.0 U.U.p V.L.- W.B.X.C.O.Y.W     ",
"              . ' # # # Z.`. +.+++0 >.= l I L.@+w B.#+m $+W     ",
"              . ' %+%+&+*+=+-+;+T.~ 3 U.>+,+'+)+M.!+~+{+]+W     ",
"              . ' ^+^+/+(+^+^+_+T.:+0 H U.l a | M.w ~+X.<+W     ",
"              . ' %+^+^+(+[+^+S.T.}+|+1+2+3+4+5+6+7+8+9+9+W     ",
"              . ' %+^+0+a+[+^+b+c+^+d+1+^+e+f+^+g+^+h+i+j+W     ",
"              . ' %+^+k+0+l+^+S.m+^+|+1+n+o+p+^+q+^+r+^+s+W     ",
"              . ' %+^+t+u+^+^+* m+v+w+w+x+y+{ z+^+j+^+j+<+W     ",
"              . ' ^+^+^+A+B+^+* C+^+D+v+^+E+V.F+^+G+^+r+H+W     ",
"              . ' I+J+K+L+M+N+T.T.O+w+P+Q+{ V.R+S+B.8+T+U+W     ",
"              . ' # V+W+W+ +X+T.T.:+0 H = { V.| M.B.B.Y+U+W     ",
"              . Z+# V+W+W+ +X+T.T.:+0 H = { V.| M.B.B.Y+U+W     ",
"              . W W W W W W W W W W W W W W W W W W W W W W     ",
"                                                                ",
"                                                                "};
