/* XPM */
static char * sangle_xpm[] = {
/* width height ncolors cpp [x_hot y_hot] */
"20 20 16 1 0 0",
/* colors */
"  c #D1D1D1",
". c #6B737B",
"X c #757575",
"o s iconColor1 m black c black",
"O c #C2C2C2",
"+ c #666666",
"@ c #666666",
"# c #282828",
"$ c #515151",
"% s iconGray4 m white c #949494",
"& c #282828",
"* c #B3B3B3",
"= c #3D3D3D",
"- c #A3A3A3",
"; c #000000",
": c #858585",
/* pixels */
"                    ",
"                    ",
"                    ",
"             .      ",
"            XooX    ",
"          O+oo@     ",
"         O@oo@#X    ",
"         $oo%O&o$O  ",
"       *=oo-  =oo-  ",
"      *=oo-   $&+O  ",
"     *#oo-     O=   ",
"    *#oo*       +-  ",
"   -;ooO        %:  ",
"  -;oo-          +O ",
" -ooooooooooooooooo ",
" oooooooooooooooooo ",
"                    ",
"                    ",
"                    ",
"                    "};
