/* XPM */
static char * save_x [] = {
"13 14 3 1",
"0 c #000000",
"1 c #8CB9BE",
"2 c #E5E5E5",
"2222222222222",
"2222220222222",
"2222200022222",
"2200001000022",
"2200011100022",
"2200111110022",
"2001111111002",
"0011111111100",
"2001111111002",
"2200111110022",
"2200011100022",
"2200001000022",
"2222200022222",
"2222220222222"};
