/* XPM */
static char * set_home_xpm[] = {
"18 18 184 2",
"  	c None",
". 	c #FB701F",
"+ 	c #E94002",
"@ 	c #FF974C",
"# 	c #FC873D",
"$ 	c #ED4004",
"% 	c #E53200",
"& 	c #FF8C3C",
"* 	c #FF9C55",
"= 	c #FA8037",
"- 	c #E93E03",
"; 	c #E73300",
"> 	c #E63300",
", 	c #FF761E",
"' 	c #FF8E3E",
") 	c #FF944B",
"! 	c #FC7E30",
"~ 	c #EA4002",
"{ 	c #E43300",
"] 	c #E83500",
"^ 	c #E73400",
"/ 	c #FF5500",
"( 	c #FF6404",
"_ 	c #FF842F",
": 	c #FE8636",
"< 	c #F0581D",
"[ 	c #E93506",
"} 	c #F13D00",
"| 	c #F23E00",
"1 	c #F53F00",
"2 	c #F43F00",
"3 	c #FF6505",
"4 	c #FF6504",
"5 	c #FD6B0F",
"6 	c #ED612C",
"7 	c #E0887D",
"8 	c #DF7E70",
"9 	c #EC481B",
"0 	c #FE4C00",
"a 	c #FF4F00",
"b 	c #FF5100",
"c 	c #F74C00",
"d 	c #FF7E20",
"e 	c #FF7E1F",
"f 	c #F96E1C",
"g 	c #EC6B40",
"h 	c #ECB7B1",
"i 	c #FCF8F9",
"j 	c #FAF5F6",
"k 	c #E7ABA5",
"l 	c #EA592A",
"m 	c #FB5D09",
"n 	c #FF6607",
"o 	c #FF6406",
"p 	c #FF974A",
"q 	c #FF9A4B",
"r 	c #F58044",
"s 	c #E78165",
"t 	c #E5B7AC",
"u 	c #DECABE",
"v 	c #EDDED6",
"w 	c #EFD9CC",
"x 	c #EED8C9",
"y 	c #E4B7AF",
"z 	c #E2724F",
"A 	c #F7752B",
"B 	c #FF862A",
"C 	c #EB7223",
"D 	c #FFAF73",
"E 	c #F49469",
"F 	c #E6988C",
"G 	c #F5E0DE",
"H 	c #C1845F",
"I 	c #8A5D47",
"J 	c #978688",
"K 	c #B99B90",
"L 	c #BF7B49",
"M 	c #E3D5CB",
"N 	c #E6CFCD",
"O 	c #DB8270",
"P 	c #F68F57",
"Q 	c #F69125",
"R 	c #EA947C",
"S 	c #DCA6A3",
"T 	c #FCF8F8",
"U 	c #FFFFFF",
"V 	c #D5A483",
"W 	c #B27B56",
"X 	c #A6755F",
"Y 	c #B1785E",
"Z 	c #CE905F",
"` 	c #E0D0C4",
" .	c #F4E5D0",
"..	c #E3D6CD",
"+.	c #EFA34D",
"@.	c #FEEC36",
"#.	c #F7941D",
"$.	c #9D6562",
"%.	c #B3B2B4",
"&.	c #F3EBE6",
"*.	c #DECCC1",
"=.	c #D4BCAD",
"-.	c #CCB2A3",
";.	c #DCCFC5",
">.	c #EDC17F",
",.	c #F9B51C",
"'.	c #F3BD66",
").	c #F5B441",
"!.	c #FEF068",
"~.	c #F7A81D",
"{.	c #F7A31D",
"].	c #FDFDFD",
"^.	c #F9F9F7",
"/.	c #CEAE9C",
"(.	c #BF8B6C",
"_.	c #C08765",
":.	c #D2BBAF",
"<.	c #F2C57A",
"[.	c #FBD229",
"}.	c #FBDB4E",
"|.	c #FBE36A",
"1.	c #FEFBA8",
"2.	c #F8A41D",
"3.	c #FCFCFC",
"4.	c #F8F8F8",
"5.	c #F1F1F0",
"6.	c #B87B55",
"7.	c #B85310",
"8.	c #C55A11",
"9.	c #C69E86",
"0.	c #E7E4DF",
"a.	c #EDC17D",
"b.	c #F9C935",
"c.	c #FDF6A0",
"d.	c #FFFFE9",
"e.	c #F8A829",
"f.	c #B1B1B2",
"g.	c #F7F7F7",
"h.	c #F1F1F1",
"i.	c #EBEAE9",
"j.	c #CA8556",
"k.	c #D96914",
"l.	c #D76F1A",
"m.	c #CAA285",
"n.	c #DFDFE0",
"o.	c #E7C08D",
"p.	c #F8BC25",
"q.	c #FDF49E",
"r.	c #FFFFF2",
"s.	c #B0B0B1",
"t.	c #F3F3F3",
"u.	c #EDEDED",
"v.	c #E6E6E5",
"w.	c #DF9860",
"x.	c #F77E17",
"y.	c #F27E1B",
"z.	c #D2A98B",
"A.	c #E6C490",
"B.	c #FBC92D",
"C.	c #FDE95E",
"D.	c #FDEE84",
"E.	c #FFFDB5",
"F.	c #A1A0A2",
"G.	c #C2C1C3",
"H.	c #BEBEBF",
"I.	c #BBBABB",
"J.	c #BA9475",
"K.	c #C8874B",
"L.	c #C8884D",
"M.	c #B29C8C",
"N.	c #CE9945",
"O.	c #FAC51C",
"P.	c #DBA038",
"Q.	c #E9AA2A",
"R.	c #FEF26F",
"S.	c #F7B01D",
"T.	c #F8A51D",
"U.	c #6C696D",
"V.	c #6B696E",
"W.	c #737276",
"X.	c #6F6C6E",
"Y.	c #EA922A",
"Z.	c #FEEC3E",
"`.	c #F8A721",
"            . +                     ",
"          @ # $ %                   ",
"        & * = - ; >                 ",
"      , ' ) ! ~ { ] ^               ",
"    / ( _ : < [ } | 1 2             ",
"  3 4 ( 5 6 7 8 9 0 a b c           ",
"  d e f g h i j k l m n o           ",
"p q r s t u v w x y z A B C         ",
"D E F G H I J K L M N O P Q         ",
"R S T U V W X Y Z `  ...+.@.#.      ",
"$.%.U U &.*.=.-.;.>.,.'.).!.~.{.,.  ",
"  %.U ].^./.(._.:.<.[.}.|.1.|.}.[.2.",
"  %.3.4.5.6.7.8.9.0.a.b.c.d.c.b.e.  ",
"  f.g.h.i.j.k.l.m.n.o.p.q.r.q.p.    ",
"  s.t.u.v.w.x.y.z.A.B.C.D.E.D.C.B.  ",
"  F.G.H.I.J.K.L.M.N.O.P.Q.R.S.~.O.T.",
"          U.V.W.X.      Y.Z.#.      ",
"                          `.        "};
