/* XPM */
static char * shading_xpm[] = {
"25 13 7 1",
" 	c None",
".	c #B3B3B3",
"+	c #C2C2C2",
"@	c #D1D1D1",
"#	c #E1E1E1",
"$	c #F0F0F0",
"%	c #FFFFFF",
"....................+....",
"+++++.+++++++++++++++++++",
"++++++++++++++++@+@+@+@++",
"@@@@@@@@@@@@@@@@@@@@@@@@@",
"@#@@#@#@@@@@@@@#@#@###@@@",
"#########################",
"$$$$$#$#$$#$#$#$#$$$#$###",
"$$$$$$$$$$$$$$$$$$$$$$$$$",
"%$$$%$$%$$$$%$$%$%$%$$%$$",
"$%%%%%%$%%%%$%%$%$%$%%$%$",
"%%%%%%%%%%%%%%%%%%%%%%%%%",
"%%%%%%%%%%%%%%%%%%%%%%%%%",
"%%%%%%%%%%%%%%%%%%%%%%%%%"};
