/* XPM */
static char * slength_xpm[] = {
/* width height ncolors cpp [x_hot y_hot] */
"20 20 14 1 0 0",
/* colors */
"  c #D1D1D1",
". c #666666",
"X s iconGray4 m white c #949494",
"o c #A3A3A3",
"O c #858585",
"+ c #666666",
"@ s iconColor1 m black c black",
"# c #515151",
"$ c #3D3D3D",
"% c #4A4A52",
"& c #000000",
"* c #282828",
"= c #6B737B",
"- c #B3B3B3",
/* pixels */
"                    ",
"                    ",
"                    ",
"                    ",
"                    ",
" .                . ",
" .   Xo      Oo   . ",
" .  +@O      #@O  . ",
" . $@@X      +@@% . ",
" .&@@@&******@@@@*. ",
" .*@@@@&@&&@&@@@@$. ",
" . #@@=      #@@+ . ",
" .  O@O      #&X  . ",
" .   oo      X-   . ",
" .                . ",
"                    ",
"                    ",
"                    ",
"                    ",
"                    "};
