/* XPM */
static char * squareplanar48_xpm[] = {
"48 48 277 2",
"  	c None",
". 	c #4B2A00",
"+ 	c #4C2A00",
"@ 	c #502D00",
"# 	c #643800",
"$ 	c #724000",
"% 	c #713F00",
"& 	c #613600",
"* 	c #683A00",
"= 	c #854A00",
"- 	c #905000",
"; 	c #774200",
"> 	c #5B3300",
", 	c #884C00",
"' 	c #A55C00",
") 	c #B36400",
"! 	c #9E5800",
"~ 	c #5A3200",
"{ 	c #894C00",
"] 	c #A65C00",
"^ 	c #B46400",
"/ 	c #B56500",
"( 	c #A05900",
"_ 	c #A75D00",
": 	c #B66500",
"< 	c #B66600",
"[ 	c #A25A00",
"} 	c #593100",
"| 	c #A85D00",
"1 	c #B76600",
"2 	c #B86700",
"3 	c #A45B00",
"4 	c #A95E00",
"5 	c #B96700",
"6 	c #BA6700",
"7 	c #4B3B27",
"8 	c #70583A",
"9 	c #8B6D48",
"0 	c #98784F",
"a 	c #997950",
"b 	c #80705B",
"c 	c #404040",
"d 	c #606060",
"e 	c #777777",
"f 	c #838383",
"g 	c #848484",
"h 	c #767676",
"i 	c #3F3F3F",
"j 	c #787878",
"k 	c #868686",
"l 	c #858585",
"m 	c #878787",
"n 	c #797979",
"o 	c #3E3E3E",
"p 	c #888888",
"q 	c #7B7B7B",
"r 	c #7A7A7A",
"s 	c #898989",
"t 	c #7C7C7C",
"u 	c #3D3D3D",
"v 	c #8A8A8A",
"w 	c #7D7D7D",
"x 	c #3A3A3A",
"y 	c #5E5E5E",
"z 	c #8C8C8C",
"A 	c #7F7F7F",
"B 	c #353535",
"C 	c #4B4B4B",
"D 	c #545454",
"E 	c #555555",
"F 	c #4A4A4A",
"G 	c #373737",
"H 	c #393939",
"I 	c #3B3B3B",
"J 	c #363636",
"K 	c #464646",
"L 	c #4C4C4C",
"M 	c #4F4F4F",
"N 	c #4D4D4D",
"O 	c #474747",
"P 	c #3C3C3C",
"Q 	c #454545",
"R 	c #565656",
"S 	c #5C5C5C",
"T 	c #616161",
"U 	c #5F5F5F",
"V 	c #5A5A5A",
"W 	c #515151",
"X 	c #414141",
"Y 	c #535353",
"Z 	c #5D5D5D",
"` 	c #656565",
" .	c #6B6B6B",
"..	c #6E6E6E",
"+.	c #707070",
"@.	c #6F6F6F",
"#.	c #636363",
"$.	c #383838",
"%.	c #443625",
"&.	c #532E00",
"*.	c #542F00",
"=.	c #552F00",
"-.	c #553000",
";.	c #563000",
">.	c #512D00",
",.	c #4D2B00",
"'.	c #5D3400",
").	c #5E3400",
"!.	c #603500",
"~.	c #623700",
"{.	c #4F412F",
"].	c #484848",
"^.	c #494949",
"/.	c #434343",
"(.	c #525252",
"_.	c #696969",
":.	c #717171",
"<.	c #646464",
"[.	c #575757",
"}.	c #6F5B42",
"|.	c #8C4E00",
"1.	c #8D4E00",
"2.	c #8E4F00",
"3.	c #8F4F00",
"4.	c #643700",
"5.	c #522E00",
"6.	c #673900",
"7.	c #8D4F00",
"8.	c #8F5000",
"9.	c #915000",
"0.	c #925100",
"a.	c #945200",
"b.	c #7A603F",
"c.	c #6A6A6A",
"d.	c #6C6C6C",
"e.	c #6D6D6D",
"f.	c #737373",
"g.	c #828282",
"h.	c #808080",
"i.	c #818181",
"j.	c #947A59",
"k.	c #BB6800",
"l.	c #945300",
"m.	c #5F3500",
"n.	c #864B00",
"o.	c #AC6000",
"p.	c #AE6100",
"q.	c #B06200",
"r.	c #B16300",
"s.	c #9B713C",
"t.	c #424242",
"u.	c #8B8B8B",
"v.	c #929292",
"w.	c #939393",
"x.	c #919191",
"y.	c #8D8D8D",
"z.	c #BCBCBC",
"A.	c #BEBEBE",
"B.	c #C0C0C0",
"C.	c #C1C1C1",
"D.	c #C2C2C2",
"E.	c #CFB993",
"F.	c #EAA129",
"G.	c #EA9922",
"H.	c #EA921A",
"I.	c #E78C14",
"J.	c #E4860F",
"K.	c #D37804",
"L.	c #734000",
"M.	c #BD6900",
"N.	c #BF6A00",
"O.	c #C06B00",
"P.	c #C26C00",
"Q.	c #C46D00",
"R.	c #AA7C42",
"S.	c #8E8E8E",
"T.	c #909090",
"U.	c #949494",
"V.	c #969696",
"W.	c #757575",
"X.	c #9E9E9E",
"Y.	c #D8D8D8",
"Z.	c #BFBFBF",
"`.	c #999999",
" +	c #959595",
".+	c #C8C8C8",
"++	c #C6C6C6",
"@+	c #C5C5C5",
"#+	c #C3C3C3",
"$+	c #B7B7B7",
"%+	c #C6A981",
"&+	c #EB8E11",
"*+	c #E8890C",
"=+	c #E68508",
"-+	c #E38106",
";+	c #E07F04",
">+	c #D67801",
",+	c #B26300",
"'+	c #794300",
")+	c #744000",
"!+	c #935200",
"~+	c #BE6A00",
"{+	c #C16C00",
"]+	c #C36C00",
"^+	c #A97B41",
"/+	c #8F8F8F",
"(+	c #B3B3B3",
"_+	c #FDFDFD",
":+	c #D9D9D9",
"<+	c #989898",
"[+	c #A58763",
"}+	c #CE7200",
"|+	c #CC7200",
"1+	c #CB7100",
"2+	c #C97000",
"3+	c #C76F00",
"4+	c #9B5600",
"5+	c #814800",
"6+	c #A65D00",
"7+	c #A45C00",
"8+	c #946934",
"9+	c #9C9C9C",
"0+	c #B2B2B2",
"a+	c #A6A6A6",
"b+	c #7E7E7E",
"c+	c #585858",
"d+	c #979797",
"e+	c #9D9D9D",
"f+	c #9B9B9B",
"g+	c #747474",
"h+	c #676767",
"i+	c #626262",
"j+	c #5B5B5B",
"k+	c #ADADAD",
"l+	c #AFAFAF",
"m+	c #CACACA",
"n+	c #CFCFCF",
"o+	c #595959",
"p+	c #D3D3D3",
"q+	c #D7D7D7",
"r+	c #AEAEAE",
"s+	c #ACACAC",
"t+	c #5C5346",
"u+	c #897A68",
"v+	c #B4A58F",
"w+	c #E0D7C6",
"x+	c #A3927C",
"y+	c #877866",
"z+	c #B56400",
"A+	c #E08C17",
"B+	c #F8CC6D",
"C+	c #D97900",
"D+	c #AA5F00",
"E+	c #784300",
"F+	c #DF8913",
"G+	c #F9CD67",
"H+	c #DD850F",
"I+	c #F9CB5E",
"J+	c #AA5E00",
"K+	c #754100",
"L+	c #DB820C",
"M+	c #F9C852",
"N+	c #AC5F00",
"O+	c #B16200",
"P+	c #D87E09",
"Q+	c #F9C246",
"R+	c #AD6000",
"S+	c #6D3C00",
"T+	c #AB5F00",
"U+	c #D27704",
"V+	c #EC9C20",
"W+	c #5C3300",
"X+	c #915100",
"Y+	c #C66F00",
"Z+	c #633700",
"`+	c #804700",
" @	c #834900",
"                                                                                                ",
"                                          . . + +                                               ",
"                                          @ # $ % &                                             ",
"                                        @ * = - - ;                                             ",
"                                        > , ' ) ) !                                             ",
"                                        ~ { ] ^ / (                                             ",
"                                        ~ { _ : < [                                             ",
"                                        } { | 1 2 3                                             ",
"                                        ~ { 4 5 6 '                                             ",
"                                        7 8 9 0 a b                                             ",
"                                        c d e f g h                                             ",
"                                        i d j g k j                                             ",
"                                        i d j l m n                                             ",
"                                        o d n k p q                                             ",
"                                        o d r m s t                                             ",
"                                        u d r p v w                                             ",
"                                        x y q s z A                                             ",
"                                        B x C D E F B                                           ",
"                                      B B B G H I I H J                                         ",
"                                    B B G o K L M M N O P                                       ",
"                                  B B H Q M R S d T U V W X                                     ",
"                                B B H K Y Z `  ...+.@. .#.D u $.$.H H x x I %.&.*.=.-.;.>.      ",
"  . ,.'.).!.& ~.{.K O ].^.F C L I J /.(.U _.:.e q w t n :.<.[.S Z y U d d T }.|.1.2.2.3.= 4.    ",
". 5.6.7.8.9.0.a.b.c. .d.e...@.:.D I N S _.f.t g.k p p g w :...h.h.i.i.g.g.g.j.k.k.k.k.k.^ l.m.  ",
". * n.o.p.q.r.) s.h.i.g.f l k m c.t.E <.:.t g u.v.w.x.y.k r y.z.A.B.C.D.D.D.E.F.G.H.I.J.K.q.L.  ",
",.; a.M.N.O.P.Q.R.z y.S.T.v.U.V.W.O V c.e g.u.X.Y.Z.`.U.z A  +.+++@+#+C.z.$+%+&+*+=+-+;+>+,+'+  ",
"  )+!+~+O.{+]+Q.^+u.z y.S.S./+T.+.].Z e.q k T.(+_+:+X.<+T.i.A  + +U.U.w.v.v.[+}+|+1+2+3+M.4+    ",
"    5+6+] ] ' 7+8+r q q q r r n R K S ..t p x.9+0+a+X.`./+b+c.                                  ",
"                                  i c+ .r m T.d+9+e+f+ +s g+                                    ",
"                                    L <.g+g.z w.d+<+U.z q                                       ",
"                                      Y h+e i.s z z k n                                         ",
"                                        N i+e z d+g.:.                                          ",
"                                          j+i.k+++w.f.                                          ",
"                                          j+h.l+m+U.W.                                          ",
"                                          V h.l+n+U.e                                           ",
"                                          o+h.l+p+ +j                                           ",
"                                          c+h.l+q+V.n                                           ",
"                                          c+h.r+Y.V.q                                           ",
"                                          [.A s+:+d+t                                           ",
"                                          t+u+v+w+x+y+                                          ",
"                                          '+z+A+B+C+D+                                          ",
"                                          E+^ F+G+C+_                                           ",
"                                          ; ) H+I+C+J+                                          ",
"                                          K+,+L+M+C+N+                                          ",
"                                          L.O+P+Q+C+R+                                          ",
"                                          S+T+U+V+P.6+                                          ",
"                                          W+X+2 Y+1                                             ",
"                                            Z+`+2. @                                            "};
