/* XPM */
static char *xpmdata[] =
{
/* width height ncolors chars_per_pixel */
"30 30 2 1",
/* colors */
"A c #D1D1D1",
"B c #000000",
/* pixels */
"AAAAAAAAAAAAAAAAAAAAAAAAAAAAAA",
"AAAAAAAAAAAAAAAAAAAAAAAAAAAAAA",
"AAAAAAAAAAAAAAAAAAAAAAAAAAAAAA",
"AAAAAAAAAAAAABBBAAAAAAAAAAAAAA",
"AAAAAAAAAAAAABBBAAAAAAAAAAAAAA",
"AAAAAAAAAAAAABBBAAAAAAAAAAAAAA",
"AAAAAAAAAAAAABBBAAAAAAAAAAAAAA",
"AAAAAAAAAAAAABBBAAAAAAAAAAAAAA",
"AAAAAAAAAAAAABBBAAAAAAAAAAAAAA",
"AAAAAAAAAAAAABBBAAAAAAAAAAAAAA",
"AAAAAAAAAAAABBBBBAAAAAAAAAAAAA",
"AAAAAAAAAABBAABABBBAAAAAAAAAAA",
"AAAAAAAAABBAABABBABBAAAAAAAAAA",
"AAAAAAAAABAAAAAAABBBAAAAAAAAAA",
"AABBBBBBBAAABABBBBABBBBBBBBAAA",
"AABBBBBBBBBAAABAAABBBBBBBBBAAA",
"AABBBBBBBBAABBAABBBBBBBBBBBAAA",
"AAAAAAAABABBAABBBBBABAAAAAAAAA",
"AAAAAAAAABBABBBABABBAAAAAAAAAA",
"AAAAAAAAABBBBABBBBBBAAAAAAAAAA",
"AAAAAAAAAABBBBBBABBAAAAAAAAAAA",
"AAAAAAAAAAAABBBBBAAAAAAAAAAAAA",
"AAAAAAAAAAAAABBBAAAAAAAAAAAAAA",
"AAAAAAAAAAAAABBBAAAAAAAAAAAAAA",
"AAAAAAAAAAAAABBBAAAAAAAAAAAAAA",
"AAAAAAAAAAAAABBBAAAAAAAAAAAAAA",
"AAAAAAAAAAAAABBBAAAAAAAAAAAAAA",
"AAAAAAAAAAAAABBBAAAAAAAAAAAAAA",
"AAAAAAAAAAAAAAAAAAAAAAAAAAAAAA",
"AAAAAAAAAAAAAAAAAAAAAAAAAAAAAA",
};
