/* XPM */
static char * squareplanar18_xpm[] = {
"18 18 72 1",
" 	c None",
".	c #653800",
"+	c #723F00",
"@	c #915000",
"#	c #A35B00",
"$	c #9A5600",
"%	c #B06200",
"&	c #796A57",
"*	c #897A66",
"=	c #6F6F6F",
"-	c #828282",
";	c #717171",
">	c #848484",
",	c #393939",
"'	c #474747",
")	c #505050",
"!	c #444444",
"~	c #383838",
"{	c #414141",
"]	c #535353",
"^	c #5F5F5F",
"/	c #5A5A5A",
"(	c #4F4F4F",
"_	c #5E3400",
":	c #7E4600",
"<	c #884C00",
"[	c #6B5E4D",
"}	c #656565",
"|	c #686868",
"1	c #4C4C4C",
"2	c #575757",
"3	c #808080",
"4	c #7B7B7B",
"5	c #7E7E7E",
"6	c #7F7F7F",
"7	c #887B69",
"8	c #AC6407",
"9	c #AA6103",
"0	c #874B00",
"a	c #754100",
"b	c #AD6000",
"c	c #BB6800",
"d	c #968063",
"e	c #8A8A8A",
"f	c #8D8D8D",
"g	c #636363",
"h	c #6A6A6A",
"i	c #898989",
"j	c #B5B5B5",
"k	c #969696",
"l	c #8C8C8C",
"m	c #B3B3B3",
"n	c #B1B1B1",
"o	c #B6A690",
"p	c #DE840D",
"q	c #D77B06",
"r	c #AC6001",
"s	c #A3A3A3",
"t	c #929292",
"u	c #7A7A7A",
"v	c #919191",
"w	c #838383",
"x	c #7C7C7C",
"y	c #AFAFAF",
"z	c #7D7D7D",
"A	c #B4B4B4",
"B	c #82786C",
"C	c #BBB2A4",
"D	c #A96104",
"E	c #E29B2E",
"F	c #A55D02",
"G	c #DE921F",
"                  ",
"        .+        ",
"        @#        ",
"        $%        ",
"        &*        ",
"        =-        ",
"        ;>        ",
"       ,')!       ",
"      ~{]^/(      ",
"_:<[}|12;34=567890",
"abcdefghijklmnopqr",
"      2hist6      ",
"       ^uvw       ",
"        xy        ",
"        zA        ",
"        BC        ",
"        DE        ",
"        FG        "};
