/* XPM */
static char * squareplanar24_xpm[] = {
"24 24 111 2",
"  	c None",
". 	c #583100",
"+ 	c #603500",
"@ 	c #643800",
"# 	c #905000",
"$ 	c #9B5600",
"% 	c #6D3C00",
"& 	c #A35B00",
"* 	c #B06200",
"= 	c #A55C00",
"- 	c #B46400",
"; 	c #594A38",
"> 	c #836E53",
", 	c #8E795E",
"' 	c #4E4E4E",
") 	c #757575",
"! 	c #828282",
"~ 	c #777777",
"{ 	c #858585",
"] 	c #4D4D4D",
"^ 	c #787878",
"/ 	c #878787",
"( 	c #393939",
"_ 	c #4B4B4B",
": 	c #545454",
"< 	c #424242",
"[ 	c #353535",
"} 	c #3C3C3C",
"| 	c #484848",
"1 	c #505050",
"2 	c #454545",
"3 	c #383838",
"4 	c #3D3D3D",
"5 	c #535353",
"6 	c #656565",
"7 	c #6E6E6E",
"8 	c #6F6F6F",
"9 	c #636363",
"0 	c #494949",
"a 	c #4A4A4A",
"b 	c #544737",
"c 	c #6A3B00",
"d 	c #6B3C00",
"e 	c #532E00",
"f 	c #794300",
"g 	c #8C4E00",
"h 	c #8F5000",
"i 	c #736048",
"j 	c #686868",
"k 	c #6B6B6B",
"l 	c #6D6D6D",
"m 	c #515151",
"n 	c #696969",
"o 	c #7B7B7B",
"p 	c #868686",
"q 	c #7C7C7C",
"r 	c #747474",
"s 	c #888888",
"t 	c #898989",
"u 	c #8A8A8A",
"v 	c #97846B",
"w 	c #BC6F09",
"x 	c #BC6C06",
"y 	c #B56602",
"z 	c #7C4500",
"A 	c #623600",
"B 	c #A35A00",
"C 	c #BB6800",
"D 	c #BF6A00",
"E 	c #9C7E58",
"F 	c #8D8D8D",
"G 	c #909090",
"H 	c #5A5A5A",
"I 	c #BDBDBD",
"J 	c #A0A0A0",
"K 	c #8B8B8B",
"L 	c #B9B9B9",
"M 	c #B8B8B8",
"N 	c #B4B4B4",
"O 	c #BDA88A",
"P 	c #E38910",
"Q 	c #DF8109",
"R 	c #D57804",
"S 	c #995500",
"T 	c #9C5700",
"U 	c #947650",
"V 	c #838383",
"W 	c #5D5D5D",
"X 	c #939393",
"Y 	c #B6B6B6",
"Z 	c #A2A2A2",
"` 	c #8E8E8E",
" .	c #7A7A7A",
"..	c #555555",
"+.	c #969696",
"@.	c #949494",
"#.	c #7F7F7F",
"$.	c #BBBBBB",
"%.	c #BEBEBE",
"&.	c #8A7C6B",
"*.	c #C6BAA7",
"=.	c #938470",
"-.	c #B16605",
";.	c #EBA83B",
">.	c #BC6900",
",.	c #AF6403",
"'.	c #EAA430",
").	c #BD6900",
"!.	c #A95F02",
"~.	c #E1921B",
"{.	c #B86700",
"                                                ",
"                      . +                       ",
"                    @ # $                       ",
"                    % & *                       ",
"                    % = -                       ",
"                    ; > ,                       ",
"                    ' ) !                       ",
"                    ' ~ {                       ",
"                    ] ^ /                       ",
"                    ( _ : <                     ",
"                  [ } | 1 ' 2                   ",
"                3 4 5 6 7 8 9 ] 0 a _ b c d c   ",
"e f g h i j k l m ' n o p / q r s t u v w x y z ",
"A B C D E u F G n H ~ F I J K G L M N O P Q R S ",
"  T * * U V V V H W q X Y Z `  .                ",
"                  ..r K +.X !                   ",
"                    W q @.#.                    ",
"                      V Y V                     ",
"                      V $.{                     ",
"                      ! %./                     ",
"                      &.*.=.                    ",
"                      -.;.>.                    ",
"                      ,.'.).                    ",
"                      !.~.{.                    "};
