/* XPM */
static char * squarepyramidal48_xpm[] = {
"48 48 270 2",
"  	c None",
". 	c #6E3D00",
"+ 	c #724000",
"@ 	c #6F3E00",
"# 	c #804700",
"$ 	c #A75D00",
"% 	c #B36400",
"& 	c #A95E00",
"* 	c #834900",
"= 	c #A85E00",
"- 	c #CA7000",
"; 	c #D77B05",
"> 	c #CB7100",
", 	c #AB6000",
"' 	c #874B00",
") 	c #B96700",
"! 	c #D67801",
"~ 	c #F9A72B",
"{ 	c #D87901",
"] 	c #BC6900",
"^ 	c #8C4E00",
"/ 	c #D77801",
"( 	c #FAAD31",
"_ 	c #D97A01",
": 	c #BD6900",
"< 	c #BA6700",
"[ 	c #FCB437",
"} 	c #DA7A02",
"| 	c #884B00",
"1 	c #BA6800",
"2 	c #FDBB3F",
"3 	c #DA7B02",
"4 	c #BE6A00",
"5 	c #FEC346",
"6 	c #DB7B02",
"7 	c #BB6800",
"8 	c #FFCB4E",
"9 	c #8D4E00",
"0 	c #5F5F5F",
"a 	c #838383",
"b 	c #989898",
"c 	c #E4E4E4",
"d 	c #9B9B9B",
"e 	c #858585",
"f 	c #626262",
"g 	c #999999",
"h 	c #E6E6E6",
"i 	c #636363",
"j 	c #E8E8E8",
"k 	c #9C9C9C",
"l 	c #868686",
"m 	c #9A9A9A",
"n 	c #E9E9E9",
"o 	c #EBEBEB",
"p 	c #9D9D9D",
"q 	c #EDEDED",
"r 	c #848484",
"s 	c #EEEEEE",
"t 	c #F0F0F0",
"u 	c #9E9E9E",
"v 	c #585858",
"w 	c #767676",
"x 	c #898989",
"y 	c #C9C9C9",
"z 	c #8B8B8B",
"A 	c #787878",
"B 	c #5B5B5B",
"C 	c #4C4C4C",
"D 	c #686868",
"E 	c #6A6A6A",
"F 	c #696969",
"G 	c #646464",
"H 	c #5A5A5A",
"I 	c #4E4E4E",
"J 	c #515151",
"K 	c #6F6F6F",
"L 	c #7B7B7B",
"M 	c #7C7C7C",
"N 	c #777777",
"O 	c #707070",
"P 	c #656565",
"Q 	c #535353",
"R 	c #505050",
"S 	c #737373",
"T 	c #7D7D7D",
"U 	c #888888",
"V 	c #7F7F7F",
"W 	c #474747",
"X 	c #606060",
"Y 	c #727272",
"Z 	c #7E7E7E",
"` 	c #878787",
" .	c #8D8D8D",
"..	c #919191",
"+.	c #929292",
"@.	c #8E8E8E",
"#.	c #818181",
"$.	c #757575",
"%.	c #4A4A4A",
"&.	c #545454",
"*.	c #6B6B6B",
"=.	c #949494",
"-.	c #979797",
";.	c #959595",
">.	c #909090",
",.	c #6E6E6E",
"'.	c #575757",
").	c #434343",
"!.	c #5C5C5C",
"~.	c #717171",
"{.	c #808080",
"].	c #939393",
"^.	c #A6A6A6",
"/.	c #A0A0A0",
"(.	c #828282",
"_.	c #747474",
":.	c #464646",
"<.	c #454545",
"[.	c #616161",
"}.	c #C0C0C0",
"|.	c #F2F2F2",
"1.	c #CBCBCB",
"2.	c #969696",
"3.	c #8F8F8F",
"4.	c #484848",
"5.	c #666666",
"6.	c #676767",
"7.	c #CCCCCC",
"8.	c #FEFEFE",
"9.	c #DADADA",
"0.	c #6D6D6D",
"a.	c #3E3E3E",
"b.	c #525252",
"c.	c #797979",
"d.	c #B9B9B9",
"e.	c #A7A7A7",
"f.	c #6F6C68",
"g.	c #5E5447",
"h.	c #794300",
"i.	c #65594A",
"j.	c #7E7D7C",
"k.	c #765E40",
"l.	c #874D04",
"m.	c #A05901",
"n.	c #A36518",
"o.	c #897864",
"p.	c #977D5B",
"q.	c #AB6105",
"r.	c #975400",
"s.	c #894C00",
"t.	c #7B4400",
"u.	c #9D5700",
"v.	c #7C746A",
"w.	c #79726B",
"x.	c #7B5019",
"y.	c #AA5E00",
"z.	c #B46400",
"A.	c #B86700",
"B.	c #B06B13",
"C.	c #817C75",
"D.	c #A09588",
"E.	c #D17A0E",
"F.	c #D07400",
"G.	c #C66E00",
"H.	c #B76600",
"I.	c #A35B00",
"J.	c #7E4600",
"K.	c #925100",
"L.	c #A15A00",
"M.	c #937958",
"N.	c #6D5F4C",
"O.	c #8C4F03",
"P.	c #B26300",
"Q.	c #8C6D45",
"R.	c #6C6C6C",
"S.	c #7A7A7A",
"T.	c #595959",
"U.	c #8C8C8C",
"V.	c #B78C56",
"W.	c #DE7C00",
"X.	c #DD7B00",
"Y.	c #DA7A00",
"Z.	c #D57700",
"`.	c #CC7200",
" +	c #AD6000",
".+	c #7F4700",
"++	c #6C3C00",
"@+	c #8B4E00",
"#+	c #96672C",
"$+	c #464645",
"%+	c #714309",
"&+	c #D27500",
"*+	c #DB7A00",
"=+	c #7D5E36",
"-+	c #424242",
";+	c #3B3B3B",
">+	c #4B4B4B",
",+	c #C07A23",
"'+	c #D67700",
")+	c #DC7A00",
"!+	c #DF7C00",
"~+	c #C87000",
"{+	c #693A00",
"]+	c #744000",
"^+	c #A85D00",
"/+	c #B56500",
"(+	c #864A00",
"_+	c #4F2D02",
":+	c #3A332A",
"<+	c #814800",
"[+	c #E18811",
"}+	c #F4AF3E",
"|+	c #5D472A",
"1+	c #383838",
"2+	c #404040",
"3+	c #353535",
"4+	c #373737",
"5+	c #5A5753",
"6+	c #A76615",
"7+	c #C06B00",
"8+	c #CC7100",
"9+	c #D57600",
"0+	c #CA7101",
"a+	c #F9BC4B",
"b+	c #D17502",
"c+	c #AC6000",
"d+	c #6B3C00",
"e+	c #A45B00",
"f+	c #B66500",
"g+	c #A55C00",
"h+	c #613600",
"i+	c #4B2A00",
"j+	c #492B06",
"k+	c #734000",
"l+	c #D57803",
"m+	c #C86F00",
"n+	c #824800",
"o+	c #3D3D3D",
"p+	c #3F3F3F",
"q+	c #393939",
"r+	c #3B3732",
"s+	c #39332B",
"t+	c #442D10",
"u+	c #4B2B03",
"v+	c #4A3519",
"w+	c #674112",
"x+	c #8F5000",
"y+	c #C76F00",
"z+	c #C46D00",
"A+	c #A05900",
"B+	c #653800",
"C+	c #844900",
"D+	c #522E00",
"E+	c #5A3200",
"F+	c #884C00",
"G+	c #B16300",
"H+	c #824900",
"I+	c #542F00",
"J+	c #4E2C00",
"K+	c #502D00",
"L+	c #764200",
"M+	c #864B00",
"N+	c #9C5700",
"O+	c #7B4500",
"P+	c #593200",
"Q+	c #713F00",
"R+	c #703F00",
"S+	c #764100",
"T+	c #7A4400",
"U+	c #6D3D00",
"                                                                                                ",
"                                                                                                ",
"                                                                                                ",
"                                                                                                ",
"                                                                                                ",
"                                                                                                ",
"                                            . + @                                               ",
"                                          # $ % & *                                             ",
"                                          = - ; > ,                                             ",
"                                        ' ) ! ~ { ] ^                                           ",
"                                        ' ) / ( _ : ^                                           ",
"                                        ' < / [ } : ^                                           ",
"                                        | 1 { 2 3 4 ^                                           ",
"                                        | 1 { 5 6 4 ^                                           ",
"                                        | 7 { 8 6 4 9                                           ",
"                                        0 a b c d e f                                           ",
"                                        0 a g h d e i                                           ",
"                                        0 a g j k l i                                           ",
"                                        0 a m n k l i                                           ",
"                                        0 a m o p l i                                           ",
"                                        0 a m q p l i                                           ",
"                                        0 r m s p l i                                           ",
"                                        0 r m t u l i                                           ",
"                                        v w x y z A B                                           ",
"                                      C v i D E F G H I                                         ",
"                                    J i K w L M L N O P Q                                       ",
"                                  R P S T r U x U e V w D Q                                     ",
"                                W X Y Z `  ...+...@.x #.$.i %.                                  ",
"                                &.*.L l @.=.-.g b ;.>.U T ,.'.                                  ",
"                              ).!.~.{.z ].b u ^./.g =. .(._.X :.                                ",
"                              <.[._.{.` =.d }.|.1.p 2.3.e A i 4.                                ",
"                              ).[.5.0 6.A ].7.8.9.u 2.3.e T O X                                 ",
"                        &.X 0.a.b.0 ,.$.c.L u d.e.g =. .x >.z r A E !.                          ",
"                    H P Y L f.g.D _.c.M L A a g b ;.>.U +.-.2.=.>.x V ~.G                       ",
"              h.i.E _.M j.k.l.m.n.o.V T A ~.$.+...@.x (.@.].2.b b 2.].@.p.q.r.s.                ",
"          t.^ u.v.T (.w.x.r.y.z.A.B.C.A K f K x U l {.A T l  .].-.g m D.E.F.G.H.I.9             ",
"      J.K.L., % M.a N.O.P.< ) : 7 z.Q.R.!.I A Z T S._.E T.E A a U.+.-.V.W.X.Y.Z.`. +u..+        ",
"    ++@+ +z.A.7 #+$+%+% &+*+> 7 z.$ =+&.-+f 0.K ,.E i '.).;+>+[.S {.x ,+'+)+!+!+'+&+~+L.{+      ",
"    ]+^+H.) /+(+_+:+<+7 [+}+'+z.I.^ |+1+<.b.v H v Q %.2+3+3+3+4+).5+R.6+7+8+9+*+0+a+b+c+@       ",
"    d+e+f+g+h+i+i+j+k+ +0+l+m+g+n+{+        o+p+o+        q+r+s+t+u+v+w+x+= 1 G.y+; z+A+B+      ",
"      C+J.D+i+i+i+i+E+F+= G+A+H+                              I+J+i+i+i+K+L+M+N+A+z.I.O+        ",
"        i+i+i+        P+Q+R+S+                                  E+I+i+i+        Q+T+U+          ",
"                                                                                                ",
"                                                                                                ",
"                                                                                                ",
"                                                                                                ",
"                                                                                                ",
"                                                                                                "};
