/* XPM */
static char *xpmdata[] =
{
/* width height ncolors chars_per_pixel */
"30 30 2 1",
/* colors */
"A c #D1D1D1",
"B c #000000",
/* pixels */
"AAAAAAAAAAAAAAAAAAAAAAAAAAAAAA",
"AAAAAAAAAAAAAAAAAAAAAAAAAAAAAA",
"AAAAAAAAAAAAAABBBAAAAAAAAAAAAA",
"AAAAAAAAAAAAAABBBAAAAAAAAAAAAA",
"AAAAAAAAAAAAAABBBAAAAAAAAAAAAA",
"AAAAAAAAAAAAAABBBAAAAAAAAAAAAA",
"AAAAAAAAAAAAAABBBAAAAAAAAAAAAA",
"AAAAAAAAAAAAAABBBAAAAAAAAAAAAA",
"AAAAAAAAAAAAAABBBAAAAAAAAAAAAA",
"AAAAAAAAAAAAAABBBAAAAAAAAAAAAA",
"AAAAAAAAAAAAABBBBBAAAAAAAAAAAA",
"AAAAAAAAAAABBAABABBBAAAAAAAAAA",
"AAAAAAAAAABBAABABBABBAAAAAAAAA",
"AAAAAAAAAABAAAAABABBBBAABABAAA",
"AAAAAAABABAABAABAABABBAABABAAA",
"AABAABABABBAAABABBBBBBAABABAAA",
"AABAABABABBABBABAABABBAABABAAA",
"AABAABABABABABABBBBBBBAABABAAA",
"AABAABAAAABBBABABABABBAAAABAAA",
"AABAABAAABBBBBBBBBBBBBAAAAAAAA",
"AABAAAAABBBBBABBABBBBBBAAAAAAA",
"AAAAAAABBBBBABBBBBAABBBBAAAAAA",
"AAAAAAABBBBAAAAAAAAAABBBBAAAAA",
"AAAAAABBBBBAAAAAAAAAABBBBBAAAA",
"AAAAABBBBBAAAAAAAAAAAABBBBBAAA",
"AAAABBBBBBAAAAAAAAAAAABBBBBBAA",
"AAABBBBBBAAAAAAAAAAAAAABBBBBBA",
"AAABBBBBBAAAAAAAAAAAAAABBBBBBA",
"AAAAAAAAAAAAAAAAAAAAAAAAAAAAAA",
"AAAAAAAAAAAAAAAAAAAAAAAAAAAAAA",
};
