/* XPM */
static char * squarepyramidal18_xpm[] = {
"18 18 85 1",
" 	c None",
".	c #9D5902",
"+	c #B06504",
"@	c #D47D0A",
"#	c #B46704",
"$	c #B46906",
"%	c #DB8611",
"&	c #B86B06",
"*	c #9D7746",
"=	c #C2995E",
"-	c #9F7947",
";	c #848484",
">	c #A9A9A9",
",	c #878787",
"'	c #858585",
")	c #ABABAB",
"!	c #808080",
"~	c #A3A3A3",
"{	c #828282",
"]	c #5C5C5C",
"^	c #6E6E6E",
"/	c #777777",
"(	c #707070",
"_	c #5E5E5E",
":	c #717171",
"<	c #8B8B8B",
"[	c #939393",
"}	c #8D8D8D",
"|	c #747474",
"1	c #5B5B5B",
"2	c #737373",
"3	c #979797",
"4	c #BCBCBC",
"5	c #A1A1A1",
"6	c #656565",
"7	c #6B645C",
"8	c #685F54",
"9	c #73706E",
"0	c #9C9C9C",
"a	c #969696",
"b	c #8C8C8C",
"c	c #8A8A8A",
"d	c #7E7E7E",
"e	c #995500",
"f	c #836541",
"g	c #806C53",
"h	c #9C631C",
"i	c #AA640C",
"j	c #897051",
"k	c #6B6B6B",
"l	c #7C7C7C",
"m	c #868686",
"n	c #93918F",
"o	c #B28244",
"p	c #BF6B00",
"q	c #B06200",
"r	c #925100",
"s	c #A25A00",
"t	c #734C1B",
"u	c #8D5611",
"v	c #CA7507",
"w	c #B06301",
"x	c #7E5827",
"y	c #535353",
"z	c #606060",
"A	c #5F5F5F",
"B	c #4B4A4A",
"C	c #524F4B",
"D	c #6C6155",
"E	c #AC6A18",
"F	c #CE7300",
"G	c #CC7606",
"H	c #9B5803",
"I	c #774200",
"J	c #663900",
"K	c #502E03",
"L	c #7B4502",
"M	c #A05B03",
"N	c #965401",
"O	c #493215",
"P	c #50320D",
"Q	c #693D05",
"R	c #9D5800",
"S	c #A15C03",
"T	c #844B02",
"                  ",
"                  ",
"         .        ",
"        +@#       ",
"        $%&       ",
"        *=-       ",
"        ;>,       ",
"        '),       ",
"        !~{       ",
"       ]^/(_      ",
"       :<[}|      ",
"      12345!6     ",
"     789{0abcd    ",
"  efghijkld/mnopq ",
" rstuvwxyzABCDEFGH",
" IJKLMN     OPQRST",
"                  ",
"                  "};
