/* XPM */
static char * squarepyramidal24_xpm[] = {
"24 24 120 2",
"  	c None",
". 	c #8C4E00",
"+ 	c #8D4F00",
"@ 	c #985500",
"# 	c #CF7706",
"$ 	c #D07806",
"% 	c #9C5700",
"& 	c #9D5700",
"* 	c #D9820E",
"= 	c #DB840E",
"- 	c #A25A00",
"; 	c #9E5800",
"> 	c #DB8712",
", 	c #DD8812",
"' 	c #876337",
") 	c #C1985E",
"! 	c #C39A5F",
"~ 	c #8A6639",
"{ 	c #6F6F6F",
"] 	c #A8A8A8",
"^ 	c #AAAAAA",
"/ 	c #727272",
"( 	c #A9A9A9",
"_ 	c #ABABAB",
": 	c #ACACAC",
"< 	c #6A6A6A",
"[ 	c #A0A0A0",
"} 	c #A2A2A2",
"| 	c #6D6D6D",
"1 	c #535353",
"2 	c #646464",
"3 	c #717171",
"4 	c #666666",
"5 	c #555555",
"6 	c #505050",
"7 	c #6C6C6C",
"8 	c #828282",
"9 	c #8C8C8C",
"0 	c #848484",
"a 	c #5F5F5F",
"b 	c #7E7E7E",
"c 	c #909090",
"d 	c #9B9B9B",
"e 	c #9C9C9C",
"f 	c #929292",
"g 	c #808080",
"h 	c #626262",
"i 	c #616161",
"j 	c #888888",
"k 	c #C8C8C8",
"l 	c #D0D0D0",
"m 	c #979797",
"n 	c #868686",
"o 	c #696969",
"p 	c #63605D",
"q 	c #5F5E5D",
"r 	c #737373",
"s 	c #7A7A7A",
"t 	c #919191",
"u 	c #8E8E8E",
"v 	c #858585",
"w 	c #757575",
"x 	c #8C4D00",
"y 	c #746B60",
"z 	c #7A7977",
"A 	c #80633F",
"B 	c #9C5906",
"C 	c #A7691A",
"D 	c #847A6F",
"E 	c #777777",
"F 	c #979696",
"G 	c #A98352",
"H 	c #B56501",
"I 	c #A15A00",
"J 	c #7E4600",
"K 	c #A45B00",
"L 	c #B46400",
"M 	c #836A4C",
"N 	c #815620",
"O 	c #C16C00",
"P 	c #C16B00",
"Q 	c #B56500",
"R 	c #81633C",
"S 	c #6B6B6B",
"T 	c #545454",
"U 	c #7C7C7C",
"V 	c #928C84",
"W 	c #CE7D18",
"X 	c #DC7B00",
"Y 	c #D47600",
"Z 	c #B86600",
"` 	c #874B00",
" .	c #8D4E00",
"..	c #B36300",
"+.	c #7D4600",
"@.	c #4A2E0B",
"#.	c #8C4F02",
"$.	c #D78211",
"%.	c #C67105",
"&.	c #925100",
"*.	c #454545",
"=.	c #4E4E4E",
"-.	c #494949",
";.	c #383634",
">.	c #42382C",
",.	c #5D4B34",
"'.	c #9C5A08",
").	c #C26C00",
"!.	c #CD7402",
"~.	c #D78413",
"{.	c #8A4D00",
"].	c #5C3400",
"^.	c #4B2A00",
"/.	c #6A3B00",
"(.	c #8F5000",
"_.	c #8E4F00",
":.	c #522E00",
"<.	c #4D2B00",
"[.	c #4F2C00",
"}.	c #925200",
"                                                ",
"                                                ",
"                                                ",
"                      . +                       ",
"                    @ # $ %                     ",
"                    & * = -                     ",
"                    ; > , -                     ",
"                    ' ) ! ~                     ",
"                    { ] ^ /                     ",
"                    { ( _ /                     ",
"                    { ^ : /                     ",
"                    < [ } |                     ",
"                  1 2 3 3 4 5                   ",
"                6 7 8 9 9 0 { 1                 ",
"                a b c d e f g h                 ",
"                i 3 j k l m n 7                 ",
"            o p q r s t [ f u t v w             ",
"      x y z A B C D / E 9 0 0 t m F G H I       ",
"  J K L M N O P Q R 5 | w S T a U V W X Y Z `   ",
"   ...+.@.#.$.%.&.  *.=.=.-.  ;.>.,.'.).!.~.{.  ",
"    ].^.  /.(._.                :.<.[.  + }.    ",
"                                                ",
"                                                ",
"                                                "};
