/* XPM */
static char *noname[] = {
/* width height ncolors chars_per_pixel */
"40 26 20 1",
/* colors */
"` c #000000",
"a c #A3A3A3",
"b c #666666",
"c c #858585",
"d c #757575",
"e c #282828",
"f c #515151",
"g c #F0F0F0",
"h c #3D3D3D",
"i c #8C9C94",
"j c #C2C2C2",
"k c #949494",
"l c #666666",
"m c #6B737B",
"n c #FFFFFF",
"o c #E1E1E1",
"p c #282828",
"q c #D1D1D1",
"r c #000000",
"s c #B3B3B3",
/* pixels */
"dmmmmmmmmdmmmmmmmmmmmmmmmmmmmmdmmmmdddml",
"ksssssssssssssssssaaaaaaaaaaaaaassasaaac",
"sqqqqqqqqqqqqqq``````````assjjjjjjjjjsjk",
"jooooooooooooo````````````aqqqqqqqqqqqqa",
"jggogoggggggg``````````````soggoggggooos",
"jnnnnnnnnnnj````````````````pnnnnnnngnnj",
"snnnnnnnnnn``````````````````snnnnnnnnnj",
"snnnnnnnne`````````````````````nnnnnnnns",
"snnnnnnnn``````````````````````jnnnnnnns",
"snnnnnnno```e`````````p`````````nnnnnnnj",
"snnnnnnno``nnn`nnnnjnnnn`nnnnd``nnnnnnns",
"snggnnnnn`bn`nn`nn``n``nnnn`cn``nnnnnnnj",
"snnnggggn``nnr``nn``n``nnnnnnp``nngggnnj",
"snnngnnnn``bnn``nn``n``nnnnnn```gnnngggj",
"jggngggnn`kn`nn`nn``n``nnnn`````ngngggnj",
"sgnnggggg``nbnn`nn``nnhn`nn`````gnggggnj",
"soooooggo``ln```hr```cn``hp`````ooogoggs",
"soooooooq```````````````````````ooooooos",
"sqoqqqoqq``````````````````````qqqqqqqqs",
"aqqqqqqqqjr```````````````````cjjjjqjqqa",
"ajjjjjjjjjj``````````````````jjjjjjjjjjk",
"asssssssssss````````````````sssssssssssk",
"ksssasaasasaar`````````````assssssaaaaak",
"kaaaaaaaaaaaaar```````````aaaaaaaaaaaaac",
"ckikkkkkkkkkkkk``````````kkkkkkikkkikkkc",
"lbbbbbbbbfbbbbffbbbbbbbbbbblbbbbbffbbfff"
};
