/* XPM */
static char * stop_xpm[] = {
"22 22 127 2",
"  	c None",
". 	c #CA0000",
"+ 	c #D10000",
"@ 	c #D00000",
"# 	c #CE0000",
"$ 	c #CC0000",
"% 	c #CB0000",
"& 	c #C90000",
"* 	c #C30000",
"= 	c #B60000",
"- 	c #DB2D2D",
"; 	c #FCB8B8",
"> 	c #CE2D2D",
", 	c #B20000",
"' 	c #DB2929",
") 	c #FED4D4",
"! 	c #FFE3E3",
"~ 	c #CB2929",
"{ 	c #AD0000",
"] 	c #DB2525",
"^ 	c #FEBFBF",
"/ 	c #FFCDCD",
"( 	c #C82525",
"_ 	c #A80000",
": 	c #DB2121",
"< 	c #FEAAAA",
"[ 	c #FFB6B6",
"} 	c #FFBBBB",
"| 	c #FFE6E6",
"1 	c #C52121",
"2 	c #A40000",
"3 	c #DB1C1C",
"4 	c #FE9494",
"5 	c #FF9E9E",
"6 	c #FFA5A5",
"7 	c #FFEEEE",
"8 	c #FFFFFF",
"9 	c #C21C1C",
"0 	c #9F0000",
"a 	c #FC6464",
"b 	c #FF8585",
"c 	c #FFC1C1",
"d 	c #FFEAEA",
"e 	c #FF8D8D",
"f 	c #FC6666",
"g 	c #F73535",
"h 	c #FC5151",
"i 	c #FF6C6C",
"j 	c #FFC6C6",
"k 	c #FFE5E5",
"l 	c #FCADAD",
"m 	c #F72B2B",
"n 	c #F30707",
"o 	c #F20000",
"p 	c #B00000",
"q 	c #CF0000",
"r 	c #FC3D3D",
"s 	c #FF5252",
"t 	c #FFBCBC",
"u 	c #FA9F9F",
"v 	c #AE0000",
"w 	c #FC2A2A",
"x 	c #FF3838",
"y 	c #FFB2B2",
"z 	c #AC0000",
"A 	c #FC1515",
"B 	c #FF1D1D",
"C 	c #FF2B2B",
"D 	c #FFD6D6",
"E 	c #FDCFCF",
"F 	c #F31010",
"G 	c #AB0000",
"H 	c #FD0303",
"I 	c #FF0505",
"J 	c #FF1414",
"K 	c #FFD1D1",
"L 	c #F61010",
"M 	c #F60000",
"N 	c #AA0000",
"O 	c #FC0000",
"P 	c #FD0000",
"Q 	c #FC1010",
"R 	c #FFCFCF",
"S 	c #FE9F9F",
"T 	c #FECFCF",
"U 	c #FA1010",
"V 	c #FA0000",
"W 	c #A90000",
"X 	c #C50000",
"Y 	c #FE0202",
"Z 	c #FFA0A0",
"` 	c #FFA1A1",
" .	c #A10000",
"..	c #B50000",
"+.	c #CF0505",
"@.	c #FF1111",
"#.	c #FF2020",
"$.	c #FFD3D3",
"%.	c #FFA7A7",
"&.	c #B70505",
"*.	c #8A0000",
"=.	c #B10000",
"-.	c #CD0B0B",
";.	c #FF2121",
">.	c #FF3030",
",.	c #FF8484",
"'.	c #B70B0B",
").	c #CA1212",
"!.	c #FF3232",
"~.	c #B71212",
"{.	c #A70000",
"].	c #C71818",
"^.	c #FF4343",
"/.	c #B71818",
"(.	c #A30000",
"_.	c #C41E1E",
":.	c #FF5454",
"<.	c #B71E1E",
"[.	c #9E0000",
"}.	c #AE1212",
"|.	c #B31818",
"1.	c #B11818",
"2.	c #AF1818",
"3.	c #AD1818",
"4.	c #AC1818",
"5.	c #AA1818",
"6.	c #A11212",
"                                            ",
"            . + + @ # $ % & * =             ",
"          . - ; ; ; ; ; ; ; ; > ,           ",
"        . ' ) ! ! ! ! ! ! ! ! ) ~ {         ",
"      . ] ^ / / / / / / / / / / ^ ( _       ",
"    . : < [ } | } [ [ [ [ } | } [ < 1 2     ",
"  . 3 4 5 6 7 8 7 6 5 5 6 7 8 7 6 5 4 9 0   ",
"  @ a b b c 8 8 8 d e e d 8 8 8 c b f g {   ",
"  + h i i i j 8 8 8 k k 8 8 8 l m n o o p   ",
"  q r s s s s t 8 8 8 8 8 8 u o o o o o v   ",
"  # w x x x x x y 8 8 8 8 u o o o o o o z   ",
"  $ A B B B B C D 8 8 8 8 E F o o o o o G   ",
"  % H I I I J K 8 8 8 8 8 8 E L M M M M N   ",
"  . O O P Q R 8 8 8 S S 8 8 8 T U V V V W   ",
"  X Y Y Y Z 8 8 8 ` Y Y ` 8 8 8 Z Y Y Y  .  ",
"  ..+.@.@.#.$.8 %.@.@.@.@.%.8 $.#.@.@.&.*.  ",
"    =.-.;.;.>.,.;.;.;.;.;.;.,.>.;.;.'.*.    ",
"      z ).!.!.!.!.!.!.!.!.!.!.!.!.~.*.      ",
"        {.].^.^.^.^.^.^.^.^.^.^./.*.        ",
"          (._.:.:.:.:.:.:.:.:.<.*.          ",
"            [.}.|.1.2.3.4.5.6.*.            ",
"                                            "};
