/* XPM */
static char * styles_xpm[] = {
"20 18 14 1",
" 	c None",
".	c #000000",
"+	c #0000FF",
"@	c #0080FF",
"#	c #DCDBBB",
"$	c #000080",
"%	c #C00000",
"&	c #152A11",
"*	c #D3D2C8",
"=	c #FF0000",
"-	c #D3D2D0",
";	c #DBD0C4",
">	c #CCCCCC",
",	c #DADAD2",
"                    ",
"    ..  +++         ",
"   .  .+@++     .   ",
"   . #++@@$+++  ..  ",
"   %%% ++$&@+$   .. ",
"   %%%%  $+@@$ +  . ",
"  * %%%% +++$$+++ . ",
"     %=== + $+@++  .",
"  %%  ====  $+@@- ;.",
" %%%%  ==== +++.   .",
"  %%=== ==%%   .   .",
"    ==== %%%    ... ",
"      ==% %%%       ",
"       %%   %.      ",
"        %% >,. .....",
"          ...  .....",
"                ... ",
"                 .  "};
