/* XPM */
static char *tab[]={
"65 18 5 1",
"c c #000000",
"  c #bfd0c0",
".	c #B3B3B3",
"&	c #FFFFFF",
"@	c #C2C2C2",
"                                                                 ",
"                                                                 ",
"     ccccccccccccccccccccccccccccccccccccccccccccccccccccccc     ",
"    c.......................................................c    ",
"   c.........................................................c   ",
"  c@@@@@@@@@@@@@@@@@@@@@@@@@@@@@@@@@@@@@@@@@@@@@@@@@@@@@@@@@@@c  ",
"  c                                                           c  ",
"  c                                                           c  ",
"  c                                                           c  ",
"  c                                                           c  ",
"  c                                                           c  ",
"  c                                                           c  ",
"  c                                                           c  ",
"  c                                                           c  ",
"  c                                                           c  ",
"  c&&&&&&&&&&&&&&&&&&&&&&&&&&&&&&&&&&&&&&&&&&&&&&&&&&&&&&&&&&&c  ",
"  ccccccccccccccccccccccccccccccccccccccccccccccccccccccccccccc  ",
"                                                                 "};
