/* XPM */
static char * taskconrxmetadyn [] = {
"16 16 5 1",
"0 c None",
"1 c #FF7937",
"2 c #FFBF44",
"3 c #000000",
"4 c #FFED9D",
"0000000000000000",
"0000000000000000",
"0000000001111110",
"0000111112233210",
"1111332224333210",
"1222333443333210",
"1244333343333210",
"1244333333433421",
"1244334333433421",
"1244334434433421",
"0124334444433221",
"0124334222211111",
"0122222111110000",
"0111111000000000",
"0000000000000000",
"0000000000000000"};
