/* XPM */
static char * taskrxdirdyvtst_xpm[] = {
"16 16 5 1",
" 	c None",
".	c #377937",
"+	c #44BF44",
"@	c #000000",
"#	c #9DED9D",
"                ",
"                ",
"         ...... ",
"    ......++++. ",
"....+@@@@###++. ",
".+++@@@@@@##++. ",
".+##@@##@@@##+. ",
".+##@@###@@###+.",
".+##@@###@@###+.",
".+##@@##@@@###+.",
" .+#@@@@@@#++++.",
" .+#@@@@@++.....",
" .++++......    ",
" ......         ",
"                ",
"                "};
