/* XPM */
static char * terminal24_xpm[] = {
"24 24 105 2",
"  	c None",
". 	c #464646",
"+ 	c #4F4F4F",
"@ 	c #565656",
"# 	c #575757",
"$ 	c #535353",
"% 	c #4B4B4B",
"& 	c #606060",
"* 	c #6E6E6E",
"= 	c #767676",
"- 	c #777777",
"; 	c #727272",
"> 	c #656565",
", 	c #484848",
"' 	c #626262",
") 	c #828282",
"! 	c #888888",
"~ 	c #8A8A8A",
"{ 	c #868686",
"] 	c #7C7C7C",
"^ 	c #6A6A6A",
"/ 	c #525252",
"( 	c #585858",
"_ 	c #717171",
": 	c #8E8E8E",
"< 	c #949494",
"[ 	c #969696",
"} 	c #939393",
"| 	c #7A7A7A",
"1 	c #424242",
"2 	c #797979",
"3 	c #898989",
"4 	c #A3A3A3",
"5 	c #A9A9A9",
"6 	c #9A9A9A",
"7 	c #919191",
"8 	c #838383",
"9 	c #6B6B6B",
"0 	c #858585",
"a 	c #848484",
"b 	c #997951",
"c 	c #BB6800",
"d 	c #BA6700",
"e 	c #B96600",
"f 	c #B66500",
"g 	c #995500",
"h 	c #444444",
"i 	c #666666",
"j 	c #8C8C8C",
"k 	c #979797",
"l 	c #CECECE",
"m 	c #E4E4E4",
"n 	c #707070",
"o 	c #ACACAC",
"p 	c #C2C2C2",
"q 	c #BFBFBF",
"r 	c #BBBBBB",
"s 	c #B6B6B6",
"t 	c #AFAFAF",
"u 	c #C19D6E",
"v 	c #E4840B",
"w 	c #E08008",
"x 	c #DC7D05",
"y 	c #D87A03",
"z 	c #B96700",
"A 	c #434343",
"B 	c #646464",
"C 	c #B2B2B2",
"D 	c #C0C0C0",
"E 	c #9C9C9C",
"F 	c #929292",
"G 	c #AEAEAE",
"H 	c #ADADAD",
"I 	c #A4A4A4",
"J 	c #B79467",
"K 	c #DA7D08",
"L 	c #D77A05",
"M 	c #D47803",
"N 	c #D07502",
"O 	c #B26300",
"P 	c #3F3F3F",
"Q 	c #5C5C5C",
"R 	c #737373",
"S 	c #8B8B8B",
"T 	c #7D7D7D",
"U 	c #787878",
"V 	c #8A6D49",
"W 	c #A85E00",
"X 	c #A75D00",
"Y 	c #A35B00",
"Z 	c #874B00",
"` 	c #676767",
" .	c #7F7F7F",
"..	c #3E3E3E",
"+.	c #686868",
"@.	c #747474",
"#.	c #7B7B7B",
"$.	c #474747",
"%.	c #505050",
"&.	c #5E5E5E",
"*.	c #616161",
"=.	c #545454",
"-.	c #454545",
";.	c #393939",
">.	c #404040",
"                                                ",
"                                                ",
"                                                ",
"                                                ",
"                                                ",
"                                                ",
"                                                ",
"        . + @ # $                               ",
"      % & * = - ; > $                           ",
"    , ' = ) ! ~ { ] ^ /                         ",
"    ( _ ) : < [ } ~ | &                         ",
"  1 ' 2 3 < 4 5 6 7 8 9 ] 0 0 0 a a b c d e f g ",
"  h i ] j k l m 4 < { n o p q r s t u v w x y z ",
"  A B | 3 < C D E F a * E G H o 5 I J K L M N O ",
"  P Q R 8 : < [ } S T i n U U U - - V W X X Y Z ",
"    + ` U 8 3 S !  .n #                         ",
"    ..@ +.@.| #.U * Q $.                        ",
"      P %.&.B i *.=.-.                          ",
"        ;.>.h -.1                               ",
"                                                ",
"                                                ",
"                                                ",
"                                                ",
"                                                "};
