/* XPM */
static char * terminal18_xpm[] = {
"18 18 74 1",
" 	c None",
".	c #4F4F4F",
"+	c #595959",
"@	c #5F5F5F",
"#	c #5D5D5D",
"$	c #515151",
"%	c #666666",
"&	c #7A7A7A",
"*	c #808080",
"=	c #7D7D7D",
"-	c #6D6D6D",
";	c #5C5C5C",
">	c #484848",
",	c #616161",
"'	c #7B7B7B",
")	c #8C8C8C",
"!	c #929292",
"~	c #919191",
"{	c #828282",
"]	c #6B6B6B",
"^	c #4C4C4C",
"/	c #6E6E6E",
"(	c #868686",
"_	c #9B9B9B",
":	c #B3B3B3",
"<	c #A3A3A3",
"[	c #8E8E8E",
"}	c #787878",
"|	c #818181",
"1	c #949494",
"2	c #939393",
"3	c #948C81",
"4	c #B4782D",
"5	c #C46E02",
"6	c #C16B01",
"7	c #B16200",
"8	c #707070",
"9	c #878787",
"0	c #A0A0A0",
"a	c #C9C9C9",
"b	c #ACACAC",
"c	c #909090",
"d	c #979797",
"e	c #B8B8B8",
"f	c #B5B5B5",
"g	c #B0B0B0",
"h	c #AEA59A",
"i	c #CD8C3A",
"j	c #DC7E07",
"k	c #D77A04",
"l	c #C56E01",
"m	c #494949",
"n	c #696969",
"o	c #9E9E9E",
"p	c #989898",
"q	c #898989",
"r	c #737373",
"s	c #767676",
"t	c #858585",
"u	c #848484",
"v	c #877F76",
"w	c #A56E29",
"x	c #B36501",
"y	c #B16301",
"z	c #A15A00",
"A	c #424242",
"B	c #575757",
"C	c #777777",
"D	c #606060",
"E	c #464646",
"F	c #585858",
"G	c #5E5E5E",
"H	c #414141",
"I	c #4D4D4D",
"                  ",
"                  ",
"                  ",
"                  ",
"                  ",
"   .+@#           ",
"  $%&*=-;         ",
" >,')!~{]         ",
" ^/(_:<[}|12~34567",
" ^890abc&defghijkl",
" mn|!opqrsttuvwxyz",
" AB8|(tCD         ",
"  EF]8/G.         ",
"   HmI^           ",
"                  ",
"                  ",
"                  ",
"                  "};
