/* XPM */
static char * tetrahedral24_xpm[] = {
"24 24 135 2",
"  	c None",
". 	c #975500",
"+ 	c #7E4600",
"@ 	c #B36400",
"# 	c #D57701",
"$ 	c #B76600",
"% 	c #703E00",
"& 	c #C06B00",
"* 	c #DE7E03",
"= 	c #BE6A00",
"- 	c #713F00",
"; 	c #C56D00",
"> 	c #E38106",
", 	c #C36F06",
"' 	c #E28919",
") 	c #BC6F0D",
"! 	c #704106",
"~ 	c #8B8985",
"{ 	c #ADADAD",
"] 	c #898989",
"^ 	c #525150",
"/ 	c #B7B7B7",
"( 	c #8B8B8B",
"_ 	c #525252",
": 	c #C1C1C1",
"< 	c #8C8C8C",
"[ 	c #535353",
"} 	c #888888",
"| 	c #C5C5C5",
"1 	c #8E8E8E",
"2 	c #545454",
"3 	c #878787",
"4 	c #C4C4C4",
"5 	c #555555",
"6 	c #767676",
"7 	c #787878",
"8 	c #6E6E6E",
"9 	c #5C5C5C",
"0 	c #484848",
"a 	c #858585",
"b 	c #909090",
"c 	c #8F8F8F",
"d 	c #868686",
"e 	c #5E5E5E",
"f 	c #404040",
"g 	c #808080",
"h 	c #969696",
"i 	c #9C9C9C",
"j 	c #9A9A9A",
"k 	c #6A6A6A",
"l 	c #4D4D4D",
"m 	c #363636",
"n 	c #B6B6B6",
"o 	c #DADADA",
"p 	c #929292",
"q 	c #818181",
"r 	c #6D6D6D",
"s 	c #373737",
"t 	c #757575",
"u 	c #7A7A7A",
"v 	c #7D7D7D",
"w 	c #A0A0A0",
"x 	c #B8B8B8",
"y 	c #7C7C7C",
"z 	c #686868",
"A 	c #4E4E4E",
"B 	c #606060",
"C 	c #727272",
"D 	c #B66B0C",
"E 	c #977B57",
"F 	c #6C6C6C",
"G 	c #717171",
"H 	c #8A8A8A",
"I 	c #A3A3A3",
"J 	c #7B7B7B",
"K 	c #707070",
"L 	c #C86F00",
"M 	c #C66E00",
"N 	c #AF6202",
"O 	c #74695B",
"P 	c #626262",
"Q 	c #4F4F4F",
"R 	c #565656",
"S 	c #B3B3B3",
"T 	c #C0C0C0",
"U 	c #A09586",
"V 	c #BF6C04",
"W 	c #AE6000",
"X 	c #9D5700",
"Y 	c #AF6100",
"Z 	c #DF8C1A",
"` 	c #BC6900",
" .	c #9A5600",
"..	c #804800",
"+.	c #544129",
"@.	c #3A3A3A",
"#.	c #353535",
"$.	c #4A4A4A",
"%.	c #5A5A5A",
"&.	c #3B3B3B",
"*.	c #3D3D3D",
"=.	c #5D5D5D",
"-.	c #B68C55",
";.	c #DB8211",
">.	c #D47C0C",
",.	c #C87104",
"'.	c #945300",
").	c #5B3300",
"!.	c #794300",
"~.	c #985400",
"{.	c #824800",
"].	c #603600",
"^.	c #4F2C00",
"/.	c #553F23",
"(.	c #393939",
"_.	c #434343",
":.	c #3E3E3E",
"<.	c #875920",
"[.	c #A95E00",
"}.	c #B66600",
"|.	c #B26403",
"1.	c #935200",
"2.	c #522E00",
"3.	c #512D00",
"4.	c #864B00",
"5.	c #5C4A34",
"6.	c #353534",
"7.	c #7C4500",
"8.	c #613600",
"9.	c #4B2A00",
"0.	c #834900",
"a.	c #663A01",
"b.	c #442D10",
"c.	c #432E12",
"d.	c #583100",
"                                                ",
"                  . +                           ",
"                @ # $ %                         ",
"                & * = -                         ",
"                ; > & -                         ",
"                , ' ) !                         ",
"                ~ { ] ^                         ",
"                ] / ( _                         ",
"                ] : < [                         ",
"                } | 1 2                         ",
"                3 4 1 5                         ",
"                6 7 8 9 0                       ",
"              a b c d 6 e f                     ",
"            g h i j c g k l m                   ",
"            ] j n o p q r _ s                   ",
"          t u v w x < y z A B C                 ",
"      D E g 7 F G H g C e 5 4 I H J K           ",
"  L M & N O e l _ u K P Q R p S T S U V W X     ",
"Y Z `  ...+.@.#.$.P %.l &.*.=.8 y } -.;.>.,.'.).",
"!.~.{.].^./.5 #.(._.:.s #.      Q %.<.[.}.|.1.2.",
"  3.^.    4.5.#.#.6.                    7.7.8.9.",
"          0.a.b.c.                              ",
"            d.9.                                ",
"                                                "};
