/* XPM */
static char *xpmdata[] =
{
/* width height ncolors chars_per_pixel */
"30 30 2 1",
/* colors */
"A c #D1D1D1",
"B c #000000",
/* pixels */
"AAAAAAAAAAAAAAAAAAAAAAAAAAAAAA",
"AAAAAAAAAAAAAAAAAAAAAAAAAAAAAA",
"AAAAAAAAAAAAABBBAAAAAAAAAAAAAA",
"AAAAAAAAAAAAABBBAAAAAAAAAAAAAA",
"AAAAAAAAAAAAABBBAAAAAAAAAAAAAA",
"AAAAAAAAAAAAABBBAAAAAAAAAAAAAA",
"AAAAAAAAAAAAABBBAAAAAAAAAAAAAA",
"AAAAAAAAAAAAABBBAAAAAAAAAAAAAA",
"AAAAAAAAAAAAABBBAAAAAAAAAAAAAA",
"AAAAAAAAAAAAABBBAAAAAAAAAAAAAA",
"AAAAAAAAAAAABBBBBAAAAAAAAAAAAA",
"AAAAAAAAAABBAABABBBAAAAAAAAAAA",
"AAAAAAAAABBAABABBABBAAAAAAAAAA",
"AAAAAAAAABAAAAAAABBBAAAAAAAAAA",
"AAAAAAAABAAABABBBBABBAAAAAAAAA",
"AAAAAAAABBABAABAAABBBABAAAAAAA",
"AAAAAAAABBABABAABBBBBABAABAAAA",
"AAAAAAAABABABABBBBBBBABAABAAAA",
"AAAAAABBBBBBABBABBABAABAABAAAA",
"AAAABBBBBBBABBABBBBBAABAABAAAA",
"AAABBBBBAABBBBBBBBBAAAAAABAAAA",
"ABBBBBBAAAAABBBBBBBAAAAAABAAAA",
"AABBBAAAAAAAAAAABBBBAAAAAAAAAA",
"AABBAAAAAAAAAAAABBBBAAAAAAAAAA",
"AAAAAAAAAAAAAAAABBBBBAAAAAAAAA",
"AAAAAAAAAAAAAAAABBBBBBAAAAAAAA",
"AAAAAAAAAAAAAAAAABBBBBAAAAAAAA",
"AAAAAAAAAAAAAAAAABBBBBBAAAAAAA",
"AAAAAAAAAAAAAAAAABBBBBBAAAAAAA",
"AAAAAAAAAAAAAAAAAAAAAAAAAAAAAA",
};
