/* XPM */
static char *noname[] = {
/* width height ncolors chars_per_pixel */
"24 24 16 1",
/* colors */
"` c #000000",
"a c #A3A3A3",
"b c #666666",
"c c #858585",
"d c #757575",
"e c #515151",
"f c #3D3D3D",
"g c #C2C2C2",
"h c #949494",
"i c #4A4A52",
"j c #666666",
"k c #6B737B",
"l c #E1E1E1",
"m c #282828",
"n c #D1D1D1",
"o c #000000",
/* pixels */
"nnnnnnnnnnnnnnnnnnnnnnnn",
"nnnnnnnnnnnnnnnnnnnnnnnn",
"nnnnnnnnnnnnnnnnnnnnnnnn",
"nnnn````````````````nnnn",
"nnnn```idce``mckbo``nnnn",
"nnnn``allna``bnllgf`nnnn",
"nnnn`jlnnnh``ennnla`nnnn",
"nnnn`hlnnnh``ennnng`nnnn",
"nnnnnnnnnnh``ennnnnnnnnn",
"nnnnnnnnnnh``ennnnnnnnnn",
"nnnnnnnnnnh``bnnnnnnnnnn",
"nnnnnnnnnnh``ennnnnnnnnn",
"nnnnnnnnnnh``ennnnnnnnnn",
"nnnnnnnnnnh``ennnnnnnnnn",
"nnnnnnnnnnh``bnnnnnnnnnn",
"nnnnnnnnnnh``ennnnnnnnnn",
"nnnnnnnnnnh``ennnnnnnnnn",
"nnnnnnnnnnh``ennnnnnnnnn",
"nnnnnnnnnnh``bnnnnnnnnnn",
"nnnnnnnnnnc``fnnnnnnnnnn",
"nnnnnnnn````````nnnnnnnn",
"nnnnnnnnhdccccdcnnnnnnnn",
"nnnnnnnnnnnnnnnnnnnnnnnn",
"nnnnnnnnnnnnnnnnnnnnnnnn"
};
