/* XPM */
static char *translate[]={
"18 18 45 1",
"a c #000000",
"l c #040404",
"m c #0d0d0d",
"g c #0e0e0e",
"I c #121212",
"b c #141414",
"F c #151515",
"s c #171717",
"f c #191919",
"v c #1c1c1c",
"k c #1f1f1f",
"M c #202020",
"L c #212121",
"w c #222222",
"K c #232323",
"A c #252525",
"r c #272727",
"E c #2e2e2e",
"# c #343434",
"c c #5e5e63",
"h c #676767",
"j c #6f6f6f",
"n c #7a7a7a",
"e c #7e7e7e",
"J c #8c8c8c",
"i c #8c9095",
"B c #919191",
"d c #929292",
"G c #939393",
"t c #969696",
"u c #a0a0a0",
"O c #a7a7a7",
"Q c #a9a9a9",
"P c #ababab",
"H c #acacac",
"N c #aeaeae",
"z c #b2b2b2",
"x c #b4b4b4",
"q c #b6b6b6",
"D c #c7c7c7",
". c #d1d1d1",
"C c #d2d2d2",
"o c #d3d3d3",
"y c #d5d5d5",
"p c #d7d7d7",
"..................",
"..................",
"...############...",
"...abcdefghijkl...",
"...mnopqrstppuv...",
"...wxy.zAbB.CDE...",
".......zAbB.......",
".......zAst.......",
".......zAFG.......",
".......zAbB.......",
".......zAst.......",
".......zAFG.......",
".......zAbB.......",
".......zAst.......",
".......HwIJ.......",
"......KkLLkM......",
"......NOPPOQ......",
".................."};
