/* XPM */
static char * trigbipyramidal48_xpm[] = {
"48 48 241 2",
"  	c None",
". 	c #723F00",
"+ 	c #6B3C00",
"@ 	c #573000",
"# 	c #4B2A00",
"$ 	c #9F5800",
"% 	c #AF6100",
"& 	c #A45C00",
"* 	c #864A00",
"= 	c #5A3200",
"- 	c #BF6A00",
"; 	c #D57B06",
"> 	c #CA7507",
", 	c #A65D00",
"' 	c #754100",
") 	c #4C2B00",
"! 	c #C36C00",
"~ 	c #C77C19",
"{ 	c #E59827",
"] 	c #B26300",
"^ 	c #7F4600",
"/ 	c #4F2C00",
"( 	c #D57700",
"_ 	c #E98507",
": 	c #DE8008",
"< 	c #B86700",
"[ 	c #8A4C00",
"} 	c #522E00",
"| 	c #E78305",
"1 	c #DB7D05",
"2 	c #E58103",
"3 	c #D97B03",
"4 	c #E48002",
"5 	c #D77902",
"6 	c #B86600",
"7 	c #CA7B19",
"8 	c #E27F02",
"9 	c #D67802",
"0 	c #B86701",
"a 	c #884D03",
"b 	c #47331B",
"c 	c #949494",
"d 	c #9E9E9E",
"e 	c #969696",
"f 	c #808080",
"g 	c #606060",
"h 	c #3A3A3A",
"i 	c #9D9D9D",
"j 	c #959595",
"k 	c #939393",
"l 	c #9C9C9C",
"m 	c #7F7F7F",
"n 	c #5F5F5F",
"o 	c #929292",
"p 	c #9B9B9B",
"q 	c #965300",
"r 	c #905000",
"s 	c #804700",
"t 	c #6C3C00",
"u 	c #7E7E7E",
"v 	c #945200",
"w 	c #AB5F00",
"x 	c #A35B00",
"y 	c #955402",
"z 	c #774D1A",
"A 	c #57462F",
"B 	c #919191",
"C 	c #9A9A9A",
"D 	c #B46400",
"E 	c #B66500",
"F 	c #B36401",
"G 	c #917046",
"H 	c #747474",
"I 	c #6B6B6B",
"J 	c #5D5D5D",
"K 	c #525252",
"L 	c #636363",
"M 	c #6F6F6F",
"N 	c #8D8D8D",
"O 	c #989898",
"P 	c #7D7D7D",
"Q 	c #424242",
"R 	c #3D3D3D",
"S 	c #9C5700",
"T 	c #B56500",
"U 	c #AE6D1B",
"V 	c #838383",
"W 	c #818181",
"X 	c #777777",
"Y 	c #6A6A6A",
"Z 	c #686868",
"` 	c #7A7A7A",
" .	c #828282",
"..	c #848484",
"+.	c #767676",
"@.	c #5E5E5E",
"#.	c #4E4E4E",
"$.	c #3B3B3B",
"%.	c #8E4F00",
"&.	c #9A5600",
"*.	c #A95E00",
"=.	c #957246",
"-.	c #858585",
";.	c #868686",
">.	c #737373",
",.	c #8B8B8B",
"'.	c #8F8F8F",
").	c #8C8C8C",
"!.	c #878787",
"~.	c #757575",
"{.	c #696969",
"].	c #5A5A5A",
"^.	c #484848",
"/.	c #373737",
"(.	c #784300",
"_.	c #884C00",
":.	c #83653E",
"<.	c #797979",
"[.	c #7C7C7C",
"}.	c #979797",
"|.	c #8E8E8E",
"1.	c #616161",
"2.	c #515151",
"3.	c #3C3C3C",
"4.	c #353535",
"5.	c #505050",
"6.	c #545454",
"7.	c #565656",
"8.	c #6F4C20",
"9.	c #7F4700",
"0.	c #814800",
"a.	c #834800",
"b.	c #834900",
"c.	c #6F4A1B",
"d.	c #626262",
"e.	c #717171",
"f.	c #8A8A8A",
"g.	c #666666",
"h.	c #494949",
"i.	c #816C50",
"j.	c #A45B00",
"k.	c #A25A00",
"l.	c #A15A00",
"m.	c #633700",
"n.	c #585858",
"o.	c #646464",
"p.	c #A3A3A3",
"q.	c #D7D7D7",
"r.	c #D3D3D3",
"s.	c #999999",
"t.	c #676767",
"u.	c #454545",
"v.	c #363636",
"w.	c #8E775B",
"x.	c #B16200",
"y.	c #B06200",
"z.	c #8B4D00",
"A.	c #4C2A00",
"B.	c #B7B7B7",
"C.	c #EAEAEA",
"D.	c #575757",
"E.	c #B36400",
"F.	c #AD6000",
"G.	c #A55C00",
"H.	c #764200",
"I.	c #727272",
"J.	c #6C6C6C",
"K.	c #7B7B7B",
"L.	c #888888",
"M.	c #656565",
"N.	c #555555",
"O.	c #434343",
"P.	c #4A4A4A",
"Q.	c #787878",
"R.	c #846F54",
"S.	c #A65C00",
"T.	c #A05900",
"U.	c #673900",
"V.	c #706960",
"W.	c #716C67",
"X.	c #595959",
"Y.	c #4F4F4F",
"Z.	c #6D6D6D",
"`.	c #3E3E3E",
" +	c #6D5C46",
".+	c #8A4D00",
"++	c #864B00",
"@+	c #844A00",
"#+	c #653900",
"$+	c #512D00",
"%+	c #A35A00",
"&+	c #95570A",
"*+	c #735A3B",
"=+	c #4D4D4D",
"-+	c #383838",
";+	c #393939",
">+	c #444444",
",+	c #4C4C4C",
"'+	c #474747",
")+	c #4C4031",
"!+	c #5F3400",
"~+	c #5C3300",
"{+	c #583100",
"]+	c #B16300",
"^+	c #A85D00",
"/+	c #9B5600",
"(+	c #8C4E00",
"_+	c #7B4500",
":+	c #4E4840",
"<+	c #404040",
"[+	c #C66E00",
"}+	c #D77800",
"|+	c #CC7200",
"1+	c #AC6000",
"2+	c #774200",
"3+	c #643800",
"4+	c #483217",
"5+	c #D37500",
"6+	c #EDA42C",
"7+	c #D88511",
"8+	c #935200",
"9+	c #5D3400",
"0+	c #4E2B00",
"a+	c #442D10",
"b+	c #C26C00",
"c+	c #CF7808",
"d+	c #BE6B02",
"e+	c #532F00",
"f+	c #3D3121",
"g+	c #985400",
"h+	c #975400",
"i+	c #4E2C00",
"j+	c #623700",
"k+	c #693A00",
"l+	c #613600",
"m+	c #502D00",
"n+	c #432E13",
"o+	c #3C3225",
"p+	c #3B3227",
"q+	c #3E301F",
"r+	c #452D0E",
"                                                                                                ",
"                                  . + @ #                                                       ",
"                                $ % & * =                                                       ",
"                                - ; > , ' )                                                     ",
"                                ! ~ { ] ^ /                                                     ",
"                                ( _ : < [ }                                                     ",
"                                ( | 1 < [ }                                                     ",
"                                ( 2 3 < [ }                                                     ",
"                                ( 4 5 6 [ }                                                     ",
"                                7 8 9 0 a b                                                     ",
"                                c d e f g h                                                     ",
"                                c i j f g h                                                     ",
"                                k i c f g h                                                     ",
"                                k l k m n h                                                     ",
"                                o p k m n h                                                     ",
"          q r s t               o p o u n h                                                     ",
"        v % w x y z A           B C o u n h                                                     ",
"        , D E F G H I J K   L M N O B P n Q R                                                   ",
"        S % T U V W u X Y Z `  ...W  .+.I @.#.$.                                                ",
"        %.&.*.=. .-.;...>.f ,.'.'.).!.m ~.{.].^./.                                              ",
"          (._.:.<.W ;.f [.N j O }.c |.;.[.M 1.2.3.4.          5.6.7.8.9.s 0.a.b.                ",
"              c.d.e.P H ;.c C i d p o f.f H g.7.Q 4.h.~.H H H H >.>.i.j.x k.k.l.(.m.            ",
"                  n.o.>.,.}.i p.q.r.s.,.W ~.t.n.u.v.d.-...V  .W f m w.D ] x.y.% z.' A.          ",
"                      ~.).f.H X B.C.l ,.W ~.t.D.u.v.o.!.-...V  .W f w.E.] y.% F.G.H.A.          ",
"                      I.[.J.t.1.].K.B L.u I.M.N.O.4.P.u P [.` <.Q.X R.S.G.x l.T.v U.#           ",
"                      V.W.{.d.X.Y.^.W V <.Z.g 5.`.4.R Z {.Z t.M.o.L  +.+_.++@+b.#+$+            ",
"                    j.%+&+*+n.=+Q -+L [.I.t.X.h.;+4.4.>+#.,+P.h.'+u.)+!+~+= {+@                 ",
"                ] ]+^+/+(+_+:+`.v.4.Y.>.{.@.5.<+4.4.                                            ",
"              [+}+|+1+z.2+3+4+4.4.4.-+1.@.K >+/.4.                                              ",
"              5+6+7+% 8+9+0+a+4.4.4.4.Q Y.O./.4.                                                ",
"            /+b+c+d+S + e+# f+4.4.4.4.4.;+v.4.                                                  ",
"              g+j.h+2+} i+      4.4.4.4.4.4.                                                    ",
"              j+k+l+m+#         4.4.4.4.4.4.                                                    ",
"                  #             4.4.4.4.4.4.                                                    ",
"                                4.4.4.4.4.4.                                                    ",
"                                4.4.4.4.4.4.                                                    ",
"                                4.4.4.4.4.4.                                                    ",
"                                4.4.4.4.4.4.                                                    ",
"                                4.4.4.4.4.4.                                                    ",
"                                n+o+p+p+q+r+                                                    ",
"                                # # # # # #                                                     ",
"                                # # # # # #                                                     ",
"                                # # # # # #                                                     ",
"                                # # # # # #                                                     ",
"                                # # # # # #                                                     ",
"                                # # # # #                                                       ",
"                                  # # #                                                         ",
"                                                                                                "};
