/* XPM */
static char * trigplanar18_xpm[] = {
"18 18 69 1",
" 	c None",
".	c #A05A02",
"+	c #985502",
"@	c #CF7B0C",
"#	c #C4740A",
"$	c #D58514",
"%	c #CA7D11",
"&	c #C3934D",
"*	c #B88A47",
"=	c #A5A4A1",
"-	c #9C9997",
";	c #A5A5A5",
">	c #9A9A9A",
",	c #A1A1A1",
"'	c #969696",
")	c #6E6E6E",
"!	c #858585",
"~	c #808080",
"{	c #666666",
"]	c #696969",
"^	c #818181",
"/	c #8F8F8F",
"(	c #8B8B8B",
"_	c #797979",
":	c #5D5D5D",
"<	c #737373",
"[	c #909090",
"}	c #B0B0B0",
"|	c #A3A3A3",
"1	c #878787",
"2	c #8D8D8D",
"3	c #ADADAD",
"4	c #A0A0A0",
"5	c #848484",
"6	c #7C7C7C",
"7	c #7B7B7B",
"8	c #888888",
"9	c #6D6D6D",
"0	c #8A8A8A",
"a	c #918E8B",
"b	c #5E5E5E",
"c	c #585858",
"d	c #6F6F6F",
"e	c #959595",
"f	c #939393",
"g	c #868481",
"h	c #BD6A01",
"i	c #D17806",
"j	c #AC9170",
"k	c #868585",
"l	c #6C6C6C",
"m	c #424242",
"n	c #414141",
"o	c #707070",
"p	c #838382",
"q	c #A28766",
"r	c #C66F03",
"s	c #B16300",
"t	c #9B5600",
"u	c #C97102",
"v	c #C16D03",
"w	c #936120",
"x	c #966221",
"y	c #BD6900",
"z	c #BF6B00",
"A	c #794400",
"B	c #8F5000",
"C	c #8B4E00",
"D	c #8E4F00",
"                  ",
"                  ",
"         .+       ",
"         @#       ",
"         $%       ",
"         &*       ",
"         =-       ",
"         ;>       ",
"         ,'       ",
"        )!~{      ",
"       ]^/(_:     ",
"       <[}|1{     ",
"       <2345{     ",
"     !>6785<906   ",
"    a;|<b]{cdefg  ",
"  hijkl  mn  opqrs",
" tuvw          xyz",
" ABC            BD"};
