/* XPM */
static char * trigplanar48_xpm[] = {
"48 48 264 2",
"  	c None",
". 	c #734000",
"+ 	c #713F00",
"@ 	c #6C3C00",
"# 	c #884C00",
"$ 	c #AA5F00",
"% 	c #B16300",
"& 	c #A35B00",
"* 	c #7B4400",
"= 	c #B36300",
"- 	c #CE7200",
"; 	c #D47702",
"> 	c #C66E00",
", 	c #A45B00",
"' 	c #864A00",
") 	c #C46D00",
"! 	c #DF7E04",
"~ 	c #F9B236",
"{ 	c #D47600",
"] 	c #B66500",
"^ 	c #724000",
"/ 	c #8B4D00",
"( 	c #E17F05",
"_ 	c #FBC043",
": 	c #D47700",
"< 	c #B86600",
"[ 	c #784300",
"} 	c #E28006",
"| 	c #FCC94D",
"1 	c #D57700",
"2 	c #794300",
"3 	c #E38106",
"4 	c #FDD056",
"5 	c #D67701",
"6 	c #B86700",
"7 	c #C76F00",
"8 	c #E38207",
"9 	c #FDD660",
"0 	c #E48308",
"a 	c #FEDC6A",
"b 	c #D77801",
"c 	c #B96700",
"d 	c #705B40",
"e 	c #A0825C",
"f 	c #BA996F",
"g 	c #F1E7C1",
"h 	c #AC8C64",
"i 	c #947855",
"j 	c #614F38",
"k 	c #616161",
"l 	c #8B8B8B",
"m 	c #A4A4A4",
"n 	c #EBEBEB",
"o 	c #979797",
"p 	c #818181",
"q 	c #555555",
"r 	c #8C8C8C",
"s 	c #A5A5A5",
"t 	c #ECECEC",
"u 	c #828282",
"v 	c #A6A6A6",
"w 	c #EDEDED",
"x 	c #A7A7A7",
"y 	c #EEEEEE",
"z 	c #5C5C5C",
"A 	c #767676",
"B 	c #848484",
"C 	c #7C7C7C",
"D 	c #6F6F6F",
"E 	c #535353",
"F 	c #525252",
"G 	c #6E6E6E",
"H 	c #757575",
"I 	c #797979",
"J 	c #717171",
"K 	c #686868",
"L 	c #595959",
"M 	c #494949",
"N 	c #7F7F7F",
"O 	c #858585",
"P 	c #878787",
"Q 	c #888888",
"R 	c #808080",
"S 	c #5E5E5E",
"T 	c #484848",
"U 	c #505050",
"V 	c #666666",
"W 	c #787878",
"X 	c #838383",
"Y 	c #8F8F8F",
"Z 	c #929292",
"` 	c #7A7A7A",
" .	c #6D6D6D",
"..	c #5A5A5A",
"+.	c #434343",
"@.	c #737373",
"#.	c #969696",
"$.	c #999999",
"%.	c #989898",
"&.	c #4E4E4E",
"*.	c #4D4D4D",
"=.	c #676767",
"-.	c #909090",
";.	c #9B9B9B",
">.	c #9E9E9E",
",.	c #404040",
"'.	c #6C6C6C",
").	c #7E7E7E",
"!.	c #8A8A8A",
"~.	c #939393",
"{.	c #A0A0A0",
"].	c #C5C5C5",
"^.	c #D3D3D3",
"/.	c #444444",
"(.	c #545454",
"_.	c #A8A8A8",
":.	c #F3F3F3",
"<.	c #FEFEFE",
"[.	c #BDBDBD",
"}.	c #727272",
"|.	c #606060",
"1.	c #454545",
"2.	c #7D7D7D",
"3.	c #919191",
"4.	c #C8C8C8",
"5.	c #D6D6D6",
"6.	c #707070",
"7.	c #8D8D8D",
"8.	c #9A9A9A",
"9.	c #7B7B7B",
"0.	c #868686",
"a.	c #656565",
"b.	c #6A6A6A",
"c.	c #A2A2A2",
"d.	c #777777",
"e.	c #626262",
"f.	c #898989",
"g.	c #9C9C9C",
"h.	c #C1C1C1",
"i.	c #E6E6E6",
"j.	c #A9A9A9",
"k.	c #5B5B5B",
"l.	c #696969",
"m.	c #5F5F5F",
"n.	c #B3B3B3",
"o.	c #949494",
"p.	c #AFAFAF",
"q.	c #DADADA",
"r.	c #8E8E8E",
"s.	c #646464",
"t.	c #4F4F4F",
"u.	c #9D5801",
"v.	c #917756",
"w.	c #C4C4C4",
"x.	c #C6C6C6",
"y.	c #A1A1A1",
"z.	c #636363",
"A.	c #515151",
"B.	c #4A4A4A",
"C.	c #3B3B3B",
"D.	c #A3A3A3",
"E.	c #959595",
"F.	c #887051",
"G.	c #915101",
"H.	c #985400",
"I.	c #AF6100",
"J.	c #C56E00",
"K.	c #C77A1A",
"L.	c #9D9A96",
"M.	c #B1B1B1",
"N.	c #424242",
"O.	c #4C4C4C",
"P.	c #464646",
"Q.	c #3E3E3E",
"R.	c #373737",
"S.	c #95928E",
"T.	c #BE7519",
"U.	c #BA6800",
"V.	c #8C4E00",
"W.	c #905000",
"X.	c #A95E00",
"Y.	c #C06B00",
"Z.	c #CE7300",
"`.	c #D87901",
" +	c #E6850B",
".+	c #D1A36A",
"++	c #363636",
"@+	c #383838",
"#+	c #747474",
"$+	c #B78B53",
"%+	c #D57701",
"&+	c #B46400",
"*+	c #9D5700",
"=+	c #844900",
"-+	c #884B00",
";+	c #B76600",
">+	c #CA7000",
",+	c #DD7D04",
"'+	c #E9890F",
")+	c #E4840C",
"!+	c #CE790D",
"~+	c #92897D",
"{+	c #4B4B4B",
"]+	c #91887D",
"^+	c #CB760C",
"/+	c #D57802",
"(+	c #D67802",
"_+	c #D17500",
":+	c #BF6A00",
"<+	c #AC6000",
"[+	c #744100",
"}+	c #764200",
"|+	c #AB5F00",
"1+	c #E18108",
"2+	c #E08109",
"3+	c #C97000",
"4+	c #BC6900",
"5+	c #98672A",
"6+	c #9B692B",
"7+	c #BD6900",
"8+	c #C86F00",
"9+	c #CF7300",
"0+	c #D37601",
"a+	c #D27501",
"b+	c #9C5700",
"c+	c #663900",
"d+	c #703E00",
"e+	c #C16C00",
"f+	c #DC7E06",
"g+	c #CA7100",
"h+	c #BE6A00",
"i+	c #AE6100",
"j+	c #784301",
"k+	c #484037",
"l+	c #4D453B",
"m+	c #7F4701",
"n+	c #B06200",
"o+	c #C46E00",
"p+	c #613600",
"q+	c #623600",
"r+	c #975400",
"s+	c #B26300",
"t+	c #7F4700",
"u+	c #6D3D00",
"v+	c #854A00",
"w+	c #A05900",
"x+	c #B36400",
"y+	c #894C00",
"z+	c #573000",
"A+	c #6E3D00",
"B+	c #925100",
"C+	c #9A5600",
"D+	c #935200",
"E+	c #874B00",
"F+	c #6A3B00",
"G+	c #723F00",
"H+	c #965300",
"I+	c #985500",
"J+	c #633700",
"K+	c #5B3300",
"L+	c #643800",
"M+	c #693A00",
"N+	c #653800",
"O+	c #583100",
"                                                                                                ",
"                                                                                                ",
"                                                                                                ",
"                                              . + @                                             ",
"                                            # $ % & *                                           ",
"                                            = - ; > ,                                           ",
"                                          ' ) ! ~ { ] ^                                         ",
"                                          / > ( _ : < [                                         ",
"                                          / > } | 1 < 2                                         ",
"                                          / > 3 4 5 6 2                                         ",
"                                          / 7 8 9 5 6 2                                         ",
"                                          / 7 0 a b c 2                                         ",
"                                          d e f g h i j                                         ",
"                                          k l m n o p q                                         ",
"                                          k r s t o u q                                         ",
"                                          k r v w o u q                                         ",
"                                          k r v w o u q                                         ",
"                                          k r x y o u q                                         ",
"                                          k r x y o u q                                         ",
"                                          k r x y o u q                                         ",
"                                          k r x y o u q                                         ",
"                                          z A B s C D E                                         ",
"                                      F k G H I I A J K L M                                     ",
"                                    E K A N O P Q O R I G S T                                   ",
"                                  U V W X l Y Z Z Y l B `  ...+.                                ",
"                                  z @.p l Z #.$.%.#.Z l u A V &.                                ",
"                                *.=.` P -.o ;.>.>.;.#.-.P C  .L ,.                              ",
"                                F '.).!.~.$.{.].^.v %.Z !.N J S /.                              ",
"                                (.G ).!.~.$._.:.<.[.%.Z !.N }.|.1.                              ",
"                                E  .2.Q 3.o >.4.5.s #.-.Q 2.6.S /.                              ",
"                                E K W B 7.~.#.8.8.#.Z r B I '...1.                              ",
"                            D u 9.|.J ).0.r -.Z Z -.r 0.2.@.a.F }.` =.                          ",
"                        b.C r #.c.d.K H ).B Q !.!.Q B 2.H b.z e.#.-.O H e.                      ",
"                    V d.f.~.g.h.i.j.k.l.@.I ).R R 2.I @.b.m.U o n.{.o.7.p D S                   ",
"                  }.O 3.%.p.q.4.;.r.a.L s.'.J @.@.J '.V z t.|.Y %._.x $.Z !.2.b.                ",
"              u.v.7.#.c.w.x.y.-.0.I z./.A.k.|.z.z.k z q B.C.V 2.Q -.$.D.>.E.Y 0.F.G.            ",
"          H.I.J.K.L.M.[.D.3.Q C '.q /.  C.N.B.&.t.O.P.Q.R.  B...6.N f.3.$.>.$.S.T.U.& V.        ",
"      W.X.Y.Z.`. +.+m ~.!.N 6.k.T           ++@+@+R.++          *.|.#+p !.3.o $+%+Z.) &+*+=+    ",
"    -+;+>+{ ,+'+)+!+~+u #+|.{+                                      U a.d.X ]+^+/+(+_+>+:+<+[+  ",
"  }+|+) `.1+2+; 3+4+5+a.U                                               q l.6+7+8+9+0+a+Z.&+b+c+",
"  d+|+e+f+; g+h+i+H.j+k+                                                  l+m+b+n+h+8+Z.o+;+b+p+",
"  q+r+< 6 Y.s+*+t+c+                                                          u+v+w+x+:+&+I.y+z+",
"    A+B+C+D+E+F+                                                                  G+V.H+I+/ J+  ",
"      K+L+L+                                                                          M+N+O+    ",
"                                                                                                ",
"                                                                                                ",
"                                                                                                ",
"                                                                                                "};
