/* XPM */
static char * trigbipyramidal18_xpm[] = {
"18 18 69 1",
" 	c None",
".	c #975604",
"+	c #653800",
"@	c #CE7808",
"#	c #7C4500",
"$	c #D17705",
"%	c #804802",
"&	c #A78861",
"*	c #66543E",
"=	c #909090",
"-	c #5A5A5A",
";	c #9C5700",
">	c #8D530A",
",	c #8C8C8C",
"'	c #8E8E8E",
")	c #595959",
"!	c #A45D04",
"~	c #967040",
"{	c #7B7876",
"]	c #727272",
"^	c #848484",
"/	c #888888",
"(	c #636363",
"_	c #484848",
":	c #7C6850",
"<	c #777777",
"[	c #8A8A8A",
"}	c #9F9F9F",
"|	c #979797",
"1	c #757575",
"2	c #535353",
"3	c #4D4D4D",
"4	c #797979",
"5	c #767676",
"6	c #7D6F5B",
"7	c #A35B00",
"8	c #995500",
"9	c #6E3D00",
"0	c #7D7A77",
"a	c #807F7F",
"b	c #919191",
"c	c #545454",
"d	c #4F4F4F",
"e	c #7C7C7C",
"f	c #7A7A7A",
"g	c #807261",
"h	c #A65C00",
"i	c #9E5800",
"j	c #6D3D00",
"k	c #9F5F0E",
"l	c #72552F",
"m	c #4A4743",
"n	c #585858",
"o	c #676767",
"p	c #494949",
"q	c #3D3D3D",
"r	c #C97507",
"s	c #A96003",
"t	c #5C3709",
"u	c #3C352D",
"v	c #3C3C3C",
"w	c #894D01",
"x	c #6D3D01",
"y	c #363533",
"z	c #353535",
"A	c #363636",
"B	c #452D0F",
"C	c #462D0C",
"D	c #4B2A00",
"                  ",
"       .+         ",
"       @#         ",
"       $%         ",
"       &*         ",
"       =-         ",
"  ;>  ,')         ",
"  !~{]^/(_        ",
"   :<[}|123456789 ",
"     0ab<cdefghij ",
"    klmnopq       ",
"   rstuvpv        ",
"   wx yzA         ",
"       zz         ",
"       zz         ",
"       BC         ",
"       DD         ",
"       DD         "};
