/* XPM */
static char *xpmdata[] =
{
/* width height ncolors chars_per_pixel */
"30 30 2 1",
/* colors */
"A c #A3A3A3",
"B c #000000",
/* pixels */
"AAAAAAAAAAAAAAAAAAAAAAAAAAAAAA",
"AAAAAAAAAAAAAAAAAAAAAAAAAAAAAA",
"AAAAAAAAAAAAABBBAAAAAAAAAAAAAA",
"AAAAAAAAAAAAABBBAAAAAAAAAAAAAA",
"AAAAAAAAAAAAABBBAAAAAAAAAAAAAA",
"AAAAAAAAAAAAABBBAAAAAAAAAAAAAA",
"AAAAAAAAAAAAABBBAAAAAAAABAAAAA",
"AAAAAAAAAAAAABBBAAAAAAAABAAAAA",
"AAAAAAAAAAAAABBBAAAAAABABAAAAA",
"AAAAAAAAAAAABBBBBAAAAABABAAAAA",
"AAAAAAAAAABBABABBBBBAABABAAAAA",
"AAAAAAAAABBAAAABAABBAABABAAAAA",
"AAAAAAAAABAAABABABBBAABAAAAAAA",
"AABBBBBBBAAABAAABBBBBAAAAAAAAA",
"AABBBBBBBBABAABBABABBAAAAAAAAA",
"AABBBBBBBABABBAABABBBAAAAAAAAA",
"AAAAAAAABBBABAABBBBBBBAAAAAAAA",
"AAAAAAAAABABBABBBBBBBBBBBAAAAA",
"AAAAAAAAABBBABBBBABBBBBBBAAAAA",
"AAAAAAAAAABBBBBBABBABBBBBAAAAA",
"AAAAAAAAAAAABBBBBAAAABBBBAAAAA",
"AAAAAAAAAAAAABBBAAAAAABBBAAAAA",
"AAAAAAAAAAAAABBBAAAAAAABBAAAAA",
"AAAAAAAAAAAAABBBAAAAAAAAAAAAAA",
"AAAAAAAAAAAAABBBAAAAAAAAAAAAAA",
"AAAAAAAAAAAAABBBAAAAAAAAAAAAAA",
"AAAAAAAAAAAAABBBAAAAAAAAAAAAAA",
"AAAAAAAAAAAAAAAAAAAAAAAAAAAAAA",
"AAAAAAAAAAAAAAAAAAAAAAAAAAAAAA",
"AAAAAAAAAAAAAAAAAAAAAAAAAAAAAA",
};
