/* XPM */
static char *xpmdata[] =
{
/* width height ncolors chars_per_pixel */
"30 30 2 1",
/* colors */
"A c #D1D1D1",
"B c #000000",
/* pixels */
"AAAAAAAAAAAAAAAAAAAAAAAAAAAAAA",
"AAAAAAAAAAAAAAAAAAAAAAAAAAAAAA",
"AAAAAAAAAAAAAAAAAAAAAAAAAAAAAA",
"AAAAAAAAAAAAAAAAAAAAAAAAAAAAAA",
"AAAAAAAAAAAAABBBAAAAAAAAAAAAAA",
"AAAAAAAAAAAAABBBAAAAAAAAAAAAAA",
"AAAAAAAAAAAAABBBAAAAAAAAAAAAAA",
"AAAAAAAAAAAAABBBAAAAAAAAAAAAAA",
"AAAAAAAAAAAAABBBAAAAAAAAAAAAAA",
"AAAAAAAAAAAAABBBAAAAAAAAAAAAAA",
"AAAAAAAAAAAAABBBAAAAAAAAAAAAAA",
"AAAAAAAAAAAABBBBBAAAAAAAAAAAAA",
"AAAAAAAAAABBAABBABBAAAAAAAAAAA",
"AAAAAAAAABBAABAABBBBAAAAAAAAAA",
"AAAAAAAAABAAAAABABABAAAAAAAAAA",
"AAAAAAAABAABAABABABBBAAAAAAAAA",
"AAAAAAAABBAAABABABBBBAAAAAAAAA",
"AAAAAAAABBABBABABBABBAAAAAAAAA",
"AAAAAAAABABABABABABBBAAAAAAAAA",
"AAAAAAABBBBBABABBBBBBBAAAAAAAA",
"AAAAAABBBBBBBBBBBBBBBBBAAAAAAA",
"AAAABBBBBBBBABBBBBBBBBBBBAAAAA",
"AABBBBBBAAAABBBBAAAAABBBBBBAAA",
"AAABBBAAAAAAAAAAAAAAAAABBBAAAA",
"AAABBAAAAAAAAAAAAAAAAAAABBAAAA",
"AAAAAAAAAAAAAAAAAAAAAAAAAAAAAA",
"AAAAAAAAAAAAAAAAAAAAAAAAAAAAAA",
"AAAAAAAAAAAAAAAAAAAAAAAAAAAAAA",
"AAAAAAAAAAAAAAAAAAAAAAAAAAAAAA",
"AAAAAAAAAAAAAAAAAAAAAAAAAAAAAA",
};
