/* XPM */
static char *download[] = {
/* columns rows colors chars-per-pixel */
"22 22 181 2",
"   c #000000",
".  c #04050A",
"X  c #0D0E14",
"o  c #0F1015",
"O  c #14151C",
"+  c #1C1C23",
"@  c #1D1E2D",
"#  c #211E28",
"$  c #21232B",
"%  c #292D36",
"&  c #2E2F38",
"*  c #30323D",
"=  c #2F3140",
"-  c #333742",
";  c #373841",
":  c #3A3E48",
">  c #424555",
",  c #47485A",
"<  c #4E505B",
"1  c #51515C",
"2  c #525462",
"3  c #565A67",
"4  c #5A5B6B",
"5  c #5A5F70",
"6  c #5F626F",
"7  c #5A6070",
"8  c #68646B",
"9  c #626475",
"0  c #6A6B7D",
"q  c #7D6960",
"w  c #666B81",
"e  c #6E6F80",
"r  c #6C7183",
"t  c #757B8E",
"y  c #787789",
"u  c #62AE66",
"i  c #7A8099",
"p  c #AE5302",
"a  c #B35D13",
"s  c #BF6704",
"d  c #BE6A04",
"f  c #B86717",
"g  c #BB6914",
"h  c #B87119",
"j  c #B77521",
"k  c #BB7223",
"l  c #BE7729",
"z  c #B4733A",
"x  c #B87130",
"c  c #BB7A3B",
"v  c #946C4A",
"b  c #9D734E",
"n  c #9F7352",
"m  c #837570",
"M  c #AC7142",
"N  c #B87E4B",
"B  c #CE7A0C",
"V  c #C17C3C",
"C  c #BE8B5E",
"Z  c #BB8E6B",
"A  c #BC9270",
"S  c #CE8C06",
"D  c #C7801B",
"F  c #C98612",
"G  c #CB8815",
"H  c #D4830A",
"J  c #D88A06",
"K  c #C1833C",
"L  c #F5A705",
"P  c #F7AE04",
"I  c #F8AD04",
"U  c #F7B504",
"Y  c #F5B904",
"T  c #FCB501",
"R  c #FFBB00",
"E  c #EDAA3A",
"W  c #C58A4B",
"Q  c #C48C5C",
"!  c #CA9047",
"~  c #CD904B",
"^  c #C7966E",
"/  c #C59E7C",
"(  c #C89F7B",
")  c #D29C63",
"_  c #D4A264",
"`  c #D7A76F",
"'  c #D8A564",
"]  c #FEC400",
"[  c #FECB00",
"{  c #FED300",
"}  c #FEDB00",
"|  c #FFDF0B",
" . c #F9C13E",
".. c #FEDE24",
"X. c #FDE100",
"o. c #FEE40A",
"O. c #FFE906",
"+. c #FBCF48",
"@. c #F1DA4B",
"#. c #FBD94A",
"$. c #F2D65B",
"%. c #F0D36F",
"&. c #F6E14A",
"*. c #F9E668",
"=. c #818499",
"-. c #838A9C",
";. c #90909F",
":. c #858DA0",
">. c #898DA2",
",. c #8F96A3",
"<. c #8C94A9",
"1. c #9090A4",
"2. c #9597A8",
"3. c #9D9DAC",
"4. c #959EB3",
"5. c #84BB90",
"6. c #97A0B4",
"7. c #9DA5B5",
"8. c #9FA8BE",
"9. c #AA9F9A",
"0. c #BE9B80",
"q. c #A09BA3",
"w. c #A1A0AD",
"e. c #A3A2B7",
"r. c #A5ADBA",
"t. c #A8A8B7",
"y. c #A9A9BC",
"u. c #A7B0BB",
"i. c #B2A7A1",
"p. c #A3ADC1",
"a. c #A5B0C5",
"s. c #ABB2C1",
"d. c #B2B2C6",
"f. c #B1B9C6",
"g. c #B2BBC9",
"h. c #B1BBD0",
"j. c #BAC2CF",
"k. c #B6C2D3",
"l. c #BBC1D3",
"z. c #BDCADB",
"x. c #BFD9CD",
"c. c #CDA683",
"v. c #C3B4A7",
"b. c #C0B2A9",
"n. c #CEBDAE",
"m. c #CCBDB3",
"M. c #C8C1BF",
"N. c #DAC6B6",
"B. c #EDD190",
"V. c #C1C1C3",
"C. c #C2C2CA",
"Z. c #CAC3C3",
"A. c #C3C6DA",
"S. c #C4C9D6",
"D. c #C1CCDD",
"F. c #CACDD9",
"G. c #CCD0DC",
"H. c #CBDEDC",
"J. c #D2D2DE",
"K. c #C2CDE3",
"L. c #C4D1E4",
"P. c #CAD3E3",
"I. c #CAD6EA",
"U. c #D1D1EB",
"Y. c #D1DAE5",
"T. c #D3DCE9",
"R. c #D9DAE7",
"E. c #D9DAEF",
"W. c #D7E0EB",
"Q. c #DAE3EE",
"!. c #DCE5F0",
"~. c #DEE8F2",
"^. c #E1E0E6",
"/. c #E0E1EF",
"(. c #E4E5F2",
"). c #E3EAF3",
"_. c #E9EFF7",
"`. c #E9EFF9",
"'. c #E9F0F8",
"]. c gray100",
"[. c None",
/* pixels */
"[.[.[.[.[.[.[.p p K B.` a p [.[.[.[.[.[.[.[.",
"[.[.@ i =.-.;.b V %...#._ M 3.2.>.w   [.[.[.",
"[.[.4 I.j.F.^ C $.| { { #.' Q m.D.L.= [.[.[.",
"[.  r I.7.v ! $.| } { { [ +.) N ^.K.> [.[.[.",
"[.  t F.b K *.o.} } { { ] ] +.! ^ A.2   [.[.",
"[.  -.A ! &.O.X.} { { [ ] R R E ~ Z 8   [.[.",
"[.  <.l @.o.X.} } { [ ] R U U I E c q   [.[.",
"[.  4.z j j h S { { { ] ] J g k k l m   [.[.",
"[.  8.C.9.i./ F [ { [ ] R H C i.m.Z.-.  [.[.",
"[.. a.z.k.Y.i.F [ [ ] ] R H / W.Y.T.<.  [.[.",
"[.X k.z.Y.L.v.G [ [ ] ] R H / Q.E.T.6.  [.[.",
"[.O k.D.~.W.v.G [ [ ] R R H / '.~.T.p.  [.[.",
"[.$ z.K.W.'.N.G ] ] R R T H c._.Q.Q.g.. [.[.",
"[.* L.z.z.H.N.h Y Y Y P L B c.T.T.Y.z.X [.[.",
"[.: L.7.k.D.j.c d d d d s f m.Q.g.f.z.+ [.[.",
"[.3 ~.W.Q.Q.Q.!.!.~.Q.).)._.).).).).Q.% [.[.",
"[.6 g.r.y.r.r.r.y.u.r.u.u.r.s.f.g.g.l.; [.[.",
"[.7 -., 2 4 0 0 r 2 1 4 4 1 ,.8.4.7.p.- [.[.",
"[.7 s.2 y 1.e.y.d.q.3.t.t.q.F.A.u 5.I.* [.[.",
"[.& P.J.J.R./.(.(./.(._._.(.(.E.x.H.A.o [.[.",
"[.  O $ + + + + + + + O + + + + # # X   [.[.",
"[.[.[.[.[.[.[.[.[.[.[.[.[.[.[.[.[.[.[.[.[.[."
};
