/* XPM */
static char * upload32_xpm[] = {
"32 32 633 2",
"  	c None",
". 	c #9C9CCA",
"+ 	c #666588",
"@ 	c #757691",
"# 	c #9495B7",
"$ 	c #B0B0D6",
"% 	c #C4C5E9",
"& 	c #DAD8FB",
"* 	c #E3E2FB",
"= 	c #C9CAED",
"- 	c #4B4A64",
"; 	c #83839A",
"> 	c #9F9FBC",
", 	c #B5B6D7",
"' 	c #C6C7EC",
") 	c #D7D9FE",
"! 	c #E1E0FF",
"~ 	c #EEE9FF",
"{ 	c #F2EFFF",
"] 	c #F1F4FD",
"^ 	c #E4F4E4",
"/ 	c #E5F7DF",
"( 	c #FEFEFF",
"_ 	c #747494",
": 	c #8E8EA0",
"< 	c #A9A9C2",
"[ 	c #C0C2DF",
"} 	c #CCCFF1",
"| 	c #D6DAFF",
"1 	c #D9DBFF",
"2 	c #DCDCFF",
"3 	c #E0DEFF",
"4 	c #DEE0FD",
"5 	c #DAE3EF",
"6 	c #C9E4C8",
"7 	c #ADE296",
"8 	c #8FDC67",
"9 	c #6AD136",
"0 	c #43C10A",
"a 	c #40BD0F",
"b 	c #D2F0CE",
"c 	c #9692B8",
"d 	c #D4D4EA",
"e 	c #DFE4FF",
"f 	c #D1DAFF",
"g 	c #CED3FF",
"h 	c #CBCFFC",
"i 	c #C7CEEE",
"j 	c #C2D1D8",
"k 	c #B4DCA9",
"l 	c #A2E476",
"m 	c #8CE948",
"n 	c #73E81B",
"o 	c #5FE203",
"p 	c #4FD900",
"q 	c #42D000",
"r 	c #3EC700",
"s 	c #38BF00",
"t 	c #23B100",
"u 	c #A1DE93",
"v 	c #B7AFD9",
"w 	c #E7E8FE",
"x 	c #CFDAFF",
"y 	c #BDC3F4",
"z 	c #AFC2BE",
"A 	c #AEE38B",
"B 	c #9EF158",
"C 	c #8EFA2D",
"D 	c #7FFF0C",
"E 	c #72FF00",
"F 	c #6AF600",
"G 	c #63EC00",
"H 	c #5CE300",
"I 	c #54DA00",
"J 	c #4CD100",
"K 	c #44C800",
"L 	c #3BC000",
"M 	c #24B000",
"N 	c #8BD476",
"O 	c #C7C1E6",
"P 	c #D1D2E9",
"Q 	c #B1B7E1",
"R 	c #B1EB7F",
"S 	c #AAFF54",
"T 	c #98FF37",
"U 	c #8BFF20",
"V 	c #7FFF0A",
"W 	c #76FC00",
"X 	c #6EF300",
"Y 	c #65EA00",
"Z 	c #5DE200",
"` 	c #54D900",
" .	c #4BD100",
"..	c #43C700",
"+.	c #25AD00",
"@.	c #6EC556",
"#.	c #CFCFE9",
"$.	c #B5B5CC",
"%.	c #D9E0FF",
"&.	c #B7BEEB",
"*.	c #A8E779",
"=.	c #A1FF47",
"-.	c #91FF2F",
";.	c #87FF19",
">.	c #7DFF05",
",.	c #73FA00",
"'.	c #6CF100",
").	c #64E900",
"!.	c #5BE000",
"~.	c #53D800",
"{.	c #4ACF00",
"].	c #42C600",
"^.	c #3ABE00",
"/.	c #22A700",
"(.	c #4EB435",
"_.	c #DADEEE",
":.	c #878699",
"<.	c #DCE1FF",
"[.	c #C1C4FE",
"}.	c #9ED580",
"|.	c #96FF2E",
"1.	c #89FF1F",
"2.	c #80FF0C",
"3.	c #78FE01",
"4.	c #71F600",
"5.	c #69EE00",
"6.	c #61E600",
"7.	c #59DE00",
"8.	c #50D500",
"9.	c #48CD00",
"0.	c #40C500",
"a.	c #33B600",
"b.	c #20A200",
"c.	c #33A616",
"d.	c #E4EDF2",
"e.	c #44425F",
"f.	c #D9DCFA",
"g.	c #CCCFFF",
"h.	c #9DC895",
"i.	c #88FF19",
"j.	c #7AFF02",
"k.	c #74FA00",
"l.	c #6DF200",
"m.	c #65EB00",
"n.	c #5DE300",
"o.	c #56DB00",
"p.	c #4ED300",
"q.	c #46CB00",
"r.	c #38BD00",
"s.	c #2AAC00",
"t.	c #20A100",
"u.	c #259E08",
"v.	c #D6EBDB",
"w.	c #5A5778",
"x.	c #C7C6E0",
"y.	c #D3D8FF",
"z.	c #A6C1B9",
"A.	c #7CFA0B",
"B.	c #79FF00",
"C.	c #6FF400",
"D.	c #68ED00",
"E.	c #59DF00",
"F.	c #3BC100",
"G.	c #2EB200",
"H.	c #28A900",
"I.	c #209F00",
"J.	c #1B9800",
"K.	c #BCE0BD",
"L.	c #7C769A",
"M.	c #9FAFD4",
"N.	c #D4DEFF",
"O.	c #B6BFDE",
"P.	c #79EE16",
"Q.	c #71FB00",
"R.	c #6EF400",
"S.	c #69EF00",
"T.	c #63E800",
"U.	c #49CF00",
"V.	c #3AC200",
"W.	c #31B700",
"X.	c #2CAF00",
"Y.	c #25A600",
"Z.	c #1E9D00",
"`.	c #0E9000",
" +	c #A2D69E",
".+	c #9992B6",
"++	c #82AECF",
"@+	c #98CCF9",
"#+	c #85C3FC",
"$+	c #94C7FA",
"%+	c #89C0F8",
"&+	c #80BAFD",
"*+	c #89B2F7",
"=+	c #75D84E",
"-+	c #6BF700",
";+	c #67ED00",
">+	c #52D900",
",+	c #42CE00",
"'+	c #39C400",
")+	c #33BB00",
"!+	c #2EB300",
"~+	c #28AB00",
"{+	c #22A200",
"]+	c #1D9A00",
"^+	c #068B00",
"/+	c #87C97E",
"(+	c #B7B0D5",
"_+	c #9FC4D3",
":+	c #BEEFFF",
"<+	c #D2F5FF",
"[+	c #D3F3FF",
"}+	c #DBF6FF",
"|+	c #EBFEFF",
"1+	c #C1ECFF",
"2+	c #94D2FE",
"3+	c #81C1FF",
"4+	c #6AB3EB",
"5+	c #5FD062",
"6+	c #61E800",
"7+	c #5CE200",
"8+	c #50D800",
"9+	c #41CD00",
"0+	c #3AC600",
"a+	c #36BF00",
"b+	c #30B700",
"c+	c #2BAF00",
"d+	c #25A700",
"e+	c #209E00",
"f+	c #199600",
"g+	c #078800",
"h+	c #67B75D",
"i+	c #C3C1DD",
"j+	c #BADCE7",
"k+	c #B7EDFF",
"l+	c #B9F0FF",
"m+	c #D3FDFF",
"n+	c #EDFFFF",
"o+	c #F0FFFF",
"p+	c #CEF9FF",
"q+	c #B4EBFF",
"r+	c #9FDDFF",
"s+	c #88CEFF",
"t+	c #77BEFF",
"u+	c #55A2FF",
"v+	c #4EB59B",
"w+	c #51D906",
"x+	c #43CF00",
"y+	c #3CC700",
"z+	c #36C100",
"A+	c #31B900",
"B+	c #2CB200",
"C+	c #27AA00",
"D+	c #21A200",
"E+	c #1B9B00",
"F+	c #169200",
"G+	c #048400",
"H+	c #44A242",
"I+	c #D1D3E7",
"J+	c #AEC8DA",
"K+	c #9CDBFF",
"L+	c #A3E0FF",
"M+	c #CEF4FF",
"N+	c #EAFCFF",
"O+	c #F7FDFF",
"P+	c #F5FFFF",
"Q+	c #D2FCFF",
"R+	c #B8EDFF",
"S+	c #A1DDFF",
"T+	c #88CDFF",
"U+	c #71BEFF",
"V+	c #59ADFF",
"W+	c #4190FF",
"X+	c #44B37E",
"Y+	c #3ECA00",
"Z+	c #37C100",
"`+	c #31BA00",
" @	c #2CB400",
".@	c #28AC00",
"+@	c #23A500",
"@@	c #1E9E00",
"#@	c #169500",
"$@	c #088A00",
"%@	c #058200",
"&@	c #8EC58B",
"*@	c #E8E6F8",
"=@	c #88C6FF",
"-@	c #8FD2FF",
";@	c #CBEEFF",
">@	c #EBF9FF",
",@	c #EFFAFF",
"'@	c #F4FBFF",
")@	c #EEFEFF",
"!@	c #D0FBFF",
"~@	c #BAECFF",
"{@	c #A3DEFF",
"]@	c #92D1FF",
"^@	c #70BDFF",
"/@	c #59AFFF",
"(@	c #4A9EFF",
"_@	c #3A8DE3",
":@	c #3DC11D",
"<@	c #32BC00",
"[@	c #2DB500",
"}@	c #28AE00",
"|@	c #24A700",
"1@	c #1CA000",
"2@	c #0F9500",
"3@	c #0C8E00",
"4@	c #359A2A",
"5@	c #ABD2AD",
"6@	c #FFFFFF",
"7@	c #BFC0DF",
"8@	c #87AECF",
"9@	c #70BEFF",
"0@	c #C8ECFF",
"a@	c #E4F8FF",
"b@	c #E5F7FF",
"c@	c #EAF9FF",
"d@	c #B1E5BE",
"e@	c #39BE32",
"f@	c #5CBD71",
"g@	c #B2DFF4",
"h@	c #B2E2FF",
"i@	c #8DCDFF",
"j@	c #68B8FF",
"k@	c #56ABFF",
"l@	c #50A6FE",
"m@	c #2F75F8",
"n@	c #39A879",
"o@	c #2DB800",
"p@	c #29AF00",
"q@	c #20A800",
"r@	c #149F00",
"s@	c #199903",
"t@	c #4FA944",
"u@	c #A9D1AF",
"v@	c #F1F4FC",
"w@	c #ECE8FF",
"x@	c #A2A2CC",
"y@	c #343453",
"z@	c #71B3F6",
"A@	c #85C0FC",
"B@	c #DCF8FF",
"C@	c #DBF5FF",
"D@	c #E1F7FF",
"E@	c #BEE8DD",
"F@	c #33B646",
"G@	c #3FBD35",
"H@	c #19AB15",
"I@	c #58A191",
"J@	c #89CEFF",
"K@	c #74C0FF",
"L@	c #60B2FF",
"M@	c #51A9FF",
"N@	c #51A8FF",
"O@	c #205FE9",
"P@	c #2E85BE",
"Q@	c #28B206",
"R@	c #18A500",
"S@	c #26A20C",
"T@	c #64B35E",
"U@	c #BBD8C8",
"V@	c #F0F0FF",
"W@	c #DDD9FA",
"X@	c #9291BE",
"Y@	c #3F3F61",
"Z@	c #81BBF7",
"`@	c #D7F8FF",
" #	c #D9F5FF",
".#	c #B2E3CE",
"+#	c #2AAA33",
"@#	c #49C54A",
"##	c #C1FAC2",
"$#	c #86E486",
"%#	c #15B016",
"&#	c #398F79",
"*#	c #62AFF5",
"=#	c #5EB1FF",
"-#	c #55A6FB",
";#	c #0B41D5",
">#	c #2068D7",
",#	c #3DAE3D",
"'#	c #76BA72",
")#	c #C4D8DB",
"!#	c #E5E3FF",
"~#	c #C7C5EF",
"{#	c #7B7BA5",
"]#	c #2D2D49",
"^#	c #4F6A7D",
"/#	c #4F9AFE",
"(#	c #4A9BF3",
"_#	c #76CAFE",
":#	c #8DD4BA",
"<#	c #20A225",
"[#	c #44CA44",
"}#	c #96FC96",
"|#	c #9AFF9A",
"1#	c #9BFF9B",
"2#	c #6FE86F",
"3#	c #16AD16",
"4#	c #218262",
"5#	c #4EA0EE",
"6#	c #5EAFFE",
"7#	c #4987EA",
"8#	c #164ED7",
"9#	c #2063E0",
"0#	c #B2D0F7",
"a#	c #DCD7FE",
"b#	c #BDBDEB",
"c#	c #9395CD",
"d#	c #333355",
"e#	c #46647C",
"f#	c #428AF7",
"g#	c #3D86EA",
"h#	c #2C959C",
"i#	c #0A9512",
"j#	c #32CF32",
"k#	c #67FF67",
"l#	c #64FF64",
"m#	c #5FFF5F",
"n#	c #60FF60",
"o#	c #4FED4F",
"p#	c #14B014",
"q#	c #19804D",
"r#	c #538FDA",
"s#	c #3770E3",
"t#	c #1D56DA",
"u#	c #357CEB",
"v#	c #96AFE8",
"w#	c #B2B2DD",
"x#	c #BDC6F3",
"y#	c #9CA2DA",
"z#	c #8387B9",
"A#	c #8489B6",
"B#	c #63678E",
"C#	c #377AEF",
"D#	c #18787D",
"E#	c #039407",
"F#	c #18DB18",
"G#	c #2FFF2F",
"H#	c #2BFF2B",
"I#	c #29FF29",
"J#	c #2AFF2A",
"K#	c #2EFF2E",
"L#	c #25F525",
"M#	c #07B407",
"N#	c #198036",
"O#	c #2B5EB7",
"P#	c #4280E8",
"Q#	c #4E97F4",
"R#	c #BED3F9",
"S#	c #DFE4FE",
"T#	c #A7ADE3",
"U#	c #9DA2D5",
"V#	c #B5BFEC",
"W#	c #AFB9ED",
"X#	c #BCC6FB",
"Y#	c #9EA5DB",
"Z#	c #575A83",
"`#	c #177862",
" $	c #009200",
".$	c #01DD01",
"+$	c #06FF06",
"@$	c #03FA03",
"#$	c #03FB03",
"$$	c #03FE03",
"%$	c #03FD03",
"&$	c #03F803",
"*$	c #05FC05",
"=$	c #04F504",
"-$	c #00B400",
";$	c #017319",
">$	c #0C409A",
",$	c #5697F2",
"'$	c #E0ECFF",
")$	c #E1E6FF",
"!$	c #CDD6FF",
"~$	c #979DD8",
"{$	c #9297CC",
"]$	c #ACB4E0",
"^$	c #A4ACDD",
"/$	c #C0CBF9",
"($	c #D1DEFF",
"_$	c #C3CEFF",
":$	c #686AAD",
"<$	c #0A7B1C",
"[$	c #006F17",
"}$	c #0A7F1B",
"|$	c #15851F",
"1$	c #107F16",
"2$	c #00A400",
"3$	c #00EF00",
"4$	c #00F500",
"5$	c #00F800",
"6$	c #00E100",
"7$	c #008F00",
"8$	c #0A7D12",
"9$	c #158321",
"0$	c #0C7E1C",
"a$	c #017511",
"b$	c #014F51",
"c$	c #7DADE5",
"d$	c #E7EBFE",
"e$	c #B6BAE6",
"f$	c #8E91C9",
"g$	c #9194C9",
"h$	c #AAB1DE",
"i$	c #B4BDE8",
"j$	c #C2CDFB",
"k$	c #BDC6FD",
"l$	c #7891B4",
"m$	c #555692",
"n$	c #3D667E",
"o$	c #2053B5",
"p$	c #668FBA",
"q$	c #94BBCC",
"r$	c #79A19B",
"s$	c #038804",
"t$	c #00D600",
"u$	c #00EE00",
"v$	c #00EA00",
"w$	c #00EB00",
"x$	c #00A800",
"y$	c #18721E",
"z$	c #588892",
"A$	c #6893C0",
"B$	c #5E8CBB",
"C$	c #4179C4",
"D$	c #859DD0",
"E$	c #9F9DCA",
"F$	c #9B9ECF",
"G$	c #B6BCE3",
"H$	c #C8CFF4",
"I$	c #CAD4FB",
"J$	c #BFC7FB",
"K$	c #9198D6",
"L$	c #2A6148",
"M$	c #007301",
"N$	c #548EE0",
"O$	c #709EEF",
"P$	c #BEE7FE",
"Q$	c #B9DBE6",
"R$	c #2F8836",
"S$	c #00B300",
"T$	c #00E500",
"U$	c #00DF00",
"V$	c #00E200",
"W$	c #00DC00",
"X$	c #009D00",
"Y$	c #1A7025",
"Z$	c #729FB1",
"`$	c #7DB6EE",
" %	c #92C7FF",
".%	c #D3D6F2",
"+%	c #CFD4F3",
"@%	c #E0E7FF",
"#%	c #DEE5FF",
"$%	c #C6CDFB",
"%%	c #8F96CD",
"&%	c #3F5768",
"*%	c #045D08",
"=%	c #007200",
"-%	c #005400",
";%	c #8BC7FA",
">%	c #C2EBFF",
",%	c #D0F2FF",
"'%	c #80AC90",
")%	c #027E02",
"!%	c #00CB00",
"~%	c #00D800",
"{%	c #00D400",
"]%	c #00D700",
"^%	c #027903",
"/%	c #267A4C",
"(%	c #86A29C",
"_%	c #AFB9B9",
":%	c #BCD1CF",
"<%	c #9DB7C0",
"[%	c #698794",
"}%	c #275741",
"|%	c #035A06",
"1%	c #007700",
"2%	c #006B00",
"3%	c #005800",
"4%	c #86C2F2",
"5%	c #CAF5FF",
"6%	c #ADCAE7",
"7%	c #3A7F45",
"8%	c #008800",
"9%	c #00C800",
"0%	c #00CF00",
"a%	c #00D100",
"b%	c #00BF00",
"c%	c #00A200",
"d%	c #008B00",
"e%	c #027F03",
"f%	c #0F7215",
"g%	c #047007",
"h%	c #008400",
"i%	c #009400",
"j%	c #009800",
"k%	c #007900",
"l%	c #005500",
"m%	c #4477AB",
"n%	c #3D7BE2",
"o%	c #2A61C8",
"p%	c #105D37",
"q%	c #007D00",
"r%	c #00B000",
"s%	c #00C400",
"t%	c #00C600",
"u%	c #00C300",
"v%	c #00C900",
"w%	c #00C200",
"x%	c #00BD00",
"y%	c #00B800",
"z%	c #009A00",
"A%	c #003C00",
"B%	c #1A4065",
"C%	c #0A4423",
"D%	c #016203",
"E%	c #009F00",
"F%	c #00AC00",
"G%	c #00B200",
"H%	c #00AD00",
"I%	c #006E00",
"J%	c #004400",
"K%	c #005300",
"L%	c #006200",
"M%	c #006600",
"N%	c #006700",
"O%	c #006100",
"P%	c #003800",
"                                                    . +         ",
"                                          @ # $ % & * = -       ",
"                                ; > , ' ) ! ~ { ] ^ / ( _       ",
"                      : < [ } | 1 2 3 4 5 6 7 8 9 0 a b c       ",
"                    d e f g h i j k l m n o p q r s t u v       ",
"                    w x y z A B C D E F G H I J K L M N O       ",
"                    P f Q R S T U V W X Y Z `  ...L +.@.#.      ",
"                    $.%.&.*.=.-.;.>.,.'.).!.~.{.].^./.(._.      ",
"                    :.<.[.}.|.1.2.3.4.5.6.7.8.9.0.a.b.c.d.e.    ",
"                      f.g.h.i.2.j.k.l.m.n.o.p.q.r.s.t.u.v.w.    ",
"                      x.y.z.A.B.k.C.D.6.E.~.{.F.G.H.I.J.K.L.    ",
"                      M.N.O.P.Q.R.S.T.Z I U.V.W.X.Y.Z.`. +.+    ",
"              ++@+#+$+%+&+*+=+-+;+T.Z >+,+'+)+!+~+{+]+^+/+(+    ",
"          _+:+<+[+}+|+1+2+3+4+5+6+7+8+9+0+a+b+c+d+e+f+g+h+i+    ",
"        j+k+l+m+n+o+p+q+r+s+t+u+v+w+x+y+z+A+B+C+D+E+F+G+H+I+    ",
"      J+K+L+M+N+O+P+Q+R+S+T+U+V+W+X+Y+Z+`+ @.@+@@@#@$@%@&@*@    ",
"      =@-@;@>@,@'@)@!@~@{@]@^@/@(@_@:@<@[@}@|@1@2@3@4@5@6@7@    ",
"    8@9@0@a@b@c@d@e@f@g@h@i@j@k@l@m@n@o@p@q@r@s@t@u@v@w@x@y@    ",
"    z@A@B@C@D@E@F@G@H@I@J@K@L@M@N@O@P@Q@R@S@T@U@V@W@X@Y@        ",
"    u+Z@`@ #.#+#@###$#%#&#*#=#/@-#;#>#,#'#)#!#~#{#]#            ",
"  ^#/#(#_#:#<#[#}#|#1#2#3#4#5#6#7#8#9#0#a#b#c#d#                ",
"  e#f#g#h#i#j#k#l#m#n#k#o#p#q#r#s#t#u#v#w#x#y#z#A#B#            ",
"    C#D#E#F#G#H#I#J#I#J#K#L#M#N#O#P#Q#R#S#N.T#U#V#W#X#Y#Z#      ",
"    `# $.$+$@$#$$$%$%$#$&$*$=$-$;$>$,$'$)$!$~${$]$^$/$($_$:$    ",
"    <$[$}$|$1$2$3$4$5$6$7$8$9$0$a$b$c$d$e$f$g$h$i$j$k$l$m$      ",
"    n$o$p$q$r$s$t$u$v$w$x$y$z$A$B$C$D$E$F$G$H$I$J$K$L$M$        ",
"      N$O$P$Q$R$S$T$U$V$W$X$Y$Z$`$ %.%+%@%#%$%%%&%*%=%-%        ",
"        ;%>%,%'%)%!%~%{%~%]%2$^%/%(%_%:%<%[%}%|%1%2%3%          ",
"          4%5%6%7%8%9%0%!%!%a%b%c%d%e%f%g%h%i%j%k%l%            ",
"            m%n%o%p%q%r%s%t%u%t%v%w%b%b%x%y%z%2%A%              ",
"                  B%C%D%8%E%F%G%G%-$H%c%d%I%J%                  ",
"                        A%K%L%M%M%N%O%K%P%                      "};
