/* XPM */
static char * user_open_xpm[] = {
"16 16 133 2",
"  	c None",
". 	c #598AC4",
"+ 	c #7CAADE",
"@ 	c #98BDE7",
"# 	c #80ABDC",
"$ 	c #5C84B5",
"% 	c #6196D2",
"& 	c #C0DCF8",
"* 	c #DCEFFF",
"= 	c #DFF0FF",
"- 	c #C6E2FB",
"; 	c #74A1D4",
"> 	c #336AAD",
", 	c #8ABEF4",
"' 	c #ACD3FB",
") 	c #ACD4FC",
"! 	c #ADD4FC",
"~ 	c #ACD4FB",
"{ 	c #ABD3FB",
"] 	c #9CCAFA",
"^ 	c #3473BB",
"/ 	c #2F76C2",
"( 	c #72B5F6",
"_ 	c #88C1F7",
": 	c #8EC6F9",
"< 	c #90C8F9",
"[ 	c #79B8F6",
"} 	c #3E86D2",
"| 	c #357EC8",
"1 	c #69B3F6",
"2 	c #7DBFF8",
"3 	c #86C7FA",
"4 	c #8AC9FA",
"5 	c #87C6FA",
"6 	c #7DC0F8",
"7 	c #6CB3F5",
"8 	c #478DD5",
"9 	c #3976B1",
"0 	c #7BC1F9",
"a 	c #91D0FC",
"b 	c #9DD9FE",
"c 	c #A3DDFF",
"d 	c #9ED9FE",
"e 	c #91CFFC",
"f 	c #80C4FA",
"g 	c #4E8BC9",
"h 	c #72AEDC",
"i 	c #B0E4FE",
"j 	c #BFF0FF",
"k 	c #C5F4FF",
"l 	c #BFEFFF",
"m 	c #B1E5FF",
"n 	c #86C0EC",
"o 	c #2F5A88",
"p 	c #2360A4",
"q 	c #8CC4F2",
"r 	c #CAF0FF",
"s 	c #E1FCFF",
"t 	c #CEF4FF",
"u 	c #A1D4FD",
"v 	c #3F76B3",
"w 	c #589CE1",
"x 	c #ABD2FB",
"y 	c #A4CDF8",
"z 	c #A1CCF9",
"A 	c #A5CEFA",
"B 	c #B2D6FB",
"C 	c #73B0F1",
"D 	c #4185CB",
"E 	c #8DC6FA",
"F 	c #AAD5FC",
"G 	c #ABD7FD",
"H 	c #AAD6FD",
"I 	c #A9D5FC",
"J 	c #9BCDFB",
"K 	c #5496DB",
"L 	c #6BB3F6",
"M 	c #85C4F9",
"N 	c #8ECAFA",
"O 	c #91CCFB",
"P 	c #90CCFB",
"Q 	c #8DC9FA",
"R 	c #87C4F9",
"S 	c #6DB5F6",
"T 	c #3F78B4",
"U 	c #4F93D5",
"V 	c #80C5FC",
"W 	c #87C8FB",
"X 	c #93D1FD",
"Y 	c #99D5FE",
"Z 	c #9BD6FE",
"` 	c #98D5FE",
" .	c #92D0FD",
"..	c #88C9FB",
"+.	c #7DC2FB",
"@.	c #5F9FDE",
"#.	c #6FB2EC",
"$.	c #8ACBFC",
"%.	c #97D4FE",
"&.	c #A4DDFF",
"*.	c #ACE4FF",
"=.	c #AFE5FF",
"-.	c #ABE3FF",
";.	c #88CAFC",
">.	c #77BBF8",
",.	c #89C5EF",
"'.	c #9FD9FE",
").	c #A9E2FF",
"!.	c #B7EBFF",
"~.	c #C1F3FF",
"{.	c #C6F5FF",
"].	c #C0F3FF",
"^.	c #A8E0FF",
"/.	c #9DD8FE",
"(.	c #94D2FD",
"_.	c #5D8EB9",
":.	c #94C2DE",
"<.	c #B2E0F7",
"[.	c #CDF6FF",
"}.	c #DEFDFF",
"|.	c #E4FEFF",
"1.	c #DCFDFF",
"2.	c #CEF7FF",
"3.	c #BCE9FE",
"4.	c #9ECCEA",
"5.	c #719FC8",
"6.	c #516E89",
"7.	c #627E94",
"8.	c #738A9F",
"9.	c #7C8FA4",
"0.	c #788FA4",
"a.	c #6D889C",
"b.	c #5F7A91",
"          . + @ # $             ",
"        % & * = * - ;           ",
"      > , ' ) ! ~ { ] ^         ",
"      / ( _ : < : _ [ }         ",
"      | 1 2 3 4 5 6 7 8         ",
"      9 0 a b c d e f g         ",
"        h i j k l m n o         ",
"        p q r s t u v           ",
"        w x y z A B C           ",
"      D E F G H H I J K         ",
"      L M N O P P Q R S T       ",
"    U V W X Y Z `  ...+.@.      ",
"    #.$.%.&.*.=.-.c %.;.>.      ",
"    ,.'.).!.~.{.].!.^./.(.      ",
"    _.:.<.[.}.|.1.2.3.4.5.      ",
"        6.7.8.9.0.a.b.          "};
