/* XPM */
static char * users_xpm[] = {
"16 16 165 2",
"  	c None",
". 	c #73B86E",
"+ 	c #7BBA76",
"@ 	c #639B61",
"# 	c #398E36",
"$ 	c #A2DCA0",
"% 	c #C2EEC2",
"& 	c #C4EFC5",
"* 	c #B6EAB6",
"= 	c #6CB56A",
"- 	c #36AA34",
"; 	c #71CF6C",
"> 	c #71CF67",
", 	c #72CF66",
"' 	c #71CF69",
") 	c #55C553",
"! 	c #0A6E0A",
"~ 	c #87B2DE",
"{ 	c #9FC1E5",
"] 	c #96B8DC",
"^ 	c #4E8C81",
"/ 	c #129F12",
"( 	c #33BD12",
"_ 	c #41C611",
": 	c #43C811",
"< 	c #39C112",
"[ 	c #1DB409",
"} 	c #058600",
"| 	c #82AFDF",
"1 	c #D1EAFF",
"2 	c #D5ECFF",
"3 	c #D4EBFF",
"4 	c #B3D5F1",
"5 	c #3DA07A",
"6 	c #34C600",
"7 	c #4BD400",
"8 	c #4FD700",
"9 	c #3FCC00",
"0 	c #28C200",
"a 	c #0F7A00",
"b 	c #3477C3",
"c 	c #87BFF8",
"d 	c #9DCDFA",
"e 	c #9FCEFB",
"f 	c #9ECEFA",
"g 	c #99CAFB",
"h 	c #5DA2EA",
"i 	c #53C42F",
"j 	c #7BF007",
"k 	c #7FF308",
"l 	c #6AE407",
"m 	c #3EB203",
"n 	c #3F82C8",
"o 	c #6FB5F7",
"p 	c #86C5FA",
"q 	c #8CCAFB",
"r 	c #8AC8FB",
"s 	c #7DBFF8",
"t 	c #5CA6F7",
"u 	c #64B876",
"v 	c #94E943",
"w 	c #98EC42",
"x 	c #81DB48",
"y 	c #379320",
"z 	c #4483C3",
"A 	c #80C3F8",
"B 	c #97D5FE",
"C 	c #A2DCFE",
"D 	c #9ED9FE",
"E 	c #8DCDFD",
"F 	c #6CB1F4",
"G 	c #6FC380",
"H 	c #85DA6A",
"I 	c #82D869",
"J 	c #84D872",
"K 	c #5DC74B",
"L 	c #147A08",
"M 	c #75AFDF",
"N 	c #BDEEFF",
"O 	c #CCF8FF",
"P 	c #C6F4FF",
"Q 	c #A3DAF8",
"R 	c #54B38C",
"S 	c #47C916",
"T 	c #4ECD18",
"U 	c #4DCD16",
"V 	c #4CCA19",
"W 	c #41C419",
"X 	c #1EAC02",
"Y 	c #4B87C8",
"Z 	c #B2DCFD",
"` 	c #C7E8FE",
" .	c #C1E6FF",
"..	c #92C5EE",
"+.	c #3CAB60",
"@.	c #43D100",
"#.	c #4CD500",
"$.	c #4DD600",
"%.	c #47D100",
"&.	c #38C700",
"*.	c #27B900",
"=.	c #1F8500",
"-.	c #397BC0",
";.	c #8AC2F5",
">.	c #B0D8FE",
",.	c #AED8FF",
"'.	c #A9D4FD",
").	c #6AADE1",
"!.	c #52CA2A",
"~.	c #6AE900",
"{.	c #6CEA00",
"].	c #5FE200",
"^.	c #4CD501",
"/.	c #3AC803",
"(.	c #319E02",
"_.	c #60A4E2",
":.	c #89C8FB",
"<.	c #92CDFC",
"[.	c #93CFFE",
"}.	c #93CEFD",
"|.	c #8ECAFB",
"1.	c #7EBEFC",
"2.	c #64BB9E",
"3.	c #8EF41C",
"4.	c #98FB17",
"5.	c #88F418",
"6.	c #76E718",
"7.	c #63CE1C",
"8.	c #3C8C0D",
"9.	c #79BFFA",
"0.	c #99D6FF",
"a.	c #9DD9FF",
"b.	c #9CD8FF",
"c.	c #93D1FE",
"d.	c #85C7FC",
"e.	c #70B6D9",
"f.	c #73B048",
"g.	c #79B222",
"h.	c #6CAA22",
"i.	c #58961B",
"j.	c #3F7411",
"k.	c #518EC5",
"l.	c #96D4FF",
"m.	c #A3DDFF",
"n.	c #B4EAFF",
"o.	c #BAEEFF",
"p.	c #B8ECFF",
"q.	c #ABE3FF",
"r.	c #9AD6FF",
"s.	c #83C0ED",
"t.	c #4D7FAC",
"u.	c #95C7E7",
"v.	c #B8E7FD",
"w.	c #D2FAFF",
"x.	c #DDFDFF",
"y.	c #D8FCFF",
"z.	c #C7F4FF",
"A.	c #B1E2FE",
"B.	c #80B0D2",
"C.	c #5C7891",
"D.	c #738C9E",
"E.	c #8195A5",
"F.	c #7F96A6",
"G.	c #708B9D",
"H.	c #5D7991",
"                  . + @         ",
"              # $ % & * =       ",
"              - ; > , ' ) !     ",
"      ~ { ] ^ / ( _ : < [ }     ",
"    | 1 2 3 4 5 6 7 8 9 0 a     ",
"  b c d e f g h i j k l m       ",
"  n o p q r s t u v w x y       ",
"  z A B C D E F G H I J K L     ",
"    M N O P Q R S T U V W X     ",
"    Y Z `  ...+.@.#.$.%.&.*.=.  ",
"  -.;.>.,.,.'.).!.~.{.].^./.(.  ",
"  _.:.<.[.}.|.1.2.3.4.5.6.7.8.  ",
"  9.E 0.a.b.c.d.e.f.g.h.i.j.    ",
"k.l.m.n.o.p.q.r.s.              ",
"t.u.v.w.x.y.z.A.B.              ",
"    C.D.E.F.G.H.                "};
