/* XPM */
static char *vcamera[]={
"18 18 17 1",
"o c #0e0e0e",
"e c #1c1c1c",
"f c #2b2b2b",
"j c #393939",
"g c #555555",
"m c #646464",
"k c #727272",
"d c #8e8e8e",
"b c #8f8f8f",
"h c #ababab",
"n c #b9b9b9",
"c c #bababa",
"l c #c8c8c8",
"i c #d6d6d6",
"a c #e5e5e5",
"# c #ececec",
". c #f4f4f4",
"..................",
"##################",
"aaaaaaabcaaaaaaaaa",
"aaaaaadefghiaaaaaa",
"aaaaaajkhlkkdaaaaa",
"aaaaamnkhaandjcaaa",
"aaaalgakhaaaalfjaa",
"aaaakhakhaaalkkjaa",
"aaackiakhaaaglajaa",
"aaadbaakhikjaaajaa",
"aaajaalkkkhaaaajaa",
"aamnaagljdjcaaajaa",
"aajjkfhkcaamghijaa",
"aajlkkehaaaalkkjaa",
"aajglajaaaaajjonaa",
"aamjkhfhhjjjaaaaaa",
"aaaahkkkkaaaaaaaaa",
"aaaaaaaaaaaaaaaaaa"};
