/* XPM */
static char *vcamera[]={
"18 18 90 2",
".A c #000000",
".3 c #151515",
".b c #171717",
".4 c #181818",
".S c #191919",
"#v c #1a1a1a",
".f c #1b1b1b",
"#u c #1e1e1e",
"#g c #1f1f1f",
".J c #242424",
".l c #2a2a2a",
"#b c #2b2b2b",
"#t c #303030",
"#c c #313131",
".V c #333333",
".H c #3d3d3d",
".K c #3e3e3e",
".o c #404040",
".u c #464646",
".8 c #474747",
".h c #4f4f4f",
".O c #535353",
".W c #595959",
".n c #5a5a5a",
"#k c #5e5e5e",
".N c #606060",
"#p c #626262",
"#l c #636363",
"#e c #666666",
".I c #686868",
".U c #6b6b6b",
".G c #6d6d6d",
".v c #6e6e6e",
".Q c #707070",
".s c #717171",
".j c #757575",
"#f c #797979",
"#i c #7a7a7a",
".e c #7b7b7b",
".z c #7d7d7d",
".Z c #7e7e7e",
"## c #7f7f7f",
".c c #818181",
"#o c #838383",
"#q c #858585",
".C c #888888",
".6 c #898989",
".R c #8a8a8a",
".D c #8b8b8b",
".X c #8c8c8c",
".y c #8d8d8d",
"#a c #8e8e8e",
"#w c #909090",
".7 c #919191",
"#m c #949494",
".g c #959595",
".Y c #989898",
".r c #9d9d9d",
"#d c #9e9e9e",
".w c #9f9f9f",
".d c #a1a1a1",
".T c #a2a2a2",
".a c #a5a5a5",
".P c #a6a6a6",
".9 c #a8a8a8",
".M c #b3b3b3",
"#s c #b4b4b4",
".F c #b6b6b6",
".B c #bbbbbb",
".# c #bcbcbc",
".2 c #bebebe",
"#. c #c3c3c3",
"#r c #c5c5c5",
".m c #c7c7c7",
"#n c #cacaca",
"#h c #cdcdcd",
".L c #cecece",
".p c #d0d0d0",
".t c #d6d6d6",
".x c #d8d8d8",
".q c #d9d9d9",
".k c #dadada",
".5 c #dbdbdb",
".0 c #dcdcdc",
"#j c #dedede",
".E c #dfdfdf",
"#x c #e0e0e0",
".1 c #e2e2e2",
".i c #e3e3e3",
"Qt c #e5e5e5",
"QtQtQtQtQtQtQtQt.#QtQtQtQtQtQtQtQtQt",
"QtQtQtQtQtQtQt.a.b.c.aQtQtQtQtQtQtQt",
"QtQtQtQtQtQt.d.e.f.g.e.h.#QtQtQtQtQt",
"QtQtQtQt.i.a.j.k.lQt.k.m.n.o.p.qQtQt",
"QtQtQtQt.r.sQtQt.lQtQtQtQt.t.u.v.w.x",
"QtQtQt.y.cQtQtQt.lQtQtQtQtQtQt.z.A.B",
"QtQt.C.D.EQtQtQt.lQtQtQtQtQt.F.G.H.B",
"QtQt.I.J.K.#.LQt.lQtQtQtQt.M.N.E.O.B",
"QtQt.I.P.x.n.Q.R.SQtQtQt.T.UQtQt.O.B",
"QtQt.I.PQtQt.#.V.A.W.X.Y.Z.0QtQt.O.B",
"QtQt.I.PQt.1.y.D.2.r.3.4.d.5QtQt.O.B",
"QtQt.I.P.E.D.6QtQtQt.7.z.U.8.9#..O.B",
"QtQt.I.P###aQtQtQtQt.7.zQt.k.v.s#b.B",
"QtQt.I#c#dQtQtQtQtQt.7.zQtQtQt.z#e.x",
"QtQt#f#g.F#hQtQtQtQt.7.zQt.1.r#i#jQt",
"QtQtQtQt#k#l#m.mQtQt.7.zQt.g#fQtQtQt",
"QtQtQtQtQt#n#o.v#pQt.7.z#q.6QtQtQtQt",
"QtQtQtQtQtQtQt#r#s#t#u#v#w#xQtQtQtQt"};
