/* XPM */
static char *vcenter[]={
"18 18 123 2",
".1 c #000000",
"#x c #090909",
"#m c #111111",
"#4 c #121212",
"#R c #151515",
"#i c #161616",
"#U c #191919",
".w c #1d1d1d",
"#Z c #1f1f1f",
".S c #202020",
"#D c #232323",
".x c #252525",
"#C c #272727",
"#2 c #282828",
"#g c #292929",
".J c #2a2a2a",
"#E c #2d2d2d",
"#l c #303030",
".C c #313131",
"#L c #393939",
".V c #3f3f3f",
"#M c #404040",
"#G c #414141",
"#r c #494949",
".M c #4b4b4b",
"#q c #4f4f4f",
".2 c #505050",
".O c #525252",
"#H c #545454",
".E c #565656",
"#s c #575757",
".P c #585858",
"#1 c #595959",
"#X c #5b5b5b",
"#T c #5c5c5c",
"## c #5d5d5d",
".y c #5f5f5f",
"#W c #636363",
".X c #656565",
"#z c #676767",
".v c #686868",
".u c #696969",
"#o c #6a6a6a",
".W c #6e6e6e",
"#I c #707070",
"#b c #717171",
".4 c #727272",
"#F c #737373",
"#h c #747474",
".o c #757575",
"#w c #787878",
".s c #7a7a7a",
"#3 c #7b7b7b",
".z c #7c7c7c",
".j c #7d7d7d",
"#B c #7e7e7e",
".q c #818181",
"#S c #848484",
"#Q c #858585",
".8 c #868686",
".I c #878787",
".0 c #888888",
".R c #898989",
"#e c #8a8a8a",
".m c #8b8b8b",
"#d c #8d8d8d",
"#y c #919191",
".7 c #929292",
"#A c #939393",
"#. c #979797",
".l c #999999",
".A c #9a9a9a",
"#V c #9b9b9b",
".g c #9d9d9d",
".t c #9e9e9e",
".9 c #9f9f9f",
".p c #a2a2a2",
".B c #a3a3a3",
"#u c #a4a4a4",
".D c #a6a6a6",
".r c #a8a8a8",
".Z c #a9a9a9",
".i c #aaaaaa",
".F c #aeaeae",
".n c #afafaf",
".H c #b0b0b0",
"#0 c #b3b3b3",
"#p c #b5b5b5",
".h c #b6b6b6",
"#K c #b7b7b7",
".Q c #b8b8b8",
"#j c #bbbbbb",
"#t c #bcbcbc",
"#Y c #bdbdbd",
".T c #bebebe",
"#O c #bfbfbf",
"#a c #c1c1c1",
".N c #c2c2c2",
".3 c #c3c3c3",
".d c #c6c6c6",
".Y c #c7c7c7",
".f c #c8c8c8",
".K c #c9c9c9",
".5 c #cccccc",
".6 c #cdcdcd",
".U c #cecece",
".b c #cfcfcf",
".L c #d0d0d0",
"#c c #d1d1d1",
"#N c #d2d2d2",
".# c #d4d4d4",
"#k c #d5d5d5",
"#J c #d6d6d6",
".a c #d7d7d7",
"#n c #d9d9d9",
"#v c #dadada",
".c c #dcdcdc",
".G c #dddddd",
".k c #e1e1e1",
"#P c #e2e2e2",
".e c #e3e3e3",
"#f c #e4e4e4",
"Qt c #e5e5e5",
"QtQtQt.#.aQt.b.cQtQt.dQt.e.fQtQtQt.g",
"Qt.h.a.i.j.k.l.mQt.n.oQt.p.qQt.rQt.g",
"Qt.i.sQt.t.u.v.w.v.x.y.v.zQt.A.mQt.g",
"QtQt.B.qQt.C.D.D.D.D.D.E.F.n.z.GQt.g",
".H.I.c.q.J.K.L.M.J.J.N.L.O.P.#.Q.z.g",
"Qt.I.R.qQt.F.S.T.D.U.V.WQt.n.z.XQt.g",
".Y.j.sQtQt.z.Z.0.1.2.3.4.5Qt.A.s.i.g",
".6.7.WQtQt.8.9#..1###a#b#cQt#d#e.h.g",
"Qt#f#g#h#f.F#i#j#j#k#l.W#f.r#m.fQt.g",
"#n#o.Y.R.w#p.L#q.J.J.6#j.M#rQt#s.6.g",
"#t#u#v#w.h#x.M#y#y#y#h.1.r#z.3.6#A.g",
"QtQt#B.DQt#C.j#D.j#E#F#G#H.3#I#JQt.g",
"QtQt#KQt#F#LQt#MQt.O#N.d.J#F#O.GQt.g",
"QtQt#P#Q#R.6#S.HQt.a#TQt.6#R.7QtQt.g",
"QtQt.K#U.HQtQtQtQtQtQtQtQt#V#W.GQt.g",
"QtQt#B#XQtQt.F.LQtQt#S.FQt#Y.J#BQt.g",
"Qt#A#Z#0Qt#1#2#KQtQt#3#2#1Qt#0#Z#A.g",
".H#4.pQtQt#x.1#lQtQt#K.1#xQtQt.p.X.g"};
