/* XPM */
static char *vgohome[]={
"18 18 54 1",
"h c #000000",
"Y c #070707",
"l c #090909",
"X c #0d0d0d",
"i c #0e0e0e",
"g c #0f0f0f",
"V c #141414",
"p c #161616",
"W c #171717",
"e c #1b1b1b",
"A c #1c1c1c",
"G c #1f1f1f",
"b c #212121",
"H c #222222",
"s c #292929",
"U c #303030",
"J c #343434",
"B c #373737",
"y c #383838",
"F c #3e3e3e",
"L c #414141",
"E c #444444",
"R c #484848",
"t c #494949",
"q c #5e5e5e",
"T c #606060",
"m c #6c6c6c",
"d c #747474",
"N c #797979",
"j c #7d7d7d",
"C c #838383",
"f c #898989",
"v c #909090",
"k c #9a9a9a",
"Q c #a1a1a1",
"I c #a3a3a3",
"P c #aeaeae",
"n c #b0b0b0",
"o c #b1b1b1",
"r c #b4b4b4",
"K c #b6b6b6",
"x c #bbbbbb",
"w c #c0c0c0",
"z c #c4c4c4",
"D c #c5c5c5",
"O c #c9c9c9",
"S c #cecece",
"M c #d5d5d5",
"u c #d8d8d8",
"# c #d9d9d9",
"Z c #dcdcdc",
"c c #dddddd",
"a c #dfdfdf",
". c #e5e5e5",
".....##.aa........",
".....bbcddc.......",
".....befggfa......",
".....bhijjik......",
".....blm..mln.....",
"....opq....qpo....",
"...rstuvvw..tsr...",
"..xyhzzABC..zhyx..",
".DEFGzzHEC..zGFED.",
".IJKLzMNNK..zLKJI.",
".OP.Lz......zL.PO.",
"....Lz......zL....",
"....Lz..QRRSzL....",
"....Lz..CTUzzL....",
"....Lz..CCLzzL....",
"....Lz..CCLzzL....",
"....LVWWXXYVVL....",
"....Z########Z...."};
