/* XPM */
static char * viewed_xpm[] = {
"12 12 2 1",
/* colors */
"  c #E5E5E5",
". c #000000",
"            ",
"     ..     ",
"    ....    ",
"    ....    ",
"    ....    ",
"    ....    ",
"    ....    ",
"     ..     ",
"     ..     ",
"            ",
"     ..     ",
"     ..     "};
