/* XPM */
static char * viz_out_xpm[] = {
"13 13 3 1",
" 	c None",
".	c #F0F0F0",
"+	c #29D629",
"             ",
"  ...        ",
" .....       ",
" ....+++     ",
" ...+.+++    ",
"  ..+++++    ",
"    +++++    ",
"   ...++     ",
"  .....      ",
"  .....      ",
"  .....      ",
"   ...       ",
"             "};
