/* XPM */
static char * viz_in_xpm[] = {
"13 13 4 1",
" 	c None",
".	c #734641",
"+	c #D629D6",
"@	c #0F0F0F",
"             ",
"  ...        ",
" .....       ",
" ....+++     ",
" ...+@+++    ",
"  ..+++++    ",
"    +++++    ",
"   ...++     ",
"  .....      ",
"  .....      ",
"  .....      ",
"   ...       ",
"             "};
