/* XPM */
static char * vzoom_xpm[] = {
"23 20 3 1",
" 	c None",
".	c #E5E5E5",
"+	c #000000",
".......................",
"..........+++..........",
"..........+++..........",
"..........+++..........",
".........+++++.........",
".......++..+..++.......",
"......+....+....+......",
"......+....+....+......",
".....+.....+.....+.....",
"..++++...........++++..",
"..++++++++...++++++++..",
"..++++...........++++..",
".....+.....+.....+.....",
"......+....+....+......",
"......+....+....+......",
".......++..+..++.......",
".........+++++.........",
"..........+++..........",
"..........+++..........",
"..........+++.........."};
