/* XPM */
static char *zoom[]={
"18 18 4 1",
". c None",
"a c #000000",
"b c #21221e",
"# c #2c2d28",
"..................",
"..................",
"..................",
"...#aaaaaaaaaaa...",
"...aa.......aaa...",
"...a.......aaa....",
"..........aaa.....",
".........aaa......",
"........aaa.......",
".......aaa........",
"......aaa.........",
".....aaa..........",
"....aba.......a...",
"...aaa.......aa...",
"...aaaaaaaaaaaa...",
"..................",
"..................",
".................."};
